%TF.GenerationSoftware,KiCad,Pcbnew,(6.0.7)*%
%TF.CreationDate,2023-06-18T21:36:54-04:00*%
%TF.ProjectId,ArduinoNano_MIDI_breakout,41726475-696e-46f4-9e61-6e6f5f4d4944,rev?*%
%TF.SameCoordinates,Original*%
%TF.FileFunction,Legend,Top*%
%TF.FilePolarity,Positive*%
%FSLAX46Y46*%
G04 Gerber Fmt 4.6, Leading zero omitted, Abs format (unit mm)*
G04 Created by KiCad (PCBNEW (6.0.7)) date 2023-06-18 21:36:54*
%MOMM*%
%LPD*%
G01*
G04 APERTURE LIST*
%ADD10C,0.300000*%
%ADD11C,0.150000*%
%ADD12C,0.120000*%
%ADD13C,0.304800*%
G04 APERTURE END LIST*
D10*
X163746571Y-108366857D02*
X163032285Y-107866857D01*
X163746571Y-107509714D02*
X162246571Y-107509714D01*
X162246571Y-108081142D01*
X162318000Y-108224000D01*
X162389428Y-108295428D01*
X162532285Y-108366857D01*
X162746571Y-108366857D01*
X162889428Y-108295428D01*
X162960857Y-108224000D01*
X163032285Y-108081142D01*
X163032285Y-107509714D01*
X162246571Y-109009714D02*
X163460857Y-109009714D01*
X163603714Y-109081142D01*
X163675142Y-109152571D01*
X163746571Y-109295428D01*
X163746571Y-109581142D01*
X163675142Y-109724000D01*
X163603714Y-109795428D01*
X163460857Y-109866857D01*
X162246571Y-109866857D01*
X163746571Y-110581142D02*
X162246571Y-110581142D01*
X163746571Y-111438285D01*
X162246571Y-111438285D01*
X175938571Y-106795428D02*
X174438571Y-106795428D01*
X174438571Y-107366857D01*
X174510000Y-107509714D01*
X174581428Y-107581142D01*
X174724285Y-107652571D01*
X174938571Y-107652571D01*
X175081428Y-107581142D01*
X175152857Y-107509714D01*
X175224285Y-107366857D01*
X175224285Y-106795428D01*
X175938571Y-109152571D02*
X175224285Y-108652571D01*
X175938571Y-108295428D02*
X174438571Y-108295428D01*
X174438571Y-108866857D01*
X174510000Y-109009714D01*
X174581428Y-109081142D01*
X174724285Y-109152571D01*
X174938571Y-109152571D01*
X175081428Y-109081142D01*
X175152857Y-109009714D01*
X175224285Y-108866857D01*
X175224285Y-108295428D01*
X174438571Y-110081142D02*
X174438571Y-110366857D01*
X174510000Y-110509714D01*
X174652857Y-110652571D01*
X174938571Y-110724000D01*
X175438571Y-110724000D01*
X175724285Y-110652571D01*
X175867142Y-110509714D01*
X175938571Y-110366857D01*
X175938571Y-110081142D01*
X175867142Y-109938285D01*
X175724285Y-109795428D01*
X175438571Y-109724000D01*
X174938571Y-109724000D01*
X174652857Y-109795428D01*
X174510000Y-109938285D01*
X174438571Y-110081142D01*
X174510000Y-112152571D02*
X174438571Y-112009714D01*
X174438571Y-111795428D01*
X174510000Y-111581142D01*
X174652857Y-111438285D01*
X174795714Y-111366857D01*
X175081428Y-111295428D01*
X175295714Y-111295428D01*
X175581428Y-111366857D01*
X175724285Y-111438285D01*
X175867142Y-111581142D01*
X175938571Y-111795428D01*
X175938571Y-111938285D01*
X175867142Y-112152571D01*
X175795714Y-112224000D01*
X175295714Y-112224000D01*
X175295714Y-111938285D01*
X117064761Y-146775809D02*
X115064761Y-146775809D01*
X116493333Y-146109142D01*
X115064761Y-145442476D01*
X117064761Y-145442476D01*
X117064761Y-144490095D02*
X115064761Y-144490095D01*
X117064761Y-143537714D02*
X115064761Y-143537714D01*
X115064761Y-143061523D01*
X115160000Y-142775809D01*
X115350476Y-142585333D01*
X115540952Y-142490095D01*
X115921904Y-142394857D01*
X116207619Y-142394857D01*
X116588571Y-142490095D01*
X116779047Y-142585333D01*
X116969523Y-142775809D01*
X117064761Y-143061523D01*
X117064761Y-143537714D01*
X117064761Y-141537714D02*
X115064761Y-141537714D01*
X116017142Y-138394857D02*
X116112380Y-138109142D01*
X116207619Y-138013904D01*
X116398095Y-137918666D01*
X116683809Y-137918666D01*
X116874285Y-138013904D01*
X116969523Y-138109142D01*
X117064761Y-138299619D01*
X117064761Y-139061523D01*
X115064761Y-139061523D01*
X115064761Y-138394857D01*
X115160000Y-138204380D01*
X115255238Y-138109142D01*
X115445714Y-138013904D01*
X115636190Y-138013904D01*
X115826666Y-138109142D01*
X115921904Y-138204380D01*
X116017142Y-138394857D01*
X116017142Y-139061523D01*
X117064761Y-135918666D02*
X116112380Y-136585333D01*
X117064761Y-137061523D02*
X115064761Y-137061523D01*
X115064761Y-136299619D01*
X115160000Y-136109142D01*
X115255238Y-136013904D01*
X115445714Y-135918666D01*
X115731428Y-135918666D01*
X115921904Y-136013904D01*
X116017142Y-136109142D01*
X116112380Y-136299619D01*
X116112380Y-137061523D01*
X116017142Y-135061523D02*
X116017142Y-134394857D01*
X117064761Y-134109142D02*
X117064761Y-135061523D01*
X115064761Y-135061523D01*
X115064761Y-134109142D01*
X116493333Y-133347238D02*
X116493333Y-132394857D01*
X117064761Y-133537714D02*
X115064761Y-132871047D01*
X117064761Y-132204380D01*
X117064761Y-131537714D02*
X115064761Y-131537714D01*
X117064761Y-130394857D02*
X115921904Y-131252000D01*
X115064761Y-130394857D02*
X116207619Y-131537714D01*
X115064761Y-129156761D02*
X115064761Y-128775809D01*
X115160000Y-128585333D01*
X115350476Y-128394857D01*
X115731428Y-128299619D01*
X116398095Y-128299619D01*
X116779047Y-128394857D01*
X116969523Y-128585333D01*
X117064761Y-128775809D01*
X117064761Y-129156761D01*
X116969523Y-129347238D01*
X116779047Y-129537714D01*
X116398095Y-129632952D01*
X115731428Y-129632952D01*
X115350476Y-129537714D01*
X115160000Y-129347238D01*
X115064761Y-129156761D01*
X115064761Y-127442476D02*
X116683809Y-127442476D01*
X116874285Y-127347238D01*
X116969523Y-127252000D01*
X117064761Y-127061523D01*
X117064761Y-126680571D01*
X116969523Y-126490095D01*
X116874285Y-126394857D01*
X116683809Y-126299619D01*
X115064761Y-126299619D01*
X115064761Y-125632952D02*
X115064761Y-124490095D01*
X117064761Y-125061523D02*
X115064761Y-125061523D01*
X119237142Y-146775809D02*
X119237142Y-146109142D01*
X120284761Y-145823428D02*
X120284761Y-146775809D01*
X118284761Y-146775809D01*
X118284761Y-145823428D01*
X118951428Y-145156761D02*
X118951428Y-144109142D01*
X120284761Y-145156761D01*
X120284761Y-144109142D01*
X120189523Y-142585333D02*
X120284761Y-142775809D01*
X120284761Y-143156761D01*
X120189523Y-143347238D01*
X119999047Y-143442476D01*
X119237142Y-143442476D01*
X119046666Y-143347238D01*
X118951428Y-143156761D01*
X118951428Y-142775809D01*
X119046666Y-142585333D01*
X119237142Y-142490095D01*
X119427619Y-142490095D01*
X119618095Y-143442476D01*
X120284761Y-141632952D02*
X118951428Y-141632952D01*
X119332380Y-141632952D02*
X119141904Y-141537714D01*
X119046666Y-141442476D01*
X118951428Y-141252000D01*
X118951428Y-141061523D01*
X120284761Y-137918666D02*
X120284761Y-138871047D01*
X118284761Y-138871047D01*
X120284761Y-136966285D02*
X120189523Y-137156761D01*
X120094285Y-137252000D01*
X119903809Y-137347238D01*
X119332380Y-137347238D01*
X119141904Y-137252000D01*
X119046666Y-137156761D01*
X118951428Y-136966285D01*
X118951428Y-136680571D01*
X119046666Y-136490095D01*
X119141904Y-136394857D01*
X119332380Y-136299619D01*
X119903809Y-136299619D01*
X120094285Y-136394857D01*
X120189523Y-136490095D01*
X120284761Y-136680571D01*
X120284761Y-136966285D01*
X118951428Y-135442476D02*
X120284761Y-135442476D01*
X119141904Y-135442476D02*
X119046666Y-135347238D01*
X118951428Y-135156761D01*
X118951428Y-134871047D01*
X119046666Y-134680571D01*
X119237142Y-134585333D01*
X120284761Y-134585333D01*
X118951428Y-132775809D02*
X120570476Y-132775809D01*
X120760952Y-132871047D01*
X120856190Y-132966285D01*
X120951428Y-133156761D01*
X120951428Y-133442476D01*
X120856190Y-133632952D01*
X120189523Y-132775809D02*
X120284761Y-132966285D01*
X120284761Y-133347238D01*
X120189523Y-133537714D01*
X120094285Y-133632952D01*
X119903809Y-133728190D01*
X119332380Y-133728190D01*
X119141904Y-133632952D01*
X119046666Y-133537714D01*
X118951428Y-133347238D01*
X118951428Y-132966285D01*
X119046666Y-132775809D01*
X120284761Y-131823428D02*
X118951428Y-131823428D01*
X118284761Y-131823428D02*
X118380000Y-131918666D01*
X118475238Y-131823428D01*
X118380000Y-131728190D01*
X118284761Y-131823428D01*
X118475238Y-131823428D01*
X118951428Y-130871047D02*
X120284761Y-130871047D01*
X119141904Y-130871047D02*
X119046666Y-130775809D01*
X118951428Y-130585333D01*
X118951428Y-130299619D01*
X119046666Y-130109142D01*
X119237142Y-130013904D01*
X120284761Y-130013904D01*
X118951428Y-128204380D02*
X120284761Y-128204380D01*
X118951428Y-129061523D02*
X119999047Y-129061523D01*
X120189523Y-128966285D01*
X120284761Y-128775809D01*
X120284761Y-128490095D01*
X120189523Y-128299619D01*
X120094285Y-128204380D01*
X120189523Y-127347238D02*
X120284761Y-127156761D01*
X120284761Y-126775809D01*
X120189523Y-126585333D01*
X119999047Y-126490095D01*
X119903809Y-126490095D01*
X119713333Y-126585333D01*
X119618095Y-126775809D01*
X119618095Y-127061523D01*
X119522857Y-127252000D01*
X119332380Y-127347238D01*
X119237142Y-127347238D01*
X119046666Y-127252000D01*
X118951428Y-127061523D01*
X118951428Y-126775809D01*
X119046666Y-126585333D01*
X121504761Y-146204380D02*
X122933333Y-146204380D01*
X123219047Y-146299619D01*
X123409523Y-146490095D01*
X123504761Y-146775809D01*
X123504761Y-146966285D01*
X122171428Y-144394857D02*
X123504761Y-144394857D01*
X122171428Y-145252000D02*
X123219047Y-145252000D01*
X123409523Y-145156761D01*
X123504761Y-144966285D01*
X123504761Y-144680571D01*
X123409523Y-144490095D01*
X123314285Y-144394857D01*
X122171428Y-143442476D02*
X123504761Y-143442476D01*
X122361904Y-143442476D02*
X122266666Y-143347238D01*
X122171428Y-143156761D01*
X122171428Y-142871047D01*
X122266666Y-142680571D01*
X122457142Y-142585333D01*
X123504761Y-142585333D01*
X123409523Y-140871047D02*
X123504761Y-141061523D01*
X123504761Y-141442476D01*
X123409523Y-141632952D01*
X123219047Y-141728190D01*
X122457142Y-141728190D01*
X122266666Y-141632952D01*
X122171428Y-141442476D01*
X122171428Y-141061523D01*
X122266666Y-140871047D01*
X122457142Y-140775809D01*
X122647619Y-140775809D01*
X122838095Y-141728190D01*
X121695238Y-138490095D02*
X121600000Y-138394857D01*
X121504761Y-138204380D01*
X121504761Y-137728190D01*
X121600000Y-137537714D01*
X121695238Y-137442476D01*
X121885714Y-137347238D01*
X122076190Y-137347238D01*
X122361904Y-137442476D01*
X123504761Y-138585333D01*
X123504761Y-137347238D01*
X121504761Y-136109142D02*
X121504761Y-135918666D01*
X121600000Y-135728190D01*
X121695238Y-135632952D01*
X121885714Y-135537714D01*
X122266666Y-135442476D01*
X122742857Y-135442476D01*
X123123809Y-135537714D01*
X123314285Y-135632952D01*
X123409523Y-135728190D01*
X123504761Y-135918666D01*
X123504761Y-136109142D01*
X123409523Y-136299619D01*
X123314285Y-136394857D01*
X123123809Y-136490095D01*
X122742857Y-136585333D01*
X122266666Y-136585333D01*
X121885714Y-136490095D01*
X121695238Y-136394857D01*
X121600000Y-136299619D01*
X121504761Y-136109142D01*
X121695238Y-134680571D02*
X121600000Y-134585333D01*
X121504761Y-134394857D01*
X121504761Y-133918666D01*
X121600000Y-133728190D01*
X121695238Y-133632952D01*
X121885714Y-133537714D01*
X122076190Y-133537714D01*
X122361904Y-133632952D01*
X123504761Y-134775809D01*
X123504761Y-133537714D01*
X121504761Y-132871047D02*
X121504761Y-131632952D01*
X122266666Y-132299619D01*
X122266666Y-132013904D01*
X122361904Y-131823428D01*
X122457142Y-131728190D01*
X122647619Y-131632952D01*
X123123809Y-131632952D01*
X123314285Y-131728190D01*
X123409523Y-131823428D01*
X123504761Y-132013904D01*
X123504761Y-132585333D01*
X123409523Y-132775809D01*
X123314285Y-132871047D01*
D11*
%TO.C,U2*%
X123444095Y-88181380D02*
X123444095Y-88990904D01*
X123491714Y-89086142D01*
X123539333Y-89133761D01*
X123634571Y-89181380D01*
X123825047Y-89181380D01*
X123920285Y-89133761D01*
X123967904Y-89086142D01*
X124015523Y-88990904D01*
X124015523Y-88181380D01*
X124444095Y-88276619D02*
X124491714Y-88229000D01*
X124586952Y-88181380D01*
X124825047Y-88181380D01*
X124920285Y-88229000D01*
X124967904Y-88276619D01*
X125015523Y-88371857D01*
X125015523Y-88467095D01*
X124967904Y-88609952D01*
X124396476Y-89181380D01*
X125015523Y-89181380D01*
X122444095Y-100461380D02*
X122253619Y-100461380D01*
X122158380Y-100509000D01*
X122110761Y-100556619D01*
X122015523Y-100699476D01*
X121967904Y-100889952D01*
X121967904Y-101270904D01*
X122015523Y-101366142D01*
X122063142Y-101413761D01*
X122158380Y-101461380D01*
X122348857Y-101461380D01*
X122444095Y-101413761D01*
X122491714Y-101366142D01*
X122539333Y-101270904D01*
X122539333Y-101032809D01*
X122491714Y-100937571D01*
X122444095Y-100889952D01*
X122348857Y-100842333D01*
X122158380Y-100842333D01*
X122063142Y-100889952D01*
X122015523Y-100937571D01*
X121967904Y-101032809D01*
X122967904Y-101461380D02*
X122967904Y-100461380D01*
X123539333Y-101461380D01*
X123539333Y-100461380D01*
X124539333Y-101461380D02*
X123967904Y-101461380D01*
X124253619Y-101461380D02*
X124253619Y-100461380D01*
X124158380Y-100604238D01*
X124063142Y-100699476D01*
X123967904Y-100747095D01*
X124872666Y-100461380D02*
X125491714Y-100461380D01*
X125158380Y-100842333D01*
X125301238Y-100842333D01*
X125396476Y-100889952D01*
X125444095Y-100937571D01*
X125491714Y-101032809D01*
X125491714Y-101270904D01*
X125444095Y-101366142D01*
X125396476Y-101413761D01*
X125301238Y-101461380D01*
X125015523Y-101461380D01*
X124920285Y-101413761D01*
X124872666Y-101366142D01*
X125967904Y-101461380D02*
X126158380Y-101461380D01*
X126253619Y-101413761D01*
X126301238Y-101366142D01*
X126396476Y-101223285D01*
X126444095Y-101032809D01*
X126444095Y-100651857D01*
X126396476Y-100556619D01*
X126348857Y-100509000D01*
X126253619Y-100461380D01*
X126063142Y-100461380D01*
X125967904Y-100509000D01*
X125920285Y-100556619D01*
X125872666Y-100651857D01*
X125872666Y-100889952D01*
X125920285Y-100985190D01*
X125967904Y-101032809D01*
X126063142Y-101080428D01*
X126253619Y-101080428D01*
X126348857Y-101032809D01*
X126396476Y-100985190D01*
X126444095Y-100889952D01*
%TO.C,D1*%
X116863904Y-103957380D02*
X116863904Y-102957380D01*
X117102000Y-102957380D01*
X117244857Y-103005000D01*
X117340095Y-103100238D01*
X117387714Y-103195476D01*
X117435333Y-103385952D01*
X117435333Y-103528809D01*
X117387714Y-103719285D01*
X117340095Y-103814523D01*
X117244857Y-103909761D01*
X117102000Y-103957380D01*
X116863904Y-103957380D01*
X118387714Y-103957380D02*
X117816285Y-103957380D01*
X118102000Y-103957380D02*
X118102000Y-102957380D01*
X118006761Y-103100238D01*
X117911523Y-103195476D01*
X117816285Y-103243095D01*
X129937142Y-103957380D02*
X129365714Y-103957380D01*
X129651428Y-103957380D02*
X129651428Y-102957380D01*
X129556190Y-103100238D01*
X129460952Y-103195476D01*
X129365714Y-103243095D01*
X130365714Y-103957380D02*
X130365714Y-102957380D01*
X130937142Y-103957380D01*
X130937142Y-102957380D01*
X131841904Y-103290714D02*
X131841904Y-103957380D01*
X131603809Y-102909761D02*
X131365714Y-103624047D01*
X131984761Y-103624047D01*
X132889523Y-103957380D02*
X132318095Y-103957380D01*
X132603809Y-103957380D02*
X132603809Y-102957380D01*
X132508571Y-103100238D01*
X132413333Y-103195476D01*
X132318095Y-103243095D01*
X133746666Y-103290714D02*
X133746666Y-103957380D01*
X133508571Y-102909761D02*
X133270476Y-103624047D01*
X133889523Y-103624047D01*
X134413333Y-103385952D02*
X134318095Y-103338333D01*
X134270476Y-103290714D01*
X134222857Y-103195476D01*
X134222857Y-103147857D01*
X134270476Y-103052619D01*
X134318095Y-103005000D01*
X134413333Y-102957380D01*
X134603809Y-102957380D01*
X134699047Y-103005000D01*
X134746666Y-103052619D01*
X134794285Y-103147857D01*
X134794285Y-103195476D01*
X134746666Y-103290714D01*
X134699047Y-103338333D01*
X134603809Y-103385952D01*
X134413333Y-103385952D01*
X134318095Y-103433571D01*
X134270476Y-103481190D01*
X134222857Y-103576428D01*
X134222857Y-103766904D01*
X134270476Y-103862142D01*
X134318095Y-103909761D01*
X134413333Y-103957380D01*
X134603809Y-103957380D01*
X134699047Y-103909761D01*
X134746666Y-103862142D01*
X134794285Y-103766904D01*
X134794285Y-103576428D01*
X134746666Y-103481190D01*
X134699047Y-103433571D01*
X134603809Y-103385952D01*
%TO.C,J4*%
X126563380Y-146645190D02*
X125563380Y-146645190D01*
X125658619Y-146216619D02*
X125611000Y-146169000D01*
X125563380Y-146073761D01*
X125563380Y-145835666D01*
X125611000Y-145740428D01*
X125658619Y-145692809D01*
X125753857Y-145645190D01*
X125849095Y-145645190D01*
X125991952Y-145692809D01*
X126563380Y-146264238D01*
X126563380Y-145645190D01*
X126468142Y-144645190D02*
X126515761Y-144692809D01*
X126563380Y-144835666D01*
X126563380Y-144930904D01*
X126515761Y-145073761D01*
X126420523Y-145169000D01*
X126325285Y-145216619D01*
X126134809Y-145264238D01*
X125991952Y-145264238D01*
X125801476Y-145216619D01*
X125706238Y-145169000D01*
X125611000Y-145073761D01*
X125563380Y-144930904D01*
X125563380Y-144835666D01*
X125611000Y-144692809D01*
X125658619Y-144645190D01*
%TO.C,R10*%
X180629380Y-91701857D02*
X180153190Y-92035190D01*
X180629380Y-92273285D02*
X179629380Y-92273285D01*
X179629380Y-91892333D01*
X179677000Y-91797095D01*
X179724619Y-91749476D01*
X179819857Y-91701857D01*
X179962714Y-91701857D01*
X180057952Y-91749476D01*
X180105571Y-91797095D01*
X180153190Y-91892333D01*
X180153190Y-92273285D01*
X180629380Y-90749476D02*
X180629380Y-91320904D01*
X180629380Y-91035190D02*
X179629380Y-91035190D01*
X179772238Y-91130428D01*
X179867476Y-91225666D01*
X179915095Y-91320904D01*
X179629380Y-90130428D02*
X179629380Y-90035190D01*
X179677000Y-89939952D01*
X179724619Y-89892333D01*
X179819857Y-89844714D01*
X180010333Y-89797095D01*
X180248428Y-89797095D01*
X180438904Y-89844714D01*
X180534142Y-89892333D01*
X180581761Y-89939952D01*
X180629380Y-90035190D01*
X180629380Y-90130428D01*
X180581761Y-90225666D01*
X180534142Y-90273285D01*
X180438904Y-90320904D01*
X180248428Y-90368523D01*
X180010333Y-90368523D01*
X179819857Y-90320904D01*
X179724619Y-90273285D01*
X179677000Y-90225666D01*
X179629380Y-90130428D01*
X177354619Y-92297095D02*
X177307000Y-92249476D01*
X177259380Y-92154238D01*
X177259380Y-91916142D01*
X177307000Y-91820904D01*
X177354619Y-91773285D01*
X177449857Y-91725666D01*
X177545095Y-91725666D01*
X177687952Y-91773285D01*
X178259380Y-92344714D01*
X178259380Y-91725666D01*
X177354619Y-91344714D02*
X177307000Y-91297095D01*
X177259380Y-91201857D01*
X177259380Y-90963761D01*
X177307000Y-90868523D01*
X177354619Y-90820904D01*
X177449857Y-90773285D01*
X177545095Y-90773285D01*
X177687952Y-90820904D01*
X178259380Y-91392333D01*
X178259380Y-90773285D01*
X177259380Y-90154238D02*
X177259380Y-90059000D01*
X177307000Y-89963761D01*
X177354619Y-89916142D01*
X177449857Y-89868523D01*
X177640333Y-89820904D01*
X177878428Y-89820904D01*
X178068904Y-89868523D01*
X178164142Y-89916142D01*
X178211761Y-89963761D01*
X178259380Y-90059000D01*
X178259380Y-90154238D01*
X178211761Y-90249476D01*
X178164142Y-90297095D01*
X178068904Y-90344714D01*
X177878428Y-90392333D01*
X177640333Y-90392333D01*
X177449857Y-90344714D01*
X177354619Y-90297095D01*
X177307000Y-90249476D01*
X177259380Y-90154238D01*
%TO.C,Q1*%
X142271761Y-101254619D02*
X142176523Y-101207000D01*
X142081285Y-101111761D01*
X141938428Y-100968904D01*
X141843190Y-100921285D01*
X141747952Y-100921285D01*
X141795571Y-101159380D02*
X141700333Y-101111761D01*
X141605095Y-101016523D01*
X141557476Y-100826047D01*
X141557476Y-100492714D01*
X141605095Y-100302238D01*
X141700333Y-100207000D01*
X141795571Y-100159380D01*
X141986047Y-100159380D01*
X142081285Y-100207000D01*
X142176523Y-100302238D01*
X142224142Y-100492714D01*
X142224142Y-100826047D01*
X142176523Y-101016523D01*
X142081285Y-101111761D01*
X141986047Y-101159380D01*
X141795571Y-101159380D01*
X143176523Y-101159380D02*
X142605095Y-101159380D01*
X142890809Y-101159380D02*
X142890809Y-100159380D01*
X142795571Y-100302238D01*
X142700333Y-100397476D01*
X142605095Y-100445095D01*
X139652714Y-106604619D02*
X139700333Y-106557000D01*
X139795571Y-106509380D01*
X140033666Y-106509380D01*
X140128904Y-106557000D01*
X140176523Y-106604619D01*
X140224142Y-106699857D01*
X140224142Y-106795095D01*
X140176523Y-106937952D01*
X139605095Y-107509380D01*
X140224142Y-107509380D01*
X140652714Y-107509380D02*
X140652714Y-106509380D01*
X141224142Y-107509380D01*
X141224142Y-106509380D01*
X141605095Y-106509380D02*
X142224142Y-106509380D01*
X141890809Y-106890333D01*
X142033666Y-106890333D01*
X142128904Y-106937952D01*
X142176523Y-106985571D01*
X142224142Y-107080809D01*
X142224142Y-107318904D01*
X142176523Y-107414142D01*
X142128904Y-107461761D01*
X142033666Y-107509380D01*
X141747952Y-107509380D01*
X141652714Y-107461761D01*
X141605095Y-107414142D01*
X142700333Y-107509380D02*
X142890809Y-107509380D01*
X142986047Y-107461761D01*
X143033666Y-107414142D01*
X143128904Y-107271285D01*
X143176523Y-107080809D01*
X143176523Y-106699857D01*
X143128904Y-106604619D01*
X143081285Y-106557000D01*
X142986047Y-106509380D01*
X142795571Y-106509380D01*
X142700333Y-106557000D01*
X142652714Y-106604619D01*
X142605095Y-106699857D01*
X142605095Y-106937952D01*
X142652714Y-107033190D01*
X142700333Y-107080809D01*
X142795571Y-107128428D01*
X142986047Y-107128428D01*
X143081285Y-107080809D01*
X143128904Y-107033190D01*
X143176523Y-106937952D01*
X143795571Y-106509380D02*
X143890809Y-106509380D01*
X143986047Y-106557000D01*
X144033666Y-106604619D01*
X144081285Y-106699857D01*
X144128904Y-106890333D01*
X144128904Y-107128428D01*
X144081285Y-107318904D01*
X144033666Y-107414142D01*
X143986047Y-107461761D01*
X143890809Y-107509380D01*
X143795571Y-107509380D01*
X143700333Y-107461761D01*
X143652714Y-107414142D01*
X143605095Y-107318904D01*
X143557476Y-107128428D01*
X143557476Y-106890333D01*
X143605095Y-106699857D01*
X143652714Y-106604619D01*
X143700333Y-106557000D01*
X143795571Y-106509380D01*
X144986047Y-106842714D02*
X144986047Y-107509380D01*
X144747952Y-106461761D02*
X144509857Y-107176047D01*
X145128904Y-107176047D01*
%TO.C,R15*%
X132024380Y-89034857D02*
X131548190Y-89368190D01*
X132024380Y-89606285D02*
X131024380Y-89606285D01*
X131024380Y-89225333D01*
X131072000Y-89130095D01*
X131119619Y-89082476D01*
X131214857Y-89034857D01*
X131357714Y-89034857D01*
X131452952Y-89082476D01*
X131500571Y-89130095D01*
X131548190Y-89225333D01*
X131548190Y-89606285D01*
X132024380Y-88082476D02*
X132024380Y-88653904D01*
X132024380Y-88368190D02*
X131024380Y-88368190D01*
X131167238Y-88463428D01*
X131262476Y-88558666D01*
X131310095Y-88653904D01*
X131024380Y-87177714D02*
X131024380Y-87653904D01*
X131500571Y-87701523D01*
X131452952Y-87653904D01*
X131405333Y-87558666D01*
X131405333Y-87320571D01*
X131452952Y-87225333D01*
X131500571Y-87177714D01*
X131595809Y-87130095D01*
X131833904Y-87130095D01*
X131929142Y-87177714D01*
X131976761Y-87225333D01*
X132024380Y-87320571D01*
X132024380Y-87558666D01*
X131976761Y-87653904D01*
X131929142Y-87701523D01*
X132024380Y-85463047D02*
X132024380Y-86034476D01*
X132024380Y-85748761D02*
X131024380Y-85748761D01*
X131167238Y-85844000D01*
X131262476Y-85939238D01*
X131310095Y-86034476D01*
X132024380Y-85034476D02*
X131024380Y-85034476D01*
X131643428Y-84939238D02*
X132024380Y-84653523D01*
X131357714Y-84653523D02*
X131738666Y-85034476D01*
%TO.C,R6*%
X135961380Y-88939666D02*
X135485190Y-89273000D01*
X135961380Y-89511095D02*
X134961380Y-89511095D01*
X134961380Y-89130142D01*
X135009000Y-89034904D01*
X135056619Y-88987285D01*
X135151857Y-88939666D01*
X135294714Y-88939666D01*
X135389952Y-88987285D01*
X135437571Y-89034904D01*
X135485190Y-89130142D01*
X135485190Y-89511095D01*
X134961380Y-88082523D02*
X134961380Y-88273000D01*
X135009000Y-88368238D01*
X135056619Y-88415857D01*
X135199476Y-88511095D01*
X135389952Y-88558714D01*
X135770904Y-88558714D01*
X135866142Y-88511095D01*
X135913761Y-88463476D01*
X135961380Y-88368238D01*
X135961380Y-88177761D01*
X135913761Y-88082523D01*
X135866142Y-88034904D01*
X135770904Y-87987285D01*
X135532809Y-87987285D01*
X135437571Y-88034904D01*
X135389952Y-88082523D01*
X135342333Y-88177761D01*
X135342333Y-88368238D01*
X135389952Y-88463476D01*
X135437571Y-88511095D01*
X135532809Y-88558714D01*
X135056619Y-86455095D02*
X135009000Y-86407476D01*
X134961380Y-86312238D01*
X134961380Y-86074142D01*
X135009000Y-85978904D01*
X135056619Y-85931285D01*
X135151857Y-85883666D01*
X135247095Y-85883666D01*
X135389952Y-85931285D01*
X135961380Y-86502714D01*
X135961380Y-85883666D01*
X135056619Y-85502714D02*
X135009000Y-85455095D01*
X134961380Y-85359857D01*
X134961380Y-85121761D01*
X135009000Y-85026523D01*
X135056619Y-84978904D01*
X135151857Y-84931285D01*
X135247095Y-84931285D01*
X135389952Y-84978904D01*
X135961380Y-85550333D01*
X135961380Y-84931285D01*
X134961380Y-84312238D02*
X134961380Y-84217000D01*
X135009000Y-84121761D01*
X135056619Y-84074142D01*
X135151857Y-84026523D01*
X135342333Y-83978904D01*
X135580428Y-83978904D01*
X135770904Y-84026523D01*
X135866142Y-84074142D01*
X135913761Y-84121761D01*
X135961380Y-84217000D01*
X135961380Y-84312238D01*
X135913761Y-84407476D01*
X135866142Y-84455095D01*
X135770904Y-84502714D01*
X135580428Y-84550333D01*
X135342333Y-84550333D01*
X135151857Y-84502714D01*
X135056619Y-84455095D01*
X135009000Y-84407476D01*
X134961380Y-84312238D01*
%TO.C,R7*%
X168072333Y-88018880D02*
X167739000Y-87542690D01*
X167500904Y-88018880D02*
X167500904Y-87018880D01*
X167881857Y-87018880D01*
X167977095Y-87066500D01*
X168024714Y-87114119D01*
X168072333Y-87209357D01*
X168072333Y-87352214D01*
X168024714Y-87447452D01*
X167977095Y-87495071D01*
X167881857Y-87542690D01*
X167500904Y-87542690D01*
X168405666Y-87018880D02*
X169072333Y-87018880D01*
X168643761Y-88018880D01*
X160928714Y-86764880D02*
X161547761Y-86764880D01*
X161214428Y-87145833D01*
X161357285Y-87145833D01*
X161452523Y-87193452D01*
X161500142Y-87241071D01*
X161547761Y-87336309D01*
X161547761Y-87574404D01*
X161500142Y-87669642D01*
X161452523Y-87717261D01*
X161357285Y-87764880D01*
X161071571Y-87764880D01*
X160976333Y-87717261D01*
X160928714Y-87669642D01*
X161976333Y-87764880D02*
X161976333Y-86764880D01*
X162071571Y-87383928D02*
X162357285Y-87764880D01*
X162357285Y-87098214D02*
X161976333Y-87479166D01*
X162690619Y-86764880D02*
X163309666Y-86764880D01*
X162976333Y-87145833D01*
X163119190Y-87145833D01*
X163214428Y-87193452D01*
X163262047Y-87241071D01*
X163309666Y-87336309D01*
X163309666Y-87574404D01*
X163262047Y-87669642D01*
X163214428Y-87717261D01*
X163119190Y-87764880D01*
X162833476Y-87764880D01*
X162738238Y-87717261D01*
X162690619Y-87669642D01*
%TO.C,H4*%
X163322095Y-68534380D02*
X163322095Y-67534380D01*
X163322095Y-68010571D02*
X163893523Y-68010571D01*
X163893523Y-68534380D02*
X163893523Y-67534380D01*
X164798285Y-67867714D02*
X164798285Y-68534380D01*
X164560190Y-67486761D02*
X164322095Y-68201047D01*
X164941142Y-68201047D01*
%TO.C,R1*%
X146375380Y-88939666D02*
X145899190Y-89273000D01*
X146375380Y-89511095D02*
X145375380Y-89511095D01*
X145375380Y-89130142D01*
X145423000Y-89034904D01*
X145470619Y-88987285D01*
X145565857Y-88939666D01*
X145708714Y-88939666D01*
X145803952Y-88987285D01*
X145851571Y-89034904D01*
X145899190Y-89130142D01*
X145899190Y-89511095D01*
X146375380Y-87987285D02*
X146375380Y-88558714D01*
X146375380Y-88273000D02*
X145375380Y-88273000D01*
X145518238Y-88368238D01*
X145613476Y-88463476D01*
X145661095Y-88558714D01*
X145470619Y-86455095D02*
X145423000Y-86407476D01*
X145375380Y-86312238D01*
X145375380Y-86074142D01*
X145423000Y-85978904D01*
X145470619Y-85931285D01*
X145565857Y-85883666D01*
X145661095Y-85883666D01*
X145803952Y-85931285D01*
X146375380Y-86502714D01*
X146375380Y-85883666D01*
X145470619Y-85502714D02*
X145423000Y-85455095D01*
X145375380Y-85359857D01*
X145375380Y-85121761D01*
X145423000Y-85026523D01*
X145470619Y-84978904D01*
X145565857Y-84931285D01*
X145661095Y-84931285D01*
X145803952Y-84978904D01*
X146375380Y-85550333D01*
X146375380Y-84931285D01*
X145375380Y-84312238D02*
X145375380Y-84217000D01*
X145423000Y-84121761D01*
X145470619Y-84074142D01*
X145565857Y-84026523D01*
X145756333Y-83978904D01*
X145994428Y-83978904D01*
X146184904Y-84026523D01*
X146280142Y-84074142D01*
X146327761Y-84121761D01*
X146375380Y-84217000D01*
X146375380Y-84312238D01*
X146327761Y-84407476D01*
X146280142Y-84455095D01*
X146184904Y-84502714D01*
X145994428Y-84550333D01*
X145756333Y-84550333D01*
X145565857Y-84502714D01*
X145470619Y-84455095D01*
X145423000Y-84407476D01*
X145375380Y-84312238D01*
D10*
%TO.C,J3*%
X121416428Y-65194571D02*
X121416428Y-63694571D01*
X121916428Y-64766000D01*
X122416428Y-63694571D01*
X122416428Y-65194571D01*
X123130714Y-65194571D02*
X123130714Y-63694571D01*
X123845000Y-65194571D02*
X123845000Y-63694571D01*
X124202142Y-63694571D01*
X124416428Y-63766000D01*
X124559285Y-63908857D01*
X124630714Y-64051714D01*
X124702142Y-64337428D01*
X124702142Y-64551714D01*
X124630714Y-64837428D01*
X124559285Y-64980285D01*
X124416428Y-65123142D01*
X124202142Y-65194571D01*
X123845000Y-65194571D01*
X125345000Y-65194571D02*
X125345000Y-63694571D01*
X127202142Y-65194571D02*
X127202142Y-63694571D01*
X127916428Y-65194571D02*
X127916428Y-63694571D01*
X128773571Y-65194571D01*
X128773571Y-63694571D01*
D11*
%TO.C,A1*%
X169465714Y-116498666D02*
X169941904Y-116498666D01*
X169370476Y-116784380D02*
X169703809Y-115784380D01*
X170037142Y-116784380D01*
X170894285Y-116784380D02*
X170322857Y-116784380D01*
X170608571Y-116784380D02*
X170608571Y-115784380D01*
X170513333Y-115927238D01*
X170418095Y-116022476D01*
X170322857Y-116070095D01*
%TO.C,R4*%
X139263380Y-88939666D02*
X138787190Y-89273000D01*
X139263380Y-89511095D02*
X138263380Y-89511095D01*
X138263380Y-89130142D01*
X138311000Y-89034904D01*
X138358619Y-88987285D01*
X138453857Y-88939666D01*
X138596714Y-88939666D01*
X138691952Y-88987285D01*
X138739571Y-89034904D01*
X138787190Y-89130142D01*
X138787190Y-89511095D01*
X138596714Y-88082523D02*
X139263380Y-88082523D01*
X138215761Y-88320619D02*
X138930047Y-88558714D01*
X138930047Y-87939666D01*
X138231619Y-86328095D02*
X138184000Y-86280476D01*
X138136380Y-86185238D01*
X138136380Y-85947142D01*
X138184000Y-85851904D01*
X138231619Y-85804285D01*
X138326857Y-85756666D01*
X138422095Y-85756666D01*
X138564952Y-85804285D01*
X139136380Y-86375714D01*
X139136380Y-85756666D01*
X138231619Y-85375714D02*
X138184000Y-85328095D01*
X138136380Y-85232857D01*
X138136380Y-84994761D01*
X138184000Y-84899523D01*
X138231619Y-84851904D01*
X138326857Y-84804285D01*
X138422095Y-84804285D01*
X138564952Y-84851904D01*
X139136380Y-85423333D01*
X139136380Y-84804285D01*
X138136380Y-84185238D02*
X138136380Y-84090000D01*
X138184000Y-83994761D01*
X138231619Y-83947142D01*
X138326857Y-83899523D01*
X138517333Y-83851904D01*
X138755428Y-83851904D01*
X138945904Y-83899523D01*
X139041142Y-83947142D01*
X139088761Y-83994761D01*
X139136380Y-84090000D01*
X139136380Y-84185238D01*
X139088761Y-84280476D01*
X139041142Y-84328095D01*
X138945904Y-84375714D01*
X138755428Y-84423333D01*
X138517333Y-84423333D01*
X138326857Y-84375714D01*
X138231619Y-84328095D01*
X138184000Y-84280476D01*
X138136380Y-84185238D01*
%TO.C,R9*%
X180629380Y-101385666D02*
X180153190Y-101719000D01*
X180629380Y-101957095D02*
X179629380Y-101957095D01*
X179629380Y-101576142D01*
X179677000Y-101480904D01*
X179724619Y-101433285D01*
X179819857Y-101385666D01*
X179962714Y-101385666D01*
X180057952Y-101433285D01*
X180105571Y-101480904D01*
X180153190Y-101576142D01*
X180153190Y-101957095D01*
X180629380Y-100909476D02*
X180629380Y-100719000D01*
X180581761Y-100623761D01*
X180534142Y-100576142D01*
X180391285Y-100480904D01*
X180200809Y-100433285D01*
X179819857Y-100433285D01*
X179724619Y-100480904D01*
X179677000Y-100528523D01*
X179629380Y-100623761D01*
X179629380Y-100814238D01*
X179677000Y-100909476D01*
X179724619Y-100957095D01*
X179819857Y-101004714D01*
X180057952Y-101004714D01*
X180153190Y-100957095D01*
X180200809Y-100909476D01*
X180248428Y-100814238D01*
X180248428Y-100623761D01*
X180200809Y-100528523D01*
X180153190Y-100480904D01*
X180057952Y-100433285D01*
X177438619Y-102457095D02*
X177391000Y-102409476D01*
X177343380Y-102314238D01*
X177343380Y-102076142D01*
X177391000Y-101980904D01*
X177438619Y-101933285D01*
X177533857Y-101885666D01*
X177629095Y-101885666D01*
X177771952Y-101933285D01*
X178343380Y-102504714D01*
X178343380Y-101885666D01*
X177438619Y-101504714D02*
X177391000Y-101457095D01*
X177343380Y-101361857D01*
X177343380Y-101123761D01*
X177391000Y-101028523D01*
X177438619Y-100980904D01*
X177533857Y-100933285D01*
X177629095Y-100933285D01*
X177771952Y-100980904D01*
X178343380Y-101552333D01*
X178343380Y-100933285D01*
X177343380Y-100314238D02*
X177343380Y-100219000D01*
X177391000Y-100123761D01*
X177438619Y-100076142D01*
X177533857Y-100028523D01*
X177724333Y-99980904D01*
X177962428Y-99980904D01*
X178152904Y-100028523D01*
X178248142Y-100076142D01*
X178295761Y-100123761D01*
X178343380Y-100219000D01*
X178343380Y-100314238D01*
X178295761Y-100409476D01*
X178248142Y-100457095D01*
X178152904Y-100504714D01*
X177962428Y-100552333D01*
X177724333Y-100552333D01*
X177533857Y-100504714D01*
X177438619Y-100457095D01*
X177391000Y-100409476D01*
X177343380Y-100314238D01*
%TO.C,R3*%
X149677380Y-89193666D02*
X149201190Y-89527000D01*
X149677380Y-89765095D02*
X148677380Y-89765095D01*
X148677380Y-89384142D01*
X148725000Y-89288904D01*
X148772619Y-89241285D01*
X148867857Y-89193666D01*
X149010714Y-89193666D01*
X149105952Y-89241285D01*
X149153571Y-89288904D01*
X149201190Y-89384142D01*
X149201190Y-89765095D01*
X148677380Y-88860333D02*
X148677380Y-88241285D01*
X149058333Y-88574619D01*
X149058333Y-88431761D01*
X149105952Y-88336523D01*
X149153571Y-88288904D01*
X149248809Y-88241285D01*
X149486904Y-88241285D01*
X149582142Y-88288904D01*
X149629761Y-88336523D01*
X149677380Y-88431761D01*
X149677380Y-88717476D01*
X149629761Y-88812714D01*
X149582142Y-88860333D01*
X149677380Y-85336047D02*
X149677380Y-85907476D01*
X149677380Y-85621761D02*
X148677380Y-85621761D01*
X148820238Y-85717000D01*
X148915476Y-85812238D01*
X148963095Y-85907476D01*
X149677380Y-84907476D02*
X148677380Y-84907476D01*
X149296428Y-84812238D02*
X149677380Y-84526523D01*
X149010714Y-84526523D02*
X149391666Y-84907476D01*
%TO.C,R11*%
X173263380Y-84589857D02*
X172787190Y-84923190D01*
X173263380Y-85161285D02*
X172263380Y-85161285D01*
X172263380Y-84780333D01*
X172311000Y-84685095D01*
X172358619Y-84637476D01*
X172453857Y-84589857D01*
X172596714Y-84589857D01*
X172691952Y-84637476D01*
X172739571Y-84685095D01*
X172787190Y-84780333D01*
X172787190Y-85161285D01*
X173263380Y-83637476D02*
X173263380Y-84208904D01*
X173263380Y-83923190D02*
X172263380Y-83923190D01*
X172406238Y-84018428D01*
X172501476Y-84113666D01*
X172549095Y-84208904D01*
X173263380Y-82685095D02*
X173263380Y-83256523D01*
X173263380Y-82970809D02*
X172263380Y-82970809D01*
X172406238Y-83066047D01*
X172501476Y-83161285D01*
X172549095Y-83256523D01*
X173136380Y-77430238D02*
X173136380Y-78001666D01*
X173136380Y-77715952D02*
X172136380Y-77715952D01*
X172279238Y-77811190D01*
X172374476Y-77906428D01*
X172422095Y-78001666D01*
X172136380Y-76811190D02*
X172136380Y-76715952D01*
X172184000Y-76620714D01*
X172231619Y-76573095D01*
X172326857Y-76525476D01*
X172517333Y-76477857D01*
X172755428Y-76477857D01*
X172945904Y-76525476D01*
X173041142Y-76573095D01*
X173088761Y-76620714D01*
X173136380Y-76715952D01*
X173136380Y-76811190D01*
X173088761Y-76906428D01*
X173041142Y-76954047D01*
X172945904Y-77001666D01*
X172755428Y-77049285D01*
X172517333Y-77049285D01*
X172326857Y-77001666D01*
X172231619Y-76954047D01*
X172184000Y-76906428D01*
X172136380Y-76811190D01*
X173136380Y-76049285D02*
X172136380Y-76049285D01*
X172755428Y-75954047D02*
X173136380Y-75668333D01*
X172469714Y-75668333D02*
X172850666Y-76049285D01*
%TO.C,R5*%
X117927380Y-89066666D02*
X117451190Y-89400000D01*
X117927380Y-89638095D02*
X116927380Y-89638095D01*
X116927380Y-89257142D01*
X116975000Y-89161904D01*
X117022619Y-89114285D01*
X117117857Y-89066666D01*
X117260714Y-89066666D01*
X117355952Y-89114285D01*
X117403571Y-89161904D01*
X117451190Y-89257142D01*
X117451190Y-89638095D01*
X116927380Y-88161904D02*
X116927380Y-88638095D01*
X117403571Y-88685714D01*
X117355952Y-88638095D01*
X117308333Y-88542857D01*
X117308333Y-88304761D01*
X117355952Y-88209523D01*
X117403571Y-88161904D01*
X117498809Y-88114285D01*
X117736904Y-88114285D01*
X117832142Y-88161904D01*
X117879761Y-88209523D01*
X117927380Y-88304761D01*
X117927380Y-88542857D01*
X117879761Y-88638095D01*
X117832142Y-88685714D01*
X117022619Y-86455095D02*
X116975000Y-86407476D01*
X116927380Y-86312238D01*
X116927380Y-86074142D01*
X116975000Y-85978904D01*
X117022619Y-85931285D01*
X117117857Y-85883666D01*
X117213095Y-85883666D01*
X117355952Y-85931285D01*
X117927380Y-86502714D01*
X117927380Y-85883666D01*
X117022619Y-85502714D02*
X116975000Y-85455095D01*
X116927380Y-85359857D01*
X116927380Y-85121761D01*
X116975000Y-85026523D01*
X117022619Y-84978904D01*
X117117857Y-84931285D01*
X117213095Y-84931285D01*
X117355952Y-84978904D01*
X117927380Y-85550333D01*
X117927380Y-84931285D01*
X116927380Y-84312238D02*
X116927380Y-84217000D01*
X116975000Y-84121761D01*
X117022619Y-84074142D01*
X117117857Y-84026523D01*
X117308333Y-83978904D01*
X117546428Y-83978904D01*
X117736904Y-84026523D01*
X117832142Y-84074142D01*
X117879761Y-84121761D01*
X117927380Y-84217000D01*
X117927380Y-84312238D01*
X117879761Y-84407476D01*
X117832142Y-84455095D01*
X117736904Y-84502714D01*
X117546428Y-84550333D01*
X117308333Y-84550333D01*
X117117857Y-84502714D01*
X117022619Y-84455095D01*
X116975000Y-84407476D01*
X116927380Y-84312238D01*
%TO.C,SW3*%
X176684666Y-75588761D02*
X176827523Y-75636380D01*
X177065619Y-75636380D01*
X177160857Y-75588761D01*
X177208476Y-75541142D01*
X177256095Y-75445904D01*
X177256095Y-75350666D01*
X177208476Y-75255428D01*
X177160857Y-75207809D01*
X177065619Y-75160190D01*
X176875142Y-75112571D01*
X176779904Y-75064952D01*
X176732285Y-75017333D01*
X176684666Y-74922095D01*
X176684666Y-74826857D01*
X176732285Y-74731619D01*
X176779904Y-74684000D01*
X176875142Y-74636380D01*
X177113238Y-74636380D01*
X177256095Y-74684000D01*
X177589428Y-74636380D02*
X177827523Y-75636380D01*
X178018000Y-74922095D01*
X178208476Y-75636380D01*
X178446571Y-74636380D01*
X178732285Y-74636380D02*
X179351333Y-74636380D01*
X179018000Y-75017333D01*
X179160857Y-75017333D01*
X179256095Y-75064952D01*
X179303714Y-75112571D01*
X179351333Y-75207809D01*
X179351333Y-75445904D01*
X179303714Y-75541142D01*
X179256095Y-75588761D01*
X179160857Y-75636380D01*
X178875142Y-75636380D01*
X178779904Y-75588761D01*
X178732285Y-75541142D01*
%TO.C,C1*%
X156404142Y-92876666D02*
X156451761Y-92924285D01*
X156499380Y-93067142D01*
X156499380Y-93162380D01*
X156451761Y-93305238D01*
X156356523Y-93400476D01*
X156261285Y-93448095D01*
X156070809Y-93495714D01*
X155927952Y-93495714D01*
X155737476Y-93448095D01*
X155642238Y-93400476D01*
X155547000Y-93305238D01*
X155499380Y-93162380D01*
X155499380Y-93067142D01*
X155547000Y-92924285D01*
X155594619Y-92876666D01*
X156499380Y-91924285D02*
X156499380Y-92495714D01*
X156499380Y-92210000D02*
X155499380Y-92210000D01*
X155642238Y-92305238D01*
X155737476Y-92400476D01*
X155785095Y-92495714D01*
X153049380Y-93305238D02*
X153049380Y-93876666D01*
X153049380Y-93590952D02*
X152049380Y-93590952D01*
X152192238Y-93686190D01*
X152287476Y-93781428D01*
X152335095Y-93876666D01*
X152382714Y-92448095D02*
X153049380Y-92448095D01*
X152382714Y-92876666D02*
X152906523Y-92876666D01*
X153001761Y-92829047D01*
X153049380Y-92733809D01*
X153049380Y-92590952D01*
X153001761Y-92495714D01*
X152954142Y-92448095D01*
X152525571Y-91638571D02*
X152525571Y-91971904D01*
X153049380Y-91971904D02*
X152049380Y-91971904D01*
X152049380Y-91495714D01*
%TO.C,C2*%
X156404142Y-100917666D02*
X156451761Y-100965285D01*
X156499380Y-101108142D01*
X156499380Y-101203380D01*
X156451761Y-101346238D01*
X156356523Y-101441476D01*
X156261285Y-101489095D01*
X156070809Y-101536714D01*
X155927952Y-101536714D01*
X155737476Y-101489095D01*
X155642238Y-101441476D01*
X155547000Y-101346238D01*
X155499380Y-101203380D01*
X155499380Y-101108142D01*
X155547000Y-100965285D01*
X155594619Y-100917666D01*
X155594619Y-100536714D02*
X155547000Y-100489095D01*
X155499380Y-100393857D01*
X155499380Y-100155761D01*
X155547000Y-100060523D01*
X155594619Y-100012904D01*
X155689857Y-99965285D01*
X155785095Y-99965285D01*
X155927952Y-100012904D01*
X156499380Y-100584333D01*
X156499380Y-99965285D01*
X153070380Y-101346238D02*
X153070380Y-101917666D01*
X153070380Y-101631952D02*
X152070380Y-101631952D01*
X152213238Y-101727190D01*
X152308476Y-101822428D01*
X152356095Y-101917666D01*
X152403714Y-100489095D02*
X153070380Y-100489095D01*
X152403714Y-100917666D02*
X152927523Y-100917666D01*
X153022761Y-100870047D01*
X153070380Y-100774809D01*
X153070380Y-100631952D01*
X153022761Y-100536714D01*
X152975142Y-100489095D01*
X152546571Y-99679571D02*
X152546571Y-100012904D01*
X153070380Y-100012904D02*
X152070380Y-100012904D01*
X152070380Y-99536714D01*
%TO.C,R2*%
X142819380Y-88939666D02*
X142343190Y-89273000D01*
X142819380Y-89511095D02*
X141819380Y-89511095D01*
X141819380Y-89130142D01*
X141867000Y-89034904D01*
X141914619Y-88987285D01*
X142009857Y-88939666D01*
X142152714Y-88939666D01*
X142247952Y-88987285D01*
X142295571Y-89034904D01*
X142343190Y-89130142D01*
X142343190Y-89511095D01*
X141914619Y-88558714D02*
X141867000Y-88511095D01*
X141819380Y-88415857D01*
X141819380Y-88177761D01*
X141867000Y-88082523D01*
X141914619Y-88034904D01*
X142009857Y-87987285D01*
X142105095Y-87987285D01*
X142247952Y-88034904D01*
X142819380Y-88606333D01*
X142819380Y-87987285D01*
X142946380Y-85717047D02*
X142946380Y-86288476D01*
X142946380Y-86002761D02*
X141946380Y-86002761D01*
X142089238Y-86098000D01*
X142184476Y-86193238D01*
X142232095Y-86288476D01*
X142946380Y-85288476D02*
X141946380Y-85288476D01*
X142565428Y-85193238D02*
X142946380Y-84907523D01*
X142279714Y-84907523D02*
X142660666Y-85288476D01*
D10*
%TO.C,J2*%
X145943428Y-65321571D02*
X145943428Y-63821571D01*
X146443428Y-64893000D01*
X146943428Y-63821571D01*
X146943428Y-65321571D01*
X147657714Y-65321571D02*
X147657714Y-63821571D01*
X148372000Y-65321571D02*
X148372000Y-63821571D01*
X148729142Y-63821571D01*
X148943428Y-63893000D01*
X149086285Y-64035857D01*
X149157714Y-64178714D01*
X149229142Y-64464428D01*
X149229142Y-64678714D01*
X149157714Y-64964428D01*
X149086285Y-65107285D01*
X148943428Y-65250142D01*
X148729142Y-65321571D01*
X148372000Y-65321571D01*
X149872000Y-65321571D02*
X149872000Y-63821571D01*
X152014857Y-63821571D02*
X152300571Y-63821571D01*
X152443428Y-63893000D01*
X152586285Y-64035857D01*
X152657714Y-64321571D01*
X152657714Y-64821571D01*
X152586285Y-65107285D01*
X152443428Y-65250142D01*
X152300571Y-65321571D01*
X152014857Y-65321571D01*
X151872000Y-65250142D01*
X151729142Y-65107285D01*
X151657714Y-64821571D01*
X151657714Y-64321571D01*
X151729142Y-64035857D01*
X151872000Y-63893000D01*
X152014857Y-63821571D01*
X153300571Y-63821571D02*
X153300571Y-65035857D01*
X153372000Y-65178714D01*
X153443428Y-65250142D01*
X153586285Y-65321571D01*
X153872000Y-65321571D01*
X154014857Y-65250142D01*
X154086285Y-65178714D01*
X154157714Y-65035857D01*
X154157714Y-63821571D01*
X154657714Y-63821571D02*
X155514857Y-63821571D01*
X155086285Y-65321571D02*
X155086285Y-63821571D01*
D11*
%TO.C,R13*%
X133675380Y-131325857D02*
X133199190Y-131659190D01*
X133675380Y-131897285D02*
X132675380Y-131897285D01*
X132675380Y-131516333D01*
X132723000Y-131421095D01*
X132770619Y-131373476D01*
X132865857Y-131325857D01*
X133008714Y-131325857D01*
X133103952Y-131373476D01*
X133151571Y-131421095D01*
X133199190Y-131516333D01*
X133199190Y-131897285D01*
X133675380Y-130373476D02*
X133675380Y-130944904D01*
X133675380Y-130659190D02*
X132675380Y-130659190D01*
X132818238Y-130754428D01*
X132913476Y-130849666D01*
X132961095Y-130944904D01*
X132675380Y-130040142D02*
X132675380Y-129421095D01*
X133056333Y-129754428D01*
X133056333Y-129611571D01*
X133103952Y-129516333D01*
X133151571Y-129468714D01*
X133246809Y-129421095D01*
X133484904Y-129421095D01*
X133580142Y-129468714D01*
X133627761Y-129516333D01*
X133675380Y-129611571D01*
X133675380Y-129897285D01*
X133627761Y-129992523D01*
X133580142Y-130040142D01*
X133008714Y-127817476D02*
X133675380Y-127817476D01*
X132627761Y-128055571D02*
X133342047Y-128293666D01*
X133342047Y-127674619D01*
X133675380Y-127293666D02*
X132675380Y-127293666D01*
X133294428Y-127198428D02*
X133675380Y-126912714D01*
X133008714Y-126912714D02*
X133389666Y-127293666D01*
X132675380Y-126579380D02*
X132675380Y-125912714D01*
X133675380Y-126341285D01*
%TO.C,R12*%
X163230380Y-84589857D02*
X162754190Y-84923190D01*
X163230380Y-85161285D02*
X162230380Y-85161285D01*
X162230380Y-84780333D01*
X162278000Y-84685095D01*
X162325619Y-84637476D01*
X162420857Y-84589857D01*
X162563714Y-84589857D01*
X162658952Y-84637476D01*
X162706571Y-84685095D01*
X162754190Y-84780333D01*
X162754190Y-85161285D01*
X163230380Y-83637476D02*
X163230380Y-84208904D01*
X163230380Y-83923190D02*
X162230380Y-83923190D01*
X162373238Y-84018428D01*
X162468476Y-84113666D01*
X162516095Y-84208904D01*
X162325619Y-83256523D02*
X162278000Y-83208904D01*
X162230380Y-83113666D01*
X162230380Y-82875571D01*
X162278000Y-82780333D01*
X162325619Y-82732714D01*
X162420857Y-82685095D01*
X162516095Y-82685095D01*
X162658952Y-82732714D01*
X163230380Y-83304142D01*
X163230380Y-82685095D01*
X163230380Y-77557238D02*
X163230380Y-78128666D01*
X163230380Y-77842952D02*
X162230380Y-77842952D01*
X162373238Y-77938190D01*
X162468476Y-78033428D01*
X162516095Y-78128666D01*
X162230380Y-76938190D02*
X162230380Y-76842952D01*
X162278000Y-76747714D01*
X162325619Y-76700095D01*
X162420857Y-76652476D01*
X162611333Y-76604857D01*
X162849428Y-76604857D01*
X163039904Y-76652476D01*
X163135142Y-76700095D01*
X163182761Y-76747714D01*
X163230380Y-76842952D01*
X163230380Y-76938190D01*
X163182761Y-77033428D01*
X163135142Y-77081047D01*
X163039904Y-77128666D01*
X162849428Y-77176285D01*
X162611333Y-77176285D01*
X162420857Y-77128666D01*
X162325619Y-77081047D01*
X162278000Y-77033428D01*
X162230380Y-76938190D01*
X163230380Y-76176285D02*
X162230380Y-76176285D01*
X162849428Y-76081047D02*
X163230380Y-75795333D01*
X162563714Y-75795333D02*
X162944666Y-76176285D01*
%TO.C,SW2*%
X152804761Y-81343333D02*
X152852380Y-81200476D01*
X152852380Y-80962380D01*
X152804761Y-80867142D01*
X152757142Y-80819523D01*
X152661904Y-80771904D01*
X152566666Y-80771904D01*
X152471428Y-80819523D01*
X152423809Y-80867142D01*
X152376190Y-80962380D01*
X152328571Y-81152857D01*
X152280952Y-81248095D01*
X152233333Y-81295714D01*
X152138095Y-81343333D01*
X152042857Y-81343333D01*
X151947619Y-81295714D01*
X151900000Y-81248095D01*
X151852380Y-81152857D01*
X151852380Y-80914761D01*
X151900000Y-80771904D01*
X151852380Y-80438571D02*
X152852380Y-80200476D01*
X152138095Y-80010000D01*
X152852380Y-79819523D01*
X151852380Y-79581428D01*
X151947619Y-79248095D02*
X151900000Y-79200476D01*
X151852380Y-79105238D01*
X151852380Y-78867142D01*
X151900000Y-78771904D01*
X151947619Y-78724285D01*
X152042857Y-78676666D01*
X152138095Y-78676666D01*
X152280952Y-78724285D01*
X152852380Y-79295714D01*
X152852380Y-78676666D01*
%TO.C,SW1*%
X164713761Y-97484333D02*
X164761380Y-97341476D01*
X164761380Y-97103380D01*
X164713761Y-97008142D01*
X164666142Y-96960523D01*
X164570904Y-96912904D01*
X164475666Y-96912904D01*
X164380428Y-96960523D01*
X164332809Y-97008142D01*
X164285190Y-97103380D01*
X164237571Y-97293857D01*
X164189952Y-97389095D01*
X164142333Y-97436714D01*
X164047095Y-97484333D01*
X163951857Y-97484333D01*
X163856619Y-97436714D01*
X163809000Y-97389095D01*
X163761380Y-97293857D01*
X163761380Y-97055761D01*
X163809000Y-96912904D01*
X163761380Y-96579571D02*
X164761380Y-96341476D01*
X164047095Y-96151000D01*
X164761380Y-95960523D01*
X163761380Y-95722428D01*
X164761380Y-94817666D02*
X164761380Y-95389095D01*
X164761380Y-95103380D02*
X163761380Y-95103380D01*
X163904238Y-95198619D01*
X163999476Y-95293857D01*
X164047095Y-95389095D01*
%TO.C,R14*%
X136850380Y-131198857D02*
X136374190Y-131532190D01*
X136850380Y-131770285D02*
X135850380Y-131770285D01*
X135850380Y-131389333D01*
X135898000Y-131294095D01*
X135945619Y-131246476D01*
X136040857Y-131198857D01*
X136183714Y-131198857D01*
X136278952Y-131246476D01*
X136326571Y-131294095D01*
X136374190Y-131389333D01*
X136374190Y-131770285D01*
X136850380Y-130246476D02*
X136850380Y-130817904D01*
X136850380Y-130532190D02*
X135850380Y-130532190D01*
X135993238Y-130627428D01*
X136088476Y-130722666D01*
X136136095Y-130817904D01*
X136183714Y-129389333D02*
X136850380Y-129389333D01*
X135802761Y-129627428D02*
X136517047Y-129865523D01*
X136517047Y-129246476D01*
X136183714Y-127817476D02*
X136850380Y-127817476D01*
X135802761Y-128055571D02*
X136517047Y-128293666D01*
X136517047Y-127674619D01*
X136850380Y-127293666D02*
X135850380Y-127293666D01*
X136469428Y-127198428D02*
X136850380Y-126912714D01*
X136183714Y-126912714D02*
X136564666Y-127293666D01*
X135850380Y-126579380D02*
X135850380Y-125912714D01*
X136850380Y-126341285D01*
%TO.C,R8*%
X162520333Y-105481380D02*
X162187000Y-105005190D01*
X161948904Y-105481380D02*
X161948904Y-104481380D01*
X162329857Y-104481380D01*
X162425095Y-104529000D01*
X162472714Y-104576619D01*
X162520333Y-104671857D01*
X162520333Y-104814714D01*
X162472714Y-104909952D01*
X162425095Y-104957571D01*
X162329857Y-105005190D01*
X161948904Y-105005190D01*
X163091761Y-104909952D02*
X162996523Y-104862333D01*
X162948904Y-104814714D01*
X162901285Y-104719476D01*
X162901285Y-104671857D01*
X162948904Y-104576619D01*
X162996523Y-104529000D01*
X163091761Y-104481380D01*
X163282238Y-104481380D01*
X163377476Y-104529000D01*
X163425095Y-104576619D01*
X163472714Y-104671857D01*
X163472714Y-104719476D01*
X163425095Y-104814714D01*
X163377476Y-104862333D01*
X163282238Y-104909952D01*
X163091761Y-104909952D01*
X162996523Y-104957571D01*
X162948904Y-105005190D01*
X162901285Y-105100428D01*
X162901285Y-105290904D01*
X162948904Y-105386142D01*
X162996523Y-105433761D01*
X163091761Y-105481380D01*
X163282238Y-105481380D01*
X163377476Y-105433761D01*
X163425095Y-105386142D01*
X163472714Y-105290904D01*
X163472714Y-105100428D01*
X163425095Y-105005190D01*
X163377476Y-104957571D01*
X163282238Y-104909952D01*
X174172714Y-104354380D02*
X174791761Y-104354380D01*
X174458428Y-104735333D01*
X174601285Y-104735333D01*
X174696523Y-104782952D01*
X174744142Y-104830571D01*
X174791761Y-104925809D01*
X174791761Y-105163904D01*
X174744142Y-105259142D01*
X174696523Y-105306761D01*
X174601285Y-105354380D01*
X174315571Y-105354380D01*
X174220333Y-105306761D01*
X174172714Y-105259142D01*
X175220333Y-105354380D02*
X175220333Y-104354380D01*
X175315571Y-104973428D02*
X175601285Y-105354380D01*
X175601285Y-104687714D02*
X175220333Y-105068666D01*
X175934619Y-104354380D02*
X176553666Y-104354380D01*
X176220333Y-104735333D01*
X176363190Y-104735333D01*
X176458428Y-104782952D01*
X176506047Y-104830571D01*
X176553666Y-104925809D01*
X176553666Y-105163904D01*
X176506047Y-105259142D01*
X176458428Y-105306761D01*
X176363190Y-105354380D01*
X176077476Y-105354380D01*
X175982238Y-105306761D01*
X175934619Y-105259142D01*
D12*
%TO.C,U2*%
X123206000Y-89729000D02*
X121556000Y-89729000D01*
X126856000Y-100009000D02*
X126856000Y-89729000D01*
X126856000Y-89729000D02*
X125206000Y-89729000D01*
X121556000Y-100009000D02*
X126856000Y-100009000D01*
X121556000Y-89729000D02*
X121556000Y-100009000D01*
X123206000Y-89729000D02*
G75*
G03*
X125206000Y-89729000I1000000J0D01*
G01*
%TO.C,D1*%
X121832000Y-104498000D02*
X126072000Y-104498000D01*
X126072000Y-104498000D02*
X126072000Y-102258000D01*
X125232000Y-104498000D02*
X125232000Y-102258000D01*
X125472000Y-104498000D02*
X125472000Y-102258000D01*
X125352000Y-104498000D02*
X125352000Y-102258000D01*
X126722000Y-103378000D02*
X126072000Y-103378000D01*
X121182000Y-103378000D02*
X121832000Y-103378000D01*
X126072000Y-102258000D02*
X121832000Y-102258000D01*
X121832000Y-102258000D02*
X121832000Y-104498000D01*
%TO.C,J4*%
X129921000Y-144212000D02*
X137601000Y-144212000D01*
X129921000Y-146872000D02*
X137601000Y-146872000D01*
X128651000Y-146872000D02*
X127321000Y-146872000D01*
X127321000Y-146872000D02*
X127321000Y-145542000D01*
X129921000Y-146872000D02*
X129921000Y-144212000D01*
X137601000Y-146872000D02*
X137601000Y-144212000D01*
%TO.C,R10*%
X181217000Y-87789000D02*
X181547000Y-87789000D01*
X181547000Y-87789000D02*
X181547000Y-94329000D01*
X178807000Y-94329000D02*
X179137000Y-94329000D01*
X178807000Y-87789000D02*
X178807000Y-94329000D01*
X179137000Y-87789000D02*
X178807000Y-87789000D01*
X181547000Y-94329000D02*
X181217000Y-94329000D01*
%TO.C,J7*%
X171898000Y-70550000D02*
X169898000Y-70550000D01*
X169898000Y-64650000D02*
X169898000Y-56050000D01*
X179098000Y-70550000D02*
X177098000Y-70550000D01*
X169898000Y-70550000D02*
X169898000Y-69250000D01*
X179398000Y-70850000D02*
X179398000Y-69550000D01*
X179098000Y-56050000D02*
X179098000Y-70550000D01*
X177698000Y-70850000D02*
X179398000Y-70850000D01*
X169898000Y-56050000D02*
X179098000Y-56050000D01*
%TO.C,Q1*%
X140567000Y-106117000D02*
X144167000Y-106117000D01*
X144205478Y-106105478D02*
G75*
G03*
X142367000Y-101667000I-1838478J1838478D01*
G01*
X142367000Y-101666999D02*
G75*
G03*
X140528522Y-106105478I0J-2600001D01*
G01*
%TO.C,J5*%
X179010000Y-151130000D02*
X179010000Y-115510000D01*
X181670000Y-115510000D02*
X179010000Y-115510000D01*
X181670000Y-152400000D02*
X181670000Y-153730000D01*
X181670000Y-151130000D02*
X179010000Y-151130000D01*
X181670000Y-151130000D02*
X181670000Y-115510000D01*
X181670000Y-153730000D02*
X180340000Y-153730000D01*
%TO.C,R15*%
X132942000Y-91472000D02*
X132942000Y-98012000D01*
X132942000Y-98012000D02*
X132612000Y-98012000D01*
X130202000Y-91472000D02*
X130202000Y-98012000D01*
X130202000Y-98012000D02*
X130532000Y-98012000D01*
X130532000Y-91472000D02*
X130202000Y-91472000D01*
X132612000Y-91472000D02*
X132942000Y-91472000D01*
%TO.C,R6*%
X134215000Y-98139000D02*
X133885000Y-98139000D01*
X136295000Y-98139000D02*
X136625000Y-98139000D01*
X133885000Y-91599000D02*
X134215000Y-91599000D01*
X136625000Y-98139000D02*
X136625000Y-91599000D01*
X136625000Y-91599000D02*
X136295000Y-91599000D01*
X133885000Y-98139000D02*
X133885000Y-91599000D01*
%TO.C,R7*%
X172017000Y-85879000D02*
X165477000Y-85879000D01*
X165477000Y-85879000D02*
X165477000Y-86209000D01*
X172017000Y-88619000D02*
X165477000Y-88619000D01*
X172017000Y-86209000D02*
X172017000Y-85879000D01*
X165477000Y-88619000D02*
X165477000Y-88289000D01*
X172017000Y-88289000D02*
X172017000Y-88619000D01*
%TO.C,R1*%
X147166000Y-98266000D02*
X146836000Y-98266000D01*
X146836000Y-91726000D02*
X147166000Y-91726000D01*
X144756000Y-91726000D02*
X144426000Y-91726000D01*
X144426000Y-91726000D02*
X144426000Y-98266000D01*
X144426000Y-98266000D02*
X144756000Y-98266000D01*
X147166000Y-91726000D02*
X147166000Y-98266000D01*
D13*
%TO.C,J3*%
X134221220Y-56779160D02*
X114721640Y-56779160D01*
X119722900Y-72278240D02*
X123223020Y-72278240D01*
X123720860Y-74777600D02*
X123223020Y-74277220D01*
X116723160Y-56779160D02*
X116723160Y-57277000D01*
X114721640Y-56278780D02*
X116222780Y-56278780D01*
X135722360Y-55778400D02*
X135722360Y-56278780D01*
X123223020Y-74277220D02*
X123223020Y-72278240D01*
X118722140Y-74777600D02*
X119222520Y-74777600D01*
X116222780Y-55778400D02*
X135722360Y-55778400D01*
X119722900Y-74277220D02*
X119722900Y-72278240D01*
X130721100Y-72278240D02*
X127220980Y-72278240D01*
X134221220Y-57277000D02*
X133720840Y-57277000D01*
X116723160Y-74777600D02*
X118722140Y-74777600D01*
X135722360Y-56278780D02*
X134221220Y-56278780D01*
X135722360Y-56027320D02*
X116222780Y-56027320D01*
X134221220Y-56527700D02*
X114721640Y-56527700D01*
X134221220Y-74277220D02*
X133720840Y-74777600D01*
X126723140Y-74777600D02*
X123720860Y-74777600D01*
X116222780Y-56278780D02*
X134221220Y-56278780D01*
X116222780Y-57277000D02*
X116723160Y-57277000D01*
X126723140Y-74777600D02*
X127220980Y-74277220D01*
X116222780Y-56278780D02*
X116222780Y-55778400D01*
X119222520Y-74777600D02*
X119722900Y-74277220D01*
X133720840Y-57277000D02*
X133720840Y-56779160D01*
X127220980Y-74277220D02*
X127220980Y-72278240D01*
X130721100Y-74277220D02*
X130721100Y-72278240D01*
X114721640Y-56779160D02*
X114721640Y-56278780D01*
X134221220Y-56278780D02*
X134221220Y-56779160D01*
X116222780Y-74277220D02*
X116723160Y-74777600D01*
X131221480Y-74777600D02*
X130721100Y-74277220D01*
X133720840Y-74777600D02*
X131221480Y-74777600D01*
X116222780Y-74277220D02*
X116222780Y-57277000D01*
X134221220Y-74277220D02*
X134221220Y-57277000D01*
D12*
%TO.C,SW4*%
X164774000Y-107548000D02*
X165624000Y-107548000D01*
X164474000Y-108248000D02*
X164474000Y-107248000D01*
X172594000Y-107548000D02*
X173474000Y-107548000D01*
X170094000Y-107548000D02*
X170654000Y-107548000D01*
X170644000Y-111248000D02*
X170094000Y-111248000D01*
X165654000Y-111248000D02*
X164774000Y-111248000D01*
X164474000Y-107248000D02*
X165474000Y-107248000D01*
X173474000Y-111248000D02*
X172604000Y-111248000D01*
X168154000Y-111248000D02*
X167594000Y-111248000D01*
X167624000Y-107548000D02*
X168154000Y-107548000D01*
X164774000Y-111248000D02*
X164774000Y-107548000D01*
X173474000Y-107548000D02*
X173474000Y-111248000D01*
%TO.C,A1*%
X159890000Y-118110000D02*
X159890000Y-156340000D01*
X175260000Y-115570000D02*
X177930000Y-115570000D01*
X162560000Y-118110000D02*
X162560000Y-115570000D01*
X159890000Y-112900000D02*
X159890000Y-115570000D01*
X162560000Y-118110000D02*
X162560000Y-153670000D01*
X177930000Y-112900000D02*
X159890000Y-112900000D01*
X159890000Y-156340000D02*
X177930000Y-156340000D01*
X162560000Y-153670000D02*
X159890000Y-153670000D01*
X162560000Y-115570000D02*
X159890000Y-115570000D01*
X162560000Y-118110000D02*
X159890000Y-118110000D01*
X177930000Y-156340000D02*
X177930000Y-112900000D01*
X175260000Y-153670000D02*
X177930000Y-153670000D01*
X175260000Y-115570000D02*
X175260000Y-153670000D01*
%TO.C,R4*%
X140181000Y-98139000D02*
X140181000Y-91599000D01*
X137441000Y-98139000D02*
X137441000Y-91599000D01*
X137771000Y-98139000D02*
X137441000Y-98139000D01*
X139851000Y-98139000D02*
X140181000Y-98139000D01*
X140181000Y-91599000D02*
X139851000Y-91599000D01*
X137441000Y-91599000D02*
X137771000Y-91599000D01*
%TO.C,R9*%
X181547000Y-104489000D02*
X181547000Y-97949000D01*
X178807000Y-104489000D02*
X178807000Y-97949000D01*
X181217000Y-104489000D02*
X181547000Y-104489000D01*
X178807000Y-97949000D02*
X179137000Y-97949000D01*
X179137000Y-104489000D02*
X178807000Y-104489000D01*
X181547000Y-97949000D02*
X181217000Y-97949000D01*
%TO.C,R3*%
X148185000Y-91726000D02*
X147855000Y-91726000D01*
X150595000Y-91726000D02*
X150595000Y-98266000D01*
X150265000Y-91726000D02*
X150595000Y-91726000D01*
X147855000Y-91726000D02*
X147855000Y-98266000D01*
X150595000Y-98266000D02*
X150265000Y-98266000D01*
X147855000Y-98266000D02*
X148185000Y-98266000D01*
%TO.C,R11*%
X168901000Y-77121000D02*
X169231000Y-77121000D01*
X171641000Y-83661000D02*
X171641000Y-77121000D01*
X171311000Y-83661000D02*
X171641000Y-83661000D01*
X169231000Y-83661000D02*
X168901000Y-83661000D01*
X168901000Y-83661000D02*
X168901000Y-77121000D01*
X171641000Y-77121000D02*
X171311000Y-77121000D01*
%TO.C,R5*%
X118261000Y-91599000D02*
X118591000Y-91599000D01*
X116181000Y-91599000D02*
X115851000Y-91599000D01*
X118591000Y-98139000D02*
X118261000Y-98139000D01*
X118591000Y-91599000D02*
X118591000Y-98139000D01*
X115851000Y-98139000D02*
X116181000Y-98139000D01*
X115851000Y-91599000D02*
X115851000Y-98139000D01*
%TO.C,SW3*%
X181177000Y-82970000D02*
X181177000Y-78470000D01*
X174677000Y-78470000D02*
X174677000Y-82970000D01*
X177177000Y-84220000D02*
X178677000Y-84220000D01*
X178677000Y-77220000D02*
X177177000Y-77220000D01*
%TO.C,C1*%
X153726000Y-89590000D02*
X153726000Y-95830000D01*
X158368000Y-95830000D02*
X156972000Y-95830000D01*
X158368000Y-89590000D02*
X158368000Y-95830000D01*
X155122000Y-95830000D02*
X153726000Y-95830000D01*
X158368000Y-89590000D02*
X156972000Y-89590000D01*
X155122000Y-89590000D02*
X153726000Y-89590000D01*
%TO.C,C2*%
X156972000Y-97631000D02*
X158368000Y-97631000D01*
X158368000Y-103871000D02*
X158368000Y-97631000D01*
X153726000Y-103871000D02*
X153726000Y-97631000D01*
X153726000Y-103871000D02*
X155122000Y-103871000D01*
X153726000Y-97631000D02*
X155122000Y-97631000D01*
X156972000Y-103871000D02*
X158368000Y-103871000D01*
%TO.C,R2*%
X140997000Y-91726000D02*
X140997000Y-98266000D01*
X143737000Y-91726000D02*
X143737000Y-98266000D01*
X143407000Y-91726000D02*
X143737000Y-91726000D01*
X141327000Y-91726000D02*
X140997000Y-91726000D01*
X140997000Y-98266000D02*
X141327000Y-98266000D01*
X143737000Y-98266000D02*
X143407000Y-98266000D01*
D13*
%TO.C,J2*%
X158485840Y-57277000D02*
X158485840Y-56779160D01*
X148485860Y-74777600D02*
X147988020Y-74277220D01*
X158986220Y-56278780D02*
X158986220Y-56779160D01*
X158485840Y-74777600D02*
X155986480Y-74777600D01*
X143487140Y-74777600D02*
X143987520Y-74777600D01*
X151985980Y-74277220D02*
X151985980Y-72278240D01*
X151488140Y-74777600D02*
X148485860Y-74777600D01*
X141488160Y-74777600D02*
X143487140Y-74777600D01*
X147988020Y-74277220D02*
X147988020Y-72278240D01*
X140987780Y-56278780D02*
X140987780Y-55778400D01*
X160487360Y-56027320D02*
X140987780Y-56027320D01*
X158986220Y-74277220D02*
X158485840Y-74777600D01*
X140987780Y-55778400D02*
X160487360Y-55778400D01*
X144487900Y-72278240D02*
X147988020Y-72278240D01*
X139486640Y-56779160D02*
X139486640Y-56278780D01*
X140987780Y-57277000D02*
X141488160Y-57277000D01*
X160487360Y-55778400D02*
X160487360Y-56278780D01*
X158986220Y-56527700D02*
X139486640Y-56527700D01*
X140987780Y-74277220D02*
X140987780Y-57277000D01*
X158986220Y-74277220D02*
X158986220Y-57277000D01*
X144487900Y-74277220D02*
X144487900Y-72278240D01*
X160487360Y-56278780D02*
X158986220Y-56278780D01*
X141488160Y-56779160D02*
X141488160Y-57277000D01*
X155986480Y-74777600D02*
X155486100Y-74277220D01*
X140987780Y-74277220D02*
X141488160Y-74777600D01*
X155486100Y-72278240D02*
X151985980Y-72278240D01*
X155486100Y-74277220D02*
X155486100Y-72278240D01*
X158986220Y-57277000D02*
X158485840Y-57277000D01*
X158986220Y-56779160D02*
X139486640Y-56779160D01*
X151488140Y-74777600D02*
X151985980Y-74277220D01*
X139486640Y-56278780D02*
X140987780Y-56278780D01*
X140987780Y-56278780D02*
X158986220Y-56278780D01*
X143987520Y-74777600D02*
X144487900Y-74277220D01*
D12*
%TO.C,R13*%
X134136000Y-140303000D02*
X134466000Y-140303000D01*
X131726000Y-133763000D02*
X132056000Y-133763000D01*
X131726000Y-140303000D02*
X131726000Y-133763000D01*
X134466000Y-140303000D02*
X134466000Y-133763000D01*
X134466000Y-133763000D02*
X134136000Y-133763000D01*
X132056000Y-140303000D02*
X131726000Y-140303000D01*
%TO.C,R12*%
X164151000Y-83661000D02*
X163821000Y-83661000D01*
X166561000Y-83661000D02*
X166561000Y-77121000D01*
X166561000Y-77121000D02*
X166231000Y-77121000D01*
X166231000Y-83661000D02*
X166561000Y-83661000D01*
X163821000Y-77121000D02*
X164151000Y-77121000D01*
X163821000Y-83661000D02*
X163821000Y-77121000D01*
%TO.C,SW2*%
X157940000Y-76966000D02*
X156440000Y-76966000D01*
X156440000Y-83966000D02*
X157940000Y-83966000D01*
X160440000Y-82716000D02*
X160440000Y-78216000D01*
X153940000Y-78216000D02*
X153940000Y-82716000D01*
%TO.C,SW1*%
X170620000Y-90251000D02*
X174720000Y-90251000D01*
X162520000Y-90251000D02*
X166620000Y-90251000D01*
X166620000Y-102051000D02*
X162520000Y-102051000D01*
X168620000Y-96651000D02*
X168620000Y-95651000D01*
X175820000Y-100251000D02*
X176120000Y-99951000D01*
X170620000Y-102051000D02*
X174720000Y-102051000D01*
X176120000Y-99951000D02*
X176420000Y-100251000D01*
X176420000Y-100251000D02*
X175820000Y-100251000D01*
X162520000Y-97451000D02*
X162520000Y-94851000D01*
X169120000Y-96151000D02*
X168120000Y-96151000D01*
X162520000Y-92651000D02*
X162520000Y-90251000D01*
X162520000Y-102051000D02*
X162520000Y-99651000D01*
X174720000Y-102051000D02*
X174720000Y-90251000D01*
X171620000Y-96151000D02*
G75*
G03*
X171620000Y-96151000I-3000000J0D01*
G01*
%TO.C,R14*%
X137311000Y-140303000D02*
X137641000Y-140303000D01*
X135231000Y-140303000D02*
X134901000Y-140303000D01*
X134901000Y-133763000D02*
X135231000Y-133763000D01*
X134901000Y-140303000D02*
X134901000Y-133763000D01*
X137641000Y-133763000D02*
X137311000Y-133763000D01*
X137641000Y-140303000D02*
X137641000Y-133763000D01*
%TO.C,R8*%
X172180000Y-103532000D02*
X165640000Y-103532000D01*
X172180000Y-103862000D02*
X172180000Y-103532000D01*
X165640000Y-106272000D02*
X165640000Y-105942000D01*
X172180000Y-106272000D02*
X165640000Y-106272000D01*
X172180000Y-105942000D02*
X172180000Y-106272000D01*
X165640000Y-103532000D02*
X165640000Y-103862000D01*
%TO.C,J6*%
X158810000Y-151130000D02*
X158810000Y-115510000D01*
X158810000Y-152400000D02*
X158810000Y-153730000D01*
X156150000Y-151130000D02*
X156150000Y-115510000D01*
X158810000Y-151130000D02*
X156150000Y-151130000D01*
X158810000Y-115510000D02*
X156150000Y-115510000D01*
X158810000Y-153730000D02*
X157480000Y-153730000D01*
%TD*%
M02*
