M48
; DRILL file {KiCad (6.0.7)} date Sun Jun 18 21:36:49 2023
; FORMAT={-:-/ absolute / metric / decimal}
; #@! TF.CreationDate,2023-06-18T21:36:49-04:00
; #@! TF.GenerationSoftware,Kicad,Pcbnew,(6.0.7)
; #@! TF.FileFunction,Plated,1,2,PTH
FMAT,2
METRIC
; #@! TA.AperFunction,Plated,PTH,ViaDrill
T1C0.400
; #@! TA.AperFunction,Plated,PTH,ComponentDrill
T2C0.750
; #@! TA.AperFunction,Plated,PTH,ComponentDrill
T3C0.800
; #@! TA.AperFunction,Plated,PTH,ComponentDrill
T4C1.000
; #@! TA.AperFunction,Plated,PTH,ComponentDrill
T5C1.100
; #@! TA.AperFunction,Plated,PTH,ComponentDrill
T6C1.400
; #@! TA.AperFunction,Plated,PTH,ComponentDrill
T7C1.500
; #@! TA.AperFunction,Plated,PTH,ComponentDrill
T8C3.200
%
G90
G05
T1
X164.683Y-92.075
T2
X141.097Y-104.267
X142.367Y-104.267
X143.637Y-104.267
T3
X117.221Y-91.059
X117.221Y-98.679
X120.142Y-103.378
X120.396Y-91.059
X120.396Y-93.599
X120.396Y-96.139
X120.396Y-98.679
X127.762Y-103.378
X128.016Y-91.059
X128.016Y-93.599
X128.016Y-96.139
X128.016Y-98.679
X131.572Y-90.932
X131.572Y-98.552
X133.096Y-133.223
X133.096Y-140.843
X135.255Y-91.059
X135.255Y-98.679
X136.271Y-133.223
X136.271Y-140.843
X138.811Y-91.059
X138.811Y-98.679
X142.367Y-91.186
X142.367Y-98.806
X145.796Y-91.186
X145.796Y-98.806
X149.225Y-91.186
X149.225Y-98.806
X156.047Y-90.21
X156.047Y-95.21
X156.047Y-98.251
X156.047Y-103.251
X164.937Y-87.249
X165.1Y-104.902
X165.191Y-76.581
X165.191Y-84.201
X166.624Y-107.798
X166.624Y-110.998
X169.124Y-107.798
X169.124Y-110.998
X170.271Y-76.581
X170.271Y-84.201
X171.624Y-107.798
X171.624Y-110.998
X172.557Y-87.249
X172.72Y-104.902
X180.177Y-87.249
X180.177Y-94.869
X180.177Y-97.409
X180.177Y-105.029
T4
X128.651Y-145.542
X131.191Y-145.542
X133.731Y-145.542
X136.271Y-145.542
X157.48Y-116.84
X157.48Y-119.38
X157.48Y-121.92
X157.48Y-124.46
X157.48Y-127.0
X157.48Y-129.54
X157.48Y-132.08
X157.48Y-134.62
X157.48Y-137.16
X157.48Y-139.7
X157.48Y-142.24
X157.48Y-144.78
X157.48Y-147.32
X157.48Y-149.86
X157.48Y-152.4
X161.29Y-116.84
X161.29Y-119.38
X161.29Y-121.92
X161.29Y-124.46
X161.29Y-127.0
X161.29Y-129.54
X161.29Y-132.08
X161.29Y-134.62
X161.29Y-137.16
X161.29Y-139.7
X161.29Y-142.24
X161.29Y-144.78
X161.29Y-147.32
X161.29Y-149.86
X161.29Y-152.4
X161.62Y-93.651
X161.62Y-98.651
X176.12Y-93.651
X176.12Y-96.151
X176.12Y-98.651
X176.53Y-116.84
X176.53Y-119.38
X176.53Y-121.92
X176.53Y-124.46
X176.53Y-127.0
X176.53Y-129.54
X176.53Y-132.08
X176.53Y-134.62
X176.53Y-137.16
X176.53Y-139.7
X176.53Y-142.24
X176.53Y-144.78
X176.53Y-147.32
X176.53Y-149.86
X176.53Y-152.4
X180.34Y-116.84
X180.34Y-119.38
X180.34Y-121.92
X180.34Y-124.46
X180.34Y-127.0
X180.34Y-129.54
X180.34Y-132.08
X180.34Y-134.62
X180.34Y-137.16
X180.34Y-139.7
X180.34Y-142.24
X180.34Y-144.78
X180.34Y-147.32
X180.34Y-149.86
X180.34Y-152.4
T5
X154.94Y-77.216
X154.94Y-83.716
X159.44Y-77.216
X159.44Y-83.716
X175.677Y-77.47
X175.677Y-83.97
X180.177Y-77.47
X180.177Y-83.97
T6
X117.722Y-68.278
X120.222Y-58.278
X120.222Y-70.778
X125.222Y-68.278
X130.222Y-58.278
X130.222Y-70.778
X132.722Y-68.278
X142.487Y-68.278
X144.987Y-58.278
X144.987Y-70.778
X149.987Y-68.278
X154.987Y-58.278
X154.987Y-70.778
X157.487Y-68.278
T8
X116.713Y-78.486
X116.713Y-153.416
X124.841Y-78.486
X124.841Y-153.543
X147.701Y-78.486
X147.701Y-153.416
X164.084Y-71.882
X168.91Y-153.416
T4
G00X169.698Y-68.05
M15
G01X169.698Y-65.85
M16
G05
G00X175.598Y-63.55
M15
G01X173.398Y-63.55
M16
G05
G00X175.798Y-69.85
M15
G01X173.198Y-69.85
M16
G05
T7
G00X169.27Y-90.551
M15
G01X167.97Y-90.551
M16
G05
G00X169.27Y-101.751
M15
G01X167.97Y-101.751
M16
G05
T0
M30
