%TF.GenerationSoftware,KiCad,Pcbnew,(6.0.7)*%
%TF.CreationDate,2023-07-08T22:35:10-04:00*%
%TF.ProjectId,ArduinoNano_MIDI_breakout,41726475-696e-46f4-9e61-6e6f5f4d4944,rev?*%
%TF.SameCoordinates,Original*%
%TF.FileFunction,Legend,Top*%
%TF.FilePolarity,Positive*%
%FSLAX46Y46*%
G04 Gerber Fmt 4.6, Leading zero omitted, Abs format (unit mm)*
G04 Created by KiCad (PCBNEW (6.0.7)) date 2023-07-08 22:35:10*
%MOMM*%
%LPD*%
G01*
G04 APERTURE LIST*
%ADD10C,0.150000*%
%ADD11C,0.300000*%
%ADD12C,0.120000*%
%ADD13C,0.304800*%
G04 APERTURE END LIST*
D10*
X121181761Y-130349476D02*
X121229380Y-130206619D01*
X121229380Y-129968523D01*
X121181761Y-129873285D01*
X121134142Y-129825666D01*
X121038904Y-129778047D01*
X120943666Y-129778047D01*
X120848428Y-129825666D01*
X120800809Y-129873285D01*
X120753190Y-129968523D01*
X120705571Y-130159000D01*
X120657952Y-130254238D01*
X120610333Y-130301857D01*
X120515095Y-130349476D01*
X120419857Y-130349476D01*
X120324619Y-130301857D01*
X120277000Y-130254238D01*
X120229380Y-130159000D01*
X120229380Y-129920904D01*
X120277000Y-129778047D01*
X121134142Y-128778047D02*
X121181761Y-128825666D01*
X121229380Y-128968523D01*
X121229380Y-129063761D01*
X121181761Y-129206619D01*
X121086523Y-129301857D01*
X120991285Y-129349476D01*
X120800809Y-129397095D01*
X120657952Y-129397095D01*
X120467476Y-129349476D01*
X120372238Y-129301857D01*
X120277000Y-129206619D01*
X120229380Y-129063761D01*
X120229380Y-128968523D01*
X120277000Y-128825666D01*
X120324619Y-128778047D01*
X121229380Y-127873285D02*
X121229380Y-128349476D01*
X120229380Y-128349476D01*
X128039761Y-124761476D02*
X128087380Y-124618619D01*
X128087380Y-124380523D01*
X128039761Y-124285285D01*
X127992142Y-124237666D01*
X127896904Y-124190047D01*
X127801666Y-124190047D01*
X127706428Y-124237666D01*
X127658809Y-124285285D01*
X127611190Y-124380523D01*
X127563571Y-124571000D01*
X127515952Y-124666238D01*
X127468333Y-124713857D01*
X127373095Y-124761476D01*
X127277857Y-124761476D01*
X127182619Y-124713857D01*
X127135000Y-124666238D01*
X127087380Y-124571000D01*
X127087380Y-124332904D01*
X127135000Y-124190047D01*
X127992142Y-123190047D02*
X128039761Y-123237666D01*
X128087380Y-123380523D01*
X128087380Y-123475761D01*
X128039761Y-123618619D01*
X127944523Y-123713857D01*
X127849285Y-123761476D01*
X127658809Y-123809095D01*
X127515952Y-123809095D01*
X127325476Y-123761476D01*
X127230238Y-123713857D01*
X127135000Y-123618619D01*
X127087380Y-123475761D01*
X127087380Y-123380523D01*
X127135000Y-123237666D01*
X127182619Y-123190047D01*
X128087380Y-122285285D02*
X128087380Y-122761476D01*
X127087380Y-122761476D01*
X118387761Y-130627285D02*
X118435380Y-130484428D01*
X118435380Y-130246333D01*
X118387761Y-130151095D01*
X118340142Y-130103476D01*
X118244904Y-130055857D01*
X118149666Y-130055857D01*
X118054428Y-130103476D01*
X118006809Y-130151095D01*
X117959190Y-130246333D01*
X117911571Y-130436809D01*
X117863952Y-130532047D01*
X117816333Y-130579666D01*
X117721095Y-130627285D01*
X117625857Y-130627285D01*
X117530619Y-130579666D01*
X117483000Y-130532047D01*
X117435380Y-130436809D01*
X117435380Y-130198714D01*
X117483000Y-130055857D01*
X118435380Y-129627285D02*
X117435380Y-129627285D01*
X117435380Y-129389190D01*
X117483000Y-129246333D01*
X117578238Y-129151095D01*
X117673476Y-129103476D01*
X117863952Y-129055857D01*
X118006809Y-129055857D01*
X118197285Y-129103476D01*
X118292523Y-129151095D01*
X118387761Y-129246333D01*
X118435380Y-129389190D01*
X118435380Y-129627285D01*
X118149666Y-128674904D02*
X118149666Y-128198714D01*
X118435380Y-128770142D02*
X117435380Y-128436809D01*
X118435380Y-128103476D01*
X125499761Y-125039285D02*
X125547380Y-124896428D01*
X125547380Y-124658333D01*
X125499761Y-124563095D01*
X125452142Y-124515476D01*
X125356904Y-124467857D01*
X125261666Y-124467857D01*
X125166428Y-124515476D01*
X125118809Y-124563095D01*
X125071190Y-124658333D01*
X125023571Y-124848809D01*
X124975952Y-124944047D01*
X124928333Y-124991666D01*
X124833095Y-125039285D01*
X124737857Y-125039285D01*
X124642619Y-124991666D01*
X124595000Y-124944047D01*
X124547380Y-124848809D01*
X124547380Y-124610714D01*
X124595000Y-124467857D01*
X125547380Y-124039285D02*
X124547380Y-124039285D01*
X124547380Y-123801190D01*
X124595000Y-123658333D01*
X124690238Y-123563095D01*
X124785476Y-123515476D01*
X124975952Y-123467857D01*
X125118809Y-123467857D01*
X125309285Y-123515476D01*
X125404523Y-123563095D01*
X125499761Y-123658333D01*
X125547380Y-123801190D01*
X125547380Y-124039285D01*
X125261666Y-123086904D02*
X125261666Y-122610714D01*
X125547380Y-123182142D02*
X124547380Y-122848809D01*
X125547380Y-122515476D01*
X122626428Y-125110714D02*
X122626428Y-124348809D01*
X123007380Y-124729761D02*
X122245476Y-124729761D01*
X122007380Y-123396428D02*
X122007380Y-123872619D01*
X122483571Y-123920238D01*
X122435952Y-123872619D01*
X122388333Y-123777380D01*
X122388333Y-123539285D01*
X122435952Y-123444047D01*
X122483571Y-123396428D01*
X122578809Y-123348809D01*
X122816904Y-123348809D01*
X122912142Y-123396428D01*
X122959761Y-123444047D01*
X123007380Y-123539285D01*
X123007380Y-123777380D01*
X122959761Y-123872619D01*
X122912142Y-123920238D01*
X122007380Y-123063095D02*
X123007380Y-122729761D01*
X122007380Y-122396428D01*
X115260428Y-130952714D02*
X115260428Y-130190809D01*
X115641380Y-130571761D02*
X114879476Y-130571761D01*
X114641380Y-129238428D02*
X114641380Y-129714619D01*
X115117571Y-129762238D01*
X115069952Y-129714619D01*
X115022333Y-129619380D01*
X115022333Y-129381285D01*
X115069952Y-129286047D01*
X115117571Y-129238428D01*
X115212809Y-129190809D01*
X115450904Y-129190809D01*
X115546142Y-129238428D01*
X115593761Y-129286047D01*
X115641380Y-129381285D01*
X115641380Y-129619380D01*
X115593761Y-129714619D01*
X115546142Y-129762238D01*
X114641380Y-128905095D02*
X115641380Y-128571761D01*
X114641380Y-128238428D01*
X112149000Y-130174904D02*
X112101380Y-130270142D01*
X112101380Y-130413000D01*
X112149000Y-130555857D01*
X112244238Y-130651095D01*
X112339476Y-130698714D01*
X112529952Y-130746333D01*
X112672809Y-130746333D01*
X112863285Y-130698714D01*
X112958523Y-130651095D01*
X113053761Y-130555857D01*
X113101380Y-130413000D01*
X113101380Y-130317761D01*
X113053761Y-130174904D01*
X113006142Y-130127285D01*
X112672809Y-130127285D01*
X112672809Y-130317761D01*
X113101380Y-129698714D02*
X112101380Y-129698714D01*
X113101380Y-129127285D01*
X112101380Y-129127285D01*
X113101380Y-128651095D02*
X112101380Y-128651095D01*
X112101380Y-128413000D01*
X112149000Y-128270142D01*
X112244238Y-128174904D01*
X112339476Y-128127285D01*
X112529952Y-128079666D01*
X112672809Y-128079666D01*
X112863285Y-128127285D01*
X112958523Y-128174904D01*
X113053761Y-128270142D01*
X113101380Y-128413000D01*
X113101380Y-128651095D01*
X119261000Y-124332904D02*
X119213380Y-124428142D01*
X119213380Y-124571000D01*
X119261000Y-124713857D01*
X119356238Y-124809095D01*
X119451476Y-124856714D01*
X119641952Y-124904333D01*
X119784809Y-124904333D01*
X119975285Y-124856714D01*
X120070523Y-124809095D01*
X120165761Y-124713857D01*
X120213380Y-124571000D01*
X120213380Y-124475761D01*
X120165761Y-124332904D01*
X120118142Y-124285285D01*
X119784809Y-124285285D01*
X119784809Y-124475761D01*
X120213380Y-123856714D02*
X119213380Y-123856714D01*
X120213380Y-123285285D01*
X119213380Y-123285285D01*
X120213380Y-122809095D02*
X119213380Y-122809095D01*
X119213380Y-122571000D01*
X119261000Y-122428142D01*
X119356238Y-122332904D01*
X119451476Y-122285285D01*
X119641952Y-122237666D01*
X119784809Y-122237666D01*
X119975285Y-122285285D01*
X120070523Y-122332904D01*
X120165761Y-122428142D01*
X120213380Y-122571000D01*
X120213380Y-122809095D01*
D11*
X154983571Y-93507857D02*
X154269285Y-93007857D01*
X154983571Y-92650714D02*
X153483571Y-92650714D01*
X153483571Y-93222142D01*
X153555000Y-93365000D01*
X153626428Y-93436428D01*
X153769285Y-93507857D01*
X153983571Y-93507857D01*
X154126428Y-93436428D01*
X154197857Y-93365000D01*
X154269285Y-93222142D01*
X154269285Y-92650714D01*
X153483571Y-94150714D02*
X154697857Y-94150714D01*
X154840714Y-94222142D01*
X154912142Y-94293571D01*
X154983571Y-94436428D01*
X154983571Y-94722142D01*
X154912142Y-94865000D01*
X154840714Y-94936428D01*
X154697857Y-95007857D01*
X153483571Y-95007857D01*
X154983571Y-95722142D02*
X153483571Y-95722142D01*
X154983571Y-96579285D01*
X153483571Y-96579285D01*
X166921571Y-91936428D02*
X165421571Y-91936428D01*
X165421571Y-92507857D01*
X165493000Y-92650714D01*
X165564428Y-92722142D01*
X165707285Y-92793571D01*
X165921571Y-92793571D01*
X166064428Y-92722142D01*
X166135857Y-92650714D01*
X166207285Y-92507857D01*
X166207285Y-91936428D01*
X166921571Y-94293571D02*
X166207285Y-93793571D01*
X166921571Y-93436428D02*
X165421571Y-93436428D01*
X165421571Y-94007857D01*
X165493000Y-94150714D01*
X165564428Y-94222142D01*
X165707285Y-94293571D01*
X165921571Y-94293571D01*
X166064428Y-94222142D01*
X166135857Y-94150714D01*
X166207285Y-94007857D01*
X166207285Y-93436428D01*
X165421571Y-95222142D02*
X165421571Y-95507857D01*
X165493000Y-95650714D01*
X165635857Y-95793571D01*
X165921571Y-95865000D01*
X166421571Y-95865000D01*
X166707285Y-95793571D01*
X166850142Y-95650714D01*
X166921571Y-95507857D01*
X166921571Y-95222142D01*
X166850142Y-95079285D01*
X166707285Y-94936428D01*
X166421571Y-94865000D01*
X165921571Y-94865000D01*
X165635857Y-94936428D01*
X165493000Y-95079285D01*
X165421571Y-95222142D01*
X165493000Y-97293571D02*
X165421571Y-97150714D01*
X165421571Y-96936428D01*
X165493000Y-96722142D01*
X165635857Y-96579285D01*
X165778714Y-96507857D01*
X166064428Y-96436428D01*
X166278714Y-96436428D01*
X166564428Y-96507857D01*
X166707285Y-96579285D01*
X166850142Y-96722142D01*
X166921571Y-96936428D01*
X166921571Y-97079285D01*
X166850142Y-97293571D01*
X166778714Y-97365000D01*
X166278714Y-97365000D01*
X166278714Y-97079285D01*
X108047761Y-121121809D02*
X106047761Y-121121809D01*
X107476333Y-120455142D01*
X106047761Y-119788476D01*
X108047761Y-119788476D01*
X108047761Y-118836095D02*
X106047761Y-118836095D01*
X108047761Y-117883714D02*
X106047761Y-117883714D01*
X106047761Y-117407523D01*
X106143000Y-117121809D01*
X106333476Y-116931333D01*
X106523952Y-116836095D01*
X106904904Y-116740857D01*
X107190619Y-116740857D01*
X107571571Y-116836095D01*
X107762047Y-116931333D01*
X107952523Y-117121809D01*
X108047761Y-117407523D01*
X108047761Y-117883714D01*
X108047761Y-115883714D02*
X106047761Y-115883714D01*
X107000142Y-112740857D02*
X107095380Y-112455142D01*
X107190619Y-112359904D01*
X107381095Y-112264666D01*
X107666809Y-112264666D01*
X107857285Y-112359904D01*
X107952523Y-112455142D01*
X108047761Y-112645619D01*
X108047761Y-113407523D01*
X106047761Y-113407523D01*
X106047761Y-112740857D01*
X106143000Y-112550380D01*
X106238238Y-112455142D01*
X106428714Y-112359904D01*
X106619190Y-112359904D01*
X106809666Y-112455142D01*
X106904904Y-112550380D01*
X107000142Y-112740857D01*
X107000142Y-113407523D01*
X108047761Y-110264666D02*
X107095380Y-110931333D01*
X108047761Y-111407523D02*
X106047761Y-111407523D01*
X106047761Y-110645619D01*
X106143000Y-110455142D01*
X106238238Y-110359904D01*
X106428714Y-110264666D01*
X106714428Y-110264666D01*
X106904904Y-110359904D01*
X107000142Y-110455142D01*
X107095380Y-110645619D01*
X107095380Y-111407523D01*
X107000142Y-109407523D02*
X107000142Y-108740857D01*
X108047761Y-108455142D02*
X108047761Y-109407523D01*
X106047761Y-109407523D01*
X106047761Y-108455142D01*
X107476333Y-107693238D02*
X107476333Y-106740857D01*
X108047761Y-107883714D02*
X106047761Y-107217047D01*
X108047761Y-106550380D01*
X108047761Y-105883714D02*
X106047761Y-105883714D01*
X108047761Y-104740857D02*
X106904904Y-105598000D01*
X106047761Y-104740857D02*
X107190619Y-105883714D01*
X106047761Y-103502761D02*
X106047761Y-103121809D01*
X106143000Y-102931333D01*
X106333476Y-102740857D01*
X106714428Y-102645619D01*
X107381095Y-102645619D01*
X107762047Y-102740857D01*
X107952523Y-102931333D01*
X108047761Y-103121809D01*
X108047761Y-103502761D01*
X107952523Y-103693238D01*
X107762047Y-103883714D01*
X107381095Y-103978952D01*
X106714428Y-103978952D01*
X106333476Y-103883714D01*
X106143000Y-103693238D01*
X106047761Y-103502761D01*
X106047761Y-101788476D02*
X107666809Y-101788476D01*
X107857285Y-101693238D01*
X107952523Y-101598000D01*
X108047761Y-101407523D01*
X108047761Y-101026571D01*
X107952523Y-100836095D01*
X107857285Y-100740857D01*
X107666809Y-100645619D01*
X106047761Y-100645619D01*
X106047761Y-99978952D02*
X106047761Y-98836095D01*
X108047761Y-99407523D02*
X106047761Y-99407523D01*
X110220142Y-121121809D02*
X110220142Y-120455142D01*
X111267761Y-120169428D02*
X111267761Y-121121809D01*
X109267761Y-121121809D01*
X109267761Y-120169428D01*
X109934428Y-119502761D02*
X109934428Y-118455142D01*
X111267761Y-119502761D01*
X111267761Y-118455142D01*
X111172523Y-116931333D02*
X111267761Y-117121809D01*
X111267761Y-117502761D01*
X111172523Y-117693238D01*
X110982047Y-117788476D01*
X110220142Y-117788476D01*
X110029666Y-117693238D01*
X109934428Y-117502761D01*
X109934428Y-117121809D01*
X110029666Y-116931333D01*
X110220142Y-116836095D01*
X110410619Y-116836095D01*
X110601095Y-117788476D01*
X111267761Y-115978952D02*
X109934428Y-115978952D01*
X110315380Y-115978952D02*
X110124904Y-115883714D01*
X110029666Y-115788476D01*
X109934428Y-115598000D01*
X109934428Y-115407523D01*
X111267761Y-112264666D02*
X111267761Y-113217047D01*
X109267761Y-113217047D01*
X111267761Y-111312285D02*
X111172523Y-111502761D01*
X111077285Y-111598000D01*
X110886809Y-111693238D01*
X110315380Y-111693238D01*
X110124904Y-111598000D01*
X110029666Y-111502761D01*
X109934428Y-111312285D01*
X109934428Y-111026571D01*
X110029666Y-110836095D01*
X110124904Y-110740857D01*
X110315380Y-110645619D01*
X110886809Y-110645619D01*
X111077285Y-110740857D01*
X111172523Y-110836095D01*
X111267761Y-111026571D01*
X111267761Y-111312285D01*
X109934428Y-109788476D02*
X111267761Y-109788476D01*
X110124904Y-109788476D02*
X110029666Y-109693238D01*
X109934428Y-109502761D01*
X109934428Y-109217047D01*
X110029666Y-109026571D01*
X110220142Y-108931333D01*
X111267761Y-108931333D01*
X109934428Y-107121809D02*
X111553476Y-107121809D01*
X111743952Y-107217047D01*
X111839190Y-107312285D01*
X111934428Y-107502761D01*
X111934428Y-107788476D01*
X111839190Y-107978952D01*
X111172523Y-107121809D02*
X111267761Y-107312285D01*
X111267761Y-107693238D01*
X111172523Y-107883714D01*
X111077285Y-107978952D01*
X110886809Y-108074190D01*
X110315380Y-108074190D01*
X110124904Y-107978952D01*
X110029666Y-107883714D01*
X109934428Y-107693238D01*
X109934428Y-107312285D01*
X110029666Y-107121809D01*
X111267761Y-106169428D02*
X109934428Y-106169428D01*
X109267761Y-106169428D02*
X109363000Y-106264666D01*
X109458238Y-106169428D01*
X109363000Y-106074190D01*
X109267761Y-106169428D01*
X109458238Y-106169428D01*
X109934428Y-105217047D02*
X111267761Y-105217047D01*
X110124904Y-105217047D02*
X110029666Y-105121809D01*
X109934428Y-104931333D01*
X109934428Y-104645619D01*
X110029666Y-104455142D01*
X110220142Y-104359904D01*
X111267761Y-104359904D01*
X109934428Y-102550380D02*
X111267761Y-102550380D01*
X109934428Y-103407523D02*
X110982047Y-103407523D01*
X111172523Y-103312285D01*
X111267761Y-103121809D01*
X111267761Y-102836095D01*
X111172523Y-102645619D01*
X111077285Y-102550380D01*
X111172523Y-101693238D02*
X111267761Y-101502761D01*
X111267761Y-101121809D01*
X111172523Y-100931333D01*
X110982047Y-100836095D01*
X110886809Y-100836095D01*
X110696333Y-100931333D01*
X110601095Y-101121809D01*
X110601095Y-101407523D01*
X110505857Y-101598000D01*
X110315380Y-101693238D01*
X110220142Y-101693238D01*
X110029666Y-101598000D01*
X109934428Y-101407523D01*
X109934428Y-101121809D01*
X110029666Y-100931333D01*
X112487761Y-120550380D02*
X113916333Y-120550380D01*
X114202047Y-120645619D01*
X114392523Y-120836095D01*
X114487761Y-121121809D01*
X114487761Y-121312285D01*
X113154428Y-118740857D02*
X114487761Y-118740857D01*
X113154428Y-119598000D02*
X114202047Y-119598000D01*
X114392523Y-119502761D01*
X114487761Y-119312285D01*
X114487761Y-119026571D01*
X114392523Y-118836095D01*
X114297285Y-118740857D01*
X114487761Y-117502761D02*
X114392523Y-117693238D01*
X114202047Y-117788476D01*
X112487761Y-117788476D01*
X113154428Y-116931333D02*
X114487761Y-116455142D01*
X113154428Y-115978952D02*
X114487761Y-116455142D01*
X114963952Y-116645619D01*
X115059190Y-116740857D01*
X115154428Y-116931333D01*
X112678238Y-113788476D02*
X112583000Y-113693238D01*
X112487761Y-113502761D01*
X112487761Y-113026571D01*
X112583000Y-112836095D01*
X112678238Y-112740857D01*
X112868714Y-112645619D01*
X113059190Y-112645619D01*
X113344904Y-112740857D01*
X114487761Y-113883714D01*
X114487761Y-112645619D01*
X112487761Y-111407523D02*
X112487761Y-111217047D01*
X112583000Y-111026571D01*
X112678238Y-110931333D01*
X112868714Y-110836095D01*
X113249666Y-110740857D01*
X113725857Y-110740857D01*
X114106809Y-110836095D01*
X114297285Y-110931333D01*
X114392523Y-111026571D01*
X114487761Y-111217047D01*
X114487761Y-111407523D01*
X114392523Y-111598000D01*
X114297285Y-111693238D01*
X114106809Y-111788476D01*
X113725857Y-111883714D01*
X113249666Y-111883714D01*
X112868714Y-111788476D01*
X112678238Y-111693238D01*
X112583000Y-111598000D01*
X112487761Y-111407523D01*
X112678238Y-109978952D02*
X112583000Y-109883714D01*
X112487761Y-109693238D01*
X112487761Y-109217047D01*
X112583000Y-109026571D01*
X112678238Y-108931333D01*
X112868714Y-108836095D01*
X113059190Y-108836095D01*
X113344904Y-108931333D01*
X114487761Y-110074190D01*
X114487761Y-108836095D01*
X112487761Y-108169428D02*
X112487761Y-106931333D01*
X113249666Y-107598000D01*
X113249666Y-107312285D01*
X113344904Y-107121809D01*
X113440142Y-107026571D01*
X113630619Y-106931333D01*
X114106809Y-106931333D01*
X114297285Y-107026571D01*
X114392523Y-107121809D01*
X114487761Y-107312285D01*
X114487761Y-107883714D01*
X114392523Y-108074190D01*
X114297285Y-108169428D01*
D10*
%TO.C,U2*%
X114681095Y-73322380D02*
X114681095Y-74131904D01*
X114728714Y-74227142D01*
X114776333Y-74274761D01*
X114871571Y-74322380D01*
X115062047Y-74322380D01*
X115157285Y-74274761D01*
X115204904Y-74227142D01*
X115252523Y-74131904D01*
X115252523Y-73322380D01*
X115681095Y-73417619D02*
X115728714Y-73370000D01*
X115823952Y-73322380D01*
X116062047Y-73322380D01*
X116157285Y-73370000D01*
X116204904Y-73417619D01*
X116252523Y-73512857D01*
X116252523Y-73608095D01*
X116204904Y-73750952D01*
X115633476Y-74322380D01*
X116252523Y-74322380D01*
X113681095Y-85602380D02*
X113490619Y-85602380D01*
X113395380Y-85650000D01*
X113347761Y-85697619D01*
X113252523Y-85840476D01*
X113204904Y-86030952D01*
X113204904Y-86411904D01*
X113252523Y-86507142D01*
X113300142Y-86554761D01*
X113395380Y-86602380D01*
X113585857Y-86602380D01*
X113681095Y-86554761D01*
X113728714Y-86507142D01*
X113776333Y-86411904D01*
X113776333Y-86173809D01*
X113728714Y-86078571D01*
X113681095Y-86030952D01*
X113585857Y-85983333D01*
X113395380Y-85983333D01*
X113300142Y-86030952D01*
X113252523Y-86078571D01*
X113204904Y-86173809D01*
X114204904Y-86602380D02*
X114204904Y-85602380D01*
X114776333Y-86602380D01*
X114776333Y-85602380D01*
X115776333Y-86602380D02*
X115204904Y-86602380D01*
X115490619Y-86602380D02*
X115490619Y-85602380D01*
X115395380Y-85745238D01*
X115300142Y-85840476D01*
X115204904Y-85888095D01*
X116109666Y-85602380D02*
X116728714Y-85602380D01*
X116395380Y-85983333D01*
X116538238Y-85983333D01*
X116633476Y-86030952D01*
X116681095Y-86078571D01*
X116728714Y-86173809D01*
X116728714Y-86411904D01*
X116681095Y-86507142D01*
X116633476Y-86554761D01*
X116538238Y-86602380D01*
X116252523Y-86602380D01*
X116157285Y-86554761D01*
X116109666Y-86507142D01*
X117204904Y-86602380D02*
X117395380Y-86602380D01*
X117490619Y-86554761D01*
X117538238Y-86507142D01*
X117633476Y-86364285D01*
X117681095Y-86173809D01*
X117681095Y-85792857D01*
X117633476Y-85697619D01*
X117585857Y-85650000D01*
X117490619Y-85602380D01*
X117300142Y-85602380D01*
X117204904Y-85650000D01*
X117157285Y-85697619D01*
X117109666Y-85792857D01*
X117109666Y-86030952D01*
X117157285Y-86126190D01*
X117204904Y-86173809D01*
X117300142Y-86221428D01*
X117490619Y-86221428D01*
X117585857Y-86173809D01*
X117633476Y-86126190D01*
X117681095Y-86030952D01*
%TO.C,D1*%
X108100904Y-89098380D02*
X108100904Y-88098380D01*
X108339000Y-88098380D01*
X108481857Y-88146000D01*
X108577095Y-88241238D01*
X108624714Y-88336476D01*
X108672333Y-88526952D01*
X108672333Y-88669809D01*
X108624714Y-88860285D01*
X108577095Y-88955523D01*
X108481857Y-89050761D01*
X108339000Y-89098380D01*
X108100904Y-89098380D01*
X109624714Y-89098380D02*
X109053285Y-89098380D01*
X109339000Y-89098380D02*
X109339000Y-88098380D01*
X109243761Y-88241238D01*
X109148523Y-88336476D01*
X109053285Y-88384095D01*
X121174142Y-89098380D02*
X120602714Y-89098380D01*
X120888428Y-89098380D02*
X120888428Y-88098380D01*
X120793190Y-88241238D01*
X120697952Y-88336476D01*
X120602714Y-88384095D01*
X121602714Y-89098380D02*
X121602714Y-88098380D01*
X122174142Y-89098380D01*
X122174142Y-88098380D01*
X123078904Y-88431714D02*
X123078904Y-89098380D01*
X122840809Y-88050761D02*
X122602714Y-88765047D01*
X123221761Y-88765047D01*
X124126523Y-89098380D02*
X123555095Y-89098380D01*
X123840809Y-89098380D02*
X123840809Y-88098380D01*
X123745571Y-88241238D01*
X123650333Y-88336476D01*
X123555095Y-88384095D01*
X124983666Y-88431714D02*
X124983666Y-89098380D01*
X124745571Y-88050761D02*
X124507476Y-88765047D01*
X125126523Y-88765047D01*
X125650333Y-88526952D02*
X125555095Y-88479333D01*
X125507476Y-88431714D01*
X125459857Y-88336476D01*
X125459857Y-88288857D01*
X125507476Y-88193619D01*
X125555095Y-88146000D01*
X125650333Y-88098380D01*
X125840809Y-88098380D01*
X125936047Y-88146000D01*
X125983666Y-88193619D01*
X126031285Y-88288857D01*
X126031285Y-88336476D01*
X125983666Y-88431714D01*
X125936047Y-88479333D01*
X125840809Y-88526952D01*
X125650333Y-88526952D01*
X125555095Y-88574571D01*
X125507476Y-88622190D01*
X125459857Y-88717428D01*
X125459857Y-88907904D01*
X125507476Y-89003142D01*
X125555095Y-89050761D01*
X125650333Y-89098380D01*
X125840809Y-89098380D01*
X125936047Y-89050761D01*
X125983666Y-89003142D01*
X126031285Y-88907904D01*
X126031285Y-88717428D01*
X125983666Y-88622190D01*
X125936047Y-88574571D01*
X125840809Y-88526952D01*
%TO.C,J4*%
X117800380Y-120864190D02*
X116800380Y-120864190D01*
X116895619Y-120435619D02*
X116848000Y-120388000D01*
X116800380Y-120292761D01*
X116800380Y-120054666D01*
X116848000Y-119959428D01*
X116895619Y-119911809D01*
X116990857Y-119864190D01*
X117086095Y-119864190D01*
X117228952Y-119911809D01*
X117800380Y-120483238D01*
X117800380Y-119864190D01*
X117705142Y-118864190D02*
X117752761Y-118911809D01*
X117800380Y-119054666D01*
X117800380Y-119149904D01*
X117752761Y-119292761D01*
X117657523Y-119388000D01*
X117562285Y-119435619D01*
X117371809Y-119483238D01*
X117228952Y-119483238D01*
X117038476Y-119435619D01*
X116943238Y-119388000D01*
X116848000Y-119292761D01*
X116800380Y-119149904D01*
X116800380Y-119054666D01*
X116848000Y-118911809D01*
X116895619Y-118864190D01*
%TO.C,R10*%
X171866380Y-76842857D02*
X171390190Y-77176190D01*
X171866380Y-77414285D02*
X170866380Y-77414285D01*
X170866380Y-77033333D01*
X170914000Y-76938095D01*
X170961619Y-76890476D01*
X171056857Y-76842857D01*
X171199714Y-76842857D01*
X171294952Y-76890476D01*
X171342571Y-76938095D01*
X171390190Y-77033333D01*
X171390190Y-77414285D01*
X171866380Y-75890476D02*
X171866380Y-76461904D01*
X171866380Y-76176190D02*
X170866380Y-76176190D01*
X171009238Y-76271428D01*
X171104476Y-76366666D01*
X171152095Y-76461904D01*
X170866380Y-75271428D02*
X170866380Y-75176190D01*
X170914000Y-75080952D01*
X170961619Y-75033333D01*
X171056857Y-74985714D01*
X171247333Y-74938095D01*
X171485428Y-74938095D01*
X171675904Y-74985714D01*
X171771142Y-75033333D01*
X171818761Y-75080952D01*
X171866380Y-75176190D01*
X171866380Y-75271428D01*
X171818761Y-75366666D01*
X171771142Y-75414285D01*
X171675904Y-75461904D01*
X171485428Y-75509523D01*
X171247333Y-75509523D01*
X171056857Y-75461904D01*
X170961619Y-75414285D01*
X170914000Y-75366666D01*
X170866380Y-75271428D01*
X168591619Y-77438095D02*
X168544000Y-77390476D01*
X168496380Y-77295238D01*
X168496380Y-77057142D01*
X168544000Y-76961904D01*
X168591619Y-76914285D01*
X168686857Y-76866666D01*
X168782095Y-76866666D01*
X168924952Y-76914285D01*
X169496380Y-77485714D01*
X169496380Y-76866666D01*
X168591619Y-76485714D02*
X168544000Y-76438095D01*
X168496380Y-76342857D01*
X168496380Y-76104761D01*
X168544000Y-76009523D01*
X168591619Y-75961904D01*
X168686857Y-75914285D01*
X168782095Y-75914285D01*
X168924952Y-75961904D01*
X169496380Y-76533333D01*
X169496380Y-75914285D01*
X168496380Y-75295238D02*
X168496380Y-75200000D01*
X168544000Y-75104761D01*
X168591619Y-75057142D01*
X168686857Y-75009523D01*
X168877333Y-74961904D01*
X169115428Y-74961904D01*
X169305904Y-75009523D01*
X169401142Y-75057142D01*
X169448761Y-75104761D01*
X169496380Y-75200000D01*
X169496380Y-75295238D01*
X169448761Y-75390476D01*
X169401142Y-75438095D01*
X169305904Y-75485714D01*
X169115428Y-75533333D01*
X168877333Y-75533333D01*
X168686857Y-75485714D01*
X168591619Y-75438095D01*
X168544000Y-75390476D01*
X168496380Y-75295238D01*
%TO.C,Q1*%
X133508761Y-86395619D02*
X133413523Y-86348000D01*
X133318285Y-86252761D01*
X133175428Y-86109904D01*
X133080190Y-86062285D01*
X132984952Y-86062285D01*
X133032571Y-86300380D02*
X132937333Y-86252761D01*
X132842095Y-86157523D01*
X132794476Y-85967047D01*
X132794476Y-85633714D01*
X132842095Y-85443238D01*
X132937333Y-85348000D01*
X133032571Y-85300380D01*
X133223047Y-85300380D01*
X133318285Y-85348000D01*
X133413523Y-85443238D01*
X133461142Y-85633714D01*
X133461142Y-85967047D01*
X133413523Y-86157523D01*
X133318285Y-86252761D01*
X133223047Y-86300380D01*
X133032571Y-86300380D01*
X134413523Y-86300380D02*
X133842095Y-86300380D01*
X134127809Y-86300380D02*
X134127809Y-85300380D01*
X134032571Y-85443238D01*
X133937333Y-85538476D01*
X133842095Y-85586095D01*
X130889714Y-91745619D02*
X130937333Y-91698000D01*
X131032571Y-91650380D01*
X131270666Y-91650380D01*
X131365904Y-91698000D01*
X131413523Y-91745619D01*
X131461142Y-91840857D01*
X131461142Y-91936095D01*
X131413523Y-92078952D01*
X130842095Y-92650380D01*
X131461142Y-92650380D01*
X131889714Y-92650380D02*
X131889714Y-91650380D01*
X132461142Y-92650380D01*
X132461142Y-91650380D01*
X132842095Y-91650380D02*
X133461142Y-91650380D01*
X133127809Y-92031333D01*
X133270666Y-92031333D01*
X133365904Y-92078952D01*
X133413523Y-92126571D01*
X133461142Y-92221809D01*
X133461142Y-92459904D01*
X133413523Y-92555142D01*
X133365904Y-92602761D01*
X133270666Y-92650380D01*
X132984952Y-92650380D01*
X132889714Y-92602761D01*
X132842095Y-92555142D01*
X133937333Y-92650380D02*
X134127809Y-92650380D01*
X134223047Y-92602761D01*
X134270666Y-92555142D01*
X134365904Y-92412285D01*
X134413523Y-92221809D01*
X134413523Y-91840857D01*
X134365904Y-91745619D01*
X134318285Y-91698000D01*
X134223047Y-91650380D01*
X134032571Y-91650380D01*
X133937333Y-91698000D01*
X133889714Y-91745619D01*
X133842095Y-91840857D01*
X133842095Y-92078952D01*
X133889714Y-92174190D01*
X133937333Y-92221809D01*
X134032571Y-92269428D01*
X134223047Y-92269428D01*
X134318285Y-92221809D01*
X134365904Y-92174190D01*
X134413523Y-92078952D01*
X135032571Y-91650380D02*
X135127809Y-91650380D01*
X135223047Y-91698000D01*
X135270666Y-91745619D01*
X135318285Y-91840857D01*
X135365904Y-92031333D01*
X135365904Y-92269428D01*
X135318285Y-92459904D01*
X135270666Y-92555142D01*
X135223047Y-92602761D01*
X135127809Y-92650380D01*
X135032571Y-92650380D01*
X134937333Y-92602761D01*
X134889714Y-92555142D01*
X134842095Y-92459904D01*
X134794476Y-92269428D01*
X134794476Y-92031333D01*
X134842095Y-91840857D01*
X134889714Y-91745619D01*
X134937333Y-91698000D01*
X135032571Y-91650380D01*
X136223047Y-91983714D02*
X136223047Y-92650380D01*
X135984952Y-91602761D02*
X135746857Y-92317047D01*
X136365904Y-92317047D01*
%TO.C,R15*%
X123261380Y-74175857D02*
X122785190Y-74509190D01*
X123261380Y-74747285D02*
X122261380Y-74747285D01*
X122261380Y-74366333D01*
X122309000Y-74271095D01*
X122356619Y-74223476D01*
X122451857Y-74175857D01*
X122594714Y-74175857D01*
X122689952Y-74223476D01*
X122737571Y-74271095D01*
X122785190Y-74366333D01*
X122785190Y-74747285D01*
X123261380Y-73223476D02*
X123261380Y-73794904D01*
X123261380Y-73509190D02*
X122261380Y-73509190D01*
X122404238Y-73604428D01*
X122499476Y-73699666D01*
X122547095Y-73794904D01*
X122261380Y-72318714D02*
X122261380Y-72794904D01*
X122737571Y-72842523D01*
X122689952Y-72794904D01*
X122642333Y-72699666D01*
X122642333Y-72461571D01*
X122689952Y-72366333D01*
X122737571Y-72318714D01*
X122832809Y-72271095D01*
X123070904Y-72271095D01*
X123166142Y-72318714D01*
X123213761Y-72366333D01*
X123261380Y-72461571D01*
X123261380Y-72699666D01*
X123213761Y-72794904D01*
X123166142Y-72842523D01*
X123261380Y-70604047D02*
X123261380Y-71175476D01*
X123261380Y-70889761D02*
X122261380Y-70889761D01*
X122404238Y-70985000D01*
X122499476Y-71080238D01*
X122547095Y-71175476D01*
X123261380Y-70175476D02*
X122261380Y-70175476D01*
X122880428Y-70080238D02*
X123261380Y-69794523D01*
X122594714Y-69794523D02*
X122975666Y-70175476D01*
%TO.C,R6*%
X127198380Y-74080666D02*
X126722190Y-74414000D01*
X127198380Y-74652095D02*
X126198380Y-74652095D01*
X126198380Y-74271142D01*
X126246000Y-74175904D01*
X126293619Y-74128285D01*
X126388857Y-74080666D01*
X126531714Y-74080666D01*
X126626952Y-74128285D01*
X126674571Y-74175904D01*
X126722190Y-74271142D01*
X126722190Y-74652095D01*
X126198380Y-73223523D02*
X126198380Y-73414000D01*
X126246000Y-73509238D01*
X126293619Y-73556857D01*
X126436476Y-73652095D01*
X126626952Y-73699714D01*
X127007904Y-73699714D01*
X127103142Y-73652095D01*
X127150761Y-73604476D01*
X127198380Y-73509238D01*
X127198380Y-73318761D01*
X127150761Y-73223523D01*
X127103142Y-73175904D01*
X127007904Y-73128285D01*
X126769809Y-73128285D01*
X126674571Y-73175904D01*
X126626952Y-73223523D01*
X126579333Y-73318761D01*
X126579333Y-73509238D01*
X126626952Y-73604476D01*
X126674571Y-73652095D01*
X126769809Y-73699714D01*
X126166619Y-71469095D02*
X126119000Y-71421476D01*
X126071380Y-71326238D01*
X126071380Y-71088142D01*
X126119000Y-70992904D01*
X126166619Y-70945285D01*
X126261857Y-70897666D01*
X126357095Y-70897666D01*
X126499952Y-70945285D01*
X127071380Y-71516714D01*
X127071380Y-70897666D01*
X126166619Y-70516714D02*
X126119000Y-70469095D01*
X126071380Y-70373857D01*
X126071380Y-70135761D01*
X126119000Y-70040523D01*
X126166619Y-69992904D01*
X126261857Y-69945285D01*
X126357095Y-69945285D01*
X126499952Y-69992904D01*
X127071380Y-70564333D01*
X127071380Y-69945285D01*
X126071380Y-69326238D02*
X126071380Y-69231000D01*
X126119000Y-69135761D01*
X126166619Y-69088142D01*
X126261857Y-69040523D01*
X126452333Y-68992904D01*
X126690428Y-68992904D01*
X126880904Y-69040523D01*
X126976142Y-69088142D01*
X127023761Y-69135761D01*
X127071380Y-69231000D01*
X127071380Y-69326238D01*
X127023761Y-69421476D01*
X126976142Y-69469095D01*
X126880904Y-69516714D01*
X126690428Y-69564333D01*
X126452333Y-69564333D01*
X126261857Y-69516714D01*
X126166619Y-69469095D01*
X126119000Y-69421476D01*
X126071380Y-69326238D01*
%TO.C,R7*%
X159309333Y-73159880D02*
X158976000Y-72683690D01*
X158737904Y-73159880D02*
X158737904Y-72159880D01*
X159118857Y-72159880D01*
X159214095Y-72207500D01*
X159261714Y-72255119D01*
X159309333Y-72350357D01*
X159309333Y-72493214D01*
X159261714Y-72588452D01*
X159214095Y-72636071D01*
X159118857Y-72683690D01*
X158737904Y-72683690D01*
X159642666Y-72159880D02*
X160309333Y-72159880D01*
X159880761Y-73159880D01*
X152165714Y-71905880D02*
X152784761Y-71905880D01*
X152451428Y-72286833D01*
X152594285Y-72286833D01*
X152689523Y-72334452D01*
X152737142Y-72382071D01*
X152784761Y-72477309D01*
X152784761Y-72715404D01*
X152737142Y-72810642D01*
X152689523Y-72858261D01*
X152594285Y-72905880D01*
X152308571Y-72905880D01*
X152213333Y-72858261D01*
X152165714Y-72810642D01*
X153213333Y-72905880D02*
X153213333Y-71905880D01*
X153308571Y-72524928D02*
X153594285Y-72905880D01*
X153594285Y-72239214D02*
X153213333Y-72620166D01*
X153927619Y-71905880D02*
X154546666Y-71905880D01*
X154213333Y-72286833D01*
X154356190Y-72286833D01*
X154451428Y-72334452D01*
X154499047Y-72382071D01*
X154546666Y-72477309D01*
X154546666Y-72715404D01*
X154499047Y-72810642D01*
X154451428Y-72858261D01*
X154356190Y-72905880D01*
X154070476Y-72905880D01*
X153975238Y-72858261D01*
X153927619Y-72810642D01*
%TO.C,R1*%
X137612380Y-74080666D02*
X137136190Y-74414000D01*
X137612380Y-74652095D02*
X136612380Y-74652095D01*
X136612380Y-74271142D01*
X136660000Y-74175904D01*
X136707619Y-74128285D01*
X136802857Y-74080666D01*
X136945714Y-74080666D01*
X137040952Y-74128285D01*
X137088571Y-74175904D01*
X137136190Y-74271142D01*
X137136190Y-74652095D01*
X137612380Y-73128285D02*
X137612380Y-73699714D01*
X137612380Y-73414000D02*
X136612380Y-73414000D01*
X136755238Y-73509238D01*
X136850476Y-73604476D01*
X136898095Y-73699714D01*
X136707619Y-71596095D02*
X136660000Y-71548476D01*
X136612380Y-71453238D01*
X136612380Y-71215142D01*
X136660000Y-71119904D01*
X136707619Y-71072285D01*
X136802857Y-71024666D01*
X136898095Y-71024666D01*
X137040952Y-71072285D01*
X137612380Y-71643714D01*
X137612380Y-71024666D01*
X136707619Y-70643714D02*
X136660000Y-70596095D01*
X136612380Y-70500857D01*
X136612380Y-70262761D01*
X136660000Y-70167523D01*
X136707619Y-70119904D01*
X136802857Y-70072285D01*
X136898095Y-70072285D01*
X137040952Y-70119904D01*
X137612380Y-70691333D01*
X137612380Y-70072285D01*
X136612380Y-69453238D02*
X136612380Y-69358000D01*
X136660000Y-69262761D01*
X136707619Y-69215142D01*
X136802857Y-69167523D01*
X136993333Y-69119904D01*
X137231428Y-69119904D01*
X137421904Y-69167523D01*
X137517142Y-69215142D01*
X137564761Y-69262761D01*
X137612380Y-69358000D01*
X137612380Y-69453238D01*
X137564761Y-69548476D01*
X137517142Y-69596095D01*
X137421904Y-69643714D01*
X137231428Y-69691333D01*
X136993333Y-69691333D01*
X136802857Y-69643714D01*
X136707619Y-69596095D01*
X136660000Y-69548476D01*
X136612380Y-69453238D01*
D11*
%TO.C,J3*%
X112653428Y-50335571D02*
X112653428Y-48835571D01*
X113153428Y-49907000D01*
X113653428Y-48835571D01*
X113653428Y-50335571D01*
X114367714Y-50335571D02*
X114367714Y-48835571D01*
X115082000Y-50335571D02*
X115082000Y-48835571D01*
X115439142Y-48835571D01*
X115653428Y-48907000D01*
X115796285Y-49049857D01*
X115867714Y-49192714D01*
X115939142Y-49478428D01*
X115939142Y-49692714D01*
X115867714Y-49978428D01*
X115796285Y-50121285D01*
X115653428Y-50264142D01*
X115439142Y-50335571D01*
X115082000Y-50335571D01*
X116582000Y-50335571D02*
X116582000Y-48835571D01*
X118439142Y-50335571D02*
X118439142Y-48835571D01*
X119153428Y-50335571D02*
X119153428Y-48835571D01*
X120010571Y-50335571D01*
X120010571Y-48835571D01*
D10*
%TO.C,R16*%
X145105380Y-129293857D02*
X144629190Y-129627190D01*
X145105380Y-129865285D02*
X144105380Y-129865285D01*
X144105380Y-129484333D01*
X144153000Y-129389095D01*
X144200619Y-129341476D01*
X144295857Y-129293857D01*
X144438714Y-129293857D01*
X144533952Y-129341476D01*
X144581571Y-129389095D01*
X144629190Y-129484333D01*
X144629190Y-129865285D01*
X145105380Y-128341476D02*
X145105380Y-128912904D01*
X145105380Y-128627190D02*
X144105380Y-128627190D01*
X144248238Y-128722428D01*
X144343476Y-128817666D01*
X144391095Y-128912904D01*
X144105380Y-127484333D02*
X144105380Y-127674809D01*
X144153000Y-127770047D01*
X144200619Y-127817666D01*
X144343476Y-127912904D01*
X144533952Y-127960523D01*
X144914904Y-127960523D01*
X145010142Y-127912904D01*
X145057761Y-127865285D01*
X145105380Y-127770047D01*
X145105380Y-127579571D01*
X145057761Y-127484333D01*
X145010142Y-127436714D01*
X144914904Y-127389095D01*
X144676809Y-127389095D01*
X144581571Y-127436714D01*
X144533952Y-127484333D01*
X144486333Y-127579571D01*
X144486333Y-127770047D01*
X144533952Y-127865285D01*
X144581571Y-127912904D01*
X144676809Y-127960523D01*
X145105380Y-122420047D02*
X145105380Y-122991476D01*
X145105380Y-122705761D02*
X144105380Y-122705761D01*
X144248238Y-122801000D01*
X144343476Y-122896238D01*
X144391095Y-122991476D01*
X145105380Y-121991476D02*
X144105380Y-121991476D01*
X144724428Y-121896238D02*
X145105380Y-121610523D01*
X144438714Y-121610523D02*
X144819666Y-121991476D01*
%TO.C,A1*%
X160702714Y-101639666D02*
X161178904Y-101639666D01*
X160607476Y-101925380D02*
X160940809Y-100925380D01*
X161274142Y-101925380D01*
X162131285Y-101925380D02*
X161559857Y-101925380D01*
X161845571Y-101925380D02*
X161845571Y-100925380D01*
X161750333Y-101068238D01*
X161655095Y-101163476D01*
X161559857Y-101211095D01*
%TO.C,R4*%
X130500380Y-74080666D02*
X130024190Y-74414000D01*
X130500380Y-74652095D02*
X129500380Y-74652095D01*
X129500380Y-74271142D01*
X129548000Y-74175904D01*
X129595619Y-74128285D01*
X129690857Y-74080666D01*
X129833714Y-74080666D01*
X129928952Y-74128285D01*
X129976571Y-74175904D01*
X130024190Y-74271142D01*
X130024190Y-74652095D01*
X129833714Y-73223523D02*
X130500380Y-73223523D01*
X129452761Y-73461619D02*
X130167047Y-73699714D01*
X130167047Y-73080666D01*
X129468619Y-71469095D02*
X129421000Y-71421476D01*
X129373380Y-71326238D01*
X129373380Y-71088142D01*
X129421000Y-70992904D01*
X129468619Y-70945285D01*
X129563857Y-70897666D01*
X129659095Y-70897666D01*
X129801952Y-70945285D01*
X130373380Y-71516714D01*
X130373380Y-70897666D01*
X129468619Y-70516714D02*
X129421000Y-70469095D01*
X129373380Y-70373857D01*
X129373380Y-70135761D01*
X129421000Y-70040523D01*
X129468619Y-69992904D01*
X129563857Y-69945285D01*
X129659095Y-69945285D01*
X129801952Y-69992904D01*
X130373380Y-70564333D01*
X130373380Y-69945285D01*
X129373380Y-69326238D02*
X129373380Y-69231000D01*
X129421000Y-69135761D01*
X129468619Y-69088142D01*
X129563857Y-69040523D01*
X129754333Y-68992904D01*
X129992428Y-68992904D01*
X130182904Y-69040523D01*
X130278142Y-69088142D01*
X130325761Y-69135761D01*
X130373380Y-69231000D01*
X130373380Y-69326238D01*
X130325761Y-69421476D01*
X130278142Y-69469095D01*
X130182904Y-69516714D01*
X129992428Y-69564333D01*
X129754333Y-69564333D01*
X129563857Y-69516714D01*
X129468619Y-69469095D01*
X129421000Y-69421476D01*
X129373380Y-69326238D01*
%TO.C,R9*%
X171866380Y-86145666D02*
X171390190Y-86479000D01*
X171866380Y-86717095D02*
X170866380Y-86717095D01*
X170866380Y-86336142D01*
X170914000Y-86240904D01*
X170961619Y-86193285D01*
X171056857Y-86145666D01*
X171199714Y-86145666D01*
X171294952Y-86193285D01*
X171342571Y-86240904D01*
X171390190Y-86336142D01*
X171390190Y-86717095D01*
X171866380Y-85669476D02*
X171866380Y-85479000D01*
X171818761Y-85383761D01*
X171771142Y-85336142D01*
X171628285Y-85240904D01*
X171437809Y-85193285D01*
X171056857Y-85193285D01*
X170961619Y-85240904D01*
X170914000Y-85288523D01*
X170866380Y-85383761D01*
X170866380Y-85574238D01*
X170914000Y-85669476D01*
X170961619Y-85717095D01*
X171056857Y-85764714D01*
X171294952Y-85764714D01*
X171390190Y-85717095D01*
X171437809Y-85669476D01*
X171485428Y-85574238D01*
X171485428Y-85383761D01*
X171437809Y-85288523D01*
X171390190Y-85240904D01*
X171294952Y-85193285D01*
X168675619Y-87217095D02*
X168628000Y-87169476D01*
X168580380Y-87074238D01*
X168580380Y-86836142D01*
X168628000Y-86740904D01*
X168675619Y-86693285D01*
X168770857Y-86645666D01*
X168866095Y-86645666D01*
X169008952Y-86693285D01*
X169580380Y-87264714D01*
X169580380Y-86645666D01*
X168675619Y-86264714D02*
X168628000Y-86217095D01*
X168580380Y-86121857D01*
X168580380Y-85883761D01*
X168628000Y-85788523D01*
X168675619Y-85740904D01*
X168770857Y-85693285D01*
X168866095Y-85693285D01*
X169008952Y-85740904D01*
X169580380Y-86312333D01*
X169580380Y-85693285D01*
X168580380Y-85074238D02*
X168580380Y-84979000D01*
X168628000Y-84883761D01*
X168675619Y-84836142D01*
X168770857Y-84788523D01*
X168961333Y-84740904D01*
X169199428Y-84740904D01*
X169389904Y-84788523D01*
X169485142Y-84836142D01*
X169532761Y-84883761D01*
X169580380Y-84979000D01*
X169580380Y-85074238D01*
X169532761Y-85169476D01*
X169485142Y-85217095D01*
X169389904Y-85264714D01*
X169199428Y-85312333D01*
X168961333Y-85312333D01*
X168770857Y-85264714D01*
X168675619Y-85217095D01*
X168628000Y-85169476D01*
X168580380Y-85074238D01*
%TO.C,R3*%
X140914380Y-74334666D02*
X140438190Y-74668000D01*
X140914380Y-74906095D02*
X139914380Y-74906095D01*
X139914380Y-74525142D01*
X139962000Y-74429904D01*
X140009619Y-74382285D01*
X140104857Y-74334666D01*
X140247714Y-74334666D01*
X140342952Y-74382285D01*
X140390571Y-74429904D01*
X140438190Y-74525142D01*
X140438190Y-74906095D01*
X139914380Y-74001333D02*
X139914380Y-73382285D01*
X140295333Y-73715619D01*
X140295333Y-73572761D01*
X140342952Y-73477523D01*
X140390571Y-73429904D01*
X140485809Y-73382285D01*
X140723904Y-73382285D01*
X140819142Y-73429904D01*
X140866761Y-73477523D01*
X140914380Y-73572761D01*
X140914380Y-73858476D01*
X140866761Y-73953714D01*
X140819142Y-74001333D01*
X140914380Y-70477047D02*
X140914380Y-71048476D01*
X140914380Y-70762761D02*
X139914380Y-70762761D01*
X140057238Y-70858000D01*
X140152476Y-70953238D01*
X140200095Y-71048476D01*
X140914380Y-70048476D02*
X139914380Y-70048476D01*
X140533428Y-69953238D02*
X140914380Y-69667523D01*
X140247714Y-69667523D02*
X140628666Y-70048476D01*
%TO.C,R11*%
X164500380Y-69730857D02*
X164024190Y-70064190D01*
X164500380Y-70302285D02*
X163500380Y-70302285D01*
X163500380Y-69921333D01*
X163548000Y-69826095D01*
X163595619Y-69778476D01*
X163690857Y-69730857D01*
X163833714Y-69730857D01*
X163928952Y-69778476D01*
X163976571Y-69826095D01*
X164024190Y-69921333D01*
X164024190Y-70302285D01*
X164500380Y-68778476D02*
X164500380Y-69349904D01*
X164500380Y-69064190D02*
X163500380Y-69064190D01*
X163643238Y-69159428D01*
X163738476Y-69254666D01*
X163786095Y-69349904D01*
X164500380Y-67826095D02*
X164500380Y-68397523D01*
X164500380Y-68111809D02*
X163500380Y-68111809D01*
X163643238Y-68207047D01*
X163738476Y-68302285D01*
X163786095Y-68397523D01*
X164373380Y-62571238D02*
X164373380Y-63142666D01*
X164373380Y-62856952D02*
X163373380Y-62856952D01*
X163516238Y-62952190D01*
X163611476Y-63047428D01*
X163659095Y-63142666D01*
X163373380Y-61952190D02*
X163373380Y-61856952D01*
X163421000Y-61761714D01*
X163468619Y-61714095D01*
X163563857Y-61666476D01*
X163754333Y-61618857D01*
X163992428Y-61618857D01*
X164182904Y-61666476D01*
X164278142Y-61714095D01*
X164325761Y-61761714D01*
X164373380Y-61856952D01*
X164373380Y-61952190D01*
X164325761Y-62047428D01*
X164278142Y-62095047D01*
X164182904Y-62142666D01*
X163992428Y-62190285D01*
X163754333Y-62190285D01*
X163563857Y-62142666D01*
X163468619Y-62095047D01*
X163421000Y-62047428D01*
X163373380Y-61952190D01*
X164373380Y-61190285D02*
X163373380Y-61190285D01*
X163992428Y-61095047D02*
X164373380Y-60809333D01*
X163706714Y-60809333D02*
X164087666Y-61190285D01*
%TO.C,R5*%
X109164380Y-74207666D02*
X108688190Y-74541000D01*
X109164380Y-74779095D02*
X108164380Y-74779095D01*
X108164380Y-74398142D01*
X108212000Y-74302904D01*
X108259619Y-74255285D01*
X108354857Y-74207666D01*
X108497714Y-74207666D01*
X108592952Y-74255285D01*
X108640571Y-74302904D01*
X108688190Y-74398142D01*
X108688190Y-74779095D01*
X108164380Y-73302904D02*
X108164380Y-73779095D01*
X108640571Y-73826714D01*
X108592952Y-73779095D01*
X108545333Y-73683857D01*
X108545333Y-73445761D01*
X108592952Y-73350523D01*
X108640571Y-73302904D01*
X108735809Y-73255285D01*
X108973904Y-73255285D01*
X109069142Y-73302904D01*
X109116761Y-73350523D01*
X109164380Y-73445761D01*
X109164380Y-73683857D01*
X109116761Y-73779095D01*
X109069142Y-73826714D01*
X108259619Y-71596095D02*
X108212000Y-71548476D01*
X108164380Y-71453238D01*
X108164380Y-71215142D01*
X108212000Y-71119904D01*
X108259619Y-71072285D01*
X108354857Y-71024666D01*
X108450095Y-71024666D01*
X108592952Y-71072285D01*
X109164380Y-71643714D01*
X109164380Y-71024666D01*
X108259619Y-70643714D02*
X108212000Y-70596095D01*
X108164380Y-70500857D01*
X108164380Y-70262761D01*
X108212000Y-70167523D01*
X108259619Y-70119904D01*
X108354857Y-70072285D01*
X108450095Y-70072285D01*
X108592952Y-70119904D01*
X109164380Y-70691333D01*
X109164380Y-70072285D01*
X108164380Y-69453238D02*
X108164380Y-69358000D01*
X108212000Y-69262761D01*
X108259619Y-69215142D01*
X108354857Y-69167523D01*
X108545333Y-69119904D01*
X108783428Y-69119904D01*
X108973904Y-69167523D01*
X109069142Y-69215142D01*
X109116761Y-69262761D01*
X109164380Y-69358000D01*
X109164380Y-69453238D01*
X109116761Y-69548476D01*
X109069142Y-69596095D01*
X108973904Y-69643714D01*
X108783428Y-69691333D01*
X108545333Y-69691333D01*
X108354857Y-69643714D01*
X108259619Y-69596095D01*
X108212000Y-69548476D01*
X108164380Y-69453238D01*
%TO.C,SW3*%
X167921666Y-60729761D02*
X168064523Y-60777380D01*
X168302619Y-60777380D01*
X168397857Y-60729761D01*
X168445476Y-60682142D01*
X168493095Y-60586904D01*
X168493095Y-60491666D01*
X168445476Y-60396428D01*
X168397857Y-60348809D01*
X168302619Y-60301190D01*
X168112142Y-60253571D01*
X168016904Y-60205952D01*
X167969285Y-60158333D01*
X167921666Y-60063095D01*
X167921666Y-59967857D01*
X167969285Y-59872619D01*
X168016904Y-59825000D01*
X168112142Y-59777380D01*
X168350238Y-59777380D01*
X168493095Y-59825000D01*
X168826428Y-59777380D02*
X169064523Y-60777380D01*
X169255000Y-60063095D01*
X169445476Y-60777380D01*
X169683571Y-59777380D01*
X169969285Y-59777380D02*
X170588333Y-59777380D01*
X170255000Y-60158333D01*
X170397857Y-60158333D01*
X170493095Y-60205952D01*
X170540714Y-60253571D01*
X170588333Y-60348809D01*
X170588333Y-60586904D01*
X170540714Y-60682142D01*
X170493095Y-60729761D01*
X170397857Y-60777380D01*
X170112142Y-60777380D01*
X170016904Y-60729761D01*
X169969285Y-60682142D01*
%TO.C,C1*%
X147641142Y-78017666D02*
X147688761Y-78065285D01*
X147736380Y-78208142D01*
X147736380Y-78303380D01*
X147688761Y-78446238D01*
X147593523Y-78541476D01*
X147498285Y-78589095D01*
X147307809Y-78636714D01*
X147164952Y-78636714D01*
X146974476Y-78589095D01*
X146879238Y-78541476D01*
X146784000Y-78446238D01*
X146736380Y-78303380D01*
X146736380Y-78208142D01*
X146784000Y-78065285D01*
X146831619Y-78017666D01*
X147736380Y-77065285D02*
X147736380Y-77636714D01*
X147736380Y-77351000D02*
X146736380Y-77351000D01*
X146879238Y-77446238D01*
X146974476Y-77541476D01*
X147022095Y-77636714D01*
X144286380Y-78446238D02*
X144286380Y-79017666D01*
X144286380Y-78731952D02*
X143286380Y-78731952D01*
X143429238Y-78827190D01*
X143524476Y-78922428D01*
X143572095Y-79017666D01*
X143619714Y-77589095D02*
X144286380Y-77589095D01*
X143619714Y-78017666D02*
X144143523Y-78017666D01*
X144238761Y-77970047D01*
X144286380Y-77874809D01*
X144286380Y-77731952D01*
X144238761Y-77636714D01*
X144191142Y-77589095D01*
X143762571Y-76779571D02*
X143762571Y-77112904D01*
X144286380Y-77112904D02*
X143286380Y-77112904D01*
X143286380Y-76636714D01*
%TO.C,C2*%
X147641142Y-86058666D02*
X147688761Y-86106285D01*
X147736380Y-86249142D01*
X147736380Y-86344380D01*
X147688761Y-86487238D01*
X147593523Y-86582476D01*
X147498285Y-86630095D01*
X147307809Y-86677714D01*
X147164952Y-86677714D01*
X146974476Y-86630095D01*
X146879238Y-86582476D01*
X146784000Y-86487238D01*
X146736380Y-86344380D01*
X146736380Y-86249142D01*
X146784000Y-86106285D01*
X146831619Y-86058666D01*
X146831619Y-85677714D02*
X146784000Y-85630095D01*
X146736380Y-85534857D01*
X146736380Y-85296761D01*
X146784000Y-85201523D01*
X146831619Y-85153904D01*
X146926857Y-85106285D01*
X147022095Y-85106285D01*
X147164952Y-85153904D01*
X147736380Y-85725333D01*
X147736380Y-85106285D01*
X144307380Y-86487238D02*
X144307380Y-87058666D01*
X144307380Y-86772952D02*
X143307380Y-86772952D01*
X143450238Y-86868190D01*
X143545476Y-86963428D01*
X143593095Y-87058666D01*
X143640714Y-85630095D02*
X144307380Y-85630095D01*
X143640714Y-86058666D02*
X144164523Y-86058666D01*
X144259761Y-86011047D01*
X144307380Y-85915809D01*
X144307380Y-85772952D01*
X144259761Y-85677714D01*
X144212142Y-85630095D01*
X143783571Y-84820571D02*
X143783571Y-85153904D01*
X144307380Y-85153904D02*
X143307380Y-85153904D01*
X143307380Y-84677714D01*
%TO.C,R2*%
X134056380Y-74080666D02*
X133580190Y-74414000D01*
X134056380Y-74652095D02*
X133056380Y-74652095D01*
X133056380Y-74271142D01*
X133104000Y-74175904D01*
X133151619Y-74128285D01*
X133246857Y-74080666D01*
X133389714Y-74080666D01*
X133484952Y-74128285D01*
X133532571Y-74175904D01*
X133580190Y-74271142D01*
X133580190Y-74652095D01*
X133151619Y-73699714D02*
X133104000Y-73652095D01*
X133056380Y-73556857D01*
X133056380Y-73318761D01*
X133104000Y-73223523D01*
X133151619Y-73175904D01*
X133246857Y-73128285D01*
X133342095Y-73128285D01*
X133484952Y-73175904D01*
X134056380Y-73747333D01*
X134056380Y-73128285D01*
X133929380Y-70604047D02*
X133929380Y-71175476D01*
X133929380Y-70889761D02*
X132929380Y-70889761D01*
X133072238Y-70985000D01*
X133167476Y-71080238D01*
X133215095Y-71175476D01*
X133929380Y-70175476D02*
X132929380Y-70175476D01*
X133548428Y-70080238D02*
X133929380Y-69794523D01*
X133262714Y-69794523D02*
X133643666Y-70175476D01*
D11*
%TO.C,J2*%
X137180428Y-50462571D02*
X137180428Y-48962571D01*
X137680428Y-50034000D01*
X138180428Y-48962571D01*
X138180428Y-50462571D01*
X138894714Y-50462571D02*
X138894714Y-48962571D01*
X139609000Y-50462571D02*
X139609000Y-48962571D01*
X139966142Y-48962571D01*
X140180428Y-49034000D01*
X140323285Y-49176857D01*
X140394714Y-49319714D01*
X140466142Y-49605428D01*
X140466142Y-49819714D01*
X140394714Y-50105428D01*
X140323285Y-50248285D01*
X140180428Y-50391142D01*
X139966142Y-50462571D01*
X139609000Y-50462571D01*
X141109000Y-50462571D02*
X141109000Y-48962571D01*
X143251857Y-48962571D02*
X143537571Y-48962571D01*
X143680428Y-49034000D01*
X143823285Y-49176857D01*
X143894714Y-49462571D01*
X143894714Y-49962571D01*
X143823285Y-50248285D01*
X143680428Y-50391142D01*
X143537571Y-50462571D01*
X143251857Y-50462571D01*
X143109000Y-50391142D01*
X142966142Y-50248285D01*
X142894714Y-49962571D01*
X142894714Y-49462571D01*
X142966142Y-49176857D01*
X143109000Y-49034000D01*
X143251857Y-48962571D01*
X144537571Y-48962571D02*
X144537571Y-50176857D01*
X144609000Y-50319714D01*
X144680428Y-50391142D01*
X144823285Y-50462571D01*
X145109000Y-50462571D01*
X145251857Y-50391142D01*
X145323285Y-50319714D01*
X145394714Y-50176857D01*
X145394714Y-48962571D01*
X145894714Y-48962571D02*
X146751857Y-48962571D01*
X146323285Y-50462571D02*
X146323285Y-48962571D01*
D10*
%TO.C,R17*%
X141549380Y-129293857D02*
X141073190Y-129627190D01*
X141549380Y-129865285D02*
X140549380Y-129865285D01*
X140549380Y-129484333D01*
X140597000Y-129389095D01*
X140644619Y-129341476D01*
X140739857Y-129293857D01*
X140882714Y-129293857D01*
X140977952Y-129341476D01*
X141025571Y-129389095D01*
X141073190Y-129484333D01*
X141073190Y-129865285D01*
X141549380Y-128341476D02*
X141549380Y-128912904D01*
X141549380Y-128627190D02*
X140549380Y-128627190D01*
X140692238Y-128722428D01*
X140787476Y-128817666D01*
X140835095Y-128912904D01*
X140549380Y-128008142D02*
X140549380Y-127341476D01*
X141549380Y-127770047D01*
X141549380Y-122420047D02*
X141549380Y-122991476D01*
X141549380Y-122705761D02*
X140549380Y-122705761D01*
X140692238Y-122801000D01*
X140787476Y-122896238D01*
X140835095Y-122991476D01*
X141549380Y-121991476D02*
X140549380Y-121991476D01*
X141168428Y-121896238D02*
X141549380Y-121610523D01*
X140882714Y-121610523D02*
X141263666Y-121991476D01*
%TO.C,D2*%
X168298904Y-90853380D02*
X168298904Y-89853380D01*
X168537000Y-89853380D01*
X168679857Y-89901000D01*
X168775095Y-89996238D01*
X168822714Y-90091476D01*
X168870333Y-90281952D01*
X168870333Y-90424809D01*
X168822714Y-90615285D01*
X168775095Y-90710523D01*
X168679857Y-90805761D01*
X168537000Y-90853380D01*
X168298904Y-90853380D01*
X169251285Y-89948619D02*
X169298904Y-89901000D01*
X169394142Y-89853380D01*
X169632238Y-89853380D01*
X169727476Y-89901000D01*
X169775095Y-89948619D01*
X169822714Y-90043857D01*
X169822714Y-90139095D01*
X169775095Y-90281952D01*
X169203666Y-90853380D01*
X169822714Y-90853380D01*
%TO.C,D3*%
X146454904Y-90599380D02*
X146454904Y-89599380D01*
X146693000Y-89599380D01*
X146835857Y-89647000D01*
X146931095Y-89742238D01*
X146978714Y-89837476D01*
X147026333Y-90027952D01*
X147026333Y-90170809D01*
X146978714Y-90361285D01*
X146931095Y-90456523D01*
X146835857Y-90551761D01*
X146693000Y-90599380D01*
X146454904Y-90599380D01*
X147359666Y-89599380D02*
X147978714Y-89599380D01*
X147645380Y-89980333D01*
X147788238Y-89980333D01*
X147883476Y-90027952D01*
X147931095Y-90075571D01*
X147978714Y-90170809D01*
X147978714Y-90408904D01*
X147931095Y-90504142D01*
X147883476Y-90551761D01*
X147788238Y-90599380D01*
X147502523Y-90599380D01*
X147407285Y-90551761D01*
X147359666Y-90504142D01*
%TO.C,R13*%
X124912380Y-105544857D02*
X124436190Y-105878190D01*
X124912380Y-106116285D02*
X123912380Y-106116285D01*
X123912380Y-105735333D01*
X123960000Y-105640095D01*
X124007619Y-105592476D01*
X124102857Y-105544857D01*
X124245714Y-105544857D01*
X124340952Y-105592476D01*
X124388571Y-105640095D01*
X124436190Y-105735333D01*
X124436190Y-106116285D01*
X124912380Y-104592476D02*
X124912380Y-105163904D01*
X124912380Y-104878190D02*
X123912380Y-104878190D01*
X124055238Y-104973428D01*
X124150476Y-105068666D01*
X124198095Y-105163904D01*
X123912380Y-104259142D02*
X123912380Y-103640095D01*
X124293333Y-103973428D01*
X124293333Y-103830571D01*
X124340952Y-103735333D01*
X124388571Y-103687714D01*
X124483809Y-103640095D01*
X124721904Y-103640095D01*
X124817142Y-103687714D01*
X124864761Y-103735333D01*
X124912380Y-103830571D01*
X124912380Y-104116285D01*
X124864761Y-104211523D01*
X124817142Y-104259142D01*
X124245714Y-102036476D02*
X124912380Y-102036476D01*
X123864761Y-102274571D02*
X124579047Y-102512666D01*
X124579047Y-101893619D01*
X124912380Y-101512666D02*
X123912380Y-101512666D01*
X124531428Y-101417428D02*
X124912380Y-101131714D01*
X124245714Y-101131714D02*
X124626666Y-101512666D01*
X123912380Y-100798380D02*
X123912380Y-100131714D01*
X124912380Y-100560285D01*
%TO.C,R12*%
X154467380Y-69730857D02*
X153991190Y-70064190D01*
X154467380Y-70302285D02*
X153467380Y-70302285D01*
X153467380Y-69921333D01*
X153515000Y-69826095D01*
X153562619Y-69778476D01*
X153657857Y-69730857D01*
X153800714Y-69730857D01*
X153895952Y-69778476D01*
X153943571Y-69826095D01*
X153991190Y-69921333D01*
X153991190Y-70302285D01*
X154467380Y-68778476D02*
X154467380Y-69349904D01*
X154467380Y-69064190D02*
X153467380Y-69064190D01*
X153610238Y-69159428D01*
X153705476Y-69254666D01*
X153753095Y-69349904D01*
X153562619Y-68397523D02*
X153515000Y-68349904D01*
X153467380Y-68254666D01*
X153467380Y-68016571D01*
X153515000Y-67921333D01*
X153562619Y-67873714D01*
X153657857Y-67826095D01*
X153753095Y-67826095D01*
X153895952Y-67873714D01*
X154467380Y-68445142D01*
X154467380Y-67826095D01*
X154467380Y-62698238D02*
X154467380Y-63269666D01*
X154467380Y-62983952D02*
X153467380Y-62983952D01*
X153610238Y-63079190D01*
X153705476Y-63174428D01*
X153753095Y-63269666D01*
X153467380Y-62079190D02*
X153467380Y-61983952D01*
X153515000Y-61888714D01*
X153562619Y-61841095D01*
X153657857Y-61793476D01*
X153848333Y-61745857D01*
X154086428Y-61745857D01*
X154276904Y-61793476D01*
X154372142Y-61841095D01*
X154419761Y-61888714D01*
X154467380Y-61983952D01*
X154467380Y-62079190D01*
X154419761Y-62174428D01*
X154372142Y-62222047D01*
X154276904Y-62269666D01*
X154086428Y-62317285D01*
X153848333Y-62317285D01*
X153657857Y-62269666D01*
X153562619Y-62222047D01*
X153515000Y-62174428D01*
X153467380Y-62079190D01*
X154467380Y-61317285D02*
X153467380Y-61317285D01*
X154086428Y-61222047D02*
X154467380Y-60936333D01*
X153800714Y-60936333D02*
X154181666Y-61317285D01*
%TO.C,I2C*%
X110822380Y-134033190D02*
X109822380Y-134033190D01*
X109917619Y-133604619D02*
X109870000Y-133557000D01*
X109822380Y-133461761D01*
X109822380Y-133223666D01*
X109870000Y-133128428D01*
X109917619Y-133080809D01*
X110012857Y-133033190D01*
X110108095Y-133033190D01*
X110250952Y-133080809D01*
X110822380Y-133652238D01*
X110822380Y-133033190D01*
X110727142Y-132033190D02*
X110774761Y-132080809D01*
X110822380Y-132223666D01*
X110822380Y-132318904D01*
X110774761Y-132461761D01*
X110679523Y-132557000D01*
X110584285Y-132604619D01*
X110393809Y-132652238D01*
X110250952Y-132652238D01*
X110060476Y-132604619D01*
X109965238Y-132557000D01*
X109870000Y-132461761D01*
X109822380Y-132318904D01*
X109822380Y-132223666D01*
X109870000Y-132080809D01*
X109917619Y-132033190D01*
%TO.C,SW2*%
X144041761Y-66484333D02*
X144089380Y-66341476D01*
X144089380Y-66103380D01*
X144041761Y-66008142D01*
X143994142Y-65960523D01*
X143898904Y-65912904D01*
X143803666Y-65912904D01*
X143708428Y-65960523D01*
X143660809Y-66008142D01*
X143613190Y-66103380D01*
X143565571Y-66293857D01*
X143517952Y-66389095D01*
X143470333Y-66436714D01*
X143375095Y-66484333D01*
X143279857Y-66484333D01*
X143184619Y-66436714D01*
X143137000Y-66389095D01*
X143089380Y-66293857D01*
X143089380Y-66055761D01*
X143137000Y-65912904D01*
X143089380Y-65579571D02*
X144089380Y-65341476D01*
X143375095Y-65151000D01*
X144089380Y-64960523D01*
X143089380Y-64722428D01*
X143184619Y-64389095D02*
X143137000Y-64341476D01*
X143089380Y-64246238D01*
X143089380Y-64008142D01*
X143137000Y-63912904D01*
X143184619Y-63865285D01*
X143279857Y-63817666D01*
X143375095Y-63817666D01*
X143517952Y-63865285D01*
X144089380Y-64436714D01*
X144089380Y-63817666D01*
%TO.C,SW1*%
X155950761Y-82625333D02*
X155998380Y-82482476D01*
X155998380Y-82244380D01*
X155950761Y-82149142D01*
X155903142Y-82101523D01*
X155807904Y-82053904D01*
X155712666Y-82053904D01*
X155617428Y-82101523D01*
X155569809Y-82149142D01*
X155522190Y-82244380D01*
X155474571Y-82434857D01*
X155426952Y-82530095D01*
X155379333Y-82577714D01*
X155284095Y-82625333D01*
X155188857Y-82625333D01*
X155093619Y-82577714D01*
X155046000Y-82530095D01*
X154998380Y-82434857D01*
X154998380Y-82196761D01*
X155046000Y-82053904D01*
X154998380Y-81720571D02*
X155998380Y-81482476D01*
X155284095Y-81292000D01*
X155998380Y-81101523D01*
X154998380Y-80863428D01*
X155998380Y-79958666D02*
X155998380Y-80530095D01*
X155998380Y-80244380D02*
X154998380Y-80244380D01*
X155141238Y-80339619D01*
X155236476Y-80434857D01*
X155284095Y-80530095D01*
%TO.C,R14*%
X128087380Y-105417857D02*
X127611190Y-105751190D01*
X128087380Y-105989285D02*
X127087380Y-105989285D01*
X127087380Y-105608333D01*
X127135000Y-105513095D01*
X127182619Y-105465476D01*
X127277857Y-105417857D01*
X127420714Y-105417857D01*
X127515952Y-105465476D01*
X127563571Y-105513095D01*
X127611190Y-105608333D01*
X127611190Y-105989285D01*
X128087380Y-104465476D02*
X128087380Y-105036904D01*
X128087380Y-104751190D02*
X127087380Y-104751190D01*
X127230238Y-104846428D01*
X127325476Y-104941666D01*
X127373095Y-105036904D01*
X127420714Y-103608333D02*
X128087380Y-103608333D01*
X127039761Y-103846428D02*
X127754047Y-104084523D01*
X127754047Y-103465476D01*
X127420714Y-102036476D02*
X128087380Y-102036476D01*
X127039761Y-102274571D02*
X127754047Y-102512666D01*
X127754047Y-101893619D01*
X128087380Y-101512666D02*
X127087380Y-101512666D01*
X127706428Y-101417428D02*
X128087380Y-101131714D01*
X127420714Y-101131714D02*
X127801666Y-101512666D01*
X127087380Y-100798380D02*
X127087380Y-100131714D01*
X128087380Y-100560285D01*
%TO.C,R8*%
X153757333Y-90622380D02*
X153424000Y-90146190D01*
X153185904Y-90622380D02*
X153185904Y-89622380D01*
X153566857Y-89622380D01*
X153662095Y-89670000D01*
X153709714Y-89717619D01*
X153757333Y-89812857D01*
X153757333Y-89955714D01*
X153709714Y-90050952D01*
X153662095Y-90098571D01*
X153566857Y-90146190D01*
X153185904Y-90146190D01*
X154328761Y-90050952D02*
X154233523Y-90003333D01*
X154185904Y-89955714D01*
X154138285Y-89860476D01*
X154138285Y-89812857D01*
X154185904Y-89717619D01*
X154233523Y-89670000D01*
X154328761Y-89622380D01*
X154519238Y-89622380D01*
X154614476Y-89670000D01*
X154662095Y-89717619D01*
X154709714Y-89812857D01*
X154709714Y-89860476D01*
X154662095Y-89955714D01*
X154614476Y-90003333D01*
X154519238Y-90050952D01*
X154328761Y-90050952D01*
X154233523Y-90098571D01*
X154185904Y-90146190D01*
X154138285Y-90241428D01*
X154138285Y-90431904D01*
X154185904Y-90527142D01*
X154233523Y-90574761D01*
X154328761Y-90622380D01*
X154519238Y-90622380D01*
X154614476Y-90574761D01*
X154662095Y-90527142D01*
X154709714Y-90431904D01*
X154709714Y-90241428D01*
X154662095Y-90146190D01*
X154614476Y-90098571D01*
X154519238Y-90050952D01*
X165409714Y-89495380D02*
X166028761Y-89495380D01*
X165695428Y-89876333D01*
X165838285Y-89876333D01*
X165933523Y-89923952D01*
X165981142Y-89971571D01*
X166028761Y-90066809D01*
X166028761Y-90304904D01*
X165981142Y-90400142D01*
X165933523Y-90447761D01*
X165838285Y-90495380D01*
X165552571Y-90495380D01*
X165457333Y-90447761D01*
X165409714Y-90400142D01*
X166457333Y-90495380D02*
X166457333Y-89495380D01*
X166552571Y-90114428D02*
X166838285Y-90495380D01*
X166838285Y-89828714D02*
X166457333Y-90209666D01*
X167171619Y-89495380D02*
X167790666Y-89495380D01*
X167457333Y-89876333D01*
X167600190Y-89876333D01*
X167695428Y-89923952D01*
X167743047Y-89971571D01*
X167790666Y-90066809D01*
X167790666Y-90304904D01*
X167743047Y-90400142D01*
X167695428Y-90447761D01*
X167600190Y-90495380D01*
X167314476Y-90495380D01*
X167219238Y-90447761D01*
X167171619Y-90400142D01*
D12*
%TO.C,U2*%
X114443000Y-74870000D02*
X112793000Y-74870000D01*
X118093000Y-85150000D02*
X118093000Y-74870000D01*
X118093000Y-74870000D02*
X116443000Y-74870000D01*
X112793000Y-85150000D02*
X118093000Y-85150000D01*
X112793000Y-74870000D02*
X112793000Y-85150000D01*
X114443000Y-74870000D02*
G75*
G03*
X116443000Y-74870000I1000000J0D01*
G01*
%TO.C,D1*%
X113069000Y-89639000D02*
X117309000Y-89639000D01*
X117309000Y-89639000D02*
X117309000Y-87399000D01*
X116469000Y-89639000D02*
X116469000Y-87399000D01*
X116709000Y-89639000D02*
X116709000Y-87399000D01*
X116589000Y-89639000D02*
X116589000Y-87399000D01*
X117959000Y-88519000D02*
X117309000Y-88519000D01*
X112419000Y-88519000D02*
X113069000Y-88519000D01*
X117309000Y-87399000D02*
X113069000Y-87399000D01*
X113069000Y-87399000D02*
X113069000Y-89639000D01*
%TO.C,J4*%
X121158000Y-118431000D02*
X128838000Y-118431000D01*
X121158000Y-121091000D02*
X128838000Y-121091000D01*
X119888000Y-121091000D02*
X118558000Y-121091000D01*
X118558000Y-121091000D02*
X118558000Y-119761000D01*
X121158000Y-121091000D02*
X121158000Y-118431000D01*
X128838000Y-121091000D02*
X128838000Y-118431000D01*
%TO.C,R10*%
X172454000Y-72930000D02*
X172784000Y-72930000D01*
X172784000Y-72930000D02*
X172784000Y-79470000D01*
X170044000Y-79470000D02*
X170374000Y-79470000D01*
X170044000Y-72930000D02*
X170044000Y-79470000D01*
X170374000Y-72930000D02*
X170044000Y-72930000D01*
X172784000Y-79470000D02*
X172454000Y-79470000D01*
%TO.C,J7*%
X163135000Y-55691000D02*
X161135000Y-55691000D01*
X161135000Y-49791000D02*
X161135000Y-41191000D01*
X170335000Y-55691000D02*
X168335000Y-55691000D01*
X161135000Y-55691000D02*
X161135000Y-54391000D01*
X170635000Y-55991000D02*
X170635000Y-54691000D01*
X170335000Y-41191000D02*
X170335000Y-55691000D01*
X168935000Y-55991000D02*
X170635000Y-55991000D01*
X161135000Y-41191000D02*
X170335000Y-41191000D01*
%TO.C,Q1*%
X131804000Y-91258000D02*
X135404000Y-91258000D01*
X135442478Y-91246478D02*
G75*
G03*
X133604000Y-86808000I-1838478J1838478D01*
G01*
X133604000Y-86807999D02*
G75*
G03*
X131765522Y-91246478I0J-2600001D01*
G01*
%TO.C,J5*%
X170247000Y-136271000D02*
X170247000Y-100651000D01*
X172907000Y-100651000D02*
X170247000Y-100651000D01*
X172907000Y-137541000D02*
X172907000Y-138871000D01*
X172907000Y-136271000D02*
X170247000Y-136271000D01*
X172907000Y-136271000D02*
X172907000Y-100651000D01*
X172907000Y-138871000D02*
X171577000Y-138871000D01*
%TO.C,R15*%
X124179000Y-76613000D02*
X124179000Y-83153000D01*
X124179000Y-83153000D02*
X123849000Y-83153000D01*
X121439000Y-76613000D02*
X121439000Y-83153000D01*
X121439000Y-83153000D02*
X121769000Y-83153000D01*
X121769000Y-76613000D02*
X121439000Y-76613000D01*
X123849000Y-76613000D02*
X124179000Y-76613000D01*
%TO.C,R6*%
X125452000Y-83280000D02*
X125122000Y-83280000D01*
X127532000Y-83280000D02*
X127862000Y-83280000D01*
X125122000Y-76740000D02*
X125452000Y-76740000D01*
X127862000Y-83280000D02*
X127862000Y-76740000D01*
X127862000Y-76740000D02*
X127532000Y-76740000D01*
X125122000Y-83280000D02*
X125122000Y-76740000D01*
%TO.C,R7*%
X163254000Y-71020000D02*
X156714000Y-71020000D01*
X156714000Y-71020000D02*
X156714000Y-71350000D01*
X163254000Y-73760000D02*
X156714000Y-73760000D01*
X163254000Y-71350000D02*
X163254000Y-71020000D01*
X156714000Y-73760000D02*
X156714000Y-73430000D01*
X163254000Y-73430000D02*
X163254000Y-73760000D01*
%TO.C,R1*%
X138403000Y-83407000D02*
X138073000Y-83407000D01*
X138073000Y-76867000D02*
X138403000Y-76867000D01*
X135993000Y-76867000D02*
X135663000Y-76867000D01*
X135663000Y-76867000D02*
X135663000Y-83407000D01*
X135663000Y-83407000D02*
X135993000Y-83407000D01*
X138403000Y-76867000D02*
X138403000Y-83407000D01*
D13*
%TO.C,J3*%
X125458220Y-41920160D02*
X105958640Y-41920160D01*
X110959900Y-57419240D02*
X114460020Y-57419240D01*
X114957860Y-59918600D02*
X114460020Y-59418220D01*
X107960160Y-41920160D02*
X107960160Y-42418000D01*
X105958640Y-41419780D02*
X107459780Y-41419780D01*
X126959360Y-40919400D02*
X126959360Y-41419780D01*
X114460020Y-59418220D02*
X114460020Y-57419240D01*
X109959140Y-59918600D02*
X110459520Y-59918600D01*
X107459780Y-40919400D02*
X126959360Y-40919400D01*
X110959900Y-59418220D02*
X110959900Y-57419240D01*
X121958100Y-57419240D02*
X118457980Y-57419240D01*
X125458220Y-42418000D02*
X124957840Y-42418000D01*
X107960160Y-59918600D02*
X109959140Y-59918600D01*
X126959360Y-41419780D02*
X125458220Y-41419780D01*
X126959360Y-41168320D02*
X107459780Y-41168320D01*
X125458220Y-41668700D02*
X105958640Y-41668700D01*
X125458220Y-59418220D02*
X124957840Y-59918600D01*
X117960140Y-59918600D02*
X114957860Y-59918600D01*
X107459780Y-41419780D02*
X125458220Y-41419780D01*
X107459780Y-42418000D02*
X107960160Y-42418000D01*
X117960140Y-59918600D02*
X118457980Y-59418220D01*
X107459780Y-41419780D02*
X107459780Y-40919400D01*
X110459520Y-59918600D02*
X110959900Y-59418220D01*
X124957840Y-42418000D02*
X124957840Y-41920160D01*
X118457980Y-59418220D02*
X118457980Y-57419240D01*
X121958100Y-59418220D02*
X121958100Y-57419240D01*
X105958640Y-41920160D02*
X105958640Y-41419780D01*
X125458220Y-41419780D02*
X125458220Y-41920160D01*
X107459780Y-59418220D02*
X107960160Y-59918600D01*
X122458480Y-59918600D02*
X121958100Y-59418220D01*
X124957840Y-59918600D02*
X122458480Y-59918600D01*
X107459780Y-59418220D02*
X107459780Y-42418000D01*
X125458220Y-59418220D02*
X125458220Y-42418000D01*
D12*
%TO.C,SW4*%
X156011000Y-92689000D02*
X156861000Y-92689000D01*
X155711000Y-93389000D02*
X155711000Y-92389000D01*
X163831000Y-92689000D02*
X164711000Y-92689000D01*
X161331000Y-92689000D02*
X161891000Y-92689000D01*
X161881000Y-96389000D02*
X161331000Y-96389000D01*
X156891000Y-96389000D02*
X156011000Y-96389000D01*
X155711000Y-92389000D02*
X156711000Y-92389000D01*
X164711000Y-96389000D02*
X163841000Y-96389000D01*
X159391000Y-96389000D02*
X158831000Y-96389000D01*
X158861000Y-92689000D02*
X159391000Y-92689000D01*
X156011000Y-96389000D02*
X156011000Y-92689000D01*
X164711000Y-92689000D02*
X164711000Y-96389000D01*
%TO.C,R16*%
X145693000Y-131921000D02*
X146023000Y-131921000D01*
X143283000Y-131921000D02*
X143283000Y-125381000D01*
X143613000Y-131921000D02*
X143283000Y-131921000D01*
X146023000Y-125381000D02*
X145693000Y-125381000D01*
X146023000Y-131921000D02*
X146023000Y-125381000D01*
X143283000Y-125381000D02*
X143613000Y-125381000D01*
%TO.C,A1*%
X151127000Y-103251000D02*
X151127000Y-141481000D01*
X166497000Y-100711000D02*
X169167000Y-100711000D01*
X153797000Y-103251000D02*
X153797000Y-100711000D01*
X151127000Y-98041000D02*
X151127000Y-100711000D01*
X153797000Y-103251000D02*
X153797000Y-138811000D01*
X169167000Y-98041000D02*
X151127000Y-98041000D01*
X151127000Y-141481000D02*
X169167000Y-141481000D01*
X153797000Y-138811000D02*
X151127000Y-138811000D01*
X153797000Y-100711000D02*
X151127000Y-100711000D01*
X153797000Y-103251000D02*
X151127000Y-103251000D01*
X169167000Y-141481000D02*
X169167000Y-98041000D01*
X166497000Y-138811000D02*
X169167000Y-138811000D01*
X166497000Y-100711000D02*
X166497000Y-138811000D01*
%TO.C,R4*%
X131418000Y-83280000D02*
X131418000Y-76740000D01*
X128678000Y-83280000D02*
X128678000Y-76740000D01*
X129008000Y-83280000D02*
X128678000Y-83280000D01*
X131088000Y-83280000D02*
X131418000Y-83280000D01*
X131418000Y-76740000D02*
X131088000Y-76740000D01*
X128678000Y-76740000D02*
X129008000Y-76740000D01*
%TO.C,R9*%
X172784000Y-89249000D02*
X172784000Y-82709000D01*
X170044000Y-89249000D02*
X170044000Y-82709000D01*
X172454000Y-89249000D02*
X172784000Y-89249000D01*
X170044000Y-82709000D02*
X170374000Y-82709000D01*
X170374000Y-89249000D02*
X170044000Y-89249000D01*
X172784000Y-82709000D02*
X172454000Y-82709000D01*
%TO.C,R3*%
X139422000Y-76867000D02*
X139092000Y-76867000D01*
X141832000Y-76867000D02*
X141832000Y-83407000D01*
X141502000Y-76867000D02*
X141832000Y-76867000D01*
X139092000Y-76867000D02*
X139092000Y-83407000D01*
X141832000Y-83407000D02*
X141502000Y-83407000D01*
X139092000Y-83407000D02*
X139422000Y-83407000D01*
%TO.C,R11*%
X160138000Y-62262000D02*
X160468000Y-62262000D01*
X162878000Y-68802000D02*
X162878000Y-62262000D01*
X162548000Y-68802000D02*
X162878000Y-68802000D01*
X160468000Y-68802000D02*
X160138000Y-68802000D01*
X160138000Y-68802000D02*
X160138000Y-62262000D01*
X162878000Y-62262000D02*
X162548000Y-62262000D01*
%TO.C,R5*%
X109498000Y-76740000D02*
X109828000Y-76740000D01*
X107418000Y-76740000D02*
X107088000Y-76740000D01*
X109828000Y-83280000D02*
X109498000Y-83280000D01*
X109828000Y-76740000D02*
X109828000Y-83280000D01*
X107088000Y-83280000D02*
X107418000Y-83280000D01*
X107088000Y-76740000D02*
X107088000Y-83280000D01*
%TO.C,SW3*%
X172414000Y-68111000D02*
X172414000Y-63611000D01*
X165914000Y-63611000D02*
X165914000Y-68111000D01*
X168414000Y-69361000D02*
X169914000Y-69361000D01*
X169914000Y-62361000D02*
X168414000Y-62361000D01*
%TO.C,C1*%
X144963000Y-74731000D02*
X144963000Y-80971000D01*
X149605000Y-80971000D02*
X148209000Y-80971000D01*
X149605000Y-74731000D02*
X149605000Y-80971000D01*
X146359000Y-80971000D02*
X144963000Y-80971000D01*
X149605000Y-74731000D02*
X148209000Y-74731000D01*
X146359000Y-74731000D02*
X144963000Y-74731000D01*
%TO.C,C2*%
X148209000Y-82772000D02*
X149605000Y-82772000D01*
X149605000Y-89012000D02*
X149605000Y-82772000D01*
X144963000Y-89012000D02*
X144963000Y-82772000D01*
X144963000Y-89012000D02*
X146359000Y-89012000D01*
X144963000Y-82772000D02*
X146359000Y-82772000D01*
X148209000Y-89012000D02*
X149605000Y-89012000D01*
%TO.C,R2*%
X132234000Y-76867000D02*
X132234000Y-83407000D01*
X134974000Y-76867000D02*
X134974000Y-83407000D01*
X134644000Y-76867000D02*
X134974000Y-76867000D01*
X132564000Y-76867000D02*
X132234000Y-76867000D01*
X132234000Y-83407000D02*
X132564000Y-83407000D01*
X134974000Y-83407000D02*
X134644000Y-83407000D01*
D13*
%TO.C,J2*%
X149722840Y-42418000D02*
X149722840Y-41920160D01*
X139722860Y-59918600D02*
X139225020Y-59418220D01*
X150223220Y-41419780D02*
X150223220Y-41920160D01*
X149722840Y-59918600D02*
X147223480Y-59918600D01*
X134724140Y-59918600D02*
X135224520Y-59918600D01*
X143222980Y-59418220D02*
X143222980Y-57419240D01*
X142725140Y-59918600D02*
X139722860Y-59918600D01*
X132725160Y-59918600D02*
X134724140Y-59918600D01*
X139225020Y-59418220D02*
X139225020Y-57419240D01*
X132224780Y-41419780D02*
X132224780Y-40919400D01*
X151724360Y-41168320D02*
X132224780Y-41168320D01*
X150223220Y-59418220D02*
X149722840Y-59918600D01*
X132224780Y-40919400D02*
X151724360Y-40919400D01*
X135724900Y-57419240D02*
X139225020Y-57419240D01*
X130723640Y-41920160D02*
X130723640Y-41419780D01*
X132224780Y-42418000D02*
X132725160Y-42418000D01*
X151724360Y-40919400D02*
X151724360Y-41419780D01*
X150223220Y-41668700D02*
X130723640Y-41668700D01*
X132224780Y-59418220D02*
X132224780Y-42418000D01*
X150223220Y-59418220D02*
X150223220Y-42418000D01*
X135724900Y-59418220D02*
X135724900Y-57419240D01*
X151724360Y-41419780D02*
X150223220Y-41419780D01*
X132725160Y-41920160D02*
X132725160Y-42418000D01*
X147223480Y-59918600D02*
X146723100Y-59418220D01*
X132224780Y-59418220D02*
X132725160Y-59918600D01*
X146723100Y-57419240D02*
X143222980Y-57419240D01*
X146723100Y-59418220D02*
X146723100Y-57419240D01*
X150223220Y-42418000D02*
X149722840Y-42418000D01*
X150223220Y-41920160D02*
X130723640Y-41920160D01*
X142725140Y-59918600D02*
X143222980Y-59418220D01*
X130723640Y-41419780D02*
X132224780Y-41419780D01*
X132224780Y-41419780D02*
X150223220Y-41419780D01*
X135224520Y-59918600D02*
X135724900Y-59418220D01*
D12*
%TO.C,R17*%
X140057000Y-131921000D02*
X139727000Y-131921000D01*
X139727000Y-131921000D02*
X139727000Y-125381000D01*
X142467000Y-125381000D02*
X142137000Y-125381000D01*
X142467000Y-131921000D02*
X142467000Y-125381000D01*
X139727000Y-125381000D02*
X140057000Y-125381000D01*
X142137000Y-131921000D02*
X142467000Y-131921000D01*
%TO.C,D2*%
X167488000Y-92816000D02*
X167488000Y-95906000D01*
X173038000Y-94361462D02*
G75*
G03*
X167488000Y-92816170I-2990000J462D01*
G01*
X167488000Y-95905830D02*
G75*
G03*
X173038000Y-94360538I2560000J1544830D01*
G01*
X172548000Y-94361000D02*
G75*
G03*
X172548000Y-94361000I-2500000J0D01*
G01*
%TO.C,D3*%
X144633000Y-92562000D02*
X144633000Y-95652000D01*
X150183000Y-94107462D02*
G75*
G03*
X144633000Y-92562170I-2990000J462D01*
G01*
X144633000Y-95651830D02*
G75*
G03*
X150183000Y-94106538I2560000J1544830D01*
G01*
X149693000Y-94107000D02*
G75*
G03*
X149693000Y-94107000I-2500000J0D01*
G01*
%TO.C,R13*%
X125373000Y-114522000D02*
X125703000Y-114522000D01*
X122963000Y-107982000D02*
X123293000Y-107982000D01*
X122963000Y-114522000D02*
X122963000Y-107982000D01*
X125703000Y-114522000D02*
X125703000Y-107982000D01*
X125703000Y-107982000D02*
X125373000Y-107982000D01*
X123293000Y-114522000D02*
X122963000Y-114522000D01*
%TO.C,R12*%
X155388000Y-68802000D02*
X155058000Y-68802000D01*
X157798000Y-68802000D02*
X157798000Y-62262000D01*
X157798000Y-62262000D02*
X157468000Y-62262000D01*
X157468000Y-68802000D02*
X157798000Y-68802000D01*
X155058000Y-62262000D02*
X155388000Y-62262000D01*
X155058000Y-68802000D02*
X155058000Y-62262000D01*
%TO.C,I2C*%
X112700000Y-134387000D02*
X111370000Y-134387000D01*
X113970000Y-134387000D02*
X121650000Y-134387000D01*
X113970000Y-134387000D02*
X113970000Y-131727000D01*
X121650000Y-134387000D02*
X121650000Y-131727000D01*
X113970000Y-131727000D02*
X121650000Y-131727000D01*
X111370000Y-134387000D02*
X111370000Y-133057000D01*
%TO.C,SW2*%
X149177000Y-62107000D02*
X147677000Y-62107000D01*
X147677000Y-69107000D02*
X149177000Y-69107000D01*
X151677000Y-67857000D02*
X151677000Y-63357000D01*
X145177000Y-63357000D02*
X145177000Y-67857000D01*
%TO.C,SW1*%
X161857000Y-75392000D02*
X165957000Y-75392000D01*
X153757000Y-75392000D02*
X157857000Y-75392000D01*
X157857000Y-87192000D02*
X153757000Y-87192000D01*
X159857000Y-81792000D02*
X159857000Y-80792000D01*
X167057000Y-85392000D02*
X167357000Y-85092000D01*
X161857000Y-87192000D02*
X165957000Y-87192000D01*
X167357000Y-85092000D02*
X167657000Y-85392000D01*
X167657000Y-85392000D02*
X167057000Y-85392000D01*
X153757000Y-82592000D02*
X153757000Y-79992000D01*
X160357000Y-81292000D02*
X159357000Y-81292000D01*
X153757000Y-77792000D02*
X153757000Y-75392000D01*
X153757000Y-87192000D02*
X153757000Y-84792000D01*
X165957000Y-87192000D02*
X165957000Y-75392000D01*
X162857000Y-81292000D02*
G75*
G03*
X162857000Y-81292000I-3000000J0D01*
G01*
%TO.C,R14*%
X128548000Y-114522000D02*
X128878000Y-114522000D01*
X126468000Y-114522000D02*
X126138000Y-114522000D01*
X126138000Y-107982000D02*
X126468000Y-107982000D01*
X126138000Y-114522000D02*
X126138000Y-107982000D01*
X128878000Y-107982000D02*
X128548000Y-107982000D01*
X128878000Y-114522000D02*
X128878000Y-107982000D01*
%TO.C,R8*%
X163417000Y-88673000D02*
X156877000Y-88673000D01*
X163417000Y-89003000D02*
X163417000Y-88673000D01*
X156877000Y-91413000D02*
X156877000Y-91083000D01*
X163417000Y-91413000D02*
X156877000Y-91413000D01*
X163417000Y-91083000D02*
X163417000Y-91413000D01*
X156877000Y-88673000D02*
X156877000Y-89003000D01*
%TO.C,J6*%
X150047000Y-136271000D02*
X150047000Y-100651000D01*
X150047000Y-137541000D02*
X150047000Y-138871000D01*
X147387000Y-136271000D02*
X147387000Y-100651000D01*
X150047000Y-136271000D02*
X147387000Y-136271000D01*
X150047000Y-100651000D02*
X147387000Y-100651000D01*
X150047000Y-138871000D02*
X148717000Y-138871000D01*
%TD*%
M02*
