%TF.GenerationSoftware,KiCad,Pcbnew,7.0.6*%
%TF.CreationDate,2023-07-14T11:44:33-04:00*%
%TF.ProjectId,ArduinoNano_MIDI_breakout,41726475-696e-46f4-9e61-6e6f5f4d4944,rev?*%
%TF.SameCoordinates,Original*%
%TF.FileFunction,Soldermask,Bot*%
%TF.FilePolarity,Negative*%
%FSLAX46Y46*%
G04 Gerber Fmt 4.6, Leading zero omitted, Abs format (unit mm)*
G04 Created by KiCad (PCBNEW 7.0.6) date 2023-07-14 11:44:33*
%MOMM*%
%LPD*%
G01*
G04 APERTURE LIST*
%ADD10R,1.600000X1.600000*%
%ADD11O,1.600000X1.600000*%
%ADD12R,1.400000X1.400000*%
%ADD13C,1.400000*%
%ADD14R,1.700000X1.700000*%
%ADD15O,1.700000X1.700000*%
%ADD16C,1.600000*%
%ADD17R,4.600000X2.000000*%
%ADD18O,4.200000X2.000000*%
%ADD19O,2.000000X4.200000*%
%ADD20R,1.050000X1.500000*%
%ADD21O,1.050000X1.500000*%
%ADD22C,5.600000*%
%ADD23C,2.500000*%
%ADD24C,2.000000*%
%ADD25R,1.800000X1.800000*%
%ADD26C,1.800000*%
%ADD27R,2.000000X2.000000*%
%ADD28R,3.200000X2.000000*%
G04 APERTURE END LIST*
D10*
%TO.C,A1*%
X152704800Y-102006400D03*
D11*
X152704800Y-104546400D03*
X152704800Y-107086400D03*
X152704800Y-109626400D03*
X152704800Y-112166400D03*
X152704800Y-114706400D03*
X152704800Y-117246400D03*
X152704800Y-119786400D03*
X152704800Y-122326400D03*
X152704800Y-124866400D03*
X152704800Y-127406400D03*
X152704800Y-129946400D03*
X152704800Y-132486400D03*
X152704800Y-135026400D03*
X152704800Y-137566400D03*
X167944800Y-137566400D03*
X167944800Y-135026400D03*
X167944800Y-132486400D03*
X167944800Y-129946400D03*
X167944800Y-127406400D03*
X167944800Y-124866400D03*
X167944800Y-122326400D03*
X167944800Y-119786400D03*
X167944800Y-117246400D03*
X167944800Y-114706400D03*
X167944800Y-112166400D03*
X167944800Y-109626400D03*
X167944800Y-107086400D03*
X167944800Y-104546400D03*
X167944800Y-102006400D03*
%TD*%
D12*
%TO.C,SW4*%
X157861000Y-92939000D03*
D13*
X160361000Y-92939000D03*
X162861000Y-92939000D03*
X157861000Y-96239000D03*
X160361000Y-96239000D03*
X162861000Y-96239000D03*
%TD*%
D10*
%TO.C,U2*%
X111633000Y-76200000D03*
D11*
X111633000Y-78740000D03*
X111633000Y-81280000D03*
X111633000Y-83820000D03*
X119253000Y-83820000D03*
X119253000Y-81280000D03*
X119253000Y-78740000D03*
X119253000Y-76200000D03*
%TD*%
D10*
%TO.C,D1*%
X118999000Y-88519000D03*
D11*
X111379000Y-88519000D03*
%TD*%
D14*
%TO.C,J4*%
X119888000Y-119761000D03*
D15*
X122428000Y-119761000D03*
X124968000Y-119761000D03*
X127508000Y-119761000D03*
%TD*%
D16*
%TO.C,R10*%
X171414000Y-72390000D03*
D11*
X171414000Y-80010000D03*
%TD*%
D17*
%TO.C,J7*%
X165735000Y-54991000D03*
D18*
X165735000Y-48691000D03*
D19*
X160935000Y-52091000D03*
%TD*%
D20*
%TO.C,Q1*%
X132334000Y-89408000D03*
D21*
X133604000Y-89408000D03*
X134874000Y-89408000D03*
%TD*%
D14*
%TO.C,J5*%
X171577000Y-137541000D03*
D15*
X171577000Y-135001000D03*
X171577000Y-132461000D03*
X171577000Y-129921000D03*
X171577000Y-127381000D03*
X171577000Y-124841000D03*
X171577000Y-122301000D03*
X171577000Y-119761000D03*
X171577000Y-117221000D03*
X171577000Y-114681000D03*
X171577000Y-112141000D03*
X171577000Y-109601000D03*
X171577000Y-107061000D03*
X171577000Y-104521000D03*
X171577000Y-101981000D03*
%TD*%
D16*
%TO.C,R15*%
X122809000Y-76073000D03*
D11*
X122809000Y-83693000D03*
%TD*%
D16*
%TO.C,R6*%
X126492000Y-83820000D03*
D11*
X126492000Y-76200000D03*
%TD*%
D16*
%TO.C,R7*%
X163794000Y-72390000D03*
D11*
X156174000Y-72390000D03*
%TD*%
D22*
%TO.C,H4*%
X155321000Y-57023000D03*
%TD*%
D16*
%TO.C,R1*%
X137033000Y-76327000D03*
D11*
X137033000Y-83947000D03*
%TD*%
D23*
%TO.C,J3*%
X108959000Y-53419000D03*
X116459000Y-53419000D03*
X123959000Y-53419000D03*
X111459000Y-55919000D03*
X121459000Y-55919000D03*
X111459000Y-43419000D03*
X121459000Y-43419000D03*
%TD*%
D16*
%TO.C,R16*%
X144653000Y-132461000D03*
D11*
X144653000Y-124841000D03*
%TD*%
D16*
%TO.C,R4*%
X130048000Y-83820000D03*
D11*
X130048000Y-76200000D03*
%TD*%
D16*
%TO.C,R9*%
X171414000Y-89789000D03*
D11*
X171414000Y-82169000D03*
%TD*%
D22*
%TO.C,H6*%
X138938000Y-138557000D03*
%TD*%
%TO.C,H8*%
X138938000Y-63627000D03*
%TD*%
D16*
%TO.C,R3*%
X140462000Y-76327000D03*
D11*
X140462000Y-83947000D03*
%TD*%
D16*
%TO.C,R11*%
X161508000Y-69342000D03*
D11*
X161508000Y-61722000D03*
%TD*%
D16*
%TO.C,R5*%
X108458000Y-76200000D03*
D11*
X108458000Y-83820000D03*
%TD*%
D24*
%TO.C,SW3*%
X166914000Y-62611000D03*
X166914000Y-69111000D03*
X171414000Y-69111000D03*
X171414000Y-62611000D03*
%TD*%
D16*
%TO.C,C1*%
X147284000Y-75351000D03*
X147284000Y-80351000D03*
%TD*%
%TO.C,C2*%
X147284000Y-88392000D03*
X147284000Y-83392000D03*
%TD*%
%TO.C,R2*%
X133604000Y-76327000D03*
D11*
X133604000Y-83947000D03*
%TD*%
D22*
%TO.C,H7*%
X107950000Y-138557000D03*
%TD*%
D23*
%TO.C,J2*%
X133724000Y-53419000D03*
X141224000Y-53419000D03*
X148724000Y-53419000D03*
X136224000Y-55919000D03*
X146224000Y-55919000D03*
X146224000Y-43419000D03*
X136224000Y-43419000D03*
%TD*%
D16*
%TO.C,R17*%
X141097000Y-132461000D03*
D11*
X141097000Y-124841000D03*
%TD*%
D22*
%TO.C,H5*%
X107950000Y-63627000D03*
%TD*%
%TO.C,H3*%
X116078000Y-63627000D03*
%TD*%
%TO.C,H1*%
X160147000Y-138557000D03*
%TD*%
D25*
%TO.C,D2*%
X168778000Y-94361000D03*
D26*
X171318000Y-94361000D03*
%TD*%
D25*
%TO.C,D3*%
X145923000Y-94107000D03*
D26*
X148463000Y-94107000D03*
%TD*%
D16*
%TO.C,R13*%
X124333000Y-115062000D03*
D11*
X124333000Y-107442000D03*
%TD*%
D16*
%TO.C,R12*%
X156428000Y-69342000D03*
D11*
X156428000Y-61722000D03*
%TD*%
D14*
%TO.C,J1*%
X112700000Y-133057000D03*
D15*
X115240000Y-133057000D03*
X117780000Y-133057000D03*
X120320000Y-133057000D03*
%TD*%
D24*
%TO.C,SW2*%
X146177000Y-62357000D03*
X146177000Y-68857000D03*
X150677000Y-62357000D03*
X150677000Y-68857000D03*
%TD*%
D27*
%TO.C,SW1*%
X167357000Y-83792000D03*
D24*
X167357000Y-78792000D03*
X167357000Y-81292000D03*
D28*
X159857000Y-75692000D03*
X159857000Y-86892000D03*
D24*
X152857000Y-78792000D03*
X152857000Y-83792000D03*
%TD*%
D16*
%TO.C,R14*%
X127508000Y-115062000D03*
D11*
X127508000Y-107442000D03*
%TD*%
D22*
%TO.C,H2*%
X116078000Y-138684000D03*
%TD*%
D16*
%TO.C,R8*%
X163957000Y-90043000D03*
D11*
X156337000Y-90043000D03*
%TD*%
D14*
%TO.C,J6*%
X148717000Y-137541000D03*
D15*
X148717000Y-135001000D03*
X148717000Y-132461000D03*
X148717000Y-129921000D03*
X148717000Y-127381000D03*
X148717000Y-124841000D03*
X148717000Y-122301000D03*
X148717000Y-119761000D03*
X148717000Y-117221000D03*
X148717000Y-114681000D03*
X148717000Y-112141000D03*
X148717000Y-109601000D03*
X148717000Y-107061000D03*
X148717000Y-104521000D03*
X148717000Y-101981000D03*
%TD*%
M02*
