%TF.GenerationSoftware,KiCad,Pcbnew,(6.0.7)*%
%TF.CreationDate,2023-06-18T21:36:54-04:00*%
%TF.ProjectId,ArduinoNano_MIDI_breakout,41726475-696e-46f4-9e61-6e6f5f4d4944,rev?*%
%TF.SameCoordinates,Original*%
%TF.FileFunction,Soldermask,Top*%
%TF.FilePolarity,Negative*%
%FSLAX46Y46*%
G04 Gerber Fmt 4.6, Leading zero omitted, Abs format (unit mm)*
G04 Created by KiCad (PCBNEW (6.0.7)) date 2023-06-18 21:36:54*
%MOMM*%
%LPD*%
G01*
G04 APERTURE LIST*
%ADD10R,1.600000X1.600000*%
%ADD11O,1.600000X1.600000*%
%ADD12R,1.700000X1.700000*%
%ADD13O,1.700000X1.700000*%
%ADD14C,1.600000*%
%ADD15R,4.600000X2.000000*%
%ADD16O,4.200000X2.000000*%
%ADD17O,2.000000X4.200000*%
%ADD18R,1.050000X1.500000*%
%ADD19O,1.050000X1.500000*%
%ADD20C,5.600000*%
%ADD21C,2.500000*%
%ADD22C,2.000000*%
%ADD23R,2.000000X2.000000*%
%ADD24R,3.200000X2.000000*%
G04 APERTURE END LIST*
D10*
%TO.C,U2*%
X120396000Y-91059000D03*
D11*
X120396000Y-93599000D03*
X120396000Y-96139000D03*
X120396000Y-98679000D03*
X128016000Y-98679000D03*
X128016000Y-96139000D03*
X128016000Y-93599000D03*
X128016000Y-91059000D03*
%TD*%
D10*
%TO.C,D1*%
X127762000Y-103378000D03*
D11*
X120142000Y-103378000D03*
%TD*%
D12*
%TO.C,J4*%
X128651000Y-145542000D03*
D13*
X131191000Y-145542000D03*
X133731000Y-145542000D03*
X136271000Y-145542000D03*
%TD*%
D14*
%TO.C,R10*%
X180177000Y-87249000D03*
D11*
X180177000Y-94869000D03*
%TD*%
D15*
%TO.C,J7*%
X174498000Y-69850000D03*
D16*
X174498000Y-63550000D03*
D17*
X169698000Y-66950000D03*
%TD*%
D18*
%TO.C,Q1*%
X141097000Y-104267000D03*
D19*
X142367000Y-104267000D03*
X143637000Y-104267000D03*
%TD*%
D12*
%TO.C,J5*%
X180340000Y-152400000D03*
D13*
X180340000Y-149860000D03*
X180340000Y-147320000D03*
X180340000Y-144780000D03*
X180340000Y-142240000D03*
X180340000Y-139700000D03*
X180340000Y-137160000D03*
X180340000Y-134620000D03*
X180340000Y-132080000D03*
X180340000Y-129540000D03*
X180340000Y-127000000D03*
X180340000Y-124460000D03*
X180340000Y-121920000D03*
X180340000Y-119380000D03*
X180340000Y-116840000D03*
%TD*%
D14*
%TO.C,R15*%
X131572000Y-90932000D03*
D11*
X131572000Y-98552000D03*
%TD*%
D14*
%TO.C,R6*%
X135255000Y-98679000D03*
D11*
X135255000Y-91059000D03*
%TD*%
D14*
%TO.C,R7*%
X172557000Y-87249000D03*
D11*
X164937000Y-87249000D03*
%TD*%
D20*
%TO.C,H4*%
X164084000Y-71882000D03*
%TD*%
D14*
%TO.C,R1*%
X145796000Y-91186000D03*
D11*
X145796000Y-98806000D03*
%TD*%
D21*
%TO.C,J3*%
X117722000Y-68278000D03*
X125222000Y-68278000D03*
X132722000Y-68278000D03*
X120222000Y-70778000D03*
X130222000Y-70778000D03*
X120222000Y-58278000D03*
X130222000Y-58278000D03*
%TD*%
D10*
%TO.C,SW4*%
X166624000Y-107798000D03*
D14*
X169124000Y-107798000D03*
X171624000Y-107798000D03*
X166624000Y-110998000D03*
X169124000Y-110998000D03*
X171624000Y-110998000D03*
%TD*%
D10*
%TO.C,A1*%
X161290000Y-116840000D03*
D11*
X161290000Y-119380000D03*
X161290000Y-121920000D03*
X161290000Y-124460000D03*
X161290000Y-127000000D03*
X161290000Y-129540000D03*
X161290000Y-132080000D03*
X161290000Y-134620000D03*
X161290000Y-137160000D03*
X161290000Y-139700000D03*
X161290000Y-142240000D03*
X161290000Y-144780000D03*
X161290000Y-147320000D03*
X161290000Y-149860000D03*
X161290000Y-152400000D03*
X176530000Y-152400000D03*
X176530000Y-149860000D03*
X176530000Y-147320000D03*
X176530000Y-144780000D03*
X176530000Y-142240000D03*
X176530000Y-139700000D03*
X176530000Y-137160000D03*
X176530000Y-134620000D03*
X176530000Y-132080000D03*
X176530000Y-129540000D03*
X176530000Y-127000000D03*
X176530000Y-124460000D03*
X176530000Y-121920000D03*
X176530000Y-119380000D03*
X176530000Y-116840000D03*
%TD*%
D14*
%TO.C,R4*%
X138811000Y-98679000D03*
D11*
X138811000Y-91059000D03*
%TD*%
D14*
%TO.C,R9*%
X180177000Y-105029000D03*
D11*
X180177000Y-97409000D03*
%TD*%
D20*
%TO.C,H6*%
X147701000Y-153416000D03*
%TD*%
%TO.C,H8*%
X147701000Y-78486000D03*
%TD*%
D14*
%TO.C,R3*%
X149225000Y-91186000D03*
D11*
X149225000Y-98806000D03*
%TD*%
D14*
%TO.C,R11*%
X170271000Y-84201000D03*
D11*
X170271000Y-76581000D03*
%TD*%
D14*
%TO.C,R5*%
X117221000Y-91059000D03*
D11*
X117221000Y-98679000D03*
%TD*%
D22*
%TO.C,SW3*%
X175677000Y-77470000D03*
X175677000Y-83970000D03*
X180177000Y-83970000D03*
X180177000Y-77470000D03*
%TD*%
D14*
%TO.C,C1*%
X156047000Y-90210000D03*
X156047000Y-95210000D03*
%TD*%
%TO.C,C2*%
X156047000Y-103251000D03*
X156047000Y-98251000D03*
%TD*%
%TO.C,R2*%
X142367000Y-91186000D03*
D11*
X142367000Y-98806000D03*
%TD*%
D20*
%TO.C,H7*%
X116713000Y-153416000D03*
%TD*%
D21*
%TO.C,J2*%
X142487000Y-68278000D03*
X149987000Y-68278000D03*
X157487000Y-68278000D03*
X144987000Y-70778000D03*
X154987000Y-70778000D03*
X154987000Y-58278000D03*
X144987000Y-58278000D03*
%TD*%
D20*
%TO.C,H5*%
X116713000Y-78486000D03*
%TD*%
%TO.C,H3*%
X124841000Y-78486000D03*
%TD*%
%TO.C,H1*%
X168910000Y-153416000D03*
%TD*%
D14*
%TO.C,R13*%
X133096000Y-140843000D03*
D11*
X133096000Y-133223000D03*
%TD*%
D14*
%TO.C,R12*%
X165191000Y-84201000D03*
D11*
X165191000Y-76581000D03*
%TD*%
D22*
%TO.C,SW2*%
X154940000Y-77216000D03*
X154940000Y-83716000D03*
X159440000Y-77216000D03*
X159440000Y-83716000D03*
%TD*%
D23*
%TO.C,SW1*%
X176120000Y-98651000D03*
D22*
X176120000Y-93651000D03*
X176120000Y-96151000D03*
D24*
X168620000Y-90551000D03*
X168620000Y-101751000D03*
D22*
X161620000Y-93651000D03*
X161620000Y-98651000D03*
%TD*%
D14*
%TO.C,R14*%
X136271000Y-140843000D03*
D11*
X136271000Y-133223000D03*
%TD*%
D20*
%TO.C,H2*%
X124841000Y-153543000D03*
%TD*%
D14*
%TO.C,R8*%
X172720000Y-104902000D03*
D11*
X165100000Y-104902000D03*
%TD*%
D12*
%TO.C,J6*%
X157480000Y-152400000D03*
D13*
X157480000Y-149860000D03*
X157480000Y-147320000D03*
X157480000Y-144780000D03*
X157480000Y-142240000D03*
X157480000Y-139700000D03*
X157480000Y-137160000D03*
X157480000Y-134620000D03*
X157480000Y-132080000D03*
X157480000Y-129540000D03*
X157480000Y-127000000D03*
X157480000Y-124460000D03*
X157480000Y-121920000D03*
X157480000Y-119380000D03*
X157480000Y-116840000D03*
%TD*%
M02*
