M48
; DRILL file {KiCad (6.0.7)} date Sat Jul  8 22:35:03 2023
; FORMAT={-:-/ absolute / metric / decimal}
; #@! TF.CreationDate,2023-07-08T22:35:03-04:00
; #@! TF.GenerationSoftware,Kicad,Pcbnew,(6.0.7)
; #@! TF.FileFunction,Plated,1,2,PTH
FMAT,2
METRIC
; #@! TA.AperFunction,Plated,PTH,ViaDrill
T1C0.400
; #@! TA.AperFunction,Plated,PTH,ComponentDrill
T2C0.750
; #@! TA.AperFunction,Plated,PTH,ComponentDrill
T3C0.800
; #@! TA.AperFunction,Plated,PTH,ComponentDrill
T4C0.900
; #@! TA.AperFunction,Plated,PTH,ComponentDrill
T5C1.000
; #@! TA.AperFunction,Plated,PTH,ComponentDrill
T6C1.100
; #@! TA.AperFunction,Plated,PTH,ComponentDrill
T7C1.400
; #@! TA.AperFunction,Plated,PTH,ComponentDrill
T8C1.500
; #@! TA.AperFunction,Plated,PTH,ComponentDrill
T9C3.200
%
G90
G05
T1
X155.92Y-77.216
T2
X132.334Y-89.408
X133.604Y-89.408
X134.874Y-89.408
T3
X108.458Y-76.2
X108.458Y-83.82
X111.379Y-88.519
X111.633Y-76.2
X111.633Y-78.74
X111.633Y-81.28
X111.633Y-83.82
X118.999Y-88.519
X119.253Y-76.2
X119.253Y-78.74
X119.253Y-81.28
X119.253Y-83.82
X122.809Y-76.073
X122.809Y-83.693
X124.333Y-107.442
X124.333Y-115.062
X126.492Y-76.2
X126.492Y-83.82
X127.508Y-107.442
X127.508Y-115.062
X130.048Y-76.2
X130.048Y-83.82
X133.604Y-76.327
X133.604Y-83.947
X137.033Y-76.327
X137.033Y-83.947
X140.462Y-76.327
X140.462Y-83.947
X141.097Y-124.841
X141.097Y-132.461
X144.653Y-124.841
X144.653Y-132.461
X147.284Y-75.351
X147.284Y-80.351
X147.284Y-83.392
X147.284Y-88.392
X156.174Y-72.39
X156.337Y-90.043
X156.428Y-61.722
X156.428Y-69.342
X157.861Y-92.939
X157.861Y-96.139
X160.361Y-92.939
X160.361Y-96.139
X161.508Y-61.722
X161.508Y-69.342
X162.861Y-92.939
X162.861Y-96.139
X163.794Y-72.39
X163.957Y-90.043
X171.414Y-72.39
X171.414Y-80.01
X171.414Y-82.169
X171.414Y-89.789
T4
X145.923Y-94.107
X148.463Y-94.107
X168.778Y-94.361
X171.318Y-94.361
T5
X112.7Y-133.057
X115.24Y-133.057
X117.78Y-133.057
X119.888Y-119.761
X120.32Y-133.057
X122.428Y-119.761
X124.968Y-119.761
X127.508Y-119.761
X148.717Y-101.981
X148.717Y-104.521
X148.717Y-107.061
X148.717Y-109.601
X148.717Y-112.141
X148.717Y-114.681
X148.717Y-117.221
X148.717Y-119.761
X148.717Y-122.301
X148.717Y-124.841
X148.717Y-127.381
X148.717Y-129.921
X148.717Y-132.461
X148.717Y-135.001
X148.717Y-137.541
X152.527Y-101.981
X152.527Y-104.521
X152.527Y-107.061
X152.527Y-109.601
X152.527Y-112.141
X152.527Y-114.681
X152.527Y-117.221
X152.527Y-119.761
X152.527Y-122.301
X152.527Y-124.841
X152.527Y-127.381
X152.527Y-129.921
X152.527Y-132.461
X152.527Y-135.001
X152.527Y-137.541
X152.857Y-78.792
X152.857Y-83.792
X167.357Y-78.792
X167.357Y-81.292
X167.357Y-83.792
X167.767Y-101.981
X167.767Y-104.521
X167.767Y-107.061
X167.767Y-109.601
X167.767Y-112.141
X167.767Y-114.681
X167.767Y-117.221
X167.767Y-119.761
X167.767Y-122.301
X167.767Y-124.841
X167.767Y-127.381
X167.767Y-129.921
X167.767Y-132.461
X167.767Y-135.001
X167.767Y-137.541
X171.577Y-101.981
X171.577Y-104.521
X171.577Y-107.061
X171.577Y-109.601
X171.577Y-112.141
X171.577Y-114.681
X171.577Y-117.221
X171.577Y-119.761
X171.577Y-122.301
X171.577Y-124.841
X171.577Y-127.381
X171.577Y-129.921
X171.577Y-132.461
X171.577Y-135.001
X171.577Y-137.541
T6
X146.177Y-62.357
X146.177Y-68.857
X150.677Y-62.357
X150.677Y-68.857
X166.914Y-62.611
X166.914Y-69.111
X171.414Y-62.611
X171.414Y-69.111
T7
X108.959Y-53.419
X111.459Y-43.419
X111.459Y-55.919
X116.459Y-53.419
X121.459Y-43.419
X121.459Y-55.919
X123.959Y-53.419
X133.724Y-53.419
X136.224Y-43.419
X136.224Y-55.919
X141.224Y-53.419
X146.224Y-43.419
X146.224Y-55.919
X148.724Y-53.419
T9
X107.95Y-63.627
X107.95Y-138.557
X116.078Y-63.627
X116.078Y-138.684
X138.938Y-63.627
X138.938Y-138.557
X155.321Y-57.023
X160.147Y-138.557
T5
G00X160.935Y-53.191
M15
G01X160.935Y-50.991
M16
G05
G00X166.835Y-48.691
M15
G01X164.635Y-48.691
M16
G05
G00X167.035Y-54.991
M15
G01X164.435Y-54.991
M16
G05
T8
G00X160.507Y-75.692
M15
G01X159.207Y-75.692
M16
G05
G00X160.507Y-86.892
M15
G01X159.207Y-86.892
M16
G05
T0
M30
