M48
; DRILL file {KiCad (6.0.7)} date Mon Jul  3 20:39:56 2023
; FORMAT={-:-/ absolute / metric / decimal}
; #@! TF.CreationDate,2023-07-03T20:39:56-04:00
; #@! TF.GenerationSoftware,Kicad,Pcbnew,(6.0.7)
; #@! TF.FileFunction,Plated,1,2,PTH
FMAT,2
METRIC
; #@! TA.AperFunction,Plated,PTH,ViaDrill
T1C0.400
; #@! TA.AperFunction,Plated,PTH,ComponentDrill
T2C0.750
; #@! TA.AperFunction,Plated,PTH,ComponentDrill
T3C0.800
; #@! TA.AperFunction,Plated,PTH,ComponentDrill
T4C0.900
; #@! TA.AperFunction,Plated,PTH,ComponentDrill
T5C1.000
; #@! TA.AperFunction,Plated,PTH,ComponentDrill
T6C1.100
; #@! TA.AperFunction,Plated,PTH,ComponentDrill
T7C1.400
; #@! TA.AperFunction,Plated,PTH,ComponentDrill
T8C1.500
%
G90
G05
T1
X156.337Y-98.552
T2
X162.56Y-80.645
X162.56Y-81.915
X162.56Y-83.185
T3
X130.175Y-78.74
X130.175Y-86.36
X130.175Y-90.805
X130.175Y-98.425
X130.175Y-103.505
X130.175Y-111.125
X132.08Y-114.3
X132.08Y-117.475
X133.985Y-78.74
X133.985Y-86.36
X133.985Y-90.805
X133.985Y-98.425
X133.985Y-103.505
X133.985Y-111.125
X137.16Y-78.74
X137.16Y-86.36
X137.16Y-109.855
X137.2Y-104.775
X139.7Y-114.3
X139.7Y-117.475
X141.732Y-78.74
X141.732Y-81.28
X141.732Y-83.82
X141.732Y-86.36
X142.16Y-109.855
X142.2Y-104.775
X145.415Y-90.17
X145.415Y-97.79
X145.415Y-103.505
X145.415Y-111.125
X149.225Y-103.505
X149.225Y-111.125
X149.352Y-78.74
X149.352Y-81.28
X149.352Y-83.82
X149.352Y-86.36
X152.908Y-78.74
X152.908Y-86.36
X156.845Y-78.74
X156.845Y-86.36
X158.75Y-90.17
X158.75Y-97.79
X160.02Y-116.84
X160.02Y-120.015
X167.64Y-78.74
X167.64Y-86.36
X167.64Y-116.84
X167.64Y-120.015
T4
X137.922Y-98.044
X137.927Y-91.44
X140.462Y-98.044
X140.467Y-91.44
X146.598Y-118.364
X146.598Y-121.664
X149.098Y-118.364
X149.098Y-121.664
X151.598Y-118.364
X151.598Y-121.664
T5
X125.095Y-84.328
X125.095Y-86.868
X125.095Y-89.408
X125.095Y-91.948
X125.095Y-94.488
X125.095Y-97.028
X125.095Y-99.568
X125.095Y-102.108
X125.095Y-107.188
X125.095Y-109.728
X125.095Y-112.268
X125.095Y-114.808
X125.095Y-117.348
X125.095Y-119.888
X132.09Y-121.285
X134.63Y-121.285
X137.17Y-121.285
X139.71Y-121.285
X153.14Y-104.855
X153.14Y-107.355
X153.14Y-109.855
X167.64Y-104.855
X167.64Y-109.855
X173.355Y-75.188
X173.355Y-77.728
X173.355Y-80.268
X173.355Y-82.808
X173.355Y-85.348
X173.355Y-87.888
X173.355Y-90.428
X173.355Y-92.968
X173.355Y-95.508
X173.355Y-98.048
X173.355Y-102.108
X173.355Y-104.648
X173.355Y-107.188
X173.355Y-109.728
X173.355Y-112.268
X173.355Y-114.808
X173.355Y-117.348
X173.355Y-119.888
T6
X149.515Y-90.73
X149.515Y-97.23
X154.015Y-90.73
X154.015Y-97.23
X163.485Y-90.73
X163.485Y-97.23
X167.985Y-90.73
X167.985Y-97.23
T7
X127.755Y-69.04
X130.255Y-59.04
X130.255Y-71.54
X135.255Y-69.04
X140.255Y-59.04
X140.255Y-71.54
X142.755Y-69.04
X155.06Y-69.04
X157.56Y-59.04
X157.56Y-71.54
X162.56Y-69.04
X167.56Y-59.04
X167.56Y-71.54
X170.06Y-69.04
T8
G00X159.99Y-101.755
M15
G01X161.29Y-101.755
M16
G05
G00X159.99Y-112.955
M15
G01X161.29Y-112.955
M16
G05
T0
M30
