%TF.GenerationSoftware,KiCad,Pcbnew,(6.0.7)*%
%TF.CreationDate,2023-06-11T11:51:14-04:00*%
%TF.ProjectId,MIDI_Arduino_shield,4d494449-5f41-4726-9475-696e6f5f7368,rev?*%
%TF.SameCoordinates,Original*%
%TF.FileFunction,Soldermask,Top*%
%TF.FilePolarity,Negative*%
%FSLAX46Y46*%
G04 Gerber Fmt 4.6, Leading zero omitted, Abs format (unit mm)*
G04 Created by KiCad (PCBNEW (6.0.7)) date 2023-06-11 11:51:14*
%MOMM*%
%LPD*%
G01*
G04 APERTURE LIST*
%ADD10C,1.600000*%
%ADD11O,1.600000X1.600000*%
%ADD12R,2.000000X2.000000*%
%ADD13C,2.000000*%
%ADD14R,3.200000X2.000000*%
%ADD15R,1.800000X1.800000*%
%ADD16C,1.800000*%
%ADD17R,1.400000X1.400000*%
%ADD18C,1.400000*%
%ADD19R,1.600000X1.600000*%
%ADD20R,1.500000X1.050000*%
%ADD21O,1.500000X1.050000*%
%ADD22R,1.700000X1.700000*%
%ADD23O,1.700000X1.700000*%
%ADD24C,2.500000*%
G04 APERTURE END LIST*
D10*
%TO.C,R1*%
X167640000Y-78105000D03*
D11*
X167640000Y-85725000D03*
%TD*%
D12*
%TO.C,SW1*%
X153140000Y-104855000D03*
D13*
X153140000Y-109855000D03*
X153140000Y-107355000D03*
D14*
X160640000Y-112955000D03*
X160640000Y-101755000D03*
D13*
X167640000Y-109855000D03*
X167640000Y-104855000D03*
%TD*%
D10*
%TO.C,R16*%
X130175000Y-98425000D03*
D11*
X130175000Y-90805000D03*
%TD*%
%TO.C,R15*%
X133985000Y-90805000D03*
D10*
X133985000Y-98425000D03*
%TD*%
D15*
%TO.C,D3*%
X140462000Y-98044000D03*
D16*
X137922000Y-98044000D03*
%TD*%
D15*
%TO.C,D2*%
X140467000Y-90932000D03*
D16*
X137927000Y-90932000D03*
%TD*%
D17*
%TO.C,SW4*%
X146598000Y-118364000D03*
D18*
X149098000Y-118364000D03*
X151598000Y-118364000D03*
X146598000Y-121664000D03*
X149098000Y-121664000D03*
X151598000Y-121664000D03*
%TD*%
D19*
%TO.C,U2*%
X144780000Y-78750000D03*
D11*
X144780000Y-81290000D03*
X144780000Y-83830000D03*
X144780000Y-86370000D03*
X152400000Y-86370000D03*
X152400000Y-83830000D03*
X152400000Y-81290000D03*
X152400000Y-78750000D03*
%TD*%
D13*
%TO.C,SW3*%
X149515000Y-90730000D03*
X149515000Y-97230000D03*
X154015000Y-90730000D03*
X154015000Y-97230000D03*
%TD*%
%TO.C,SW2*%
X163485000Y-90730000D03*
X163485000Y-97230000D03*
X167985000Y-90730000D03*
X167985000Y-97230000D03*
%TD*%
D10*
%TO.C,R14*%
X139700000Y-117475000D03*
D11*
X132080000Y-117475000D03*
%TD*%
D10*
%TO.C,R13*%
X139700000Y-114300000D03*
D11*
X132080000Y-114300000D03*
%TD*%
D10*
%TO.C,R12*%
X158750000Y-97790000D03*
D11*
X158750000Y-90170000D03*
%TD*%
D10*
%TO.C,R11*%
X145415000Y-97790000D03*
D11*
X145415000Y-90170000D03*
%TD*%
D10*
%TO.C,R10*%
X149225000Y-103505000D03*
D11*
X149225000Y-111125000D03*
%TD*%
D10*
%TO.C,R9*%
X133985000Y-111125000D03*
D11*
X133985000Y-103505000D03*
%TD*%
D10*
%TO.C,R8*%
X130175000Y-111125000D03*
D11*
X130175000Y-103505000D03*
%TD*%
D10*
%TO.C,R7*%
X145415000Y-103505000D03*
D11*
X145415000Y-111125000D03*
%TD*%
D10*
%TO.C,R6*%
X130175000Y-78740000D03*
D11*
X130175000Y-86360000D03*
%TD*%
D10*
%TO.C,R5*%
X133985000Y-78740000D03*
D11*
X133985000Y-86360000D03*
%TD*%
D10*
%TO.C,R4*%
X156845000Y-85725000D03*
D11*
X156845000Y-78105000D03*
%TD*%
D10*
%TO.C,R3*%
X160020000Y-120015000D03*
D11*
X167640000Y-120015000D03*
%TD*%
D10*
%TO.C,R2*%
X160020000Y-116840000D03*
D11*
X167640000Y-116840000D03*
%TD*%
D20*
%TO.C,Q1*%
X162560000Y-80645000D03*
D21*
X162560000Y-81915000D03*
X162560000Y-83185000D03*
%TD*%
D22*
%TO.C,J4*%
X132090000Y-121285000D03*
D23*
X134630000Y-121285000D03*
X137170000Y-121285000D03*
X139710000Y-121285000D03*
%TD*%
D19*
%TO.C,D1*%
X138430000Y-78740000D03*
D11*
X138430000Y-86360000D03*
%TD*%
D10*
%TO.C,C2*%
X142160000Y-109855000D03*
X137160000Y-109855000D03*
%TD*%
%TO.C,C1*%
X142200000Y-104775000D03*
X137200000Y-104775000D03*
%TD*%
D19*
%TO.C,A1*%
X125095000Y-84328000D03*
D11*
X125095000Y-86868000D03*
X125095000Y-89408000D03*
X125095000Y-91948000D03*
X125095000Y-94488000D03*
X125095000Y-97028000D03*
X125095000Y-99568000D03*
X125095000Y-102108000D03*
X125095000Y-107188000D03*
X125095000Y-109728000D03*
X125095000Y-112268000D03*
X125095000Y-114808000D03*
X125095000Y-117348000D03*
X125095000Y-119888000D03*
X173355000Y-119888000D03*
X173355000Y-117348000D03*
X173355000Y-114808000D03*
X173355000Y-112268000D03*
X173355000Y-109728000D03*
X173355000Y-107188000D03*
X173355000Y-104648000D03*
X173355000Y-102108000D03*
X173355000Y-98048000D03*
X173355000Y-95508000D03*
X173355000Y-92968000D03*
X173355000Y-90428000D03*
X173355000Y-87888000D03*
X173355000Y-85348000D03*
X173355000Y-82808000D03*
X173355000Y-80268000D03*
X173355000Y-77728000D03*
X173355000Y-75188000D03*
%TD*%
D24*
%TO.C,J3*%
X127755000Y-69040000D03*
X135255000Y-69040000D03*
X142755000Y-69040000D03*
X130255000Y-71540000D03*
X140255000Y-71540000D03*
X130255000Y-59040000D03*
X140255000Y-59040000D03*
%TD*%
%TO.C,J2*%
X155060000Y-69040000D03*
X162560000Y-69040000D03*
X170060000Y-69040000D03*
X157560000Y-71540000D03*
X167560000Y-71540000D03*
X167560000Y-59040000D03*
X157560000Y-59040000D03*
%TD*%
M02*
