M48
; DRILL file {KiCad (6.0.7)} date Sun Jun 18 21:38:27 2023
; FORMAT={-:-/ absolute / metric / decimal}
; #@! TF.CreationDate,2023-06-18T21:38:27-04:00
; #@! TF.GenerationSoftware,Kicad,Pcbnew,(6.0.7)
; #@! TF.FileFunction,Plated,1,2,PTH
FMAT,2
METRIC
; #@! TA.AperFunction,Plated,PTH,ViaDrill
T1C0.400
; #@! TA.AperFunction,Plated,PTH,ComponentDrill
T2C0.750
; #@! TA.AperFunction,Plated,PTH,ComponentDrill
T3C0.800
; #@! TA.AperFunction,Plated,PTH,ComponentDrill
T4C0.920
; #@! TA.AperFunction,Plated,PTH,ComponentDrill
T5C1.000
; #@! TA.AperFunction,Plated,PTH,ComponentDrill
T6C1.100
; #@! TA.AperFunction,Plated,PTH,ComponentDrill
T7C1.400
; #@! TA.AperFunction,Plated,PTH,ComponentDrill
T8C1.500
; #@! TA.AperFunction,Plated,PTH,ComponentDrill
T9C2.330
; #@! TA.AperFunction,Plated,PTH,ComponentDrill
T10C3.200
%
G90
G05
T1
X162.687Y-134.366
X163.703Y-98.298
X163.957Y-134.366
X165.1Y-134.366
X170.815Y-107.696
X172.847Y-109.728
T2
X141.097Y-104.267
X142.367Y-104.267
X143.637Y-104.267
T3
X116.586Y-91.059
X116.586Y-98.679
X119.888Y-90.932
X119.888Y-93.472
X119.888Y-96.012
X119.888Y-98.552
X119.888Y-103.124
X127.508Y-90.932
X127.508Y-93.472
X127.508Y-96.012
X127.508Y-98.552
X127.508Y-103.124
X131.318Y-90.932
X131.318Y-98.552
X133.096Y-133.223
X133.096Y-140.843
X135.255Y-91.059
X135.255Y-98.679
X136.271Y-133.223
X136.271Y-140.843
X138.811Y-91.059
X138.811Y-98.679
X142.367Y-91.186
X142.367Y-98.806
X145.796Y-91.186
X145.796Y-98.806
X149.225Y-91.186
X149.225Y-98.806
X155.067Y-96.433
X155.067Y-101.433
X155.067Y-104.474
X155.067Y-109.474
X163.322Y-112.014
X163.957Y-93.472
X164.211Y-82.804
X164.211Y-90.424
X169.291Y-82.804
X169.291Y-90.424
X170.942Y-112.014
X171.577Y-93.472
X179.197Y-93.472
X179.197Y-101.092
X179.197Y-104.394
X179.197Y-112.014
T4
X172.339Y-69.342
X172.339Y-71.342
X174.839Y-69.342
X174.839Y-71.342
T5
X128.651Y-145.542
X131.191Y-145.542
X133.731Y-145.542
X136.271Y-145.542
X153.162Y-116.332
X153.162Y-118.872
X153.162Y-121.412
X153.162Y-123.952
X153.162Y-126.492
X153.162Y-129.032
X153.162Y-131.572
X153.162Y-134.112
X153.162Y-136.652
X153.162Y-139.192
X153.162Y-141.732
X153.162Y-144.272
X153.162Y-146.812
X153.162Y-149.352
X153.162Y-151.892
X157.226Y-116.459
X157.226Y-118.999
X157.226Y-121.539
X157.226Y-124.079
X157.226Y-126.619
X157.226Y-129.159
X157.226Y-131.699
X157.226Y-134.239
X157.226Y-136.779
X157.226Y-139.319
X157.226Y-141.859
X157.226Y-144.399
X157.226Y-146.939
X157.226Y-149.479
X157.226Y-152.019
X160.633Y-100.37
X160.633Y-105.37
X175.133Y-100.37
X175.133Y-102.87
X175.133Y-105.37
X175.187Y-116.459
X175.187Y-118.999
X175.187Y-121.539
X175.187Y-124.079
X175.187Y-126.619
X175.187Y-129.159
X175.187Y-131.699
X175.187Y-134.239
X175.187Y-136.779
X175.187Y-139.319
X175.187Y-141.859
X175.187Y-144.399
X175.187Y-146.939
X175.187Y-149.479
X175.187Y-152.019
X179.324Y-116.459
X179.324Y-118.999
X179.324Y-121.539
X179.324Y-124.079
X179.324Y-126.619
X179.324Y-129.159
X179.324Y-131.699
X179.324Y-134.239
X179.324Y-136.779
X179.324Y-139.319
X179.324Y-141.859
X179.324Y-144.399
X179.324Y-146.939
X179.324Y-149.479
X179.324Y-152.019
T6
X153.96Y-83.439
X153.96Y-89.939
X158.46Y-83.439
X158.46Y-89.939
X174.697Y-83.693
X174.697Y-90.193
X179.197Y-83.693
X179.197Y-90.193
T7
X117.722Y-68.532
X120.222Y-58.532
X120.222Y-71.032
X125.222Y-68.532
X130.222Y-58.532
X130.222Y-71.032
X132.722Y-68.532
X142.487Y-68.532
X144.987Y-58.532
X144.987Y-71.032
X149.987Y-68.532
X154.987Y-58.532
X154.987Y-71.032
X157.487Y-68.532
T9
X167.569Y-66.632
X179.609Y-66.632
T10
X116.713Y-78.486
X116.713Y-153.416
X124.841Y-78.486
X124.841Y-153.543
X147.701Y-78.486
X147.701Y-153.416
X169.037Y-153.543
X171.958Y-78.232
T5
G00X168.936Y-63.351
M15
G01X168.936Y-61.151
M16
G05
G00X174.836Y-58.851
M15
G01X172.636Y-58.851
M16
G05
G00X175.036Y-65.151
M15
G01X172.436Y-65.151
M16
G05
T8
G00X168.283Y-97.27
M15
G01X166.983Y-97.27
M16
G05
G00X168.283Y-108.47
M15
G01X166.983Y-108.47
M16
G05
T0
M30
