%TF.GenerationSoftware,KiCad,Pcbnew,(6.0.7)*%
%TF.CreationDate,2023-06-18T21:38:32-04:00*%
%TF.ProjectId,ATMega328pb_MIDI_breakout,41544d65-6761-4333-9238-70625f4d4944,rev?*%
%TF.SameCoordinates,Original*%
%TF.FileFunction,Soldermask,Top*%
%TF.FilePolarity,Negative*%
%FSLAX46Y46*%
G04 Gerber Fmt 4.6, Leading zero omitted, Abs format (unit mm)*
G04 Created by KiCad (PCBNEW (6.0.7)) date 2023-06-18 21:38:32*
%MOMM*%
%LPD*%
G01*
G04 APERTURE LIST*
%ADD10R,1.600000X1.600000*%
%ADD11O,1.600000X1.600000*%
%ADD12R,1.700000X1.700000*%
%ADD13O,1.700000X1.700000*%
%ADD14C,1.600000*%
%ADD15R,4.600000X2.000000*%
%ADD16O,4.200000X2.000000*%
%ADD17O,2.000000X4.200000*%
%ADD18R,1.050000X1.500000*%
%ADD19O,1.050000X1.500000*%
%ADD20C,5.600000*%
%ADD21C,2.500000*%
%ADD22C,2.000000*%
%ADD23R,2.000000X2.000000*%
%ADD24R,3.200000X2.000000*%
%ADD25C,1.700000*%
%ADD26C,3.500000*%
G04 APERTURE END LIST*
D10*
%TO.C,U2*%
X119888000Y-90932000D03*
D11*
X119888000Y-93472000D03*
X119888000Y-96012000D03*
X119888000Y-98552000D03*
X127508000Y-98552000D03*
X127508000Y-96012000D03*
X127508000Y-93472000D03*
X127508000Y-90932000D03*
%TD*%
D10*
%TO.C,D1*%
X127508000Y-103124000D03*
D11*
X119888000Y-103124000D03*
%TD*%
D12*
%TO.C,J4*%
X128651000Y-145542000D03*
D13*
X131191000Y-145542000D03*
X133731000Y-145542000D03*
X136271000Y-145542000D03*
%TD*%
D14*
%TO.C,R10*%
X179197000Y-93472000D03*
D11*
X179197000Y-101092000D03*
%TD*%
D15*
%TO.C,J7*%
X173736000Y-65151000D03*
D16*
X173736000Y-58851000D03*
D17*
X168936000Y-62251000D03*
%TD*%
D18*
%TO.C,Q1*%
X141097000Y-104267000D03*
D19*
X142367000Y-104267000D03*
X143637000Y-104267000D03*
%TD*%
D12*
%TO.C,J5*%
X179324000Y-152019000D03*
D13*
X179324000Y-149479000D03*
X179324000Y-146939000D03*
X179324000Y-144399000D03*
X179324000Y-141859000D03*
X179324000Y-139319000D03*
X179324000Y-136779000D03*
X179324000Y-134239000D03*
X179324000Y-131699000D03*
X179324000Y-129159000D03*
X179324000Y-126619000D03*
X179324000Y-124079000D03*
X179324000Y-121539000D03*
X179324000Y-118999000D03*
X179324000Y-116459000D03*
%TD*%
D14*
%TO.C,R6*%
X135255000Y-98679000D03*
D11*
X135255000Y-91059000D03*
%TD*%
D14*
%TO.C,R7*%
X171577000Y-93472000D03*
D11*
X163957000Y-93472000D03*
%TD*%
D20*
%TO.C,H4*%
X171958000Y-78232000D03*
%TD*%
D14*
%TO.C,R1*%
X145796000Y-91186000D03*
D11*
X145796000Y-98806000D03*
%TD*%
D21*
%TO.C,J3*%
X117722000Y-68532000D03*
X125222000Y-68532000D03*
X132722000Y-68532000D03*
X120222000Y-71032000D03*
X130222000Y-71032000D03*
X120222000Y-58532000D03*
X130222000Y-58532000D03*
%TD*%
D14*
%TO.C,R4*%
X138811000Y-98679000D03*
D11*
X138811000Y-91059000D03*
%TD*%
D14*
%TO.C,R9*%
X179197000Y-112014000D03*
D11*
X179197000Y-104394000D03*
%TD*%
D20*
%TO.C,H6*%
X147701000Y-153416000D03*
%TD*%
%TO.C,H8*%
X147701000Y-78486000D03*
%TD*%
D14*
%TO.C,R3*%
X149225000Y-91186000D03*
D11*
X149225000Y-98806000D03*
%TD*%
D14*
%TO.C,R11*%
X169291000Y-90424000D03*
D11*
X169291000Y-82804000D03*
%TD*%
D14*
%TO.C,R5*%
X116586000Y-91059000D03*
D11*
X116586000Y-98679000D03*
%TD*%
D20*
%TO.C,H1*%
X169037000Y-153543000D03*
%TD*%
D22*
%TO.C,SW3*%
X174697000Y-83693000D03*
X174697000Y-90193000D03*
X179197000Y-90193000D03*
X179197000Y-83693000D03*
%TD*%
D14*
%TO.C,C1*%
X155067000Y-96433000D03*
X155067000Y-101433000D03*
%TD*%
%TO.C,C2*%
X155067000Y-109474000D03*
X155067000Y-104474000D03*
%TD*%
%TO.C,R2*%
X142367000Y-91186000D03*
D11*
X142367000Y-98806000D03*
%TD*%
D20*
%TO.C,H7*%
X116713000Y-153416000D03*
%TD*%
D21*
%TO.C,J2*%
X142487000Y-68532000D03*
X149987000Y-68532000D03*
X157487000Y-68532000D03*
X144987000Y-71032000D03*
X154987000Y-71032000D03*
X154987000Y-58532000D03*
X144987000Y-58532000D03*
%TD*%
D20*
%TO.C,H5*%
X116713000Y-78486000D03*
%TD*%
%TO.C,H3*%
X124841000Y-78486000D03*
%TD*%
D14*
%TO.C,R13*%
X133096000Y-140843000D03*
D11*
X133096000Y-133223000D03*
%TD*%
D14*
%TO.C,R12*%
X164211000Y-90424000D03*
D11*
X164211000Y-82804000D03*
%TD*%
D22*
%TO.C,SW2*%
X153960000Y-83439000D03*
X153960000Y-89939000D03*
X158460000Y-83439000D03*
X158460000Y-89939000D03*
%TD*%
D23*
%TO.C,SW1*%
X175133000Y-105370000D03*
D22*
X175133000Y-100370000D03*
X175133000Y-102870000D03*
D24*
X167633000Y-97270000D03*
X167633000Y-108470000D03*
D22*
X160633000Y-100370000D03*
X160633000Y-105370000D03*
%TD*%
D14*
%TO.C,R15*%
X131318000Y-90932000D03*
D11*
X131318000Y-98552000D03*
%TD*%
D14*
%TO.C,R14*%
X136271000Y-140843000D03*
D11*
X136271000Y-133223000D03*
%TD*%
D12*
%TO.C,J1*%
X172339000Y-71342000D03*
D25*
X174839000Y-71342000D03*
X174839000Y-69342000D03*
X172339000Y-69342000D03*
D26*
X167569000Y-66632000D03*
X179609000Y-66632000D03*
%TD*%
D20*
%TO.C,H2*%
X124841000Y-153543000D03*
%TD*%
D14*
%TO.C,R8*%
X170942000Y-112014000D03*
D11*
X163322000Y-112014000D03*
%TD*%
D12*
%TO.C,U1*%
X175187300Y-152019000D03*
D13*
X175187300Y-149479000D03*
X175187300Y-146939000D03*
X175187300Y-144399000D03*
X175187300Y-141859000D03*
X175187300Y-139319000D03*
X175187300Y-136779000D03*
X175187300Y-134239000D03*
X175187300Y-131699000D03*
X175187300Y-129159000D03*
X175187300Y-126619000D03*
X175187300Y-124079000D03*
X175187300Y-121539000D03*
X175187300Y-118999000D03*
X175187300Y-116459000D03*
X157226000Y-116459000D03*
X157226000Y-118999000D03*
X157226000Y-121539000D03*
X157226000Y-124079000D03*
X157226000Y-126619000D03*
X157226000Y-129159000D03*
X157226000Y-131699000D03*
X157226000Y-134239000D03*
X157226000Y-136779000D03*
X157226000Y-139319000D03*
X157226000Y-141859000D03*
X157226000Y-144399000D03*
X157226000Y-146939000D03*
X157226000Y-149479000D03*
D12*
X157226000Y-152019000D03*
%TD*%
%TO.C,J6*%
X153162000Y-151892000D03*
D13*
X153162000Y-149352000D03*
X153162000Y-146812000D03*
X153162000Y-144272000D03*
X153162000Y-141732000D03*
X153162000Y-139192000D03*
X153162000Y-136652000D03*
X153162000Y-134112000D03*
X153162000Y-131572000D03*
X153162000Y-129032000D03*
X153162000Y-126492000D03*
X153162000Y-123952000D03*
X153162000Y-121412000D03*
X153162000Y-118872000D03*
X153162000Y-116332000D03*
%TD*%
M02*
