%TF.GenerationSoftware,KiCad,Pcbnew,(6.0.7)*%
%TF.CreationDate,2023-07-03T15:41:19-04:00*%
%TF.ProjectId,ATMega328pb_MIDI_breakout,41544d65-6761-4333-9238-70625f4d4944,rev?*%
%TF.SameCoordinates,Original*%
%TF.FileFunction,Legend,Top*%
%TF.FilePolarity,Positive*%
%FSLAX46Y46*%
G04 Gerber Fmt 4.6, Leading zero omitted, Abs format (unit mm)*
G04 Created by KiCad (PCBNEW (6.0.7)) date 2023-07-03 15:41:19*
%MOMM*%
%LPD*%
G01*
G04 APERTURE LIST*
%ADD10C,0.150000*%
%ADD11C,0.300000*%
%ADD12C,0.120000*%
%ADD13C,0.304800*%
G04 APERTURE END LIST*
D10*
X124023428Y-146065714D02*
X124023428Y-145303809D01*
X124404380Y-145684761D02*
X123642476Y-145684761D01*
X123404380Y-144351428D02*
X123404380Y-144827619D01*
X123880571Y-144875238D01*
X123832952Y-144827619D01*
X123785333Y-144732380D01*
X123785333Y-144494285D01*
X123832952Y-144399047D01*
X123880571Y-144351428D01*
X123975809Y-144303809D01*
X124213904Y-144303809D01*
X124309142Y-144351428D01*
X124356761Y-144399047D01*
X124404380Y-144494285D01*
X124404380Y-144732380D01*
X124356761Y-144827619D01*
X124309142Y-144875238D01*
X123404380Y-144018095D02*
X124404380Y-143684761D01*
X123404380Y-143351428D01*
X174498095Y-154186000D02*
X174402857Y-154138380D01*
X174260000Y-154138380D01*
X174117142Y-154186000D01*
X174021904Y-154281238D01*
X173974285Y-154376476D01*
X173926666Y-154566952D01*
X173926666Y-154709809D01*
X173974285Y-154900285D01*
X174021904Y-154995523D01*
X174117142Y-155090761D01*
X174260000Y-155138380D01*
X174355238Y-155138380D01*
X174498095Y-155090761D01*
X174545714Y-155043142D01*
X174545714Y-154709809D01*
X174355238Y-154709809D01*
X174974285Y-155138380D02*
X174974285Y-154138380D01*
X175545714Y-155138380D01*
X175545714Y-154138380D01*
X176021904Y-155138380D02*
X176021904Y-154138380D01*
X176260000Y-154138380D01*
X176402857Y-154186000D01*
X176498095Y-154281238D01*
X176545714Y-154376476D01*
X176593333Y-154566952D01*
X176593333Y-154709809D01*
X176545714Y-154900285D01*
X176498095Y-154995523D01*
X176402857Y-155090761D01*
X176260000Y-155138380D01*
X176021904Y-155138380D01*
X171370206Y-128829969D02*
X172077312Y-128122862D01*
X172245671Y-128291221D01*
X172313015Y-128425908D01*
X172313015Y-128560595D01*
X172279343Y-128661610D01*
X172178328Y-128829969D01*
X172077312Y-128930984D01*
X171908954Y-129032000D01*
X171807938Y-129065671D01*
X171673251Y-129065671D01*
X171538564Y-128998328D01*
X171370206Y-128829969D01*
X172717076Y-128762625D02*
X173188480Y-129234030D01*
X172178328Y-129638091D01*
X171370206Y-146609969D02*
X172077312Y-145902862D01*
X172245671Y-146071221D01*
X172313015Y-146205908D01*
X172313015Y-146340595D01*
X172279343Y-146441610D01*
X172178328Y-146609969D01*
X172077312Y-146710984D01*
X171908954Y-146812000D01*
X171807938Y-146845671D01*
X171673251Y-146845671D01*
X171538564Y-146778328D01*
X171370206Y-146609969D01*
X172919106Y-146744656D02*
X172986450Y-146812000D01*
X173020122Y-146913015D01*
X173020122Y-146980358D01*
X172986450Y-147081374D01*
X172885435Y-147249732D01*
X172717076Y-147418091D01*
X172548717Y-147519106D01*
X172447702Y-147552778D01*
X172380358Y-147552778D01*
X172279343Y-147519106D01*
X172212000Y-147451763D01*
X172178328Y-147350748D01*
X172178328Y-147283404D01*
X172211999Y-147182389D01*
X172313015Y-147014030D01*
X172481374Y-146845671D01*
X172649732Y-146744656D01*
X172750748Y-146710984D01*
X172818091Y-146710984D01*
X172919106Y-146744656D01*
X131643428Y-141493714D02*
X131643428Y-140731809D01*
X132024380Y-141112761D02*
X131262476Y-141112761D01*
X131024380Y-139779428D02*
X131024380Y-140255619D01*
X131500571Y-140303238D01*
X131452952Y-140255619D01*
X131405333Y-140160380D01*
X131405333Y-139922285D01*
X131452952Y-139827047D01*
X131500571Y-139779428D01*
X131595809Y-139731809D01*
X131833904Y-139731809D01*
X131929142Y-139779428D01*
X131976761Y-139827047D01*
X132024380Y-139922285D01*
X132024380Y-140160380D01*
X131976761Y-140255619D01*
X131929142Y-140303238D01*
X131024380Y-139446095D02*
X132024380Y-139112761D01*
X131024380Y-138779428D01*
X171370206Y-139116969D02*
X172077312Y-138409862D01*
X172245671Y-138578221D01*
X172313015Y-138712908D01*
X172313015Y-138847595D01*
X172279343Y-138948610D01*
X172178328Y-139116969D01*
X172077312Y-139217984D01*
X171908954Y-139319000D01*
X171807938Y-139352671D01*
X171673251Y-139352671D01*
X171538564Y-139285328D01*
X171370206Y-139116969D01*
X172717076Y-139049625D02*
X173154809Y-139487358D01*
X172649732Y-139521030D01*
X172750748Y-139622045D01*
X172784419Y-139723061D01*
X172784419Y-139790404D01*
X172750748Y-139891419D01*
X172582389Y-140059778D01*
X172481374Y-140093450D01*
X172414030Y-140093450D01*
X172313015Y-140059778D01*
X172110984Y-139857748D01*
X172077312Y-139756732D01*
X172077312Y-139689389D01*
X162426774Y-134353927D02*
X162763492Y-134017209D01*
X162561461Y-134623301D02*
X162090057Y-133680492D01*
X163032866Y-134151896D01*
X163100209Y-133141744D02*
X163571614Y-133613148D01*
X162662477Y-133040729D02*
X162999194Y-133714164D01*
X163436927Y-133276431D01*
X162426774Y-137020927D02*
X162763492Y-136684209D01*
X162561461Y-137290301D02*
X162090057Y-136347492D01*
X163032866Y-136818896D01*
X162898179Y-135539370D02*
X162561461Y-135876087D01*
X162864507Y-136246477D01*
X162864507Y-136179133D01*
X162898179Y-136078118D01*
X163066538Y-135909759D01*
X163167553Y-135876087D01*
X163234896Y-135876087D01*
X163335912Y-135909759D01*
X163504270Y-136078118D01*
X163537942Y-136179133D01*
X163537942Y-136246477D01*
X163504270Y-136347492D01*
X163335912Y-136515851D01*
X163234896Y-136549522D01*
X163167553Y-136549522D01*
X170906488Y-120365251D02*
X171613595Y-119658145D01*
X171781954Y-119826503D01*
X171849297Y-119961190D01*
X171849297Y-120095877D01*
X171815625Y-120196893D01*
X171714610Y-120365251D01*
X171613595Y-120466267D01*
X171445236Y-120567282D01*
X171344221Y-120600954D01*
X171209534Y-120600954D01*
X171074847Y-120533610D01*
X170906488Y-120365251D01*
X171983984Y-121442748D02*
X171579923Y-121038687D01*
X171781954Y-121240717D02*
X172489061Y-120533610D01*
X172320702Y-120567282D01*
X172186015Y-120567282D01*
X172085000Y-120533610D01*
X173128824Y-121173374D02*
X173196167Y-121240717D01*
X173229839Y-121341732D01*
X173229839Y-121409076D01*
X173196167Y-121510091D01*
X173095152Y-121678450D01*
X172926793Y-121846809D01*
X172758435Y-121947824D01*
X172657419Y-121981496D01*
X172590076Y-121981496D01*
X172489061Y-121947824D01*
X172421717Y-121880480D01*
X172388045Y-121779465D01*
X172388045Y-121712122D01*
X172421717Y-121611106D01*
X172522732Y-121442748D01*
X172691091Y-121274389D01*
X172859450Y-121173374D01*
X172960465Y-121139702D01*
X173027809Y-121139702D01*
X173128824Y-121173374D01*
X162426774Y-131940927D02*
X162763492Y-131604209D01*
X162561461Y-132210301D02*
X162090057Y-131267492D01*
X163032866Y-131738896D01*
X162494118Y-130863431D02*
X162931851Y-130425698D01*
X162965522Y-130930774D01*
X163066538Y-130829759D01*
X163167553Y-130796087D01*
X163234896Y-130796087D01*
X163335912Y-130829759D01*
X163504270Y-130998118D01*
X163537942Y-131099133D01*
X163537942Y-131166477D01*
X163504270Y-131267492D01*
X163302240Y-131469522D01*
X163201225Y-131503194D01*
X163133881Y-131503194D01*
X171370206Y-126289969D02*
X172077312Y-125582862D01*
X172245671Y-125751221D01*
X172313015Y-125885908D01*
X172313015Y-126020595D01*
X172279343Y-126121610D01*
X172178328Y-126289969D01*
X172077312Y-126390984D01*
X171908954Y-126492000D01*
X171807938Y-126525671D01*
X171673251Y-126525671D01*
X171538564Y-126458328D01*
X171370206Y-126289969D01*
X172582389Y-126694030D02*
X172548717Y-126593015D01*
X172548717Y-126525671D01*
X172582389Y-126424656D01*
X172616061Y-126390984D01*
X172717076Y-126357312D01*
X172784419Y-126357312D01*
X172885435Y-126390984D01*
X173020122Y-126525671D01*
X173053793Y-126626687D01*
X173053793Y-126694030D01*
X173020122Y-126795045D01*
X172986450Y-126828717D01*
X172885435Y-126862389D01*
X172818091Y-126862389D01*
X172717076Y-126828717D01*
X172582389Y-126694030D01*
X172481374Y-126660358D01*
X172414030Y-126660358D01*
X172313015Y-126694030D01*
X172178328Y-126828717D01*
X172144656Y-126929732D01*
X172144656Y-126997076D01*
X172178328Y-127098091D01*
X172313015Y-127232778D01*
X172414030Y-127266450D01*
X172481374Y-127266450D01*
X172582389Y-127232778D01*
X172717076Y-127098091D01*
X172750748Y-126997076D01*
X172750748Y-126929732D01*
X172717076Y-126828717D01*
X162549011Y-144518690D02*
X162885729Y-144181973D01*
X162683698Y-144788064D02*
X162212294Y-143845255D01*
X163155103Y-144316660D01*
X163794866Y-143676896D02*
X163222446Y-143575881D01*
X163390805Y-144080957D02*
X162683698Y-143373851D01*
X162953072Y-143104477D01*
X163054087Y-143070805D01*
X163121431Y-143070805D01*
X163222446Y-143104477D01*
X163323461Y-143205492D01*
X163357133Y-143306507D01*
X163357133Y-143373851D01*
X163323461Y-143474866D01*
X163054087Y-143744240D01*
X163727522Y-143003461D02*
X163963225Y-142767759D01*
X164434629Y-143037133D02*
X164097912Y-143373851D01*
X163390805Y-142666744D01*
X163727522Y-142330026D01*
X164602988Y-142127996D02*
X164367286Y-142363698D01*
X164737675Y-142734087D02*
X164030568Y-142026981D01*
X164367286Y-141690263D01*
X162683698Y-122114721D02*
X162818385Y-122047377D01*
X162986744Y-121879018D01*
X163020416Y-121778003D01*
X163020416Y-121710660D01*
X162986744Y-121609644D01*
X162919400Y-121542301D01*
X162818385Y-121508629D01*
X162751042Y-121508629D01*
X162650026Y-121542301D01*
X162481668Y-121643316D01*
X162380652Y-121676988D01*
X162313309Y-121676988D01*
X162212294Y-121643316D01*
X162144950Y-121575973D01*
X162111278Y-121474957D01*
X162111278Y-121407614D01*
X162144950Y-121306599D01*
X162313309Y-121138240D01*
X162447996Y-121070896D01*
X163761194Y-120969881D02*
X163761194Y-121037225D01*
X163693851Y-121171912D01*
X163626507Y-121239255D01*
X163491820Y-121306599D01*
X163357133Y-121306599D01*
X163256118Y-121272927D01*
X163087759Y-121171912D01*
X162986744Y-121070896D01*
X162885729Y-120902538D01*
X162852057Y-120801522D01*
X162852057Y-120666835D01*
X162919400Y-120532148D01*
X162986744Y-120464805D01*
X163121431Y-120397461D01*
X163188774Y-120397461D01*
X164468301Y-120397461D02*
X164131583Y-120734179D01*
X163424477Y-120027072D01*
X165074392Y-119791370D02*
X164670331Y-120195431D01*
X164872362Y-119993400D02*
X164165255Y-119286294D01*
X164198927Y-119454652D01*
X164198927Y-119589339D01*
X164165255Y-119690355D01*
X162783251Y-117256511D02*
X162076145Y-116549404D01*
X162244503Y-116381045D01*
X162379190Y-116313702D01*
X162513877Y-116313702D01*
X162614893Y-116347374D01*
X162783251Y-116448389D01*
X162884267Y-116549404D01*
X162985282Y-116717763D01*
X163018954Y-116818778D01*
X163018954Y-116953465D01*
X162951610Y-117088152D01*
X162783251Y-117256511D01*
X163860748Y-116179015D02*
X163456687Y-116583076D01*
X163658717Y-116381045D02*
X162951610Y-115673938D01*
X162985282Y-115842297D01*
X162985282Y-115976984D01*
X162951610Y-116078000D01*
X163389343Y-115236206D02*
X163827076Y-114798473D01*
X163860748Y-115303549D01*
X163961763Y-115202534D01*
X164062778Y-115168862D01*
X164130122Y-115168862D01*
X164231137Y-115202534D01*
X164399496Y-115370893D01*
X164433167Y-115471908D01*
X164433167Y-115539251D01*
X164399496Y-115640267D01*
X164197465Y-115842297D01*
X164096450Y-115875969D01*
X164029106Y-115875969D01*
D11*
X116810761Y-140044809D02*
X114810761Y-140044809D01*
X116239333Y-139378142D01*
X114810761Y-138711476D01*
X116810761Y-138711476D01*
X116810761Y-137759095D02*
X114810761Y-137759095D01*
X116810761Y-136806714D02*
X114810761Y-136806714D01*
X114810761Y-136330523D01*
X114906000Y-136044809D01*
X115096476Y-135854333D01*
X115286952Y-135759095D01*
X115667904Y-135663857D01*
X115953619Y-135663857D01*
X116334571Y-135759095D01*
X116525047Y-135854333D01*
X116715523Y-136044809D01*
X116810761Y-136330523D01*
X116810761Y-136806714D01*
X116810761Y-134806714D02*
X114810761Y-134806714D01*
X115763142Y-131663857D02*
X115858380Y-131378142D01*
X115953619Y-131282904D01*
X116144095Y-131187666D01*
X116429809Y-131187666D01*
X116620285Y-131282904D01*
X116715523Y-131378142D01*
X116810761Y-131568619D01*
X116810761Y-132330523D01*
X114810761Y-132330523D01*
X114810761Y-131663857D01*
X114906000Y-131473380D01*
X115001238Y-131378142D01*
X115191714Y-131282904D01*
X115382190Y-131282904D01*
X115572666Y-131378142D01*
X115667904Y-131473380D01*
X115763142Y-131663857D01*
X115763142Y-132330523D01*
X116810761Y-129187666D02*
X115858380Y-129854333D01*
X116810761Y-130330523D02*
X114810761Y-130330523D01*
X114810761Y-129568619D01*
X114906000Y-129378142D01*
X115001238Y-129282904D01*
X115191714Y-129187666D01*
X115477428Y-129187666D01*
X115667904Y-129282904D01*
X115763142Y-129378142D01*
X115858380Y-129568619D01*
X115858380Y-130330523D01*
X115763142Y-128330523D02*
X115763142Y-127663857D01*
X116810761Y-127378142D02*
X116810761Y-128330523D01*
X114810761Y-128330523D01*
X114810761Y-127378142D01*
X116239333Y-126616238D02*
X116239333Y-125663857D01*
X116810761Y-126806714D02*
X114810761Y-126140047D01*
X116810761Y-125473380D01*
X116810761Y-124806714D02*
X114810761Y-124806714D01*
X116810761Y-123663857D02*
X115667904Y-124521000D01*
X114810761Y-123663857D02*
X115953619Y-124806714D01*
X114810761Y-122425761D02*
X114810761Y-122044809D01*
X114906000Y-121854333D01*
X115096476Y-121663857D01*
X115477428Y-121568619D01*
X116144095Y-121568619D01*
X116525047Y-121663857D01*
X116715523Y-121854333D01*
X116810761Y-122044809D01*
X116810761Y-122425761D01*
X116715523Y-122616238D01*
X116525047Y-122806714D01*
X116144095Y-122901952D01*
X115477428Y-122901952D01*
X115096476Y-122806714D01*
X114906000Y-122616238D01*
X114810761Y-122425761D01*
X114810761Y-120711476D02*
X116429809Y-120711476D01*
X116620285Y-120616238D01*
X116715523Y-120521000D01*
X116810761Y-120330523D01*
X116810761Y-119949571D01*
X116715523Y-119759095D01*
X116620285Y-119663857D01*
X116429809Y-119568619D01*
X114810761Y-119568619D01*
X114810761Y-118901952D02*
X114810761Y-117759095D01*
X116810761Y-118330523D02*
X114810761Y-118330523D01*
X118983142Y-140044809D02*
X118983142Y-139378142D01*
X120030761Y-139092428D02*
X120030761Y-140044809D01*
X118030761Y-140044809D01*
X118030761Y-139092428D01*
X118697428Y-138425761D02*
X118697428Y-137378142D01*
X120030761Y-138425761D01*
X120030761Y-137378142D01*
X119935523Y-135854333D02*
X120030761Y-136044809D01*
X120030761Y-136425761D01*
X119935523Y-136616238D01*
X119745047Y-136711476D01*
X118983142Y-136711476D01*
X118792666Y-136616238D01*
X118697428Y-136425761D01*
X118697428Y-136044809D01*
X118792666Y-135854333D01*
X118983142Y-135759095D01*
X119173619Y-135759095D01*
X119364095Y-136711476D01*
X120030761Y-134901952D02*
X118697428Y-134901952D01*
X119078380Y-134901952D02*
X118887904Y-134806714D01*
X118792666Y-134711476D01*
X118697428Y-134521000D01*
X118697428Y-134330523D01*
X120030761Y-131187666D02*
X120030761Y-132140047D01*
X118030761Y-132140047D01*
X120030761Y-130235285D02*
X119935523Y-130425761D01*
X119840285Y-130521000D01*
X119649809Y-130616238D01*
X119078380Y-130616238D01*
X118887904Y-130521000D01*
X118792666Y-130425761D01*
X118697428Y-130235285D01*
X118697428Y-129949571D01*
X118792666Y-129759095D01*
X118887904Y-129663857D01*
X119078380Y-129568619D01*
X119649809Y-129568619D01*
X119840285Y-129663857D01*
X119935523Y-129759095D01*
X120030761Y-129949571D01*
X120030761Y-130235285D01*
X118697428Y-128711476D02*
X120030761Y-128711476D01*
X118887904Y-128711476D02*
X118792666Y-128616238D01*
X118697428Y-128425761D01*
X118697428Y-128140047D01*
X118792666Y-127949571D01*
X118983142Y-127854333D01*
X120030761Y-127854333D01*
X118697428Y-126044809D02*
X120316476Y-126044809D01*
X120506952Y-126140047D01*
X120602190Y-126235285D01*
X120697428Y-126425761D01*
X120697428Y-126711476D01*
X120602190Y-126901952D01*
X119935523Y-126044809D02*
X120030761Y-126235285D01*
X120030761Y-126616238D01*
X119935523Y-126806714D01*
X119840285Y-126901952D01*
X119649809Y-126997190D01*
X119078380Y-126997190D01*
X118887904Y-126901952D01*
X118792666Y-126806714D01*
X118697428Y-126616238D01*
X118697428Y-126235285D01*
X118792666Y-126044809D01*
X120030761Y-125092428D02*
X118697428Y-125092428D01*
X118030761Y-125092428D02*
X118126000Y-125187666D01*
X118221238Y-125092428D01*
X118126000Y-124997190D01*
X118030761Y-125092428D01*
X118221238Y-125092428D01*
X118697428Y-124140047D02*
X120030761Y-124140047D01*
X118887904Y-124140047D02*
X118792666Y-124044809D01*
X118697428Y-123854333D01*
X118697428Y-123568619D01*
X118792666Y-123378142D01*
X118983142Y-123282904D01*
X120030761Y-123282904D01*
X118697428Y-121473380D02*
X120030761Y-121473380D01*
X118697428Y-122330523D02*
X119745047Y-122330523D01*
X119935523Y-122235285D01*
X120030761Y-122044809D01*
X120030761Y-121759095D01*
X119935523Y-121568619D01*
X119840285Y-121473380D01*
X119935523Y-120616238D02*
X120030761Y-120425761D01*
X120030761Y-120044809D01*
X119935523Y-119854333D01*
X119745047Y-119759095D01*
X119649809Y-119759095D01*
X119459333Y-119854333D01*
X119364095Y-120044809D01*
X119364095Y-120330523D01*
X119268857Y-120521000D01*
X119078380Y-120616238D01*
X118983142Y-120616238D01*
X118792666Y-120521000D01*
X118697428Y-120330523D01*
X118697428Y-120044809D01*
X118792666Y-119854333D01*
X121250761Y-139473380D02*
X122679333Y-139473380D01*
X122965047Y-139568619D01*
X123155523Y-139759095D01*
X123250761Y-140044809D01*
X123250761Y-140235285D01*
X121917428Y-137663857D02*
X123250761Y-137663857D01*
X121917428Y-138521000D02*
X122965047Y-138521000D01*
X123155523Y-138425761D01*
X123250761Y-138235285D01*
X123250761Y-137949571D01*
X123155523Y-137759095D01*
X123060285Y-137663857D01*
X123250761Y-136425761D02*
X123155523Y-136616238D01*
X122965047Y-136711476D01*
X121250761Y-136711476D01*
X121917428Y-135854333D02*
X123250761Y-135378142D01*
X121917428Y-134901952D02*
X123250761Y-135378142D01*
X123726952Y-135568619D01*
X123822190Y-135663857D01*
X123917428Y-135854333D01*
X121441238Y-132711476D02*
X121346000Y-132616238D01*
X121250761Y-132425761D01*
X121250761Y-131949571D01*
X121346000Y-131759095D01*
X121441238Y-131663857D01*
X121631714Y-131568619D01*
X121822190Y-131568619D01*
X122107904Y-131663857D01*
X123250761Y-132806714D01*
X123250761Y-131568619D01*
X121250761Y-130330523D02*
X121250761Y-130140047D01*
X121346000Y-129949571D01*
X121441238Y-129854333D01*
X121631714Y-129759095D01*
X122012666Y-129663857D01*
X122488857Y-129663857D01*
X122869809Y-129759095D01*
X123060285Y-129854333D01*
X123155523Y-129949571D01*
X123250761Y-130140047D01*
X123250761Y-130330523D01*
X123155523Y-130521000D01*
X123060285Y-130616238D01*
X122869809Y-130711476D01*
X122488857Y-130806714D01*
X122012666Y-130806714D01*
X121631714Y-130711476D01*
X121441238Y-130616238D01*
X121346000Y-130521000D01*
X121250761Y-130330523D01*
X121441238Y-128901952D02*
X121346000Y-128806714D01*
X121250761Y-128616238D01*
X121250761Y-128140047D01*
X121346000Y-127949571D01*
X121441238Y-127854333D01*
X121631714Y-127759095D01*
X121822190Y-127759095D01*
X122107904Y-127854333D01*
X123250761Y-128997190D01*
X123250761Y-127759095D01*
X121250761Y-127092428D02*
X121250761Y-125854333D01*
X122012666Y-126521000D01*
X122012666Y-126235285D01*
X122107904Y-126044809D01*
X122203142Y-125949571D01*
X122393619Y-125854333D01*
X122869809Y-125854333D01*
X123060285Y-125949571D01*
X123155523Y-126044809D01*
X123250761Y-126235285D01*
X123250761Y-126806714D01*
X123155523Y-126997190D01*
X123060285Y-127092428D01*
D10*
X162426774Y-139560927D02*
X162763492Y-139224209D01*
X162561461Y-139830301D02*
X162090057Y-138887492D01*
X163032866Y-139358896D01*
X162864507Y-138113042D02*
X162729820Y-138247729D01*
X162696148Y-138348744D01*
X162696148Y-138416087D01*
X162729820Y-138584446D01*
X162830835Y-138752805D01*
X163100209Y-139022179D01*
X163201225Y-139055851D01*
X163268568Y-139055851D01*
X163369583Y-139022179D01*
X163504270Y-138887492D01*
X163537942Y-138786477D01*
X163537942Y-138719133D01*
X163504270Y-138618118D01*
X163335912Y-138449759D01*
X163234896Y-138416087D01*
X163167553Y-138416087D01*
X163066538Y-138449759D01*
X162931851Y-138584446D01*
X162898179Y-138685461D01*
X162898179Y-138752805D01*
X162931851Y-138853820D01*
X171370206Y-144069969D02*
X172077312Y-143362862D01*
X172245671Y-143531221D01*
X172313015Y-143665908D01*
X172313015Y-143800595D01*
X172279343Y-143901610D01*
X172178328Y-144069969D01*
X172077312Y-144170984D01*
X171908954Y-144272000D01*
X171807938Y-144305671D01*
X171673251Y-144305671D01*
X171538564Y-144238328D01*
X171370206Y-144069969D01*
X172447702Y-145147465D02*
X172043641Y-144743404D01*
X172245671Y-144945435D02*
X172952778Y-144238328D01*
X172784419Y-144272000D01*
X172649732Y-144272000D01*
X172548717Y-144238328D01*
X127150761Y-145740285D02*
X127198380Y-145597428D01*
X127198380Y-145359333D01*
X127150761Y-145264095D01*
X127103142Y-145216476D01*
X127007904Y-145168857D01*
X126912666Y-145168857D01*
X126817428Y-145216476D01*
X126769809Y-145264095D01*
X126722190Y-145359333D01*
X126674571Y-145549809D01*
X126626952Y-145645047D01*
X126579333Y-145692666D01*
X126484095Y-145740285D01*
X126388857Y-145740285D01*
X126293619Y-145692666D01*
X126246000Y-145645047D01*
X126198380Y-145549809D01*
X126198380Y-145311714D01*
X126246000Y-145168857D01*
X127198380Y-144740285D02*
X126198380Y-144740285D01*
X126198380Y-144502190D01*
X126246000Y-144359333D01*
X126341238Y-144264095D01*
X126436476Y-144216476D01*
X126626952Y-144168857D01*
X126769809Y-144168857D01*
X126960285Y-144216476D01*
X127055523Y-144264095D01*
X127150761Y-144359333D01*
X127198380Y-144502190D01*
X127198380Y-144740285D01*
X126912666Y-143787904D02*
X126912666Y-143311714D01*
X127198380Y-143883142D02*
X126198380Y-143549809D01*
X127198380Y-143216476D01*
X171370206Y-131242969D02*
X172077312Y-130535862D01*
X172245671Y-130704221D01*
X172313015Y-130838908D01*
X172313015Y-130973595D01*
X172279343Y-131074610D01*
X172178328Y-131242969D01*
X172077312Y-131343984D01*
X171908954Y-131445000D01*
X171807938Y-131478671D01*
X171673251Y-131478671D01*
X171538564Y-131411328D01*
X171370206Y-131242969D01*
X173087465Y-131546015D02*
X172952778Y-131411328D01*
X172851763Y-131377656D01*
X172784419Y-131377656D01*
X172616061Y-131411328D01*
X172447702Y-131512343D01*
X172178328Y-131781717D01*
X172144656Y-131882732D01*
X172144656Y-131950076D01*
X172178328Y-132051091D01*
X172313015Y-132185778D01*
X172414030Y-132219450D01*
X172481374Y-132219450D01*
X172582389Y-132185778D01*
X172750748Y-132017419D01*
X172784419Y-131916404D01*
X172784419Y-131849061D01*
X172750748Y-131748045D01*
X172616061Y-131613358D01*
X172515045Y-131579687D01*
X172447702Y-131579687D01*
X172346687Y-131613358D01*
X171585253Y-147805456D02*
X172292360Y-148512563D01*
X171250893Y-149284656D02*
X171351908Y-148712236D01*
X170846832Y-148880595D02*
X171553938Y-148173488D01*
X171823312Y-148442862D01*
X171856984Y-148543877D01*
X171856984Y-148611221D01*
X171823312Y-148712236D01*
X171722297Y-148813251D01*
X171621282Y-148846923D01*
X171553938Y-148846923D01*
X171452923Y-148813251D01*
X171183549Y-148543877D01*
X172292360Y-148512563D02*
X172965795Y-149185998D01*
X171553938Y-149520358D02*
X171621282Y-149655045D01*
X171789641Y-149823404D01*
X171890656Y-149857076D01*
X171957999Y-149857076D01*
X172059015Y-149823404D01*
X172126358Y-149756061D01*
X172160030Y-149655045D01*
X172160030Y-149587702D01*
X172126358Y-149486687D01*
X172025343Y-149318328D01*
X171991671Y-149217312D01*
X171991671Y-149149969D01*
X172025343Y-149048954D01*
X172092687Y-148981610D01*
X172193702Y-148947938D01*
X172261045Y-148947938D01*
X172362061Y-148981610D01*
X172530419Y-149149969D01*
X172597763Y-149284656D01*
X172965795Y-149185998D02*
X173504543Y-149724746D01*
X172833465Y-149453015D02*
X173237526Y-149857076D01*
X172328389Y-150362152D02*
X173035496Y-149655045D01*
X171160488Y-115539251D02*
X171867595Y-114832145D01*
X172035954Y-115000503D01*
X172103297Y-115135190D01*
X172103297Y-115269877D01*
X172069625Y-115370893D01*
X171968610Y-115539251D01*
X171867595Y-115640267D01*
X171699236Y-115741282D01*
X171598221Y-115774954D01*
X171463534Y-115774954D01*
X171328847Y-115707610D01*
X171160488Y-115539251D01*
X172237984Y-116616748D02*
X171833923Y-116212687D01*
X172035954Y-116414717D02*
X172743061Y-115707610D01*
X172574702Y-115741282D01*
X172440015Y-115741282D01*
X172339000Y-115707610D01*
X173147122Y-116246358D02*
X173214465Y-116246358D01*
X173315480Y-116280030D01*
X173483839Y-116448389D01*
X173517511Y-116549404D01*
X173517511Y-116616748D01*
X173483839Y-116717763D01*
X173416496Y-116785106D01*
X173281809Y-116852450D01*
X172473687Y-116852450D01*
X172911419Y-117290183D01*
X171370206Y-123622969D02*
X172077312Y-122915862D01*
X172245671Y-123084221D01*
X172313015Y-123218908D01*
X172313015Y-123353595D01*
X172279343Y-123454610D01*
X172178328Y-123622969D01*
X172077312Y-123723984D01*
X171908954Y-123825000D01*
X171807938Y-123858671D01*
X171673251Y-123858671D01*
X171538564Y-123791328D01*
X171370206Y-123622969D01*
X172110984Y-124363748D02*
X172245671Y-124498435D01*
X172346687Y-124532106D01*
X172414030Y-124532106D01*
X172582389Y-124498435D01*
X172750748Y-124397419D01*
X173020122Y-124128045D01*
X173053793Y-124027030D01*
X173053793Y-123959687D01*
X173020122Y-123858671D01*
X172885435Y-123723984D01*
X172784419Y-123690312D01*
X172717076Y-123690312D01*
X172616061Y-123723984D01*
X172447702Y-123892343D01*
X172414030Y-123993358D01*
X172414030Y-124060702D01*
X172447702Y-124161717D01*
X172582389Y-124296404D01*
X172683404Y-124330076D01*
X172750748Y-124330076D01*
X172851763Y-124296404D01*
X129690761Y-145716476D02*
X129738380Y-145573619D01*
X129738380Y-145335523D01*
X129690761Y-145240285D01*
X129643142Y-145192666D01*
X129547904Y-145145047D01*
X129452666Y-145145047D01*
X129357428Y-145192666D01*
X129309809Y-145240285D01*
X129262190Y-145335523D01*
X129214571Y-145526000D01*
X129166952Y-145621238D01*
X129119333Y-145668857D01*
X129024095Y-145716476D01*
X128928857Y-145716476D01*
X128833619Y-145668857D01*
X128786000Y-145621238D01*
X128738380Y-145526000D01*
X128738380Y-145287904D01*
X128786000Y-145145047D01*
X129643142Y-144145047D02*
X129690761Y-144192666D01*
X129738380Y-144335523D01*
X129738380Y-144430761D01*
X129690761Y-144573619D01*
X129595523Y-144668857D01*
X129500285Y-144716476D01*
X129309809Y-144764095D01*
X129166952Y-144764095D01*
X128976476Y-144716476D01*
X128881238Y-144668857D01*
X128786000Y-144573619D01*
X128738380Y-144430761D01*
X128738380Y-144335523D01*
X128786000Y-144192666D01*
X128833619Y-144145047D01*
X129738380Y-143240285D02*
X129738380Y-143716476D01*
X128738380Y-143716476D01*
X162426774Y-126733927D02*
X162763492Y-126397209D01*
X162561461Y-127003301D02*
X162090057Y-126060492D01*
X163032866Y-126531896D01*
X163638957Y-125925805D02*
X163234896Y-126329866D01*
X163436927Y-126127835D02*
X162729820Y-125420729D01*
X162763492Y-125589087D01*
X162763492Y-125723774D01*
X162729820Y-125824790D01*
X170906488Y-117952251D02*
X171613595Y-117245145D01*
X171781954Y-117413503D01*
X171849297Y-117548190D01*
X171849297Y-117682877D01*
X171815625Y-117783893D01*
X171714610Y-117952251D01*
X171613595Y-118053267D01*
X171445236Y-118154282D01*
X171344221Y-118187954D01*
X171209534Y-118187954D01*
X171074847Y-118120610D01*
X170906488Y-117952251D01*
X171983984Y-119029748D02*
X171579923Y-118625687D01*
X171781954Y-118827717D02*
X172489061Y-118120610D01*
X172320702Y-118154282D01*
X172186015Y-118154282D01*
X172085000Y-118120610D01*
X172657419Y-119703183D02*
X172253358Y-119299122D01*
X172455389Y-119501152D02*
X173162496Y-118794045D01*
X172994137Y-118827717D01*
X172859450Y-118827717D01*
X172758435Y-118794045D01*
X171370206Y-136449969D02*
X172077312Y-135742862D01*
X172245671Y-135911221D01*
X172313015Y-136045908D01*
X172313015Y-136180595D01*
X172279343Y-136281610D01*
X172178328Y-136449969D01*
X172077312Y-136550984D01*
X171908954Y-136652000D01*
X171807938Y-136685671D01*
X171673251Y-136685671D01*
X171538564Y-136618328D01*
X171370206Y-136449969D01*
X172851763Y-136988717D02*
X172380358Y-137460122D01*
X172952778Y-136550984D02*
X172279343Y-136887702D01*
X172717076Y-137325435D01*
X162209370Y-147390644D02*
X162748118Y-146851896D01*
X162748118Y-147390644D02*
X162209370Y-146851896D01*
X162983820Y-145740729D02*
X162647103Y-146077446D01*
X162950148Y-146447835D01*
X162950148Y-146380492D01*
X162983820Y-146279477D01*
X163152179Y-146111118D01*
X163253194Y-146077446D01*
X163320538Y-146077446D01*
X163421553Y-146111118D01*
X163589912Y-146279477D01*
X163623583Y-146380492D01*
X163623583Y-146447835D01*
X163589912Y-146548851D01*
X163421553Y-146717209D01*
X163320538Y-146750881D01*
X163253194Y-146750881D01*
X163219522Y-145505026D02*
X164162331Y-145976431D01*
X163690927Y-145033622D01*
X128278000Y-140715904D02*
X128230380Y-140811142D01*
X128230380Y-140954000D01*
X128278000Y-141096857D01*
X128373238Y-141192095D01*
X128468476Y-141239714D01*
X128658952Y-141287333D01*
X128801809Y-141287333D01*
X128992285Y-141239714D01*
X129087523Y-141192095D01*
X129182761Y-141096857D01*
X129230380Y-140954000D01*
X129230380Y-140858761D01*
X129182761Y-140715904D01*
X129135142Y-140668285D01*
X128801809Y-140668285D01*
X128801809Y-140858761D01*
X129230380Y-140239714D02*
X128230380Y-140239714D01*
X129230380Y-139668285D01*
X128230380Y-139668285D01*
X129230380Y-139192095D02*
X128230380Y-139192095D01*
X128230380Y-138954000D01*
X128278000Y-138811142D01*
X128373238Y-138715904D01*
X128468476Y-138668285D01*
X128658952Y-138620666D01*
X128801809Y-138620666D01*
X128992285Y-138668285D01*
X129087523Y-138715904D01*
X129182761Y-138811142D01*
X129230380Y-138954000D01*
X129230380Y-139192095D01*
X162426774Y-141973927D02*
X162763492Y-141637209D01*
X162561461Y-142243301D02*
X162090057Y-141300492D01*
X163032866Y-141771896D01*
X162494118Y-140896431D02*
X162965522Y-140425026D01*
X163369583Y-141435179D01*
X171370206Y-133909969D02*
X172077312Y-133202862D01*
X172245671Y-133371221D01*
X172313015Y-133505908D01*
X172313015Y-133640595D01*
X172279343Y-133741610D01*
X172178328Y-133909969D01*
X172077312Y-134010984D01*
X171908954Y-134112000D01*
X171807938Y-134145671D01*
X171673251Y-134145671D01*
X171538564Y-134078328D01*
X171370206Y-133909969D01*
X173121137Y-134246687D02*
X172784419Y-133909969D01*
X172414030Y-134213015D01*
X172481374Y-134213015D01*
X172582389Y-134246687D01*
X172750748Y-134415045D01*
X172784419Y-134516061D01*
X172784419Y-134583404D01*
X172750748Y-134684419D01*
X172582389Y-134852778D01*
X172481374Y-134886450D01*
X172414030Y-134886450D01*
X172313015Y-134852778D01*
X172144656Y-134684419D01*
X172110984Y-134583404D01*
X172110984Y-134516061D01*
X162426774Y-124193927D02*
X162763492Y-123857209D01*
X162561461Y-124463301D02*
X162090057Y-123520492D01*
X163032866Y-123991896D01*
X162696148Y-122914400D02*
X162763492Y-122847057D01*
X162864507Y-122813385D01*
X162931851Y-122813385D01*
X163032866Y-122847057D01*
X163201225Y-122948072D01*
X163369583Y-123116431D01*
X163470599Y-123284790D01*
X163504270Y-123385805D01*
X163504270Y-123453148D01*
X163470599Y-123554164D01*
X163403255Y-123621507D01*
X163302240Y-123655179D01*
X163234896Y-123655179D01*
X163133881Y-123621507D01*
X162965522Y-123520492D01*
X162797164Y-123352133D01*
X162696148Y-123183774D01*
X162662477Y-123082759D01*
X162662477Y-123015416D01*
X162696148Y-122914400D01*
X162666862Y-119337557D02*
X162801549Y-119270213D01*
X162969908Y-119101854D01*
X163003580Y-119000839D01*
X163003580Y-118933496D01*
X162969908Y-118832480D01*
X162902564Y-118765137D01*
X162801549Y-118731465D01*
X162734206Y-118731465D01*
X162633190Y-118765137D01*
X162464832Y-118866152D01*
X162363816Y-118899824D01*
X162296473Y-118899824D01*
X162195458Y-118866152D01*
X162128114Y-118798809D01*
X162094442Y-118697793D01*
X162094442Y-118630450D01*
X162128114Y-118529435D01*
X162296473Y-118361076D01*
X162431160Y-118293732D01*
X163407641Y-118664122D02*
X162700534Y-117957015D01*
X162868893Y-117788656D01*
X163003580Y-117721312D01*
X163138267Y-117721312D01*
X163239282Y-117754984D01*
X163407641Y-117856000D01*
X163508656Y-117957015D01*
X163609671Y-118125374D01*
X163643343Y-118226389D01*
X163643343Y-118361076D01*
X163576000Y-118495763D01*
X163407641Y-118664122D01*
X163879045Y-117788656D02*
X164215763Y-117451938D01*
X164013732Y-118058030D02*
X163542328Y-117115221D01*
X164485137Y-117586625D01*
X165091228Y-116980534D02*
X164687167Y-117384595D01*
X164889198Y-117182564D02*
X164182091Y-116475458D01*
X164215763Y-116643816D01*
X164215763Y-116778503D01*
X164182091Y-116879519D01*
X162429698Y-149156194D02*
X162328683Y-149189866D01*
X162227668Y-149290881D01*
X162160324Y-149425568D01*
X162160324Y-149560255D01*
X162193996Y-149661270D01*
X162295011Y-149829629D01*
X162396026Y-149930644D01*
X162564385Y-150031660D01*
X162665400Y-150065331D01*
X162800087Y-150065331D01*
X162934774Y-149997988D01*
X163002118Y-149930644D01*
X163069461Y-149795957D01*
X163069461Y-149728614D01*
X162833759Y-149492912D01*
X162699072Y-149627599D01*
X163439851Y-149492912D02*
X162732744Y-148785805D01*
X163843912Y-149088851D01*
X163136805Y-148381744D01*
X164180629Y-148752133D02*
X163473522Y-148045026D01*
X163641881Y-147876668D01*
X163776568Y-147809324D01*
X163911255Y-147809324D01*
X164012270Y-147842996D01*
X164180629Y-147944011D01*
X164281644Y-148045026D01*
X164382660Y-148213385D01*
X164416331Y-148314400D01*
X164416331Y-148449087D01*
X164348988Y-148583774D01*
X164180629Y-148752133D01*
X120912000Y-145287904D02*
X120864380Y-145383142D01*
X120864380Y-145526000D01*
X120912000Y-145668857D01*
X121007238Y-145764095D01*
X121102476Y-145811714D01*
X121292952Y-145859333D01*
X121435809Y-145859333D01*
X121626285Y-145811714D01*
X121721523Y-145764095D01*
X121816761Y-145668857D01*
X121864380Y-145526000D01*
X121864380Y-145430761D01*
X121816761Y-145287904D01*
X121769142Y-145240285D01*
X121435809Y-145240285D01*
X121435809Y-145430761D01*
X121864380Y-144811714D02*
X120864380Y-144811714D01*
X121864380Y-144240285D01*
X120864380Y-144240285D01*
X121864380Y-143764095D02*
X120864380Y-143764095D01*
X120864380Y-143526000D01*
X120912000Y-143383142D01*
X121007238Y-143287904D01*
X121102476Y-143240285D01*
X121292952Y-143192666D01*
X121435809Y-143192666D01*
X121626285Y-143240285D01*
X121721523Y-143287904D01*
X121816761Y-143383142D01*
X121864380Y-143526000D01*
X121864380Y-143764095D01*
X162160324Y-152025225D02*
X163103133Y-152496629D01*
X162631729Y-151553820D01*
X163574538Y-152025225D02*
X162867431Y-151318118D01*
X163911255Y-151688507D02*
X163204148Y-150981400D01*
X164315316Y-151284446D01*
X163608209Y-150577339D01*
X134516761Y-141168285D02*
X134564380Y-141025428D01*
X134564380Y-140787333D01*
X134516761Y-140692095D01*
X134469142Y-140644476D01*
X134373904Y-140596857D01*
X134278666Y-140596857D01*
X134183428Y-140644476D01*
X134135809Y-140692095D01*
X134088190Y-140787333D01*
X134040571Y-140977809D01*
X133992952Y-141073047D01*
X133945333Y-141120666D01*
X133850095Y-141168285D01*
X133754857Y-141168285D01*
X133659619Y-141120666D01*
X133612000Y-141073047D01*
X133564380Y-140977809D01*
X133564380Y-140739714D01*
X133612000Y-140596857D01*
X134564380Y-140168285D02*
X133564380Y-140168285D01*
X133564380Y-139930190D01*
X133612000Y-139787333D01*
X133707238Y-139692095D01*
X133802476Y-139644476D01*
X133992952Y-139596857D01*
X134135809Y-139596857D01*
X134326285Y-139644476D01*
X134421523Y-139692095D01*
X134516761Y-139787333D01*
X134564380Y-139930190D01*
X134564380Y-140168285D01*
X134278666Y-139215904D02*
X134278666Y-138739714D01*
X134564380Y-139311142D02*
X133564380Y-138977809D01*
X134564380Y-138644476D01*
X137056761Y-140890476D02*
X137104380Y-140747619D01*
X137104380Y-140509523D01*
X137056761Y-140414285D01*
X137009142Y-140366666D01*
X136913904Y-140319047D01*
X136818666Y-140319047D01*
X136723428Y-140366666D01*
X136675809Y-140414285D01*
X136628190Y-140509523D01*
X136580571Y-140700000D01*
X136532952Y-140795238D01*
X136485333Y-140842857D01*
X136390095Y-140890476D01*
X136294857Y-140890476D01*
X136199619Y-140842857D01*
X136152000Y-140795238D01*
X136104380Y-140700000D01*
X136104380Y-140461904D01*
X136152000Y-140319047D01*
X137009142Y-139319047D02*
X137056761Y-139366666D01*
X137104380Y-139509523D01*
X137104380Y-139604761D01*
X137056761Y-139747619D01*
X136961523Y-139842857D01*
X136866285Y-139890476D01*
X136675809Y-139938095D01*
X136532952Y-139938095D01*
X136342476Y-139890476D01*
X136247238Y-139842857D01*
X136152000Y-139747619D01*
X136104380Y-139604761D01*
X136104380Y-139509523D01*
X136152000Y-139366666D01*
X136199619Y-139319047D01*
X137104380Y-138414285D02*
X137104380Y-138890476D01*
X136104380Y-138890476D01*
X162426774Y-129273927D02*
X162763492Y-128937209D01*
X162561461Y-129543301D02*
X162090057Y-128600492D01*
X163032866Y-129071896D01*
X162595133Y-128230103D02*
X162595133Y-128162759D01*
X162628805Y-128061744D01*
X162797164Y-127893385D01*
X162898179Y-127859713D01*
X162965522Y-127859713D01*
X163066538Y-127893385D01*
X163133881Y-127960729D01*
X163201225Y-128095416D01*
X163201225Y-128903538D01*
X163638957Y-128465805D01*
X171370206Y-141402969D02*
X172077312Y-140695862D01*
X172245671Y-140864221D01*
X172313015Y-140998908D01*
X172313015Y-141133595D01*
X172279343Y-141234610D01*
X172178328Y-141402969D01*
X172077312Y-141503984D01*
X171908954Y-141605000D01*
X171807938Y-141638671D01*
X171673251Y-141638671D01*
X171538564Y-141571328D01*
X171370206Y-141402969D01*
X172683404Y-141436641D02*
X172750748Y-141436641D01*
X172851763Y-141470312D01*
X173020122Y-141638671D01*
X173053793Y-141739687D01*
X173053793Y-141807030D01*
X173020122Y-141908045D01*
X172952778Y-141975389D01*
X172818091Y-142042732D01*
X172009969Y-142042732D01*
X172447702Y-142480465D01*
%TO.C,U2*%
X122936095Y-88054380D02*
X122936095Y-88863904D01*
X122983714Y-88959142D01*
X123031333Y-89006761D01*
X123126571Y-89054380D01*
X123317047Y-89054380D01*
X123412285Y-89006761D01*
X123459904Y-88959142D01*
X123507523Y-88863904D01*
X123507523Y-88054380D01*
X123936095Y-88149619D02*
X123983714Y-88102000D01*
X124078952Y-88054380D01*
X124317047Y-88054380D01*
X124412285Y-88102000D01*
X124459904Y-88149619D01*
X124507523Y-88244857D01*
X124507523Y-88340095D01*
X124459904Y-88482952D01*
X123888476Y-89054380D01*
X124507523Y-89054380D01*
X121936095Y-100334380D02*
X121745619Y-100334380D01*
X121650380Y-100382000D01*
X121602761Y-100429619D01*
X121507523Y-100572476D01*
X121459904Y-100762952D01*
X121459904Y-101143904D01*
X121507523Y-101239142D01*
X121555142Y-101286761D01*
X121650380Y-101334380D01*
X121840857Y-101334380D01*
X121936095Y-101286761D01*
X121983714Y-101239142D01*
X122031333Y-101143904D01*
X122031333Y-100905809D01*
X121983714Y-100810571D01*
X121936095Y-100762952D01*
X121840857Y-100715333D01*
X121650380Y-100715333D01*
X121555142Y-100762952D01*
X121507523Y-100810571D01*
X121459904Y-100905809D01*
X122459904Y-101334380D02*
X122459904Y-100334380D01*
X123031333Y-101334380D01*
X123031333Y-100334380D01*
X124031333Y-101334380D02*
X123459904Y-101334380D01*
X123745619Y-101334380D02*
X123745619Y-100334380D01*
X123650380Y-100477238D01*
X123555142Y-100572476D01*
X123459904Y-100620095D01*
X124364666Y-100334380D02*
X124983714Y-100334380D01*
X124650380Y-100715333D01*
X124793238Y-100715333D01*
X124888476Y-100762952D01*
X124936095Y-100810571D01*
X124983714Y-100905809D01*
X124983714Y-101143904D01*
X124936095Y-101239142D01*
X124888476Y-101286761D01*
X124793238Y-101334380D01*
X124507523Y-101334380D01*
X124412285Y-101286761D01*
X124364666Y-101239142D01*
X125459904Y-101334380D02*
X125650380Y-101334380D01*
X125745619Y-101286761D01*
X125793238Y-101239142D01*
X125888476Y-101096285D01*
X125936095Y-100905809D01*
X125936095Y-100524857D01*
X125888476Y-100429619D01*
X125840857Y-100382000D01*
X125745619Y-100334380D01*
X125555142Y-100334380D01*
X125459904Y-100382000D01*
X125412285Y-100429619D01*
X125364666Y-100524857D01*
X125364666Y-100762952D01*
X125412285Y-100858190D01*
X125459904Y-100905809D01*
X125555142Y-100953428D01*
X125745619Y-100953428D01*
X125840857Y-100905809D01*
X125888476Y-100858190D01*
X125936095Y-100762952D01*
%TO.C,D1*%
X116609904Y-103576380D02*
X116609904Y-102576380D01*
X116848000Y-102576380D01*
X116990857Y-102624000D01*
X117086095Y-102719238D01*
X117133714Y-102814476D01*
X117181333Y-103004952D01*
X117181333Y-103147809D01*
X117133714Y-103338285D01*
X117086095Y-103433523D01*
X116990857Y-103528761D01*
X116848000Y-103576380D01*
X116609904Y-103576380D01*
X118133714Y-103576380D02*
X117562285Y-103576380D01*
X117848000Y-103576380D02*
X117848000Y-102576380D01*
X117752761Y-102719238D01*
X117657523Y-102814476D01*
X117562285Y-102862095D01*
X129429142Y-103576380D02*
X128857714Y-103576380D01*
X129143428Y-103576380D02*
X129143428Y-102576380D01*
X129048190Y-102719238D01*
X128952952Y-102814476D01*
X128857714Y-102862095D01*
X129857714Y-103576380D02*
X129857714Y-102576380D01*
X130429142Y-103576380D01*
X130429142Y-102576380D01*
X131333904Y-102909714D02*
X131333904Y-103576380D01*
X131095809Y-102528761D02*
X130857714Y-103243047D01*
X131476761Y-103243047D01*
X132381523Y-103576380D02*
X131810095Y-103576380D01*
X132095809Y-103576380D02*
X132095809Y-102576380D01*
X132000571Y-102719238D01*
X131905333Y-102814476D01*
X131810095Y-102862095D01*
X133238666Y-102909714D02*
X133238666Y-103576380D01*
X133000571Y-102528761D02*
X132762476Y-103243047D01*
X133381523Y-103243047D01*
X133905333Y-103004952D02*
X133810095Y-102957333D01*
X133762476Y-102909714D01*
X133714857Y-102814476D01*
X133714857Y-102766857D01*
X133762476Y-102671619D01*
X133810095Y-102624000D01*
X133905333Y-102576380D01*
X134095809Y-102576380D01*
X134191047Y-102624000D01*
X134238666Y-102671619D01*
X134286285Y-102766857D01*
X134286285Y-102814476D01*
X134238666Y-102909714D01*
X134191047Y-102957333D01*
X134095809Y-103004952D01*
X133905333Y-103004952D01*
X133810095Y-103052571D01*
X133762476Y-103100190D01*
X133714857Y-103195428D01*
X133714857Y-103385904D01*
X133762476Y-103481142D01*
X133810095Y-103528761D01*
X133905333Y-103576380D01*
X134095809Y-103576380D01*
X134191047Y-103528761D01*
X134238666Y-103481142D01*
X134286285Y-103385904D01*
X134286285Y-103195428D01*
X134238666Y-103100190D01*
X134191047Y-103052571D01*
X134095809Y-103004952D01*
%TO.C,J4*%
X126817380Y-137374190D02*
X125817380Y-137374190D01*
X125912619Y-136945619D02*
X125865000Y-136898000D01*
X125817380Y-136802761D01*
X125817380Y-136564666D01*
X125865000Y-136469428D01*
X125912619Y-136421809D01*
X126007857Y-136374190D01*
X126103095Y-136374190D01*
X126245952Y-136421809D01*
X126817380Y-136993238D01*
X126817380Y-136374190D01*
X126722142Y-135374190D02*
X126769761Y-135421809D01*
X126817380Y-135564666D01*
X126817380Y-135659904D01*
X126769761Y-135802761D01*
X126674523Y-135898000D01*
X126579285Y-135945619D01*
X126388809Y-135993238D01*
X126245952Y-135993238D01*
X126055476Y-135945619D01*
X125960238Y-135898000D01*
X125865000Y-135802761D01*
X125817380Y-135659904D01*
X125817380Y-135564666D01*
X125865000Y-135421809D01*
X125912619Y-135374190D01*
%TO.C,R10*%
X179649380Y-97924857D02*
X179173190Y-98258190D01*
X179649380Y-98496285D02*
X178649380Y-98496285D01*
X178649380Y-98115333D01*
X178697000Y-98020095D01*
X178744619Y-97972476D01*
X178839857Y-97924857D01*
X178982714Y-97924857D01*
X179077952Y-97972476D01*
X179125571Y-98020095D01*
X179173190Y-98115333D01*
X179173190Y-98496285D01*
X179649380Y-96972476D02*
X179649380Y-97543904D01*
X179649380Y-97258190D02*
X178649380Y-97258190D01*
X178792238Y-97353428D01*
X178887476Y-97448666D01*
X178935095Y-97543904D01*
X178649380Y-96353428D02*
X178649380Y-96258190D01*
X178697000Y-96162952D01*
X178744619Y-96115333D01*
X178839857Y-96067714D01*
X179030333Y-96020095D01*
X179268428Y-96020095D01*
X179458904Y-96067714D01*
X179554142Y-96115333D01*
X179601761Y-96162952D01*
X179649380Y-96258190D01*
X179649380Y-96353428D01*
X179601761Y-96448666D01*
X179554142Y-96496285D01*
X179458904Y-96543904D01*
X179268428Y-96591523D01*
X179030333Y-96591523D01*
X178839857Y-96543904D01*
X178744619Y-96496285D01*
X178697000Y-96448666D01*
X178649380Y-96353428D01*
X176374619Y-98520095D02*
X176327000Y-98472476D01*
X176279380Y-98377238D01*
X176279380Y-98139142D01*
X176327000Y-98043904D01*
X176374619Y-97996285D01*
X176469857Y-97948666D01*
X176565095Y-97948666D01*
X176707952Y-97996285D01*
X177279380Y-98567714D01*
X177279380Y-97948666D01*
X176374619Y-97567714D02*
X176327000Y-97520095D01*
X176279380Y-97424857D01*
X176279380Y-97186761D01*
X176327000Y-97091523D01*
X176374619Y-97043904D01*
X176469857Y-96996285D01*
X176565095Y-96996285D01*
X176707952Y-97043904D01*
X177279380Y-97615333D01*
X177279380Y-96996285D01*
X176279380Y-96377238D02*
X176279380Y-96282000D01*
X176327000Y-96186761D01*
X176374619Y-96139142D01*
X176469857Y-96091523D01*
X176660333Y-96043904D01*
X176898428Y-96043904D01*
X177088904Y-96091523D01*
X177184142Y-96139142D01*
X177231761Y-96186761D01*
X177279380Y-96282000D01*
X177279380Y-96377238D01*
X177231761Y-96472476D01*
X177184142Y-96520095D01*
X177088904Y-96567714D01*
X176898428Y-96615333D01*
X176660333Y-96615333D01*
X176469857Y-96567714D01*
X176374619Y-96520095D01*
X176327000Y-96472476D01*
X176279380Y-96377238D01*
%TO.C,J8*%
X118585380Y-148249333D02*
X119299666Y-148249333D01*
X119442523Y-148296952D01*
X119537761Y-148392190D01*
X119585380Y-148535047D01*
X119585380Y-148630285D01*
X119013952Y-147630285D02*
X118966333Y-147725523D01*
X118918714Y-147773142D01*
X118823476Y-147820761D01*
X118775857Y-147820761D01*
X118680619Y-147773142D01*
X118633000Y-147725523D01*
X118585380Y-147630285D01*
X118585380Y-147439809D01*
X118633000Y-147344571D01*
X118680619Y-147296952D01*
X118775857Y-147249333D01*
X118823476Y-147249333D01*
X118918714Y-147296952D01*
X118966333Y-147344571D01*
X119013952Y-147439809D01*
X119013952Y-147630285D01*
X119061571Y-147725523D01*
X119109190Y-147773142D01*
X119204428Y-147820761D01*
X119394904Y-147820761D01*
X119490142Y-147773142D01*
X119537761Y-147725523D01*
X119585380Y-147630285D01*
X119585380Y-147439809D01*
X119537761Y-147344571D01*
X119490142Y-147296952D01*
X119394904Y-147249333D01*
X119204428Y-147249333D01*
X119109190Y-147296952D01*
X119061571Y-147344571D01*
X119013952Y-147439809D01*
%TO.C,D2*%
X161234380Y-79224095D02*
X160234380Y-79224095D01*
X160234380Y-78986000D01*
X160282000Y-78843142D01*
X160377238Y-78747904D01*
X160472476Y-78700285D01*
X160662952Y-78652666D01*
X160805809Y-78652666D01*
X160996285Y-78700285D01*
X161091523Y-78747904D01*
X161186761Y-78843142D01*
X161234380Y-78986000D01*
X161234380Y-79224095D01*
X160329619Y-78271714D02*
X160282000Y-78224095D01*
X160234380Y-78128857D01*
X160234380Y-77890761D01*
X160282000Y-77795523D01*
X160329619Y-77747904D01*
X160424857Y-77700285D01*
X160520095Y-77700285D01*
X160662952Y-77747904D01*
X161234380Y-78319333D01*
X161234380Y-77700285D01*
%TO.C,Q1*%
X142271761Y-101254619D02*
X142176523Y-101207000D01*
X142081285Y-101111761D01*
X141938428Y-100968904D01*
X141843190Y-100921285D01*
X141747952Y-100921285D01*
X141795571Y-101159380D02*
X141700333Y-101111761D01*
X141605095Y-101016523D01*
X141557476Y-100826047D01*
X141557476Y-100492714D01*
X141605095Y-100302238D01*
X141700333Y-100207000D01*
X141795571Y-100159380D01*
X141986047Y-100159380D01*
X142081285Y-100207000D01*
X142176523Y-100302238D01*
X142224142Y-100492714D01*
X142224142Y-100826047D01*
X142176523Y-101016523D01*
X142081285Y-101111761D01*
X141986047Y-101159380D01*
X141795571Y-101159380D01*
X143176523Y-101159380D02*
X142605095Y-101159380D01*
X142890809Y-101159380D02*
X142890809Y-100159380D01*
X142795571Y-100302238D01*
X142700333Y-100397476D01*
X142605095Y-100445095D01*
X139652714Y-106604619D02*
X139700333Y-106557000D01*
X139795571Y-106509380D01*
X140033666Y-106509380D01*
X140128904Y-106557000D01*
X140176523Y-106604619D01*
X140224142Y-106699857D01*
X140224142Y-106795095D01*
X140176523Y-106937952D01*
X139605095Y-107509380D01*
X140224142Y-107509380D01*
X140652714Y-107509380D02*
X140652714Y-106509380D01*
X141224142Y-107509380D01*
X141224142Y-106509380D01*
X141605095Y-106509380D02*
X142224142Y-106509380D01*
X141890809Y-106890333D01*
X142033666Y-106890333D01*
X142128904Y-106937952D01*
X142176523Y-106985571D01*
X142224142Y-107080809D01*
X142224142Y-107318904D01*
X142176523Y-107414142D01*
X142128904Y-107461761D01*
X142033666Y-107509380D01*
X141747952Y-107509380D01*
X141652714Y-107461761D01*
X141605095Y-107414142D01*
X142700333Y-107509380D02*
X142890809Y-107509380D01*
X142986047Y-107461761D01*
X143033666Y-107414142D01*
X143128904Y-107271285D01*
X143176523Y-107080809D01*
X143176523Y-106699857D01*
X143128904Y-106604619D01*
X143081285Y-106557000D01*
X142986047Y-106509380D01*
X142795571Y-106509380D01*
X142700333Y-106557000D01*
X142652714Y-106604619D01*
X142605095Y-106699857D01*
X142605095Y-106937952D01*
X142652714Y-107033190D01*
X142700333Y-107080809D01*
X142795571Y-107128428D01*
X142986047Y-107128428D01*
X143081285Y-107080809D01*
X143128904Y-107033190D01*
X143176523Y-106937952D01*
X143795571Y-106509380D02*
X143890809Y-106509380D01*
X143986047Y-106557000D01*
X144033666Y-106604619D01*
X144081285Y-106699857D01*
X144128904Y-106890333D01*
X144128904Y-107128428D01*
X144081285Y-107318904D01*
X144033666Y-107414142D01*
X143986047Y-107461761D01*
X143890809Y-107509380D01*
X143795571Y-107509380D01*
X143700333Y-107461761D01*
X143652714Y-107414142D01*
X143605095Y-107318904D01*
X143557476Y-107128428D01*
X143557476Y-106890333D01*
X143605095Y-106699857D01*
X143652714Y-106604619D01*
X143700333Y-106557000D01*
X143795571Y-106509380D01*
X144986047Y-106842714D02*
X144986047Y-107509380D01*
X144747952Y-106461761D02*
X144509857Y-107176047D01*
X145128904Y-107176047D01*
%TO.C,R6*%
X135961380Y-88939666D02*
X135485190Y-89273000D01*
X135961380Y-89511095D02*
X134961380Y-89511095D01*
X134961380Y-89130142D01*
X135009000Y-89034904D01*
X135056619Y-88987285D01*
X135151857Y-88939666D01*
X135294714Y-88939666D01*
X135389952Y-88987285D01*
X135437571Y-89034904D01*
X135485190Y-89130142D01*
X135485190Y-89511095D01*
X134961380Y-88082523D02*
X134961380Y-88273000D01*
X135009000Y-88368238D01*
X135056619Y-88415857D01*
X135199476Y-88511095D01*
X135389952Y-88558714D01*
X135770904Y-88558714D01*
X135866142Y-88511095D01*
X135913761Y-88463476D01*
X135961380Y-88368238D01*
X135961380Y-88177761D01*
X135913761Y-88082523D01*
X135866142Y-88034904D01*
X135770904Y-87987285D01*
X135532809Y-87987285D01*
X135437571Y-88034904D01*
X135389952Y-88082523D01*
X135342333Y-88177761D01*
X135342333Y-88368238D01*
X135389952Y-88463476D01*
X135437571Y-88511095D01*
X135532809Y-88558714D01*
X135056619Y-86455095D02*
X135009000Y-86407476D01*
X134961380Y-86312238D01*
X134961380Y-86074142D01*
X135009000Y-85978904D01*
X135056619Y-85931285D01*
X135151857Y-85883666D01*
X135247095Y-85883666D01*
X135389952Y-85931285D01*
X135961380Y-86502714D01*
X135961380Y-85883666D01*
X135056619Y-85502714D02*
X135009000Y-85455095D01*
X134961380Y-85359857D01*
X134961380Y-85121761D01*
X135009000Y-85026523D01*
X135056619Y-84978904D01*
X135151857Y-84931285D01*
X135247095Y-84931285D01*
X135389952Y-84978904D01*
X135961380Y-85550333D01*
X135961380Y-84931285D01*
X134961380Y-84312238D02*
X134961380Y-84217000D01*
X135009000Y-84121761D01*
X135056619Y-84074142D01*
X135151857Y-84026523D01*
X135342333Y-83978904D01*
X135580428Y-83978904D01*
X135770904Y-84026523D01*
X135866142Y-84074142D01*
X135913761Y-84121761D01*
X135961380Y-84217000D01*
X135961380Y-84312238D01*
X135913761Y-84407476D01*
X135866142Y-84455095D01*
X135770904Y-84502714D01*
X135580428Y-84550333D01*
X135342333Y-84550333D01*
X135151857Y-84502714D01*
X135056619Y-84455095D01*
X135009000Y-84407476D01*
X134961380Y-84312238D01*
%TO.C,R7*%
X167092333Y-94241880D02*
X166759000Y-93765690D01*
X166520904Y-94241880D02*
X166520904Y-93241880D01*
X166901857Y-93241880D01*
X166997095Y-93289500D01*
X167044714Y-93337119D01*
X167092333Y-93432357D01*
X167092333Y-93575214D01*
X167044714Y-93670452D01*
X166997095Y-93718071D01*
X166901857Y-93765690D01*
X166520904Y-93765690D01*
X167425666Y-93241880D02*
X168092333Y-93241880D01*
X167663761Y-94241880D01*
X159948714Y-92987880D02*
X160567761Y-92987880D01*
X160234428Y-93368833D01*
X160377285Y-93368833D01*
X160472523Y-93416452D01*
X160520142Y-93464071D01*
X160567761Y-93559309D01*
X160567761Y-93797404D01*
X160520142Y-93892642D01*
X160472523Y-93940261D01*
X160377285Y-93987880D01*
X160091571Y-93987880D01*
X159996333Y-93940261D01*
X159948714Y-93892642D01*
X160996333Y-93987880D02*
X160996333Y-92987880D01*
X161091571Y-93606928D02*
X161377285Y-93987880D01*
X161377285Y-93321214D02*
X160996333Y-93702166D01*
X161710619Y-92987880D02*
X162329666Y-92987880D01*
X161996333Y-93368833D01*
X162139190Y-93368833D01*
X162234428Y-93416452D01*
X162282047Y-93464071D01*
X162329666Y-93559309D01*
X162329666Y-93797404D01*
X162282047Y-93892642D01*
X162234428Y-93940261D01*
X162139190Y-93987880D01*
X161853476Y-93987880D01*
X161758238Y-93940261D01*
X161710619Y-93892642D01*
%TO.C,R1*%
X146375380Y-88939666D02*
X145899190Y-89273000D01*
X146375380Y-89511095D02*
X145375380Y-89511095D01*
X145375380Y-89130142D01*
X145423000Y-89034904D01*
X145470619Y-88987285D01*
X145565857Y-88939666D01*
X145708714Y-88939666D01*
X145803952Y-88987285D01*
X145851571Y-89034904D01*
X145899190Y-89130142D01*
X145899190Y-89511095D01*
X146375380Y-87987285D02*
X146375380Y-88558714D01*
X146375380Y-88273000D02*
X145375380Y-88273000D01*
X145518238Y-88368238D01*
X145613476Y-88463476D01*
X145661095Y-88558714D01*
X145470619Y-86455095D02*
X145423000Y-86407476D01*
X145375380Y-86312238D01*
X145375380Y-86074142D01*
X145423000Y-85978904D01*
X145470619Y-85931285D01*
X145565857Y-85883666D01*
X145661095Y-85883666D01*
X145803952Y-85931285D01*
X146375380Y-86502714D01*
X146375380Y-85883666D01*
X145470619Y-85502714D02*
X145423000Y-85455095D01*
X145375380Y-85359857D01*
X145375380Y-85121761D01*
X145423000Y-85026523D01*
X145470619Y-84978904D01*
X145565857Y-84931285D01*
X145661095Y-84931285D01*
X145803952Y-84978904D01*
X146375380Y-85550333D01*
X146375380Y-84931285D01*
X145375380Y-84312238D02*
X145375380Y-84217000D01*
X145423000Y-84121761D01*
X145470619Y-84074142D01*
X145565857Y-84026523D01*
X145756333Y-83978904D01*
X145994428Y-83978904D01*
X146184904Y-84026523D01*
X146280142Y-84074142D01*
X146327761Y-84121761D01*
X146375380Y-84217000D01*
X146375380Y-84312238D01*
X146327761Y-84407476D01*
X146280142Y-84455095D01*
X146184904Y-84502714D01*
X145994428Y-84550333D01*
X145756333Y-84550333D01*
X145565857Y-84502714D01*
X145470619Y-84455095D01*
X145423000Y-84407476D01*
X145375380Y-84312238D01*
D11*
%TO.C,J3*%
X121416428Y-65448571D02*
X121416428Y-63948571D01*
X121916428Y-65020000D01*
X122416428Y-63948571D01*
X122416428Y-65448571D01*
X123130714Y-65448571D02*
X123130714Y-63948571D01*
X123845000Y-65448571D02*
X123845000Y-63948571D01*
X124202142Y-63948571D01*
X124416428Y-64020000D01*
X124559285Y-64162857D01*
X124630714Y-64305714D01*
X124702142Y-64591428D01*
X124702142Y-64805714D01*
X124630714Y-65091428D01*
X124559285Y-65234285D01*
X124416428Y-65377142D01*
X124202142Y-65448571D01*
X123845000Y-65448571D01*
X125345000Y-65448571D02*
X125345000Y-63948571D01*
X127202142Y-65448571D02*
X127202142Y-63948571D01*
X127916428Y-65448571D02*
X127916428Y-63948571D01*
X128773571Y-65448571D01*
X128773571Y-63948571D01*
D10*
%TO.C,R17*%
X165552380Y-88526857D02*
X165076190Y-88860190D01*
X165552380Y-89098285D02*
X164552380Y-89098285D01*
X164552380Y-88717333D01*
X164600000Y-88622095D01*
X164647619Y-88574476D01*
X164742857Y-88526857D01*
X164885714Y-88526857D01*
X164980952Y-88574476D01*
X165028571Y-88622095D01*
X165076190Y-88717333D01*
X165076190Y-89098285D01*
X165552380Y-87574476D02*
X165552380Y-88145904D01*
X165552380Y-87860190D02*
X164552380Y-87860190D01*
X164695238Y-87955428D01*
X164790476Y-88050666D01*
X164838095Y-88145904D01*
X164552380Y-87241142D02*
X164552380Y-86574476D01*
X165552380Y-87003047D01*
X165552380Y-84701047D02*
X165552380Y-85272476D01*
X165552380Y-84986761D02*
X164552380Y-84986761D01*
X164695238Y-85082000D01*
X164790476Y-85177238D01*
X164838095Y-85272476D01*
X165552380Y-84272476D02*
X164552380Y-84272476D01*
X165171428Y-84177238D02*
X165552380Y-83891523D01*
X164885714Y-83891523D02*
X165266666Y-84272476D01*
%TO.C,R4*%
X139263380Y-88939666D02*
X138787190Y-89273000D01*
X139263380Y-89511095D02*
X138263380Y-89511095D01*
X138263380Y-89130142D01*
X138311000Y-89034904D01*
X138358619Y-88987285D01*
X138453857Y-88939666D01*
X138596714Y-88939666D01*
X138691952Y-88987285D01*
X138739571Y-89034904D01*
X138787190Y-89130142D01*
X138787190Y-89511095D01*
X138596714Y-88082523D02*
X139263380Y-88082523D01*
X138215761Y-88320619D02*
X138930047Y-88558714D01*
X138930047Y-87939666D01*
X138231619Y-86582095D02*
X138184000Y-86534476D01*
X138136380Y-86439238D01*
X138136380Y-86201142D01*
X138184000Y-86105904D01*
X138231619Y-86058285D01*
X138326857Y-86010666D01*
X138422095Y-86010666D01*
X138564952Y-86058285D01*
X139136380Y-86629714D01*
X139136380Y-86010666D01*
X138231619Y-85629714D02*
X138184000Y-85582095D01*
X138136380Y-85486857D01*
X138136380Y-85248761D01*
X138184000Y-85153523D01*
X138231619Y-85105904D01*
X138326857Y-85058285D01*
X138422095Y-85058285D01*
X138564952Y-85105904D01*
X139136380Y-85677333D01*
X139136380Y-85058285D01*
X138136380Y-84439238D02*
X138136380Y-84344000D01*
X138184000Y-84248761D01*
X138231619Y-84201142D01*
X138326857Y-84153523D01*
X138517333Y-84105904D01*
X138755428Y-84105904D01*
X138945904Y-84153523D01*
X139041142Y-84201142D01*
X139088761Y-84248761D01*
X139136380Y-84344000D01*
X139136380Y-84439238D01*
X139088761Y-84534476D01*
X139041142Y-84582095D01*
X138945904Y-84629714D01*
X138755428Y-84677333D01*
X138517333Y-84677333D01*
X138326857Y-84629714D01*
X138231619Y-84582095D01*
X138184000Y-84534476D01*
X138136380Y-84439238D01*
%TO.C,R9*%
X179649380Y-108370666D02*
X179173190Y-108704000D01*
X179649380Y-108942095D02*
X178649380Y-108942095D01*
X178649380Y-108561142D01*
X178697000Y-108465904D01*
X178744619Y-108418285D01*
X178839857Y-108370666D01*
X178982714Y-108370666D01*
X179077952Y-108418285D01*
X179125571Y-108465904D01*
X179173190Y-108561142D01*
X179173190Y-108942095D01*
X179649380Y-107894476D02*
X179649380Y-107704000D01*
X179601761Y-107608761D01*
X179554142Y-107561142D01*
X179411285Y-107465904D01*
X179220809Y-107418285D01*
X178839857Y-107418285D01*
X178744619Y-107465904D01*
X178697000Y-107513523D01*
X178649380Y-107608761D01*
X178649380Y-107799238D01*
X178697000Y-107894476D01*
X178744619Y-107942095D01*
X178839857Y-107989714D01*
X179077952Y-107989714D01*
X179173190Y-107942095D01*
X179220809Y-107894476D01*
X179268428Y-107799238D01*
X179268428Y-107608761D01*
X179220809Y-107513523D01*
X179173190Y-107465904D01*
X179077952Y-107418285D01*
X176458619Y-109442095D02*
X176411000Y-109394476D01*
X176363380Y-109299238D01*
X176363380Y-109061142D01*
X176411000Y-108965904D01*
X176458619Y-108918285D01*
X176553857Y-108870666D01*
X176649095Y-108870666D01*
X176791952Y-108918285D01*
X177363380Y-109489714D01*
X177363380Y-108870666D01*
X176458619Y-108489714D02*
X176411000Y-108442095D01*
X176363380Y-108346857D01*
X176363380Y-108108761D01*
X176411000Y-108013523D01*
X176458619Y-107965904D01*
X176553857Y-107918285D01*
X176649095Y-107918285D01*
X176791952Y-107965904D01*
X177363380Y-108537333D01*
X177363380Y-107918285D01*
X176363380Y-107299238D02*
X176363380Y-107204000D01*
X176411000Y-107108761D01*
X176458619Y-107061142D01*
X176553857Y-107013523D01*
X176744333Y-106965904D01*
X176982428Y-106965904D01*
X177172904Y-107013523D01*
X177268142Y-107061142D01*
X177315761Y-107108761D01*
X177363380Y-107204000D01*
X177363380Y-107299238D01*
X177315761Y-107394476D01*
X177268142Y-107442095D01*
X177172904Y-107489714D01*
X176982428Y-107537333D01*
X176744333Y-107537333D01*
X176553857Y-107489714D01*
X176458619Y-107442095D01*
X176411000Y-107394476D01*
X176363380Y-107299238D01*
%TO.C,R3*%
X149677380Y-89193666D02*
X149201190Y-89527000D01*
X149677380Y-89765095D02*
X148677380Y-89765095D01*
X148677380Y-89384142D01*
X148725000Y-89288904D01*
X148772619Y-89241285D01*
X148867857Y-89193666D01*
X149010714Y-89193666D01*
X149105952Y-89241285D01*
X149153571Y-89288904D01*
X149201190Y-89384142D01*
X149201190Y-89765095D01*
X148677380Y-88860333D02*
X148677380Y-88241285D01*
X149058333Y-88574619D01*
X149058333Y-88431761D01*
X149105952Y-88336523D01*
X149153571Y-88288904D01*
X149248809Y-88241285D01*
X149486904Y-88241285D01*
X149582142Y-88288904D01*
X149629761Y-88336523D01*
X149677380Y-88431761D01*
X149677380Y-88717476D01*
X149629761Y-88812714D01*
X149582142Y-88860333D01*
X149677380Y-85336047D02*
X149677380Y-85907476D01*
X149677380Y-85621761D02*
X148677380Y-85621761D01*
X148820238Y-85717000D01*
X148915476Y-85812238D01*
X148963095Y-85907476D01*
X149677380Y-84907476D02*
X148677380Y-84907476D01*
X149296428Y-84812238D02*
X149677380Y-84526523D01*
X149010714Y-84526523D02*
X149391666Y-84907476D01*
%TO.C,R11*%
X172156380Y-88780857D02*
X171680190Y-89114190D01*
X172156380Y-89352285D02*
X171156380Y-89352285D01*
X171156380Y-88971333D01*
X171204000Y-88876095D01*
X171251619Y-88828476D01*
X171346857Y-88780857D01*
X171489714Y-88780857D01*
X171584952Y-88828476D01*
X171632571Y-88876095D01*
X171680190Y-88971333D01*
X171680190Y-89352285D01*
X172156380Y-87828476D02*
X172156380Y-88399904D01*
X172156380Y-88114190D02*
X171156380Y-88114190D01*
X171299238Y-88209428D01*
X171394476Y-88304666D01*
X171442095Y-88399904D01*
X172156380Y-86876095D02*
X172156380Y-87447523D01*
X172156380Y-87161809D02*
X171156380Y-87161809D01*
X171299238Y-87257047D01*
X171394476Y-87352285D01*
X171442095Y-87447523D01*
X172156380Y-85685238D02*
X172156380Y-86256666D01*
X172156380Y-85970952D02*
X171156380Y-85970952D01*
X171299238Y-86066190D01*
X171394476Y-86161428D01*
X171442095Y-86256666D01*
X171156380Y-85066190D02*
X171156380Y-84970952D01*
X171204000Y-84875714D01*
X171251619Y-84828095D01*
X171346857Y-84780476D01*
X171537333Y-84732857D01*
X171775428Y-84732857D01*
X171965904Y-84780476D01*
X172061142Y-84828095D01*
X172108761Y-84875714D01*
X172156380Y-84970952D01*
X172156380Y-85066190D01*
X172108761Y-85161428D01*
X172061142Y-85209047D01*
X171965904Y-85256666D01*
X171775428Y-85304285D01*
X171537333Y-85304285D01*
X171346857Y-85256666D01*
X171251619Y-85209047D01*
X171204000Y-85161428D01*
X171156380Y-85066190D01*
X172156380Y-84304285D02*
X171156380Y-84304285D01*
X171775428Y-84209047D02*
X172156380Y-83923333D01*
X171489714Y-83923333D02*
X171870666Y-84304285D01*
%TO.C,R5*%
X117292380Y-89066666D02*
X116816190Y-89400000D01*
X117292380Y-89638095D02*
X116292380Y-89638095D01*
X116292380Y-89257142D01*
X116340000Y-89161904D01*
X116387619Y-89114285D01*
X116482857Y-89066666D01*
X116625714Y-89066666D01*
X116720952Y-89114285D01*
X116768571Y-89161904D01*
X116816190Y-89257142D01*
X116816190Y-89638095D01*
X116292380Y-88161904D02*
X116292380Y-88638095D01*
X116768571Y-88685714D01*
X116720952Y-88638095D01*
X116673333Y-88542857D01*
X116673333Y-88304761D01*
X116720952Y-88209523D01*
X116768571Y-88161904D01*
X116863809Y-88114285D01*
X117101904Y-88114285D01*
X117197142Y-88161904D01*
X117244761Y-88209523D01*
X117292380Y-88304761D01*
X117292380Y-88542857D01*
X117244761Y-88638095D01*
X117197142Y-88685714D01*
X116387619Y-86455095D02*
X116340000Y-86407476D01*
X116292380Y-86312238D01*
X116292380Y-86074142D01*
X116340000Y-85978904D01*
X116387619Y-85931285D01*
X116482857Y-85883666D01*
X116578095Y-85883666D01*
X116720952Y-85931285D01*
X117292380Y-86502714D01*
X117292380Y-85883666D01*
X116387619Y-85502714D02*
X116340000Y-85455095D01*
X116292380Y-85359857D01*
X116292380Y-85121761D01*
X116340000Y-85026523D01*
X116387619Y-84978904D01*
X116482857Y-84931285D01*
X116578095Y-84931285D01*
X116720952Y-84978904D01*
X117292380Y-85550333D01*
X117292380Y-84931285D01*
X116292380Y-84312238D02*
X116292380Y-84217000D01*
X116340000Y-84121761D01*
X116387619Y-84074142D01*
X116482857Y-84026523D01*
X116673333Y-83978904D01*
X116911428Y-83978904D01*
X117101904Y-84026523D01*
X117197142Y-84074142D01*
X117244761Y-84121761D01*
X117292380Y-84217000D01*
X117292380Y-84312238D01*
X117244761Y-84407476D01*
X117197142Y-84455095D01*
X117101904Y-84502714D01*
X116911428Y-84550333D01*
X116673333Y-84550333D01*
X116482857Y-84502714D01*
X116387619Y-84455095D01*
X116340000Y-84407476D01*
X116292380Y-84312238D01*
%TO.C,SW3*%
X177696761Y-87947333D02*
X177744380Y-87804476D01*
X177744380Y-87566380D01*
X177696761Y-87471142D01*
X177649142Y-87423523D01*
X177553904Y-87375904D01*
X177458666Y-87375904D01*
X177363428Y-87423523D01*
X177315809Y-87471142D01*
X177268190Y-87566380D01*
X177220571Y-87756857D01*
X177172952Y-87852095D01*
X177125333Y-87899714D01*
X177030095Y-87947333D01*
X176934857Y-87947333D01*
X176839619Y-87899714D01*
X176792000Y-87852095D01*
X176744380Y-87756857D01*
X176744380Y-87518761D01*
X176792000Y-87375904D01*
X176744380Y-87042571D02*
X177744380Y-86804476D01*
X177030095Y-86614000D01*
X177744380Y-86423523D01*
X176744380Y-86185428D01*
X176744380Y-85899714D02*
X176744380Y-85280666D01*
X177125333Y-85614000D01*
X177125333Y-85471142D01*
X177172952Y-85375904D01*
X177220571Y-85328285D01*
X177315809Y-85280666D01*
X177553904Y-85280666D01*
X177649142Y-85328285D01*
X177696761Y-85375904D01*
X177744380Y-85471142D01*
X177744380Y-85756857D01*
X177696761Y-85852095D01*
X177649142Y-85899714D01*
%TO.C,D3*%
X152344380Y-79224095D02*
X151344380Y-79224095D01*
X151344380Y-78986000D01*
X151392000Y-78843142D01*
X151487238Y-78747904D01*
X151582476Y-78700285D01*
X151772952Y-78652666D01*
X151915809Y-78652666D01*
X152106285Y-78700285D01*
X152201523Y-78747904D01*
X152296761Y-78843142D01*
X152344380Y-78986000D01*
X152344380Y-79224095D01*
X151344380Y-78319333D02*
X151344380Y-77700285D01*
X151725333Y-78033619D01*
X151725333Y-77890761D01*
X151772952Y-77795523D01*
X151820571Y-77747904D01*
X151915809Y-77700285D01*
X152153904Y-77700285D01*
X152249142Y-77747904D01*
X152296761Y-77795523D01*
X152344380Y-77890761D01*
X152344380Y-78176476D01*
X152296761Y-78271714D01*
X152249142Y-78319333D01*
%TO.C,C1*%
X155424142Y-99099666D02*
X155471761Y-99147285D01*
X155519380Y-99290142D01*
X155519380Y-99385380D01*
X155471761Y-99528238D01*
X155376523Y-99623476D01*
X155281285Y-99671095D01*
X155090809Y-99718714D01*
X154947952Y-99718714D01*
X154757476Y-99671095D01*
X154662238Y-99623476D01*
X154567000Y-99528238D01*
X154519380Y-99385380D01*
X154519380Y-99290142D01*
X154567000Y-99147285D01*
X154614619Y-99099666D01*
X155519380Y-98147285D02*
X155519380Y-98718714D01*
X155519380Y-98433000D02*
X154519380Y-98433000D01*
X154662238Y-98528238D01*
X154757476Y-98623476D01*
X154805095Y-98718714D01*
X152069380Y-99528238D02*
X152069380Y-100099666D01*
X152069380Y-99813952D02*
X151069380Y-99813952D01*
X151212238Y-99909190D01*
X151307476Y-100004428D01*
X151355095Y-100099666D01*
X151402714Y-98671095D02*
X152069380Y-98671095D01*
X151402714Y-99099666D02*
X151926523Y-99099666D01*
X152021761Y-99052047D01*
X152069380Y-98956809D01*
X152069380Y-98813952D01*
X152021761Y-98718714D01*
X151974142Y-98671095D01*
X151545571Y-97861571D02*
X151545571Y-98194904D01*
X152069380Y-98194904D02*
X151069380Y-98194904D01*
X151069380Y-97718714D01*
%TO.C,C2*%
X155424142Y-107140666D02*
X155471761Y-107188285D01*
X155519380Y-107331142D01*
X155519380Y-107426380D01*
X155471761Y-107569238D01*
X155376523Y-107664476D01*
X155281285Y-107712095D01*
X155090809Y-107759714D01*
X154947952Y-107759714D01*
X154757476Y-107712095D01*
X154662238Y-107664476D01*
X154567000Y-107569238D01*
X154519380Y-107426380D01*
X154519380Y-107331142D01*
X154567000Y-107188285D01*
X154614619Y-107140666D01*
X154614619Y-106759714D02*
X154567000Y-106712095D01*
X154519380Y-106616857D01*
X154519380Y-106378761D01*
X154567000Y-106283523D01*
X154614619Y-106235904D01*
X154709857Y-106188285D01*
X154805095Y-106188285D01*
X154947952Y-106235904D01*
X155519380Y-106807333D01*
X155519380Y-106188285D01*
X152090380Y-107569238D02*
X152090380Y-108140666D01*
X152090380Y-107854952D02*
X151090380Y-107854952D01*
X151233238Y-107950190D01*
X151328476Y-108045428D01*
X151376095Y-108140666D01*
X151423714Y-106712095D02*
X152090380Y-106712095D01*
X151423714Y-107140666D02*
X151947523Y-107140666D01*
X152042761Y-107093047D01*
X152090380Y-106997809D01*
X152090380Y-106854952D01*
X152042761Y-106759714D01*
X151995142Y-106712095D01*
X151566571Y-105902571D02*
X151566571Y-106235904D01*
X152090380Y-106235904D02*
X151090380Y-106235904D01*
X151090380Y-105759714D01*
%TO.C,R2*%
X142819380Y-88939666D02*
X142343190Y-89273000D01*
X142819380Y-89511095D02*
X141819380Y-89511095D01*
X141819380Y-89130142D01*
X141867000Y-89034904D01*
X141914619Y-88987285D01*
X142009857Y-88939666D01*
X142152714Y-88939666D01*
X142247952Y-88987285D01*
X142295571Y-89034904D01*
X142343190Y-89130142D01*
X142343190Y-89511095D01*
X141914619Y-88558714D02*
X141867000Y-88511095D01*
X141819380Y-88415857D01*
X141819380Y-88177761D01*
X141867000Y-88082523D01*
X141914619Y-88034904D01*
X142009857Y-87987285D01*
X142105095Y-87987285D01*
X142247952Y-88034904D01*
X142819380Y-88606333D01*
X142819380Y-87987285D01*
X142692380Y-85844047D02*
X142692380Y-86415476D01*
X142692380Y-86129761D02*
X141692380Y-86129761D01*
X141835238Y-86225000D01*
X141930476Y-86320238D01*
X141978095Y-86415476D01*
X142692380Y-85415476D02*
X141692380Y-85415476D01*
X142311428Y-85320238D02*
X142692380Y-85034523D01*
X142025714Y-85034523D02*
X142406666Y-85415476D01*
D11*
%TO.C,J2*%
X145943428Y-65575571D02*
X145943428Y-64075571D01*
X146443428Y-65147000D01*
X146943428Y-64075571D01*
X146943428Y-65575571D01*
X147657714Y-65575571D02*
X147657714Y-64075571D01*
X148372000Y-65575571D02*
X148372000Y-64075571D01*
X148729142Y-64075571D01*
X148943428Y-64147000D01*
X149086285Y-64289857D01*
X149157714Y-64432714D01*
X149229142Y-64718428D01*
X149229142Y-64932714D01*
X149157714Y-65218428D01*
X149086285Y-65361285D01*
X148943428Y-65504142D01*
X148729142Y-65575571D01*
X148372000Y-65575571D01*
X149872000Y-65575571D02*
X149872000Y-64075571D01*
X152014857Y-64075571D02*
X152300571Y-64075571D01*
X152443428Y-64147000D01*
X152586285Y-64289857D01*
X152657714Y-64575571D01*
X152657714Y-65075571D01*
X152586285Y-65361285D01*
X152443428Y-65504142D01*
X152300571Y-65575571D01*
X152014857Y-65575571D01*
X151872000Y-65504142D01*
X151729142Y-65361285D01*
X151657714Y-65075571D01*
X151657714Y-64575571D01*
X151729142Y-64289857D01*
X151872000Y-64147000D01*
X152014857Y-64075571D01*
X153300571Y-64075571D02*
X153300571Y-65289857D01*
X153372000Y-65432714D01*
X153443428Y-65504142D01*
X153586285Y-65575571D01*
X153872000Y-65575571D01*
X154014857Y-65504142D01*
X154086285Y-65432714D01*
X154157714Y-65289857D01*
X154157714Y-64075571D01*
X154657714Y-64075571D02*
X155514857Y-64075571D01*
X155086285Y-65575571D02*
X155086285Y-64075571D01*
D10*
%TO.C,R16*%
X168854380Y-88780857D02*
X168378190Y-89114190D01*
X168854380Y-89352285D02*
X167854380Y-89352285D01*
X167854380Y-88971333D01*
X167902000Y-88876095D01*
X167949619Y-88828476D01*
X168044857Y-88780857D01*
X168187714Y-88780857D01*
X168282952Y-88828476D01*
X168330571Y-88876095D01*
X168378190Y-88971333D01*
X168378190Y-89352285D01*
X168854380Y-87828476D02*
X168854380Y-88399904D01*
X168854380Y-88114190D02*
X167854380Y-88114190D01*
X167997238Y-88209428D01*
X168092476Y-88304666D01*
X168140095Y-88399904D01*
X167854380Y-86971333D02*
X167854380Y-87161809D01*
X167902000Y-87257047D01*
X167949619Y-87304666D01*
X168092476Y-87399904D01*
X168282952Y-87447523D01*
X168663904Y-87447523D01*
X168759142Y-87399904D01*
X168806761Y-87352285D01*
X168854380Y-87257047D01*
X168854380Y-87066571D01*
X168806761Y-86971333D01*
X168759142Y-86923714D01*
X168663904Y-86876095D01*
X168425809Y-86876095D01*
X168330571Y-86923714D01*
X168282952Y-86971333D01*
X168235333Y-87066571D01*
X168235333Y-87257047D01*
X168282952Y-87352285D01*
X168330571Y-87399904D01*
X168425809Y-87447523D01*
X168854380Y-84701047D02*
X168854380Y-85272476D01*
X168854380Y-84986761D02*
X167854380Y-84986761D01*
X167997238Y-85082000D01*
X168092476Y-85177238D01*
X168140095Y-85272476D01*
X168854380Y-84272476D02*
X167854380Y-84272476D01*
X168473428Y-84177238D02*
X168854380Y-83891523D01*
X168187714Y-83891523D02*
X168568666Y-84272476D01*
%TO.C,R13*%
X133929380Y-122054857D02*
X133453190Y-122388190D01*
X133929380Y-122626285D02*
X132929380Y-122626285D01*
X132929380Y-122245333D01*
X132977000Y-122150095D01*
X133024619Y-122102476D01*
X133119857Y-122054857D01*
X133262714Y-122054857D01*
X133357952Y-122102476D01*
X133405571Y-122150095D01*
X133453190Y-122245333D01*
X133453190Y-122626285D01*
X133929380Y-121102476D02*
X133929380Y-121673904D01*
X133929380Y-121388190D02*
X132929380Y-121388190D01*
X133072238Y-121483428D01*
X133167476Y-121578666D01*
X133215095Y-121673904D01*
X132929380Y-120769142D02*
X132929380Y-120150095D01*
X133310333Y-120483428D01*
X133310333Y-120340571D01*
X133357952Y-120245333D01*
X133405571Y-120197714D01*
X133500809Y-120150095D01*
X133738904Y-120150095D01*
X133834142Y-120197714D01*
X133881761Y-120245333D01*
X133929380Y-120340571D01*
X133929380Y-120626285D01*
X133881761Y-120721523D01*
X133834142Y-120769142D01*
X133262714Y-118546476D02*
X133929380Y-118546476D01*
X132881761Y-118784571D02*
X133596047Y-119022666D01*
X133596047Y-118403619D01*
X133929380Y-118022666D02*
X132929380Y-118022666D01*
X133548428Y-117927428D02*
X133929380Y-117641714D01*
X133262714Y-117641714D02*
X133643666Y-118022666D01*
X132929380Y-117308380D02*
X132929380Y-116641714D01*
X133929380Y-117070285D01*
%TO.C,R12*%
X162250380Y-88780857D02*
X161774190Y-89114190D01*
X162250380Y-89352285D02*
X161250380Y-89352285D01*
X161250380Y-88971333D01*
X161298000Y-88876095D01*
X161345619Y-88828476D01*
X161440857Y-88780857D01*
X161583714Y-88780857D01*
X161678952Y-88828476D01*
X161726571Y-88876095D01*
X161774190Y-88971333D01*
X161774190Y-89352285D01*
X162250380Y-87828476D02*
X162250380Y-88399904D01*
X162250380Y-88114190D02*
X161250380Y-88114190D01*
X161393238Y-88209428D01*
X161488476Y-88304666D01*
X161536095Y-88399904D01*
X161345619Y-87447523D02*
X161298000Y-87399904D01*
X161250380Y-87304666D01*
X161250380Y-87066571D01*
X161298000Y-86971333D01*
X161345619Y-86923714D01*
X161440857Y-86876095D01*
X161536095Y-86876095D01*
X161678952Y-86923714D01*
X162250380Y-87495142D01*
X162250380Y-86876095D01*
X162250380Y-85685238D02*
X162250380Y-86256666D01*
X162250380Y-85970952D02*
X161250380Y-85970952D01*
X161393238Y-86066190D01*
X161488476Y-86161428D01*
X161536095Y-86256666D01*
X161250380Y-85066190D02*
X161250380Y-84970952D01*
X161298000Y-84875714D01*
X161345619Y-84828095D01*
X161440857Y-84780476D01*
X161631333Y-84732857D01*
X161869428Y-84732857D01*
X162059904Y-84780476D01*
X162155142Y-84828095D01*
X162202761Y-84875714D01*
X162250380Y-84970952D01*
X162250380Y-85066190D01*
X162202761Y-85161428D01*
X162155142Y-85209047D01*
X162059904Y-85256666D01*
X161869428Y-85304285D01*
X161631333Y-85304285D01*
X161440857Y-85256666D01*
X161345619Y-85209047D01*
X161298000Y-85161428D01*
X161250380Y-85066190D01*
X162250380Y-84304285D02*
X161250380Y-84304285D01*
X161869428Y-84209047D02*
X162250380Y-83923333D01*
X161583714Y-83923333D02*
X161964666Y-84304285D01*
%TO.C,SW2*%
X156614761Y-87947333D02*
X156662380Y-87804476D01*
X156662380Y-87566380D01*
X156614761Y-87471142D01*
X156567142Y-87423523D01*
X156471904Y-87375904D01*
X156376666Y-87375904D01*
X156281428Y-87423523D01*
X156233809Y-87471142D01*
X156186190Y-87566380D01*
X156138571Y-87756857D01*
X156090952Y-87852095D01*
X156043333Y-87899714D01*
X155948095Y-87947333D01*
X155852857Y-87947333D01*
X155757619Y-87899714D01*
X155710000Y-87852095D01*
X155662380Y-87756857D01*
X155662380Y-87518761D01*
X155710000Y-87375904D01*
X155662380Y-87042571D02*
X156662380Y-86804476D01*
X155948095Y-86614000D01*
X156662380Y-86423523D01*
X155662380Y-86185428D01*
X155757619Y-85852095D02*
X155710000Y-85804476D01*
X155662380Y-85709238D01*
X155662380Y-85471142D01*
X155710000Y-85375904D01*
X155757619Y-85328285D01*
X155852857Y-85280666D01*
X155948095Y-85280666D01*
X156090952Y-85328285D01*
X156662380Y-85899714D01*
X156662380Y-85280666D01*
%TO.C,SW1*%
X163726761Y-104203333D02*
X163774380Y-104060476D01*
X163774380Y-103822380D01*
X163726761Y-103727142D01*
X163679142Y-103679523D01*
X163583904Y-103631904D01*
X163488666Y-103631904D01*
X163393428Y-103679523D01*
X163345809Y-103727142D01*
X163298190Y-103822380D01*
X163250571Y-104012857D01*
X163202952Y-104108095D01*
X163155333Y-104155714D01*
X163060095Y-104203333D01*
X162964857Y-104203333D01*
X162869619Y-104155714D01*
X162822000Y-104108095D01*
X162774380Y-104012857D01*
X162774380Y-103774761D01*
X162822000Y-103631904D01*
X162774380Y-103298571D02*
X163774380Y-103060476D01*
X163060095Y-102870000D01*
X163774380Y-102679523D01*
X162774380Y-102441428D01*
X163774380Y-101536666D02*
X163774380Y-102108095D01*
X163774380Y-101822380D02*
X162774380Y-101822380D01*
X162917238Y-101917619D01*
X163012476Y-102012857D01*
X163060095Y-102108095D01*
%TO.C,R15*%
X131770380Y-88780857D02*
X131294190Y-89114190D01*
X131770380Y-89352285D02*
X130770380Y-89352285D01*
X130770380Y-88971333D01*
X130818000Y-88876095D01*
X130865619Y-88828476D01*
X130960857Y-88780857D01*
X131103714Y-88780857D01*
X131198952Y-88828476D01*
X131246571Y-88876095D01*
X131294190Y-88971333D01*
X131294190Y-89352285D01*
X131770380Y-87828476D02*
X131770380Y-88399904D01*
X131770380Y-88114190D02*
X130770380Y-88114190D01*
X130913238Y-88209428D01*
X131008476Y-88304666D01*
X131056095Y-88399904D01*
X130770380Y-86923714D02*
X130770380Y-87399904D01*
X131246571Y-87447523D01*
X131198952Y-87399904D01*
X131151333Y-87304666D01*
X131151333Y-87066571D01*
X131198952Y-86971333D01*
X131246571Y-86923714D01*
X131341809Y-86876095D01*
X131579904Y-86876095D01*
X131675142Y-86923714D01*
X131722761Y-86971333D01*
X131770380Y-87066571D01*
X131770380Y-87304666D01*
X131722761Y-87399904D01*
X131675142Y-87447523D01*
X131770380Y-85209047D02*
X131770380Y-85780476D01*
X131770380Y-85494761D02*
X130770380Y-85494761D01*
X130913238Y-85590000D01*
X131008476Y-85685238D01*
X131056095Y-85780476D01*
X131770380Y-84780476D02*
X130770380Y-84780476D01*
X131389428Y-84685238D02*
X131770380Y-84399523D01*
X131103714Y-84399523D02*
X131484666Y-84780476D01*
%TO.C,R14*%
X137104380Y-121927857D02*
X136628190Y-122261190D01*
X137104380Y-122499285D02*
X136104380Y-122499285D01*
X136104380Y-122118333D01*
X136152000Y-122023095D01*
X136199619Y-121975476D01*
X136294857Y-121927857D01*
X136437714Y-121927857D01*
X136532952Y-121975476D01*
X136580571Y-122023095D01*
X136628190Y-122118333D01*
X136628190Y-122499285D01*
X137104380Y-120975476D02*
X137104380Y-121546904D01*
X137104380Y-121261190D02*
X136104380Y-121261190D01*
X136247238Y-121356428D01*
X136342476Y-121451666D01*
X136390095Y-121546904D01*
X136437714Y-120118333D02*
X137104380Y-120118333D01*
X136056761Y-120356428D02*
X136771047Y-120594523D01*
X136771047Y-119975476D01*
X136437714Y-118546476D02*
X137104380Y-118546476D01*
X136056761Y-118784571D02*
X136771047Y-119022666D01*
X136771047Y-118403619D01*
X137104380Y-118022666D02*
X136104380Y-118022666D01*
X136723428Y-117927428D02*
X137104380Y-117641714D01*
X136437714Y-117641714D02*
X136818666Y-118022666D01*
X136104380Y-117308380D02*
X136104380Y-116641714D01*
X137104380Y-117070285D01*
%TO.C,R8*%
X160742333Y-112593380D02*
X160409000Y-112117190D01*
X160170904Y-112593380D02*
X160170904Y-111593380D01*
X160551857Y-111593380D01*
X160647095Y-111641000D01*
X160694714Y-111688619D01*
X160742333Y-111783857D01*
X160742333Y-111926714D01*
X160694714Y-112021952D01*
X160647095Y-112069571D01*
X160551857Y-112117190D01*
X160170904Y-112117190D01*
X161313761Y-112021952D02*
X161218523Y-111974333D01*
X161170904Y-111926714D01*
X161123285Y-111831476D01*
X161123285Y-111783857D01*
X161170904Y-111688619D01*
X161218523Y-111641000D01*
X161313761Y-111593380D01*
X161504238Y-111593380D01*
X161599476Y-111641000D01*
X161647095Y-111688619D01*
X161694714Y-111783857D01*
X161694714Y-111831476D01*
X161647095Y-111926714D01*
X161599476Y-111974333D01*
X161504238Y-112021952D01*
X161313761Y-112021952D01*
X161218523Y-112069571D01*
X161170904Y-112117190D01*
X161123285Y-112212428D01*
X161123285Y-112402904D01*
X161170904Y-112498142D01*
X161218523Y-112545761D01*
X161313761Y-112593380D01*
X161504238Y-112593380D01*
X161599476Y-112545761D01*
X161647095Y-112498142D01*
X161694714Y-112402904D01*
X161694714Y-112212428D01*
X161647095Y-112117190D01*
X161599476Y-112069571D01*
X161504238Y-112021952D01*
X172394714Y-111466380D02*
X173013761Y-111466380D01*
X172680428Y-111847333D01*
X172823285Y-111847333D01*
X172918523Y-111894952D01*
X172966142Y-111942571D01*
X173013761Y-112037809D01*
X173013761Y-112275904D01*
X172966142Y-112371142D01*
X172918523Y-112418761D01*
X172823285Y-112466380D01*
X172537571Y-112466380D01*
X172442333Y-112418761D01*
X172394714Y-112371142D01*
X173442333Y-112466380D02*
X173442333Y-111466380D01*
X173537571Y-112085428D02*
X173823285Y-112466380D01*
X173823285Y-111799714D02*
X173442333Y-112180666D01*
X174156619Y-111466380D02*
X174775666Y-111466380D01*
X174442333Y-111847333D01*
X174585190Y-111847333D01*
X174680428Y-111894952D01*
X174728047Y-111942571D01*
X174775666Y-112037809D01*
X174775666Y-112275904D01*
X174728047Y-112371142D01*
X174680428Y-112418761D01*
X174585190Y-112466380D01*
X174299476Y-112466380D01*
X174204238Y-112418761D01*
X174156619Y-112371142D01*
%TO.C,U1*%
X169013119Y-134264495D02*
X168203595Y-134264495D01*
X168108357Y-134312114D01*
X168060738Y-134359733D01*
X168013119Y-134454971D01*
X168013119Y-134645447D01*
X168060738Y-134740685D01*
X168108357Y-134788304D01*
X168203595Y-134835923D01*
X169013119Y-134835923D01*
X168013119Y-135835923D02*
X168013119Y-135264495D01*
X168013119Y-135550209D02*
X169013119Y-135550209D01*
X168870261Y-135454971D01*
X168775023Y-135359733D01*
X168727404Y-135264495D01*
D12*
%TO.C,U2*%
X122698000Y-89602000D02*
X121048000Y-89602000D01*
X126348000Y-99882000D02*
X126348000Y-89602000D01*
X126348000Y-89602000D02*
X124698000Y-89602000D01*
X121048000Y-99882000D02*
X126348000Y-99882000D01*
X121048000Y-89602000D02*
X121048000Y-99882000D01*
X122698000Y-89602000D02*
G75*
G03*
X124698000Y-89602000I1000000J0D01*
G01*
%TO.C,D1*%
X121578000Y-104244000D02*
X125818000Y-104244000D01*
X125818000Y-104244000D02*
X125818000Y-102004000D01*
X124978000Y-104244000D02*
X124978000Y-102004000D01*
X125218000Y-104244000D02*
X125218000Y-102004000D01*
X125098000Y-104244000D02*
X125098000Y-102004000D01*
X126468000Y-103124000D02*
X125818000Y-103124000D01*
X120928000Y-103124000D02*
X121578000Y-103124000D01*
X125818000Y-102004000D02*
X121578000Y-102004000D01*
X121578000Y-102004000D02*
X121578000Y-104244000D01*
%TO.C,J4*%
X130175000Y-134941000D02*
X137855000Y-134941000D01*
X130175000Y-137601000D02*
X137855000Y-137601000D01*
X128905000Y-137601000D02*
X127575000Y-137601000D01*
X127575000Y-137601000D02*
X127575000Y-136271000D01*
X130175000Y-137601000D02*
X130175000Y-134941000D01*
X137855000Y-137601000D02*
X137855000Y-134941000D01*
%TO.C,R10*%
X180237000Y-94012000D02*
X180567000Y-94012000D01*
X180567000Y-94012000D02*
X180567000Y-100552000D01*
X177827000Y-100552000D02*
X178157000Y-100552000D01*
X177827000Y-94012000D02*
X177827000Y-100552000D01*
X178157000Y-94012000D02*
X177827000Y-94012000D01*
X180567000Y-100552000D02*
X180237000Y-100552000D01*
%TO.C,J8*%
X122733000Y-146586000D02*
X130413000Y-146586000D01*
X120133000Y-149246000D02*
X120133000Y-147916000D01*
X122733000Y-149246000D02*
X122733000Y-146586000D01*
X122733000Y-149246000D02*
X130413000Y-149246000D01*
X121463000Y-149246000D02*
X120133000Y-149246000D01*
X130413000Y-149246000D02*
X130413000Y-146586000D01*
%TO.C,D2*%
X162032000Y-76941000D02*
X162032000Y-80031000D01*
X167582000Y-78486462D02*
G75*
G03*
X162032000Y-76941170I-2990000J462D01*
G01*
X162032000Y-80030830D02*
G75*
G03*
X167582000Y-78485538I2560000J1544830D01*
G01*
X167092000Y-78486000D02*
G75*
G03*
X167092000Y-78486000I-2500000J0D01*
G01*
%TO.C,J7*%
X171136000Y-65851000D02*
X169136000Y-65851000D01*
X169136000Y-59951000D02*
X169136000Y-51351000D01*
X178336000Y-65851000D02*
X176336000Y-65851000D01*
X169136000Y-65851000D02*
X169136000Y-64551000D01*
X178636000Y-66151000D02*
X178636000Y-64851000D01*
X178336000Y-51351000D02*
X178336000Y-65851000D01*
X176936000Y-66151000D02*
X178636000Y-66151000D01*
X169136000Y-51351000D02*
X178336000Y-51351000D01*
%TO.C,Q1*%
X140567000Y-106117000D02*
X144167000Y-106117000D01*
X144205478Y-106105478D02*
G75*
G03*
X142367000Y-101667000I-1838478J1838478D01*
G01*
X142367000Y-101666999D02*
G75*
G03*
X140528522Y-106105478I0J-2600001D01*
G01*
%TO.C,J5*%
X177994000Y-150749000D02*
X177994000Y-115129000D01*
X180654000Y-115129000D02*
X177994000Y-115129000D01*
X180654000Y-152019000D02*
X180654000Y-153349000D01*
X180654000Y-150749000D02*
X177994000Y-150749000D01*
X180654000Y-150749000D02*
X180654000Y-115129000D01*
X180654000Y-153349000D02*
X179324000Y-153349000D01*
%TO.C,R6*%
X134215000Y-98139000D02*
X133885000Y-98139000D01*
X136295000Y-98139000D02*
X136625000Y-98139000D01*
X133885000Y-91599000D02*
X134215000Y-91599000D01*
X136625000Y-98139000D02*
X136625000Y-91599000D01*
X136625000Y-91599000D02*
X136295000Y-91599000D01*
X133885000Y-98139000D02*
X133885000Y-91599000D01*
%TO.C,R7*%
X171037000Y-92102000D02*
X164497000Y-92102000D01*
X164497000Y-92102000D02*
X164497000Y-92432000D01*
X171037000Y-94842000D02*
X164497000Y-94842000D01*
X171037000Y-92432000D02*
X171037000Y-92102000D01*
X164497000Y-94842000D02*
X164497000Y-94512000D01*
X171037000Y-94512000D02*
X171037000Y-94842000D01*
%TO.C,R1*%
X147166000Y-98266000D02*
X146836000Y-98266000D01*
X146836000Y-91726000D02*
X147166000Y-91726000D01*
X144756000Y-91726000D02*
X144426000Y-91726000D01*
X144426000Y-91726000D02*
X144426000Y-98266000D01*
X144426000Y-98266000D02*
X144756000Y-98266000D01*
X147166000Y-91726000D02*
X147166000Y-98266000D01*
D13*
%TO.C,J3*%
X134221220Y-57033160D02*
X114721640Y-57033160D01*
X119722900Y-72532240D02*
X123223020Y-72532240D01*
X123720860Y-75031600D02*
X123223020Y-74531220D01*
X116723160Y-57033160D02*
X116723160Y-57531000D01*
X114721640Y-56532780D02*
X116222780Y-56532780D01*
X135722360Y-56032400D02*
X135722360Y-56532780D01*
X123223020Y-74531220D02*
X123223020Y-72532240D01*
X118722140Y-75031600D02*
X119222520Y-75031600D01*
X116222780Y-56032400D02*
X135722360Y-56032400D01*
X119722900Y-74531220D02*
X119722900Y-72532240D01*
X130721100Y-72532240D02*
X127220980Y-72532240D01*
X134221220Y-57531000D02*
X133720840Y-57531000D01*
X116723160Y-75031600D02*
X118722140Y-75031600D01*
X135722360Y-56532780D02*
X134221220Y-56532780D01*
X135722360Y-56281320D02*
X116222780Y-56281320D01*
X134221220Y-56781700D02*
X114721640Y-56781700D01*
X134221220Y-74531220D02*
X133720840Y-75031600D01*
X126723140Y-75031600D02*
X123720860Y-75031600D01*
X116222780Y-56532780D02*
X134221220Y-56532780D01*
X116222780Y-57531000D02*
X116723160Y-57531000D01*
X126723140Y-75031600D02*
X127220980Y-74531220D01*
X116222780Y-56532780D02*
X116222780Y-56032400D01*
X119222520Y-75031600D02*
X119722900Y-74531220D01*
X133720840Y-57531000D02*
X133720840Y-57033160D01*
X127220980Y-74531220D02*
X127220980Y-72532240D01*
X130721100Y-74531220D02*
X130721100Y-72532240D01*
X114721640Y-57033160D02*
X114721640Y-56532780D01*
X134221220Y-56532780D02*
X134221220Y-57033160D01*
X116222780Y-74531220D02*
X116723160Y-75031600D01*
X131221480Y-75031600D02*
X130721100Y-74531220D01*
X133720840Y-75031600D02*
X131221480Y-75031600D01*
X116222780Y-74531220D02*
X116222780Y-57531000D01*
X134221220Y-74531220D02*
X134221220Y-57531000D01*
D12*
%TO.C,R17*%
X164060000Y-89884000D02*
X163730000Y-89884000D01*
X163730000Y-89884000D02*
X163730000Y-83344000D01*
X166470000Y-83344000D02*
X166140000Y-83344000D01*
X166470000Y-89884000D02*
X166470000Y-83344000D01*
X166140000Y-89884000D02*
X166470000Y-89884000D01*
X163730000Y-83344000D02*
X164060000Y-83344000D01*
%TO.C,R4*%
X140181000Y-98139000D02*
X140181000Y-91599000D01*
X137441000Y-98139000D02*
X137441000Y-91599000D01*
X137771000Y-98139000D02*
X137441000Y-98139000D01*
X139851000Y-98139000D02*
X140181000Y-98139000D01*
X140181000Y-91599000D02*
X139851000Y-91599000D01*
X137441000Y-91599000D02*
X137771000Y-91599000D01*
%TO.C,R9*%
X180567000Y-111474000D02*
X180567000Y-104934000D01*
X177827000Y-111474000D02*
X177827000Y-104934000D01*
X180237000Y-111474000D02*
X180567000Y-111474000D01*
X177827000Y-104934000D02*
X178157000Y-104934000D01*
X178157000Y-111474000D02*
X177827000Y-111474000D01*
X180567000Y-104934000D02*
X180237000Y-104934000D01*
%TO.C,R3*%
X148185000Y-91726000D02*
X147855000Y-91726000D01*
X150595000Y-91726000D02*
X150595000Y-98266000D01*
X150265000Y-91726000D02*
X150595000Y-91726000D01*
X147855000Y-91726000D02*
X147855000Y-98266000D01*
X150595000Y-98266000D02*
X150265000Y-98266000D01*
X147855000Y-98266000D02*
X148185000Y-98266000D01*
%TO.C,R11*%
X170334000Y-83344000D02*
X170664000Y-83344000D01*
X173074000Y-89884000D02*
X173074000Y-83344000D01*
X172744000Y-89884000D02*
X173074000Y-89884000D01*
X170664000Y-89884000D02*
X170334000Y-89884000D01*
X170334000Y-89884000D02*
X170334000Y-83344000D01*
X173074000Y-83344000D02*
X172744000Y-83344000D01*
%TO.C,R5*%
X117626000Y-91599000D02*
X117956000Y-91599000D01*
X115546000Y-91599000D02*
X115216000Y-91599000D01*
X117956000Y-98139000D02*
X117626000Y-98139000D01*
X117956000Y-91599000D02*
X117956000Y-98139000D01*
X115216000Y-98139000D02*
X115546000Y-98139000D01*
X115216000Y-91599000D02*
X115216000Y-98139000D01*
%TO.C,SW3*%
X180542000Y-88864000D02*
X180542000Y-84364000D01*
X174042000Y-84364000D02*
X174042000Y-88864000D01*
X176542000Y-90114000D02*
X178042000Y-90114000D01*
X178042000Y-83114000D02*
X176542000Y-83114000D01*
%TO.C,D3*%
X153391000Y-76941000D02*
X153391000Y-80031000D01*
X158941000Y-78486462D02*
G75*
G03*
X153391000Y-76941170I-2990000J462D01*
G01*
X153391000Y-80030830D02*
G75*
G03*
X158941000Y-78485538I2560000J1544830D01*
G01*
X158451000Y-78486000D02*
G75*
G03*
X158451000Y-78486000I-2500000J0D01*
G01*
%TO.C,C1*%
X152746000Y-95813000D02*
X152746000Y-102053000D01*
X157388000Y-102053000D02*
X155992000Y-102053000D01*
X157388000Y-95813000D02*
X157388000Y-102053000D01*
X154142000Y-102053000D02*
X152746000Y-102053000D01*
X157388000Y-95813000D02*
X155992000Y-95813000D01*
X154142000Y-95813000D02*
X152746000Y-95813000D01*
%TO.C,C2*%
X155992000Y-103854000D02*
X157388000Y-103854000D01*
X157388000Y-110094000D02*
X157388000Y-103854000D01*
X152746000Y-110094000D02*
X152746000Y-103854000D01*
X152746000Y-110094000D02*
X154142000Y-110094000D01*
X152746000Y-103854000D02*
X154142000Y-103854000D01*
X155992000Y-110094000D02*
X157388000Y-110094000D01*
%TO.C,R2*%
X140997000Y-91726000D02*
X140997000Y-98266000D01*
X143737000Y-91726000D02*
X143737000Y-98266000D01*
X143407000Y-91726000D02*
X143737000Y-91726000D01*
X141327000Y-91726000D02*
X140997000Y-91726000D01*
X140997000Y-98266000D02*
X141327000Y-98266000D01*
X143737000Y-98266000D02*
X143407000Y-98266000D01*
%TO.C,J9*%
X161350000Y-115129000D02*
X158690000Y-115129000D01*
X158690000Y-150749000D02*
X158690000Y-115129000D01*
X161350000Y-150749000D02*
X158690000Y-150749000D01*
X161350000Y-152019000D02*
X161350000Y-153349000D01*
X161350000Y-153349000D02*
X160020000Y-153349000D01*
X161350000Y-150749000D02*
X161350000Y-115129000D01*
D13*
%TO.C,J2*%
X158485840Y-57531000D02*
X158485840Y-57033160D01*
X148485860Y-75031600D02*
X147988020Y-74531220D01*
X158986220Y-56532780D02*
X158986220Y-57033160D01*
X158485840Y-75031600D02*
X155986480Y-75031600D01*
X143487140Y-75031600D02*
X143987520Y-75031600D01*
X151985980Y-74531220D02*
X151985980Y-72532240D01*
X151488140Y-75031600D02*
X148485860Y-75031600D01*
X141488160Y-75031600D02*
X143487140Y-75031600D01*
X147988020Y-74531220D02*
X147988020Y-72532240D01*
X140987780Y-56532780D02*
X140987780Y-56032400D01*
X160487360Y-56281320D02*
X140987780Y-56281320D01*
X158986220Y-74531220D02*
X158485840Y-75031600D01*
X140987780Y-56032400D02*
X160487360Y-56032400D01*
X144487900Y-72532240D02*
X147988020Y-72532240D01*
X139486640Y-57033160D02*
X139486640Y-56532780D01*
X140987780Y-57531000D02*
X141488160Y-57531000D01*
X160487360Y-56032400D02*
X160487360Y-56532780D01*
X158986220Y-56781700D02*
X139486640Y-56781700D01*
X140987780Y-74531220D02*
X140987780Y-57531000D01*
X158986220Y-74531220D02*
X158986220Y-57531000D01*
X144487900Y-74531220D02*
X144487900Y-72532240D01*
X160487360Y-56532780D02*
X158986220Y-56532780D01*
X141488160Y-57033160D02*
X141488160Y-57531000D01*
X155986480Y-75031600D02*
X155486100Y-74531220D01*
X140987780Y-74531220D02*
X141488160Y-75031600D01*
X155486100Y-72532240D02*
X151985980Y-72532240D01*
X155486100Y-74531220D02*
X155486100Y-72532240D01*
X158986220Y-57531000D02*
X158485840Y-57531000D01*
X158986220Y-57033160D02*
X139486640Y-57033160D01*
X151488140Y-75031600D02*
X151985980Y-74531220D01*
X139486640Y-56532780D02*
X140987780Y-56532780D01*
X140987780Y-56532780D02*
X158986220Y-56532780D01*
X143987520Y-75031600D02*
X144487900Y-74531220D01*
D12*
%TO.C,R16*%
X167032000Y-89884000D02*
X167032000Y-83344000D01*
X169772000Y-83344000D02*
X169442000Y-83344000D01*
X167362000Y-89884000D02*
X167032000Y-89884000D01*
X169442000Y-89884000D02*
X169772000Y-89884000D01*
X169772000Y-89884000D02*
X169772000Y-83344000D01*
X167032000Y-83344000D02*
X167362000Y-83344000D01*
%TO.C,R13*%
X134390000Y-131032000D02*
X134720000Y-131032000D01*
X131980000Y-124492000D02*
X132310000Y-124492000D01*
X131980000Y-131032000D02*
X131980000Y-124492000D01*
X134720000Y-131032000D02*
X134720000Y-124492000D01*
X134720000Y-124492000D02*
X134390000Y-124492000D01*
X132310000Y-131032000D02*
X131980000Y-131032000D01*
%TO.C,R12*%
X160758000Y-89884000D02*
X160428000Y-89884000D01*
X163168000Y-89884000D02*
X163168000Y-83344000D01*
X163168000Y-83344000D02*
X162838000Y-83344000D01*
X162838000Y-89884000D02*
X163168000Y-89884000D01*
X160428000Y-83344000D02*
X160758000Y-83344000D01*
X160428000Y-89884000D02*
X160428000Y-83344000D01*
%TO.C,SW2*%
X156960000Y-83114000D02*
X155460000Y-83114000D01*
X155460000Y-90114000D02*
X156960000Y-90114000D01*
X159460000Y-88864000D02*
X159460000Y-84364000D01*
X152960000Y-84364000D02*
X152960000Y-88864000D01*
%TO.C,SW1*%
X169633000Y-96970000D02*
X173733000Y-96970000D01*
X161533000Y-96970000D02*
X165633000Y-96970000D01*
X165633000Y-108770000D02*
X161533000Y-108770000D01*
X167633000Y-103370000D02*
X167633000Y-102370000D01*
X174833000Y-106970000D02*
X175133000Y-106670000D01*
X169633000Y-108770000D02*
X173733000Y-108770000D01*
X175133000Y-106670000D02*
X175433000Y-106970000D01*
X175433000Y-106970000D02*
X174833000Y-106970000D01*
X161533000Y-104170000D02*
X161533000Y-101570000D01*
X168133000Y-102870000D02*
X167133000Y-102870000D01*
X161533000Y-99370000D02*
X161533000Y-96970000D01*
X161533000Y-108770000D02*
X161533000Y-106370000D01*
X173733000Y-108770000D02*
X173733000Y-96970000D01*
X170633000Y-102870000D02*
G75*
G03*
X170633000Y-102870000I-3000000J0D01*
G01*
%TO.C,R15*%
X129948000Y-91472000D02*
X129948000Y-98012000D01*
X132688000Y-91472000D02*
X132688000Y-98012000D01*
X130278000Y-91472000D02*
X129948000Y-91472000D01*
X132688000Y-98012000D02*
X132358000Y-98012000D01*
X129948000Y-98012000D02*
X130278000Y-98012000D01*
X132358000Y-91472000D02*
X132688000Y-91472000D01*
%TO.C,R14*%
X137565000Y-131032000D02*
X137895000Y-131032000D01*
X135485000Y-131032000D02*
X135155000Y-131032000D01*
X135155000Y-124492000D02*
X135485000Y-124492000D01*
X135155000Y-131032000D02*
X135155000Y-124492000D01*
X137895000Y-124492000D02*
X137565000Y-124492000D01*
X137895000Y-131032000D02*
X137895000Y-124492000D01*
%TO.C,J1*%
X167429000Y-68682000D02*
X167429000Y-72942000D01*
X179749000Y-72942000D02*
X179749000Y-68682000D01*
X172339000Y-73162000D02*
X171839000Y-73662000D01*
X171839000Y-73662000D02*
X172839000Y-73662000D01*
X167429000Y-72942000D02*
X179749000Y-72942000D01*
X167429000Y-64582000D02*
X167429000Y-56222000D01*
X172839000Y-73662000D02*
X172339000Y-73162000D01*
X179749000Y-56222000D02*
X179749000Y-64582000D01*
X167429000Y-56222000D02*
X179749000Y-56222000D01*
%TO.C,R8*%
X170402000Y-110644000D02*
X163862000Y-110644000D01*
X170402000Y-110974000D02*
X170402000Y-110644000D01*
X163862000Y-113384000D02*
X163862000Y-113054000D01*
X170402000Y-113384000D02*
X163862000Y-113384000D01*
X170402000Y-113054000D02*
X170402000Y-113384000D01*
X163862000Y-110644000D02*
X163862000Y-110974000D01*
%TO.C,U1*%
X158559500Y-152022400D02*
X158559500Y-153349000D01*
X176517300Y-150749000D02*
X176517300Y-115129000D01*
X158556000Y-115129000D02*
X155896000Y-115129000D01*
X177101500Y-153060400D02*
X177101500Y-155346400D01*
X176517300Y-115129000D02*
X173857300Y-115129000D01*
X176509500Y-152022400D02*
X176509500Y-153352400D01*
X175831500Y-156616400D02*
X156527500Y-156616400D01*
X158559500Y-153349000D02*
X157229500Y-153349000D01*
X176517300Y-153349000D02*
X175187300Y-153349000D01*
X155257500Y-155346400D02*
X155257500Y-115722400D01*
X173857300Y-150749000D02*
X173857300Y-115129000D01*
X155896000Y-150749000D02*
X155896000Y-115129000D01*
X158556000Y-150749000D02*
X155896000Y-150749000D01*
X156527500Y-114452400D02*
X175831500Y-114452400D01*
X177101500Y-115722400D02*
X177101500Y-153060400D01*
X176517300Y-150749000D02*
X173857300Y-150749000D01*
X158556000Y-150749000D02*
X158556000Y-115129000D01*
X156527500Y-114452400D02*
G75*
G03*
X155257500Y-115722400I0J-1270000D01*
G01*
X175831500Y-156616400D02*
G75*
G03*
X177101500Y-155346400I1J1269999D01*
G01*
X155257500Y-155346400D02*
G75*
G03*
X156527500Y-156616400I1270000J0D01*
G01*
X177101500Y-115722400D02*
G75*
G03*
X175831500Y-114452400I-1269999J1D01*
G01*
%TO.C,J6*%
X154492000Y-150622000D02*
X154492000Y-115002000D01*
X154492000Y-151892000D02*
X154492000Y-153222000D01*
X151832000Y-150622000D02*
X151832000Y-115002000D01*
X154492000Y-150622000D02*
X151832000Y-150622000D01*
X154492000Y-115002000D02*
X151832000Y-115002000D01*
X154492000Y-153222000D02*
X153162000Y-153222000D01*
%TD*%
M02*
