M48
; DRILL file {KiCad (6.0.7)} date Sat Jun 10 23:03:57 2023
; FORMAT={-:-/ absolute / metric / decimal}
; #@! TF.CreationDate,2023-06-10T23:03:57-04:00
; #@! TF.GenerationSoftware,Kicad,Pcbnew,(6.0.7)
; #@! TF.FileFunction,Plated,1,2,PTH
FMAT,2
METRIC
; #@! TA.AperFunction,Plated,PTH,ViaDrill
T1C0.400
; #@! TA.AperFunction,Plated,PTH,ComponentDrill
T2C0.750
; #@! TA.AperFunction,Plated,PTH,ComponentDrill
T3C0.800
; #@! TA.AperFunction,Plated,PTH,ComponentDrill
T4C0.920
; #@! TA.AperFunction,Plated,PTH,ComponentDrill
T5C1.000
; #@! TA.AperFunction,Plated,PTH,ComponentDrill
T6C1.100
; #@! TA.AperFunction,Plated,PTH,ComponentDrill
T7C1.400
; #@! TA.AperFunction,Plated,PTH,ComponentDrill
T8C1.500
; #@! TA.AperFunction,Plated,PTH,ComponentDrill
T9C2.330
; #@! TA.AperFunction,Plated,PTH,ComponentDrill
T10C3.200
%
G90
G05
T1
X151.892Y-109.601
X152.908Y-73.533
X153.162Y-109.601
X154.305Y-109.601
X160.02Y-82.931
X162.052Y-84.963
T2
X130.302Y-79.269
X131.572Y-79.269
X132.842Y-79.269
T3
X106.426Y-66.294
X106.426Y-73.914
X110.236Y-66.294
X110.236Y-73.914
X113.411Y-66.294
X113.411Y-68.834
X113.411Y-71.374
X113.411Y-73.914
X121.031Y-66.294
X121.031Y-68.834
X121.031Y-71.374
X121.031Y-73.914
X122.301Y-108.458
X122.301Y-116.078
X124.46Y-66.294
X124.46Y-73.914
X125.476Y-108.458
X125.476Y-116.078
X128.016Y-66.294
X128.016Y-73.914
X131.572Y-66.421
X131.572Y-74.041
X135.001Y-66.421
X135.001Y-74.041
X138.43Y-66.421
X138.43Y-74.041
X144.272Y-71.668
X144.272Y-76.668
X144.272Y-79.709
X144.272Y-84.709
X152.527Y-87.249
X153.162Y-68.707
X153.416Y-58.039
X153.416Y-65.659
X158.496Y-58.039
X158.496Y-65.659
X160.147Y-87.249
X160.782Y-68.707
X168.402Y-68.707
X168.402Y-76.327
X168.402Y-79.629
X168.402Y-87.249
T4
X161.544Y-44.609
X161.544Y-46.609
X164.044Y-44.609
X164.044Y-46.609
T5
X117.856Y-120.777
X120.396Y-120.777
X122.936Y-120.777
X125.476Y-120.777
X142.367Y-91.567
X142.367Y-94.107
X142.367Y-96.647
X142.367Y-99.187
X142.367Y-101.727
X142.367Y-104.267
X142.367Y-106.807
X142.367Y-109.347
X142.367Y-111.887
X142.367Y-114.427
X142.367Y-116.967
X142.367Y-119.507
X142.367Y-122.047
X142.367Y-124.587
X142.367Y-127.127
X146.431Y-91.694
X146.431Y-94.234
X146.431Y-96.774
X146.431Y-99.314
X146.431Y-101.854
X146.431Y-104.394
X146.431Y-106.934
X146.431Y-109.474
X146.431Y-112.014
X146.431Y-114.554
X146.431Y-117.094
X146.431Y-119.634
X146.431Y-122.174
X146.431Y-124.714
X146.431Y-127.254
X149.838Y-75.605
X149.838Y-80.605
X164.338Y-75.605
X164.338Y-78.105
X164.338Y-80.605
X164.392Y-91.694
X164.392Y-94.234
X164.392Y-96.774
X164.392Y-99.314
X164.392Y-101.854
X164.392Y-104.394
X164.392Y-106.934
X164.392Y-109.474
X164.392Y-112.014
X164.392Y-114.554
X164.392Y-117.094
X164.392Y-119.634
X164.392Y-122.174
X164.392Y-124.714
X164.392Y-127.254
X168.529Y-91.694
X168.529Y-94.234
X168.529Y-96.774
X168.529Y-99.314
X168.529Y-101.854
X168.529Y-104.394
X168.529Y-106.934
X168.529Y-109.474
X168.529Y-112.014
X168.529Y-114.554
X168.529Y-117.094
X168.529Y-119.634
X168.529Y-122.174
X168.529Y-124.714
X168.529Y-127.254
T6
X143.165Y-58.674
X143.165Y-65.174
X147.665Y-58.674
X147.665Y-65.174
X163.902Y-58.928
X163.902Y-65.428
X168.402Y-58.928
X168.402Y-65.428
T7
X106.038Y-43.513
X108.538Y-33.513
X108.538Y-46.013
X113.538Y-43.513
X118.538Y-33.513
X118.538Y-46.013
X121.038Y-43.513
X131.692Y-43.513
X134.192Y-33.513
X134.192Y-46.013
X139.192Y-43.513
X144.192Y-33.513
X144.192Y-46.013
X146.692Y-43.513
T9
X156.774Y-41.899
X168.814Y-41.899
T10
X105.918Y-53.721
X105.918Y-128.651
X114.046Y-53.721
X114.046Y-128.778
X136.906Y-53.721
X136.906Y-128.651
X158.242Y-128.778
X160.0Y-53.721
T5
G00X158.141Y-38.586
M15
G01X158.141Y-36.386
M16
G05
G00X164.041Y-34.086
M15
G01X161.841Y-34.086
M16
G05
G00X164.241Y-40.386
M15
G01X161.641Y-40.386
M16
G05
T8
G00X157.488Y-72.505
M15
G01X156.188Y-72.505
M16
G05
G00X157.488Y-83.705
M15
G01X156.188Y-83.705
M16
G05
T0
M30
