%TF.GenerationSoftware,KiCad,Pcbnew,(6.0.7)*%
%TF.CreationDate,2023-06-10T23:04:04-04:00*%
%TF.ProjectId,ATMega328pb_MIDI_breakout,41544d65-6761-4333-9238-70625f4d4944,rev?*%
%TF.SameCoordinates,Original*%
%TF.FileFunction,Legend,Top*%
%TF.FilePolarity,Positive*%
%FSLAX46Y46*%
G04 Gerber Fmt 4.6, Leading zero omitted, Abs format (unit mm)*
G04 Created by KiCad (PCBNEW (6.0.7)) date 2023-06-10 23:04:04*
%MOMM*%
%LPD*%
G01*
G04 APERTURE LIST*
%ADD10C,0.150000*%
%ADD11C,0.300000*%
%ADD12C,0.120000*%
%ADD13C,0.304800*%
G04 APERTURE END LIST*
D10*
X105395380Y-122346404D02*
X104395380Y-122346404D01*
X105109666Y-122013071D01*
X104395380Y-121679738D01*
X105395380Y-121679738D01*
X105395380Y-121203547D02*
X104395380Y-121203547D01*
X105395380Y-120727357D02*
X104395380Y-120727357D01*
X104395380Y-120489261D01*
X104443000Y-120346404D01*
X104538238Y-120251166D01*
X104633476Y-120203547D01*
X104823952Y-120155928D01*
X104966809Y-120155928D01*
X105157285Y-120203547D01*
X105252523Y-120251166D01*
X105347761Y-120346404D01*
X105395380Y-120489261D01*
X105395380Y-120727357D01*
X105395380Y-119727357D02*
X104395380Y-119727357D01*
X104871571Y-118155928D02*
X104919190Y-118013071D01*
X104966809Y-117965452D01*
X105062047Y-117917833D01*
X105204904Y-117917833D01*
X105300142Y-117965452D01*
X105347761Y-118013071D01*
X105395380Y-118108309D01*
X105395380Y-118489261D01*
X104395380Y-118489261D01*
X104395380Y-118155928D01*
X104443000Y-118060690D01*
X104490619Y-118013071D01*
X104585857Y-117965452D01*
X104681095Y-117965452D01*
X104776333Y-118013071D01*
X104823952Y-118060690D01*
X104871571Y-118155928D01*
X104871571Y-118489261D01*
X105395380Y-116917833D02*
X104919190Y-117251166D01*
X105395380Y-117489261D02*
X104395380Y-117489261D01*
X104395380Y-117108309D01*
X104443000Y-117013071D01*
X104490619Y-116965452D01*
X104585857Y-116917833D01*
X104728714Y-116917833D01*
X104823952Y-116965452D01*
X104871571Y-117013071D01*
X104919190Y-117108309D01*
X104919190Y-117489261D01*
X104871571Y-116489261D02*
X104871571Y-116155928D01*
X105395380Y-116013071D02*
X105395380Y-116489261D01*
X104395380Y-116489261D01*
X104395380Y-116013071D01*
X105109666Y-115632119D02*
X105109666Y-115155928D01*
X105395380Y-115727357D02*
X104395380Y-115394023D01*
X105395380Y-115060690D01*
X105395380Y-114727357D02*
X104395380Y-114727357D01*
X105395380Y-114155928D02*
X104823952Y-114584500D01*
X104395380Y-114155928D02*
X104966809Y-114727357D01*
X104395380Y-113536880D02*
X104395380Y-113346404D01*
X104443000Y-113251166D01*
X104538238Y-113155928D01*
X104728714Y-113108309D01*
X105062047Y-113108309D01*
X105252523Y-113155928D01*
X105347761Y-113251166D01*
X105395380Y-113346404D01*
X105395380Y-113536880D01*
X105347761Y-113632119D01*
X105252523Y-113727357D01*
X105062047Y-113774976D01*
X104728714Y-113774976D01*
X104538238Y-113727357D01*
X104443000Y-113632119D01*
X104395380Y-113536880D01*
X104395380Y-112679738D02*
X105204904Y-112679738D01*
X105300142Y-112632119D01*
X105347761Y-112584500D01*
X105395380Y-112489261D01*
X105395380Y-112298785D01*
X105347761Y-112203547D01*
X105300142Y-112155928D01*
X105204904Y-112108309D01*
X104395380Y-112108309D01*
X104395380Y-111774976D02*
X104395380Y-111203547D01*
X105395380Y-111489261D02*
X104395380Y-111489261D01*
X106481571Y-122346404D02*
X106481571Y-122013071D01*
X107005380Y-121870214D02*
X107005380Y-122346404D01*
X106005380Y-122346404D01*
X106005380Y-121870214D01*
X106338714Y-121536880D02*
X106338714Y-121013071D01*
X107005380Y-121536880D01*
X107005380Y-121013071D01*
X106957761Y-120251166D02*
X107005380Y-120346404D01*
X107005380Y-120536880D01*
X106957761Y-120632119D01*
X106862523Y-120679738D01*
X106481571Y-120679738D01*
X106386333Y-120632119D01*
X106338714Y-120536880D01*
X106338714Y-120346404D01*
X106386333Y-120251166D01*
X106481571Y-120203547D01*
X106576809Y-120203547D01*
X106672047Y-120679738D01*
X107005380Y-119774976D02*
X106338714Y-119774976D01*
X106529190Y-119774976D02*
X106433952Y-119727357D01*
X106386333Y-119679738D01*
X106338714Y-119584500D01*
X106338714Y-119489261D01*
X107005380Y-117917833D02*
X107005380Y-118394023D01*
X106005380Y-118394023D01*
X107005380Y-117441642D02*
X106957761Y-117536880D01*
X106910142Y-117584500D01*
X106814904Y-117632119D01*
X106529190Y-117632119D01*
X106433952Y-117584500D01*
X106386333Y-117536880D01*
X106338714Y-117441642D01*
X106338714Y-117298785D01*
X106386333Y-117203547D01*
X106433952Y-117155928D01*
X106529190Y-117108309D01*
X106814904Y-117108309D01*
X106910142Y-117155928D01*
X106957761Y-117203547D01*
X107005380Y-117298785D01*
X107005380Y-117441642D01*
X106338714Y-116679738D02*
X107005380Y-116679738D01*
X106433952Y-116679738D02*
X106386333Y-116632119D01*
X106338714Y-116536880D01*
X106338714Y-116394023D01*
X106386333Y-116298785D01*
X106481571Y-116251166D01*
X107005380Y-116251166D01*
X106338714Y-115346404D02*
X107148238Y-115346404D01*
X107243476Y-115394023D01*
X107291095Y-115441642D01*
X107338714Y-115536880D01*
X107338714Y-115679738D01*
X107291095Y-115774976D01*
X106957761Y-115346404D02*
X107005380Y-115441642D01*
X107005380Y-115632119D01*
X106957761Y-115727357D01*
X106910142Y-115774976D01*
X106814904Y-115822595D01*
X106529190Y-115822595D01*
X106433952Y-115774976D01*
X106386333Y-115727357D01*
X106338714Y-115632119D01*
X106338714Y-115441642D01*
X106386333Y-115346404D01*
X107005380Y-114870214D02*
X106338714Y-114870214D01*
X106005380Y-114870214D02*
X106053000Y-114917833D01*
X106100619Y-114870214D01*
X106053000Y-114822595D01*
X106005380Y-114870214D01*
X106100619Y-114870214D01*
X106338714Y-114394023D02*
X107005380Y-114394023D01*
X106433952Y-114394023D02*
X106386333Y-114346404D01*
X106338714Y-114251166D01*
X106338714Y-114108309D01*
X106386333Y-114013071D01*
X106481571Y-113965452D01*
X107005380Y-113965452D01*
X106338714Y-113060690D02*
X107005380Y-113060690D01*
X106338714Y-113489261D02*
X106862523Y-113489261D01*
X106957761Y-113441642D01*
X107005380Y-113346404D01*
X107005380Y-113203547D01*
X106957761Y-113108309D01*
X106910142Y-113060690D01*
X106957761Y-112632119D02*
X107005380Y-112536880D01*
X107005380Y-112346404D01*
X106957761Y-112251166D01*
X106862523Y-112203547D01*
X106814904Y-112203547D01*
X106719666Y-112251166D01*
X106672047Y-112346404D01*
X106672047Y-112489261D01*
X106624428Y-112584500D01*
X106529190Y-112632119D01*
X106481571Y-112632119D01*
X106386333Y-112584500D01*
X106338714Y-112489261D01*
X106338714Y-112346404D01*
X106386333Y-112251166D01*
X107615380Y-122060690D02*
X108329666Y-122060690D01*
X108472523Y-122108309D01*
X108567761Y-122203547D01*
X108615380Y-122346404D01*
X108615380Y-122441642D01*
X107948714Y-121155928D02*
X108615380Y-121155928D01*
X107948714Y-121584500D02*
X108472523Y-121584500D01*
X108567761Y-121536880D01*
X108615380Y-121441642D01*
X108615380Y-121298785D01*
X108567761Y-121203547D01*
X108520142Y-121155928D01*
X107948714Y-120679738D02*
X108615380Y-120679738D01*
X108043952Y-120679738D02*
X107996333Y-120632119D01*
X107948714Y-120536880D01*
X107948714Y-120394023D01*
X107996333Y-120298785D01*
X108091571Y-120251166D01*
X108615380Y-120251166D01*
X108567761Y-119394023D02*
X108615380Y-119489261D01*
X108615380Y-119679738D01*
X108567761Y-119774976D01*
X108472523Y-119822595D01*
X108091571Y-119822595D01*
X107996333Y-119774976D01*
X107948714Y-119679738D01*
X107948714Y-119489261D01*
X107996333Y-119394023D01*
X108091571Y-119346404D01*
X108186809Y-119346404D01*
X108282047Y-119822595D01*
X107710619Y-118203547D02*
X107663000Y-118155928D01*
X107615380Y-118060690D01*
X107615380Y-117822595D01*
X107663000Y-117727357D01*
X107710619Y-117679738D01*
X107805857Y-117632119D01*
X107901095Y-117632119D01*
X108043952Y-117679738D01*
X108615380Y-118251166D01*
X108615380Y-117632119D01*
X107615380Y-117013071D02*
X107615380Y-116917833D01*
X107663000Y-116822595D01*
X107710619Y-116774976D01*
X107805857Y-116727357D01*
X107996333Y-116679738D01*
X108234428Y-116679738D01*
X108424904Y-116727357D01*
X108520142Y-116774976D01*
X108567761Y-116822595D01*
X108615380Y-116917833D01*
X108615380Y-117013071D01*
X108567761Y-117108309D01*
X108520142Y-117155928D01*
X108424904Y-117203547D01*
X108234428Y-117251166D01*
X107996333Y-117251166D01*
X107805857Y-117203547D01*
X107710619Y-117155928D01*
X107663000Y-117108309D01*
X107615380Y-117013071D01*
X107710619Y-116298785D02*
X107663000Y-116251166D01*
X107615380Y-116155928D01*
X107615380Y-115917833D01*
X107663000Y-115822595D01*
X107710619Y-115774976D01*
X107805857Y-115727357D01*
X107901095Y-115727357D01*
X108043952Y-115774976D01*
X108615380Y-116346404D01*
X108615380Y-115727357D01*
X107615380Y-115394023D02*
X107615380Y-114774976D01*
X107996333Y-115108309D01*
X107996333Y-114965452D01*
X108043952Y-114870214D01*
X108091571Y-114822595D01*
X108186809Y-114774976D01*
X108424904Y-114774976D01*
X108520142Y-114822595D01*
X108567761Y-114870214D01*
X108615380Y-114965452D01*
X108615380Y-115251166D01*
X108567761Y-115346404D01*
X108520142Y-115394023D01*
X163703095Y-129421000D02*
X163607857Y-129373380D01*
X163465000Y-129373380D01*
X163322142Y-129421000D01*
X163226904Y-129516238D01*
X163179285Y-129611476D01*
X163131666Y-129801952D01*
X163131666Y-129944809D01*
X163179285Y-130135285D01*
X163226904Y-130230523D01*
X163322142Y-130325761D01*
X163465000Y-130373380D01*
X163560238Y-130373380D01*
X163703095Y-130325761D01*
X163750714Y-130278142D01*
X163750714Y-129944809D01*
X163560238Y-129944809D01*
X164179285Y-130373380D02*
X164179285Y-129373380D01*
X164750714Y-130373380D01*
X164750714Y-129373380D01*
X165226904Y-130373380D02*
X165226904Y-129373380D01*
X165465000Y-129373380D01*
X165607857Y-129421000D01*
X165703095Y-129516238D01*
X165750714Y-129611476D01*
X165798333Y-129801952D01*
X165798333Y-129944809D01*
X165750714Y-130135285D01*
X165703095Y-130230523D01*
X165607857Y-130325761D01*
X165465000Y-130373380D01*
X165226904Y-130373380D01*
X161044253Y-123040456D02*
X161751360Y-123747563D01*
X160709893Y-124519656D02*
X160810908Y-123947236D01*
X160305832Y-124115595D02*
X161012938Y-123408488D01*
X161282312Y-123677862D01*
X161315984Y-123778877D01*
X161315984Y-123846221D01*
X161282312Y-123947236D01*
X161181297Y-124048251D01*
X161080282Y-124081923D01*
X161012938Y-124081923D01*
X160911923Y-124048251D01*
X160642549Y-123778877D01*
X161751360Y-123747563D02*
X162424795Y-124420998D01*
X161012938Y-124755358D02*
X161080282Y-124890045D01*
X161248641Y-125058404D01*
X161349656Y-125092076D01*
X161417000Y-125092076D01*
X161518015Y-125058404D01*
X161585358Y-124991061D01*
X161619030Y-124890045D01*
X161619030Y-124822702D01*
X161585358Y-124721687D01*
X161484343Y-124553328D01*
X161450671Y-124452312D01*
X161450671Y-124384969D01*
X161484343Y-124283954D01*
X161551687Y-124216610D01*
X161652702Y-124182938D01*
X161720045Y-124182938D01*
X161821061Y-124216610D01*
X161989419Y-124384969D01*
X162056763Y-124519656D01*
X162424795Y-124420998D02*
X162963543Y-124959746D01*
X162292465Y-124688015D02*
X162696526Y-125092076D01*
X161787389Y-125597152D02*
X162494496Y-124890045D01*
X160575206Y-121844969D02*
X161282312Y-121137862D01*
X161450671Y-121306221D01*
X161518015Y-121440908D01*
X161518015Y-121575595D01*
X161484343Y-121676610D01*
X161383328Y-121844969D01*
X161282312Y-121945984D01*
X161113954Y-122047000D01*
X161012938Y-122080671D01*
X160878251Y-122080671D01*
X160743564Y-122013328D01*
X160575206Y-121844969D01*
X162124106Y-121979656D02*
X162191450Y-122047000D01*
X162225122Y-122148015D01*
X162225122Y-122215358D01*
X162191450Y-122316374D01*
X162090435Y-122484732D01*
X161922076Y-122653091D01*
X161753717Y-122754106D01*
X161652702Y-122787778D01*
X161585358Y-122787778D01*
X161484343Y-122754106D01*
X161417000Y-122686763D01*
X161383328Y-122585748D01*
X161383328Y-122518404D01*
X161417000Y-122417389D01*
X161518015Y-122249030D01*
X161686374Y-122080671D01*
X161854732Y-121979656D01*
X161955748Y-121945984D01*
X162023091Y-121945984D01*
X162124106Y-121979656D01*
X160575206Y-119304969D02*
X161282312Y-118597862D01*
X161450671Y-118766221D01*
X161518015Y-118900908D01*
X161518015Y-119035595D01*
X161484343Y-119136610D01*
X161383328Y-119304969D01*
X161282312Y-119405984D01*
X161113954Y-119507000D01*
X161012938Y-119540671D01*
X160878251Y-119540671D01*
X160743564Y-119473328D01*
X160575206Y-119304969D01*
X161652702Y-120382465D02*
X161248641Y-119978404D01*
X161450671Y-120180435D02*
X162157778Y-119473328D01*
X161989419Y-119507000D01*
X161854732Y-119507000D01*
X161753717Y-119473328D01*
X160575206Y-116637969D02*
X161282312Y-115930862D01*
X161450671Y-116099221D01*
X161518015Y-116233908D01*
X161518015Y-116368595D01*
X161484343Y-116469610D01*
X161383328Y-116637969D01*
X161282312Y-116738984D01*
X161113954Y-116840000D01*
X161012938Y-116873671D01*
X160878251Y-116873671D01*
X160743564Y-116806328D01*
X160575206Y-116637969D01*
X161888404Y-116671641D02*
X161955748Y-116671641D01*
X162056763Y-116705312D01*
X162225122Y-116873671D01*
X162258793Y-116974687D01*
X162258793Y-117042030D01*
X162225122Y-117143045D01*
X162157778Y-117210389D01*
X162023091Y-117277732D01*
X161214969Y-117277732D01*
X161652702Y-117715465D01*
X160575206Y-114351969D02*
X161282312Y-113644862D01*
X161450671Y-113813221D01*
X161518015Y-113947908D01*
X161518015Y-114082595D01*
X161484343Y-114183610D01*
X161383328Y-114351969D01*
X161282312Y-114452984D01*
X161113954Y-114554000D01*
X161012938Y-114587671D01*
X160878251Y-114587671D01*
X160743564Y-114520328D01*
X160575206Y-114351969D01*
X161922076Y-114284625D02*
X162359809Y-114722358D01*
X161854732Y-114756030D01*
X161955748Y-114857045D01*
X161989419Y-114958061D01*
X161989419Y-115025404D01*
X161955748Y-115126419D01*
X161787389Y-115294778D01*
X161686374Y-115328450D01*
X161619030Y-115328450D01*
X161518015Y-115294778D01*
X161315984Y-115092748D01*
X161282312Y-114991732D01*
X161282312Y-114924389D01*
X160575206Y-111684969D02*
X161282312Y-110977862D01*
X161450671Y-111146221D01*
X161518015Y-111280908D01*
X161518015Y-111415595D01*
X161484343Y-111516610D01*
X161383328Y-111684969D01*
X161282312Y-111785984D01*
X161113954Y-111887000D01*
X161012938Y-111920671D01*
X160878251Y-111920671D01*
X160743564Y-111853328D01*
X160575206Y-111684969D01*
X162056763Y-112223717D02*
X161585358Y-112695122D01*
X162157778Y-111785984D02*
X161484343Y-112122702D01*
X161922076Y-112560435D01*
X160575206Y-109144969D02*
X161282312Y-108437862D01*
X161450671Y-108606221D01*
X161518015Y-108740908D01*
X161518015Y-108875595D01*
X161484343Y-108976610D01*
X161383328Y-109144969D01*
X161282312Y-109245984D01*
X161113954Y-109347000D01*
X161012938Y-109380671D01*
X160878251Y-109380671D01*
X160743564Y-109313328D01*
X160575206Y-109144969D01*
X162326137Y-109481687D02*
X161989419Y-109144969D01*
X161619030Y-109448015D01*
X161686374Y-109448015D01*
X161787389Y-109481687D01*
X161955748Y-109650045D01*
X161989419Y-109751061D01*
X161989419Y-109818404D01*
X161955748Y-109919419D01*
X161787389Y-110087778D01*
X161686374Y-110121450D01*
X161619030Y-110121450D01*
X161518015Y-110087778D01*
X161349656Y-109919419D01*
X161315984Y-109818404D01*
X161315984Y-109751061D01*
X160575206Y-106477969D02*
X161282312Y-105770862D01*
X161450671Y-105939221D01*
X161518015Y-106073908D01*
X161518015Y-106208595D01*
X161484343Y-106309610D01*
X161383328Y-106477969D01*
X161282312Y-106578984D01*
X161113954Y-106680000D01*
X161012938Y-106713671D01*
X160878251Y-106713671D01*
X160743564Y-106646328D01*
X160575206Y-106477969D01*
X162292465Y-106781015D02*
X162157778Y-106646328D01*
X162056763Y-106612656D01*
X161989419Y-106612656D01*
X161821061Y-106646328D01*
X161652702Y-106747343D01*
X161383328Y-107016717D01*
X161349656Y-107117732D01*
X161349656Y-107185076D01*
X161383328Y-107286091D01*
X161518015Y-107420778D01*
X161619030Y-107454450D01*
X161686374Y-107454450D01*
X161787389Y-107420778D01*
X161955748Y-107252419D01*
X161989419Y-107151404D01*
X161989419Y-107084061D01*
X161955748Y-106983045D01*
X161821061Y-106848358D01*
X161720045Y-106814687D01*
X161652702Y-106814687D01*
X161551687Y-106848358D01*
X160575206Y-104064969D02*
X161282312Y-103357862D01*
X161450671Y-103526221D01*
X161518015Y-103660908D01*
X161518015Y-103795595D01*
X161484343Y-103896610D01*
X161383328Y-104064969D01*
X161282312Y-104165984D01*
X161113954Y-104267000D01*
X161012938Y-104300671D01*
X160878251Y-104300671D01*
X160743564Y-104233328D01*
X160575206Y-104064969D01*
X161922076Y-103997625D02*
X162393480Y-104469030D01*
X161383328Y-104873091D01*
X160575206Y-101524969D02*
X161282312Y-100817862D01*
X161450671Y-100986221D01*
X161518015Y-101120908D01*
X161518015Y-101255595D01*
X161484343Y-101356610D01*
X161383328Y-101524969D01*
X161282312Y-101625984D01*
X161113954Y-101727000D01*
X161012938Y-101760671D01*
X160878251Y-101760671D01*
X160743564Y-101693328D01*
X160575206Y-101524969D01*
X161787389Y-101929030D02*
X161753717Y-101828015D01*
X161753717Y-101760671D01*
X161787389Y-101659656D01*
X161821061Y-101625984D01*
X161922076Y-101592312D01*
X161989419Y-101592312D01*
X162090435Y-101625984D01*
X162225122Y-101760671D01*
X162258793Y-101861687D01*
X162258793Y-101929030D01*
X162225122Y-102030045D01*
X162191450Y-102063717D01*
X162090435Y-102097389D01*
X162023091Y-102097389D01*
X161922076Y-102063717D01*
X161787389Y-101929030D01*
X161686374Y-101895358D01*
X161619030Y-101895358D01*
X161518015Y-101929030D01*
X161383328Y-102063717D01*
X161349656Y-102164732D01*
X161349656Y-102232076D01*
X161383328Y-102333091D01*
X161518015Y-102467778D01*
X161619030Y-102501450D01*
X161686374Y-102501450D01*
X161787389Y-102467778D01*
X161922076Y-102333091D01*
X161955748Y-102232076D01*
X161955748Y-102164732D01*
X161922076Y-102063717D01*
X160575206Y-98857969D02*
X161282312Y-98150862D01*
X161450671Y-98319221D01*
X161518015Y-98453908D01*
X161518015Y-98588595D01*
X161484343Y-98689610D01*
X161383328Y-98857969D01*
X161282312Y-98958984D01*
X161113954Y-99060000D01*
X161012938Y-99093671D01*
X160878251Y-99093671D01*
X160743564Y-99026328D01*
X160575206Y-98857969D01*
X161315984Y-99598748D02*
X161450671Y-99733435D01*
X161551687Y-99767106D01*
X161619030Y-99767106D01*
X161787389Y-99733435D01*
X161955748Y-99632419D01*
X162225122Y-99363045D01*
X162258793Y-99262030D01*
X162258793Y-99194687D01*
X162225122Y-99093671D01*
X162090435Y-98958984D01*
X161989419Y-98925312D01*
X161922076Y-98925312D01*
X161821061Y-98958984D01*
X161652702Y-99127343D01*
X161619030Y-99228358D01*
X161619030Y-99295702D01*
X161652702Y-99396717D01*
X161787389Y-99531404D01*
X161888404Y-99565076D01*
X161955748Y-99565076D01*
X162056763Y-99531404D01*
X160111488Y-95600251D02*
X160818595Y-94893145D01*
X160986954Y-95061503D01*
X161054297Y-95196190D01*
X161054297Y-95330877D01*
X161020625Y-95431893D01*
X160919610Y-95600251D01*
X160818595Y-95701267D01*
X160650236Y-95802282D01*
X160549221Y-95835954D01*
X160414534Y-95835954D01*
X160279847Y-95768610D01*
X160111488Y-95600251D01*
X161188984Y-96677748D02*
X160784923Y-96273687D01*
X160986954Y-96475717D02*
X161694061Y-95768610D01*
X161525702Y-95802282D01*
X161391015Y-95802282D01*
X161290000Y-95768610D01*
X162333824Y-96408374D02*
X162401167Y-96475717D01*
X162434839Y-96576732D01*
X162434839Y-96644076D01*
X162401167Y-96745091D01*
X162300152Y-96913450D01*
X162131793Y-97081809D01*
X161963435Y-97182824D01*
X161862419Y-97216496D01*
X161795076Y-97216496D01*
X161694061Y-97182824D01*
X161626717Y-97115480D01*
X161593045Y-97014465D01*
X161593045Y-96947122D01*
X161626717Y-96846106D01*
X161727732Y-96677748D01*
X161896091Y-96509389D01*
X162064450Y-96408374D01*
X162165465Y-96374702D01*
X162232809Y-96374702D01*
X162333824Y-96408374D01*
X160111488Y-93187251D02*
X160818595Y-92480145D01*
X160986954Y-92648503D01*
X161054297Y-92783190D01*
X161054297Y-92917877D01*
X161020625Y-93018893D01*
X160919610Y-93187251D01*
X160818595Y-93288267D01*
X160650236Y-93389282D01*
X160549221Y-93422954D01*
X160414534Y-93422954D01*
X160279847Y-93355610D01*
X160111488Y-93187251D01*
X161188984Y-94264748D02*
X160784923Y-93860687D01*
X160986954Y-94062717D02*
X161694061Y-93355610D01*
X161525702Y-93389282D01*
X161391015Y-93389282D01*
X161290000Y-93355610D01*
X161862419Y-94938183D02*
X161458358Y-94534122D01*
X161660389Y-94736152D02*
X162367496Y-94029045D01*
X162199137Y-94062717D01*
X162064450Y-94062717D01*
X161963435Y-94029045D01*
X160365488Y-90774251D02*
X161072595Y-90067145D01*
X161240954Y-90235503D01*
X161308297Y-90370190D01*
X161308297Y-90504877D01*
X161274625Y-90605893D01*
X161173610Y-90774251D01*
X161072595Y-90875267D01*
X160904236Y-90976282D01*
X160803221Y-91009954D01*
X160668534Y-91009954D01*
X160533847Y-90942610D01*
X160365488Y-90774251D01*
X161442984Y-91851748D02*
X161038923Y-91447687D01*
X161240954Y-91649717D02*
X161948061Y-90942610D01*
X161779702Y-90976282D01*
X161645015Y-90976282D01*
X161544000Y-90942610D01*
X162352122Y-91481358D02*
X162419465Y-91481358D01*
X162520480Y-91515030D01*
X162688839Y-91683389D01*
X162722511Y-91784404D01*
X162722511Y-91851748D01*
X162688839Y-91952763D01*
X162621496Y-92020106D01*
X162486809Y-92087450D01*
X161678687Y-92087450D01*
X162116419Y-92525183D01*
X149194251Y-92491511D02*
X148487145Y-91784404D01*
X148655503Y-91616045D01*
X148790190Y-91548702D01*
X148924877Y-91548702D01*
X149025893Y-91582374D01*
X149194251Y-91683389D01*
X149295267Y-91784404D01*
X149396282Y-91952763D01*
X149429954Y-92053778D01*
X149429954Y-92188465D01*
X149362610Y-92323152D01*
X149194251Y-92491511D01*
X150271748Y-91414015D02*
X149867687Y-91818076D01*
X150069717Y-91616045D02*
X149362610Y-90908938D01*
X149396282Y-91077297D01*
X149396282Y-91211984D01*
X149362610Y-91313000D01*
X149800343Y-90471206D02*
X150238076Y-90033473D01*
X150271748Y-90538549D01*
X150372763Y-90437534D01*
X150473778Y-90403862D01*
X150541122Y-90403862D01*
X150642137Y-90437534D01*
X150810496Y-90605893D01*
X150844167Y-90706908D01*
X150844167Y-90774251D01*
X150810496Y-90875267D01*
X150608465Y-91077297D01*
X150507450Y-91110969D01*
X150440106Y-91110969D01*
X149077862Y-94572557D02*
X149212549Y-94505213D01*
X149380908Y-94336854D01*
X149414580Y-94235839D01*
X149414580Y-94168496D01*
X149380908Y-94067480D01*
X149313564Y-94000137D01*
X149212549Y-93966465D01*
X149145206Y-93966465D01*
X149044190Y-94000137D01*
X148875832Y-94101152D01*
X148774816Y-94134824D01*
X148707473Y-94134824D01*
X148606458Y-94101152D01*
X148539114Y-94033809D01*
X148505442Y-93932793D01*
X148505442Y-93865450D01*
X148539114Y-93764435D01*
X148707473Y-93596076D01*
X148842160Y-93528732D01*
X149818641Y-93899122D02*
X149111534Y-93192015D01*
X149279893Y-93023656D01*
X149414580Y-92956312D01*
X149549267Y-92956312D01*
X149650282Y-92989984D01*
X149818641Y-93091000D01*
X149919656Y-93192015D01*
X150020671Y-93360374D01*
X150054343Y-93461389D01*
X150054343Y-93596076D01*
X149987000Y-93730763D01*
X149818641Y-93899122D01*
X150290045Y-93023656D02*
X150626763Y-92686938D01*
X150424732Y-93293030D02*
X149953328Y-92350221D01*
X150896137Y-92821625D01*
X151502228Y-92215534D02*
X151098167Y-92619595D01*
X151300198Y-92417564D02*
X150593091Y-91710458D01*
X150626763Y-91878816D01*
X150626763Y-92013503D01*
X150593091Y-92114519D01*
X149094698Y-97095721D02*
X149229385Y-97028377D01*
X149397744Y-96860018D01*
X149431416Y-96759003D01*
X149431416Y-96691660D01*
X149397744Y-96590644D01*
X149330400Y-96523301D01*
X149229385Y-96489629D01*
X149162042Y-96489629D01*
X149061026Y-96523301D01*
X148892668Y-96624316D01*
X148791652Y-96657988D01*
X148724309Y-96657988D01*
X148623294Y-96624316D01*
X148555950Y-96556973D01*
X148522278Y-96455957D01*
X148522278Y-96388614D01*
X148555950Y-96287599D01*
X148724309Y-96119240D01*
X148858996Y-96051896D01*
X150172194Y-95950881D02*
X150172194Y-96018225D01*
X150104851Y-96152912D01*
X150037507Y-96220255D01*
X149902820Y-96287599D01*
X149768133Y-96287599D01*
X149667118Y-96253927D01*
X149498759Y-96152912D01*
X149397744Y-96051896D01*
X149296729Y-95883538D01*
X149263057Y-95782522D01*
X149263057Y-95647835D01*
X149330400Y-95513148D01*
X149397744Y-95445805D01*
X149532431Y-95378461D01*
X149599774Y-95378461D01*
X150879301Y-95378461D02*
X150542583Y-95715179D01*
X149835477Y-95008072D01*
X151485392Y-94772370D02*
X151081331Y-95176431D01*
X151283362Y-94974400D02*
X150576255Y-94267294D01*
X150609927Y-94435652D01*
X150609927Y-94570339D01*
X150576255Y-94671355D01*
X148837774Y-99428927D02*
X149174492Y-99092209D01*
X148972461Y-99698301D02*
X148501057Y-98755492D01*
X149443866Y-99226896D01*
X149107148Y-98149400D02*
X149174492Y-98082057D01*
X149275507Y-98048385D01*
X149342851Y-98048385D01*
X149443866Y-98082057D01*
X149612225Y-98183072D01*
X149780583Y-98351431D01*
X149881599Y-98519790D01*
X149915270Y-98620805D01*
X149915270Y-98688148D01*
X149881599Y-98789164D01*
X149814255Y-98856507D01*
X149713240Y-98890179D01*
X149645896Y-98890179D01*
X149544881Y-98856507D01*
X149376522Y-98755492D01*
X149208164Y-98587133D01*
X149107148Y-98418774D01*
X149073477Y-98317759D01*
X149073477Y-98250416D01*
X149107148Y-98149400D01*
X148837774Y-101968927D02*
X149174492Y-101632209D01*
X148972461Y-102238301D02*
X148501057Y-101295492D01*
X149443866Y-101766896D01*
X150049957Y-101160805D02*
X149645896Y-101564866D01*
X149847927Y-101362835D02*
X149140820Y-100655729D01*
X149174492Y-100824087D01*
X149174492Y-100958774D01*
X149140820Y-101059790D01*
X148837774Y-104508927D02*
X149174492Y-104172209D01*
X148972461Y-104778301D02*
X148501057Y-103835492D01*
X149443866Y-104306896D01*
X149006133Y-103465103D02*
X149006133Y-103397759D01*
X149039805Y-103296744D01*
X149208164Y-103128385D01*
X149309179Y-103094713D01*
X149376522Y-103094713D01*
X149477538Y-103128385D01*
X149544881Y-103195729D01*
X149612225Y-103330416D01*
X149612225Y-104138538D01*
X150049957Y-103700805D01*
X148837774Y-107175927D02*
X149174492Y-106839209D01*
X148972461Y-107445301D02*
X148501057Y-106502492D01*
X149443866Y-106973896D01*
X148905118Y-106098431D02*
X149342851Y-105660698D01*
X149376522Y-106165774D01*
X149477538Y-106064759D01*
X149578553Y-106031087D01*
X149645896Y-106031087D01*
X149746912Y-106064759D01*
X149915270Y-106233118D01*
X149948942Y-106334133D01*
X149948942Y-106401477D01*
X149915270Y-106502492D01*
X149713240Y-106704522D01*
X149612225Y-106738194D01*
X149544881Y-106738194D01*
X148837774Y-109588927D02*
X149174492Y-109252209D01*
X148972461Y-109858301D02*
X148501057Y-108915492D01*
X149443866Y-109386896D01*
X149511209Y-108376744D02*
X149982614Y-108848148D01*
X149073477Y-108275729D02*
X149410194Y-108949164D01*
X149847927Y-108511431D01*
X148837774Y-112255927D02*
X149174492Y-111919209D01*
X148972461Y-112525301D02*
X148501057Y-111582492D01*
X149443866Y-112053896D01*
X149309179Y-110774370D02*
X148972461Y-111111087D01*
X149275507Y-111481477D01*
X149275507Y-111414133D01*
X149309179Y-111313118D01*
X149477538Y-111144759D01*
X149578553Y-111111087D01*
X149645896Y-111111087D01*
X149746912Y-111144759D01*
X149915270Y-111313118D01*
X149948942Y-111414133D01*
X149948942Y-111481477D01*
X149915270Y-111582492D01*
X149746912Y-111750851D01*
X149645896Y-111784522D01*
X149578553Y-111784522D01*
X148837774Y-114668927D02*
X149174492Y-114332209D01*
X148972461Y-114938301D02*
X148501057Y-113995492D01*
X149443866Y-114466896D01*
X149275507Y-113221042D02*
X149140820Y-113355729D01*
X149107148Y-113456744D01*
X149107148Y-113524087D01*
X149140820Y-113692446D01*
X149241835Y-113860805D01*
X149511209Y-114130179D01*
X149612225Y-114163851D01*
X149679568Y-114163851D01*
X149780583Y-114130179D01*
X149915270Y-113995492D01*
X149948942Y-113894477D01*
X149948942Y-113827133D01*
X149915270Y-113726118D01*
X149746912Y-113557759D01*
X149645896Y-113524087D01*
X149578553Y-113524087D01*
X149477538Y-113557759D01*
X149342851Y-113692446D01*
X149309179Y-113793461D01*
X149309179Y-113860805D01*
X149342851Y-113961820D01*
X148837774Y-117208927D02*
X149174492Y-116872209D01*
X148972461Y-117478301D02*
X148501057Y-116535492D01*
X149443866Y-117006896D01*
X148905118Y-116131431D02*
X149376522Y-115660026D01*
X149780583Y-116670179D01*
X148833011Y-119753690D02*
X149169729Y-119416973D01*
X148967698Y-120023064D02*
X148496294Y-119080255D01*
X149439103Y-119551660D01*
X150078866Y-118911896D02*
X149506446Y-118810881D01*
X149674805Y-119315957D02*
X148967698Y-118608851D01*
X149237072Y-118339477D01*
X149338087Y-118305805D01*
X149405431Y-118305805D01*
X149506446Y-118339477D01*
X149607461Y-118440492D01*
X149641133Y-118541507D01*
X149641133Y-118608851D01*
X149607461Y-118709866D01*
X149338087Y-118979240D01*
X150011522Y-118238461D02*
X150247225Y-118002759D01*
X150718629Y-118272133D02*
X150381912Y-118608851D01*
X149674805Y-117901744D01*
X150011522Y-117565026D01*
X150886988Y-117362996D02*
X150651286Y-117598698D01*
X151021675Y-117969087D02*
X150314568Y-117261981D01*
X150651286Y-116925263D01*
X148620370Y-122625644D02*
X149159118Y-122086896D01*
X149159118Y-122625644D02*
X148620370Y-122086896D01*
X149394820Y-120975729D02*
X149058103Y-121312446D01*
X149361148Y-121682835D01*
X149361148Y-121615492D01*
X149394820Y-121514477D01*
X149563179Y-121346118D01*
X149664194Y-121312446D01*
X149731538Y-121312446D01*
X149832553Y-121346118D01*
X150000912Y-121514477D01*
X150034583Y-121615492D01*
X150034583Y-121682835D01*
X150000912Y-121783851D01*
X149832553Y-121952209D01*
X149731538Y-121985881D01*
X149664194Y-121985881D01*
X149630522Y-120740026D02*
X150573331Y-121211431D01*
X150101927Y-120268622D01*
X148713698Y-124391194D02*
X148612683Y-124424866D01*
X148511668Y-124525881D01*
X148444324Y-124660568D01*
X148444324Y-124795255D01*
X148477996Y-124896270D01*
X148579011Y-125064629D01*
X148680026Y-125165644D01*
X148848385Y-125266660D01*
X148949400Y-125300331D01*
X149084087Y-125300331D01*
X149218774Y-125232988D01*
X149286118Y-125165644D01*
X149353461Y-125030957D01*
X149353461Y-124963614D01*
X149117759Y-124727912D01*
X148983072Y-124862599D01*
X149723851Y-124727912D02*
X149016744Y-124020805D01*
X150127912Y-124323851D01*
X149420805Y-123616744D01*
X150464629Y-123987133D02*
X149757522Y-123280026D01*
X149925881Y-123111668D01*
X150060568Y-123044324D01*
X150195255Y-123044324D01*
X150296270Y-123077996D01*
X150464629Y-123179011D01*
X150565644Y-123280026D01*
X150666660Y-123448385D01*
X150700331Y-123549400D01*
X150700331Y-123684087D01*
X150632988Y-123818774D01*
X150464629Y-123987133D01*
X148571324Y-127133225D02*
X149514133Y-127604629D01*
X149042729Y-126661820D01*
X149985538Y-127133225D02*
X149278431Y-126426118D01*
X150322255Y-126796507D02*
X149615148Y-126089400D01*
X150726316Y-126392446D01*
X150019209Y-125685339D01*
%TO.C,U1*%
X158218119Y-109499495D02*
X157408595Y-109499495D01*
X157313357Y-109547114D01*
X157265738Y-109594733D01*
X157218119Y-109689971D01*
X157218119Y-109880447D01*
X157265738Y-109975685D01*
X157313357Y-110023304D01*
X157408595Y-110070923D01*
X158218119Y-110070923D01*
X157218119Y-111070923D02*
X157218119Y-110499495D01*
X157218119Y-110785209D02*
X158218119Y-110785209D01*
X158075261Y-110689971D01*
X157980023Y-110594733D01*
X157932404Y-110499495D01*
%TO.C,R14*%
X126055380Y-106433857D02*
X125579190Y-106767190D01*
X126055380Y-107005285D02*
X125055380Y-107005285D01*
X125055380Y-106624333D01*
X125103000Y-106529095D01*
X125150619Y-106481476D01*
X125245857Y-106433857D01*
X125388714Y-106433857D01*
X125483952Y-106481476D01*
X125531571Y-106529095D01*
X125579190Y-106624333D01*
X125579190Y-107005285D01*
X126055380Y-105481476D02*
X126055380Y-106052904D01*
X126055380Y-105767190D02*
X125055380Y-105767190D01*
X125198238Y-105862428D01*
X125293476Y-105957666D01*
X125341095Y-106052904D01*
X125388714Y-104624333D02*
X126055380Y-104624333D01*
X125007761Y-104862428D02*
X125722047Y-105100523D01*
X125722047Y-104481476D01*
X125388714Y-103052476D02*
X126055380Y-103052476D01*
X125007761Y-103290571D02*
X125722047Y-103528666D01*
X125722047Y-102909619D01*
X126055380Y-102528666D02*
X125055380Y-102528666D01*
X125674428Y-102433428D02*
X126055380Y-102147714D01*
X125388714Y-102147714D02*
X125769666Y-102528666D01*
X125055380Y-101814380D02*
X125055380Y-101147714D01*
X126055380Y-101576285D01*
%TO.C,R13*%
X122880380Y-106560857D02*
X122404190Y-106894190D01*
X122880380Y-107132285D02*
X121880380Y-107132285D01*
X121880380Y-106751333D01*
X121928000Y-106656095D01*
X121975619Y-106608476D01*
X122070857Y-106560857D01*
X122213714Y-106560857D01*
X122308952Y-106608476D01*
X122356571Y-106656095D01*
X122404190Y-106751333D01*
X122404190Y-107132285D01*
X122880380Y-105608476D02*
X122880380Y-106179904D01*
X122880380Y-105894190D02*
X121880380Y-105894190D01*
X122023238Y-105989428D01*
X122118476Y-106084666D01*
X122166095Y-106179904D01*
X121880380Y-105275142D02*
X121880380Y-104656095D01*
X122261333Y-104989428D01*
X122261333Y-104846571D01*
X122308952Y-104751333D01*
X122356571Y-104703714D01*
X122451809Y-104656095D01*
X122689904Y-104656095D01*
X122785142Y-104703714D01*
X122832761Y-104751333D01*
X122880380Y-104846571D01*
X122880380Y-105132285D01*
X122832761Y-105227523D01*
X122785142Y-105275142D01*
X122213714Y-103052476D02*
X122880380Y-103052476D01*
X121832761Y-103290571D02*
X122547047Y-103528666D01*
X122547047Y-102909619D01*
X122880380Y-102528666D02*
X121880380Y-102528666D01*
X122499428Y-102433428D02*
X122880380Y-102147714D01*
X122213714Y-102147714D02*
X122594666Y-102528666D01*
X121880380Y-101814380D02*
X121880380Y-101147714D01*
X122880380Y-101576285D01*
%TO.C,R12*%
X151455380Y-66047857D02*
X150979190Y-66381190D01*
X151455380Y-66619285D02*
X150455380Y-66619285D01*
X150455380Y-66238333D01*
X150503000Y-66143095D01*
X150550619Y-66095476D01*
X150645857Y-66047857D01*
X150788714Y-66047857D01*
X150883952Y-66095476D01*
X150931571Y-66143095D01*
X150979190Y-66238333D01*
X150979190Y-66619285D01*
X151455380Y-65095476D02*
X151455380Y-65666904D01*
X151455380Y-65381190D02*
X150455380Y-65381190D01*
X150598238Y-65476428D01*
X150693476Y-65571666D01*
X150741095Y-65666904D01*
X150550619Y-64714523D02*
X150503000Y-64666904D01*
X150455380Y-64571666D01*
X150455380Y-64333571D01*
X150503000Y-64238333D01*
X150550619Y-64190714D01*
X150645857Y-64143095D01*
X150741095Y-64143095D01*
X150883952Y-64190714D01*
X151455380Y-64762142D01*
X151455380Y-64143095D01*
X151455380Y-59015238D02*
X151455380Y-59586666D01*
X151455380Y-59300952D02*
X150455380Y-59300952D01*
X150598238Y-59396190D01*
X150693476Y-59491428D01*
X150741095Y-59586666D01*
X150455380Y-58396190D02*
X150455380Y-58300952D01*
X150503000Y-58205714D01*
X150550619Y-58158095D01*
X150645857Y-58110476D01*
X150836333Y-58062857D01*
X151074428Y-58062857D01*
X151264904Y-58110476D01*
X151360142Y-58158095D01*
X151407761Y-58205714D01*
X151455380Y-58300952D01*
X151455380Y-58396190D01*
X151407761Y-58491428D01*
X151360142Y-58539047D01*
X151264904Y-58586666D01*
X151074428Y-58634285D01*
X150836333Y-58634285D01*
X150645857Y-58586666D01*
X150550619Y-58539047D01*
X150503000Y-58491428D01*
X150455380Y-58396190D01*
X151455380Y-57634285D02*
X150455380Y-57634285D01*
X151074428Y-57539047D02*
X151455380Y-57253333D01*
X150788714Y-57253333D02*
X151169666Y-57634285D01*
%TO.C,R11*%
X161488380Y-66047857D02*
X161012190Y-66381190D01*
X161488380Y-66619285D02*
X160488380Y-66619285D01*
X160488380Y-66238333D01*
X160536000Y-66143095D01*
X160583619Y-66095476D01*
X160678857Y-66047857D01*
X160821714Y-66047857D01*
X160916952Y-66095476D01*
X160964571Y-66143095D01*
X161012190Y-66238333D01*
X161012190Y-66619285D01*
X161488380Y-65095476D02*
X161488380Y-65666904D01*
X161488380Y-65381190D02*
X160488380Y-65381190D01*
X160631238Y-65476428D01*
X160726476Y-65571666D01*
X160774095Y-65666904D01*
X161488380Y-64143095D02*
X161488380Y-64714523D01*
X161488380Y-64428809D02*
X160488380Y-64428809D01*
X160631238Y-64524047D01*
X160726476Y-64619285D01*
X160774095Y-64714523D01*
X161361380Y-58888238D02*
X161361380Y-59459666D01*
X161361380Y-59173952D02*
X160361380Y-59173952D01*
X160504238Y-59269190D01*
X160599476Y-59364428D01*
X160647095Y-59459666D01*
X160361380Y-58269190D02*
X160361380Y-58173952D01*
X160409000Y-58078714D01*
X160456619Y-58031095D01*
X160551857Y-57983476D01*
X160742333Y-57935857D01*
X160980428Y-57935857D01*
X161170904Y-57983476D01*
X161266142Y-58031095D01*
X161313761Y-58078714D01*
X161361380Y-58173952D01*
X161361380Y-58269190D01*
X161313761Y-58364428D01*
X161266142Y-58412047D01*
X161170904Y-58459666D01*
X160980428Y-58507285D01*
X160742333Y-58507285D01*
X160551857Y-58459666D01*
X160456619Y-58412047D01*
X160409000Y-58364428D01*
X160361380Y-58269190D01*
X161361380Y-57507285D02*
X160361380Y-57507285D01*
X160980428Y-57412047D02*
X161361380Y-57126333D01*
X160694714Y-57126333D02*
X161075666Y-57507285D01*
%TO.C,J4*%
X115768380Y-121880190D02*
X114768380Y-121880190D01*
X114863619Y-121451619D02*
X114816000Y-121404000D01*
X114768380Y-121308761D01*
X114768380Y-121070666D01*
X114816000Y-120975428D01*
X114863619Y-120927809D01*
X114958857Y-120880190D01*
X115054095Y-120880190D01*
X115196952Y-120927809D01*
X115768380Y-121499238D01*
X115768380Y-120880190D01*
X115673142Y-119880190D02*
X115720761Y-119927809D01*
X115768380Y-120070666D01*
X115768380Y-120165904D01*
X115720761Y-120308761D01*
X115625523Y-120404000D01*
X115530285Y-120451619D01*
X115339809Y-120499238D01*
X115196952Y-120499238D01*
X115006476Y-120451619D01*
X114911238Y-120404000D01*
X114816000Y-120308761D01*
X114768380Y-120165904D01*
X114768380Y-120070666D01*
X114816000Y-119927809D01*
X114863619Y-119880190D01*
%TO.C,R10*%
X168854380Y-73159857D02*
X168378190Y-73493190D01*
X168854380Y-73731285D02*
X167854380Y-73731285D01*
X167854380Y-73350333D01*
X167902000Y-73255095D01*
X167949619Y-73207476D01*
X168044857Y-73159857D01*
X168187714Y-73159857D01*
X168282952Y-73207476D01*
X168330571Y-73255095D01*
X168378190Y-73350333D01*
X168378190Y-73731285D01*
X168854380Y-72207476D02*
X168854380Y-72778904D01*
X168854380Y-72493190D02*
X167854380Y-72493190D01*
X167997238Y-72588428D01*
X168092476Y-72683666D01*
X168140095Y-72778904D01*
X167854380Y-71588428D02*
X167854380Y-71493190D01*
X167902000Y-71397952D01*
X167949619Y-71350333D01*
X168044857Y-71302714D01*
X168235333Y-71255095D01*
X168473428Y-71255095D01*
X168663904Y-71302714D01*
X168759142Y-71350333D01*
X168806761Y-71397952D01*
X168854380Y-71493190D01*
X168854380Y-71588428D01*
X168806761Y-71683666D01*
X168759142Y-71731285D01*
X168663904Y-71778904D01*
X168473428Y-71826523D01*
X168235333Y-71826523D01*
X168044857Y-71778904D01*
X167949619Y-71731285D01*
X167902000Y-71683666D01*
X167854380Y-71588428D01*
X165579619Y-73755095D02*
X165532000Y-73707476D01*
X165484380Y-73612238D01*
X165484380Y-73374142D01*
X165532000Y-73278904D01*
X165579619Y-73231285D01*
X165674857Y-73183666D01*
X165770095Y-73183666D01*
X165912952Y-73231285D01*
X166484380Y-73802714D01*
X166484380Y-73183666D01*
X165579619Y-72802714D02*
X165532000Y-72755095D01*
X165484380Y-72659857D01*
X165484380Y-72421761D01*
X165532000Y-72326523D01*
X165579619Y-72278904D01*
X165674857Y-72231285D01*
X165770095Y-72231285D01*
X165912952Y-72278904D01*
X166484380Y-72850333D01*
X166484380Y-72231285D01*
X165484380Y-71612238D02*
X165484380Y-71517000D01*
X165532000Y-71421761D01*
X165579619Y-71374142D01*
X165674857Y-71326523D01*
X165865333Y-71278904D01*
X166103428Y-71278904D01*
X166293904Y-71326523D01*
X166389142Y-71374142D01*
X166436761Y-71421761D01*
X166484380Y-71517000D01*
X166484380Y-71612238D01*
X166436761Y-71707476D01*
X166389142Y-71755095D01*
X166293904Y-71802714D01*
X166103428Y-71850333D01*
X165865333Y-71850333D01*
X165674857Y-71802714D01*
X165579619Y-71755095D01*
X165532000Y-71707476D01*
X165484380Y-71612238D01*
%TO.C,R9*%
X168854380Y-83605666D02*
X168378190Y-83939000D01*
X168854380Y-84177095D02*
X167854380Y-84177095D01*
X167854380Y-83796142D01*
X167902000Y-83700904D01*
X167949619Y-83653285D01*
X168044857Y-83605666D01*
X168187714Y-83605666D01*
X168282952Y-83653285D01*
X168330571Y-83700904D01*
X168378190Y-83796142D01*
X168378190Y-84177095D01*
X168854380Y-83129476D02*
X168854380Y-82939000D01*
X168806761Y-82843761D01*
X168759142Y-82796142D01*
X168616285Y-82700904D01*
X168425809Y-82653285D01*
X168044857Y-82653285D01*
X167949619Y-82700904D01*
X167902000Y-82748523D01*
X167854380Y-82843761D01*
X167854380Y-83034238D01*
X167902000Y-83129476D01*
X167949619Y-83177095D01*
X168044857Y-83224714D01*
X168282952Y-83224714D01*
X168378190Y-83177095D01*
X168425809Y-83129476D01*
X168473428Y-83034238D01*
X168473428Y-82843761D01*
X168425809Y-82748523D01*
X168378190Y-82700904D01*
X168282952Y-82653285D01*
X165663619Y-84677095D02*
X165616000Y-84629476D01*
X165568380Y-84534238D01*
X165568380Y-84296142D01*
X165616000Y-84200904D01*
X165663619Y-84153285D01*
X165758857Y-84105666D01*
X165854095Y-84105666D01*
X165996952Y-84153285D01*
X166568380Y-84724714D01*
X166568380Y-84105666D01*
X165663619Y-83724714D02*
X165616000Y-83677095D01*
X165568380Y-83581857D01*
X165568380Y-83343761D01*
X165616000Y-83248523D01*
X165663619Y-83200904D01*
X165758857Y-83153285D01*
X165854095Y-83153285D01*
X165996952Y-83200904D01*
X166568380Y-83772333D01*
X166568380Y-83153285D01*
X165568380Y-82534238D02*
X165568380Y-82439000D01*
X165616000Y-82343761D01*
X165663619Y-82296142D01*
X165758857Y-82248523D01*
X165949333Y-82200904D01*
X166187428Y-82200904D01*
X166377904Y-82248523D01*
X166473142Y-82296142D01*
X166520761Y-82343761D01*
X166568380Y-82439000D01*
X166568380Y-82534238D01*
X166520761Y-82629476D01*
X166473142Y-82677095D01*
X166377904Y-82724714D01*
X166187428Y-82772333D01*
X165949333Y-82772333D01*
X165758857Y-82724714D01*
X165663619Y-82677095D01*
X165616000Y-82629476D01*
X165568380Y-82534238D01*
%TO.C,R8*%
X149947333Y-87828380D02*
X149614000Y-87352190D01*
X149375904Y-87828380D02*
X149375904Y-86828380D01*
X149756857Y-86828380D01*
X149852095Y-86876000D01*
X149899714Y-86923619D01*
X149947333Y-87018857D01*
X149947333Y-87161714D01*
X149899714Y-87256952D01*
X149852095Y-87304571D01*
X149756857Y-87352190D01*
X149375904Y-87352190D01*
X150518761Y-87256952D02*
X150423523Y-87209333D01*
X150375904Y-87161714D01*
X150328285Y-87066476D01*
X150328285Y-87018857D01*
X150375904Y-86923619D01*
X150423523Y-86876000D01*
X150518761Y-86828380D01*
X150709238Y-86828380D01*
X150804476Y-86876000D01*
X150852095Y-86923619D01*
X150899714Y-87018857D01*
X150899714Y-87066476D01*
X150852095Y-87161714D01*
X150804476Y-87209333D01*
X150709238Y-87256952D01*
X150518761Y-87256952D01*
X150423523Y-87304571D01*
X150375904Y-87352190D01*
X150328285Y-87447428D01*
X150328285Y-87637904D01*
X150375904Y-87733142D01*
X150423523Y-87780761D01*
X150518761Y-87828380D01*
X150709238Y-87828380D01*
X150804476Y-87780761D01*
X150852095Y-87733142D01*
X150899714Y-87637904D01*
X150899714Y-87447428D01*
X150852095Y-87352190D01*
X150804476Y-87304571D01*
X150709238Y-87256952D01*
X161599714Y-86701380D02*
X162218761Y-86701380D01*
X161885428Y-87082333D01*
X162028285Y-87082333D01*
X162123523Y-87129952D01*
X162171142Y-87177571D01*
X162218761Y-87272809D01*
X162218761Y-87510904D01*
X162171142Y-87606142D01*
X162123523Y-87653761D01*
X162028285Y-87701380D01*
X161742571Y-87701380D01*
X161647333Y-87653761D01*
X161599714Y-87606142D01*
X162647333Y-87701380D02*
X162647333Y-86701380D01*
X162742571Y-87320428D02*
X163028285Y-87701380D01*
X163028285Y-87034714D02*
X162647333Y-87415666D01*
X163361619Y-86701380D02*
X163980666Y-86701380D01*
X163647333Y-87082333D01*
X163790190Y-87082333D01*
X163885428Y-87129952D01*
X163933047Y-87177571D01*
X163980666Y-87272809D01*
X163980666Y-87510904D01*
X163933047Y-87606142D01*
X163885428Y-87653761D01*
X163790190Y-87701380D01*
X163504476Y-87701380D01*
X163409238Y-87653761D01*
X163361619Y-87606142D01*
%TO.C,R7*%
X203541333Y-71529380D02*
X203208000Y-71053190D01*
X202969904Y-71529380D02*
X202969904Y-70529380D01*
X203350857Y-70529380D01*
X203446095Y-70577000D01*
X203493714Y-70624619D01*
X203541333Y-70719857D01*
X203541333Y-70862714D01*
X203493714Y-70957952D01*
X203446095Y-71005571D01*
X203350857Y-71053190D01*
X202969904Y-71053190D01*
X203874666Y-70529380D02*
X204541333Y-70529380D01*
X204112761Y-71529380D01*
%TO.C,C2*%
X144629142Y-82375666D02*
X144676761Y-82423285D01*
X144724380Y-82566142D01*
X144724380Y-82661380D01*
X144676761Y-82804238D01*
X144581523Y-82899476D01*
X144486285Y-82947095D01*
X144295809Y-82994714D01*
X144152952Y-82994714D01*
X143962476Y-82947095D01*
X143867238Y-82899476D01*
X143772000Y-82804238D01*
X143724380Y-82661380D01*
X143724380Y-82566142D01*
X143772000Y-82423285D01*
X143819619Y-82375666D01*
X143819619Y-81994714D02*
X143772000Y-81947095D01*
X143724380Y-81851857D01*
X143724380Y-81613761D01*
X143772000Y-81518523D01*
X143819619Y-81470904D01*
X143914857Y-81423285D01*
X144010095Y-81423285D01*
X144152952Y-81470904D01*
X144724380Y-82042333D01*
X144724380Y-81423285D01*
X141295380Y-82804238D02*
X141295380Y-83375666D01*
X141295380Y-83089952D02*
X140295380Y-83089952D01*
X140438238Y-83185190D01*
X140533476Y-83280428D01*
X140581095Y-83375666D01*
X140628714Y-81947095D02*
X141295380Y-81947095D01*
X140628714Y-82375666D02*
X141152523Y-82375666D01*
X141247761Y-82328047D01*
X141295380Y-82232809D01*
X141295380Y-82089952D01*
X141247761Y-81994714D01*
X141200142Y-81947095D01*
X140771571Y-81137571D02*
X140771571Y-81470904D01*
X141295380Y-81470904D02*
X140295380Y-81470904D01*
X140295380Y-80994714D01*
%TO.C,C1*%
X144629142Y-74334666D02*
X144676761Y-74382285D01*
X144724380Y-74525142D01*
X144724380Y-74620380D01*
X144676761Y-74763238D01*
X144581523Y-74858476D01*
X144486285Y-74906095D01*
X144295809Y-74953714D01*
X144152952Y-74953714D01*
X143962476Y-74906095D01*
X143867238Y-74858476D01*
X143772000Y-74763238D01*
X143724380Y-74620380D01*
X143724380Y-74525142D01*
X143772000Y-74382285D01*
X143819619Y-74334666D01*
X144724380Y-73382285D02*
X144724380Y-73953714D01*
X144724380Y-73668000D02*
X143724380Y-73668000D01*
X143867238Y-73763238D01*
X143962476Y-73858476D01*
X144010095Y-73953714D01*
X141274380Y-74763238D02*
X141274380Y-75334666D01*
X141274380Y-75048952D02*
X140274380Y-75048952D01*
X140417238Y-75144190D01*
X140512476Y-75239428D01*
X140560095Y-75334666D01*
X140607714Y-73906095D02*
X141274380Y-73906095D01*
X140607714Y-74334666D02*
X141131523Y-74334666D01*
X141226761Y-74287047D01*
X141274380Y-74191809D01*
X141274380Y-74048952D01*
X141226761Y-73953714D01*
X141179142Y-73906095D01*
X140750571Y-73096571D02*
X140750571Y-73429904D01*
X141274380Y-73429904D02*
X140274380Y-73429904D01*
X140274380Y-72953714D01*
%TO.C,SW3*%
X164909666Y-57046761D02*
X165052523Y-57094380D01*
X165290619Y-57094380D01*
X165385857Y-57046761D01*
X165433476Y-56999142D01*
X165481095Y-56903904D01*
X165481095Y-56808666D01*
X165433476Y-56713428D01*
X165385857Y-56665809D01*
X165290619Y-56618190D01*
X165100142Y-56570571D01*
X165004904Y-56522952D01*
X164957285Y-56475333D01*
X164909666Y-56380095D01*
X164909666Y-56284857D01*
X164957285Y-56189619D01*
X165004904Y-56142000D01*
X165100142Y-56094380D01*
X165338238Y-56094380D01*
X165481095Y-56142000D01*
X165814428Y-56094380D02*
X166052523Y-57094380D01*
X166243000Y-56380095D01*
X166433476Y-57094380D01*
X166671571Y-56094380D01*
X166957285Y-56094380D02*
X167576333Y-56094380D01*
X167243000Y-56475333D01*
X167385857Y-56475333D01*
X167481095Y-56522952D01*
X167528714Y-56570571D01*
X167576333Y-56665809D01*
X167576333Y-56903904D01*
X167528714Y-56999142D01*
X167481095Y-57046761D01*
X167385857Y-57094380D01*
X167100142Y-57094380D01*
X167004904Y-57046761D01*
X166957285Y-56999142D01*
%TO.C,SW2*%
X144081666Y-56665761D02*
X144224523Y-56713380D01*
X144462619Y-56713380D01*
X144557857Y-56665761D01*
X144605476Y-56618142D01*
X144653095Y-56522904D01*
X144653095Y-56427666D01*
X144605476Y-56332428D01*
X144557857Y-56284809D01*
X144462619Y-56237190D01*
X144272142Y-56189571D01*
X144176904Y-56141952D01*
X144129285Y-56094333D01*
X144081666Y-55999095D01*
X144081666Y-55903857D01*
X144129285Y-55808619D01*
X144176904Y-55761000D01*
X144272142Y-55713380D01*
X144510238Y-55713380D01*
X144653095Y-55761000D01*
X144986428Y-55713380D02*
X145224523Y-56713380D01*
X145415000Y-55999095D01*
X145605476Y-56713380D01*
X145843571Y-55713380D01*
X146176904Y-55808619D02*
X146224523Y-55761000D01*
X146319761Y-55713380D01*
X146557857Y-55713380D01*
X146653095Y-55761000D01*
X146700714Y-55808619D01*
X146748333Y-55903857D01*
X146748333Y-55999095D01*
X146700714Y-56141952D01*
X146129285Y-56713380D01*
X146748333Y-56713380D01*
%TO.C,SW1*%
X152931761Y-79438333D02*
X152979380Y-79295476D01*
X152979380Y-79057380D01*
X152931761Y-78962142D01*
X152884142Y-78914523D01*
X152788904Y-78866904D01*
X152693666Y-78866904D01*
X152598428Y-78914523D01*
X152550809Y-78962142D01*
X152503190Y-79057380D01*
X152455571Y-79247857D01*
X152407952Y-79343095D01*
X152360333Y-79390714D01*
X152265095Y-79438333D01*
X152169857Y-79438333D01*
X152074619Y-79390714D01*
X152027000Y-79343095D01*
X151979380Y-79247857D01*
X151979380Y-79009761D01*
X152027000Y-78866904D01*
X151979380Y-78533571D02*
X152979380Y-78295476D01*
X152265095Y-78105000D01*
X152979380Y-77914523D01*
X151979380Y-77676428D01*
X152979380Y-76771666D02*
X152979380Y-77343095D01*
X152979380Y-77057380D02*
X151979380Y-77057380D01*
X152122238Y-77152619D01*
X152217476Y-77247857D01*
X152265095Y-77343095D01*
%TO.C,U2*%
X116459095Y-63416380D02*
X116459095Y-64225904D01*
X116506714Y-64321142D01*
X116554333Y-64368761D01*
X116649571Y-64416380D01*
X116840047Y-64416380D01*
X116935285Y-64368761D01*
X116982904Y-64321142D01*
X117030523Y-64225904D01*
X117030523Y-63416380D01*
X117459095Y-63511619D02*
X117506714Y-63464000D01*
X117601952Y-63416380D01*
X117840047Y-63416380D01*
X117935285Y-63464000D01*
X117982904Y-63511619D01*
X118030523Y-63606857D01*
X118030523Y-63702095D01*
X117982904Y-63844952D01*
X117411476Y-64416380D01*
X118030523Y-64416380D01*
X115459095Y-75696380D02*
X115268619Y-75696380D01*
X115173380Y-75744000D01*
X115125761Y-75791619D01*
X115030523Y-75934476D01*
X114982904Y-76124952D01*
X114982904Y-76505904D01*
X115030523Y-76601142D01*
X115078142Y-76648761D01*
X115173380Y-76696380D01*
X115363857Y-76696380D01*
X115459095Y-76648761D01*
X115506714Y-76601142D01*
X115554333Y-76505904D01*
X115554333Y-76267809D01*
X115506714Y-76172571D01*
X115459095Y-76124952D01*
X115363857Y-76077333D01*
X115173380Y-76077333D01*
X115078142Y-76124952D01*
X115030523Y-76172571D01*
X114982904Y-76267809D01*
X115982904Y-76696380D02*
X115982904Y-75696380D01*
X116554333Y-76696380D01*
X116554333Y-75696380D01*
X117554333Y-76696380D02*
X116982904Y-76696380D01*
X117268619Y-76696380D02*
X117268619Y-75696380D01*
X117173380Y-75839238D01*
X117078142Y-75934476D01*
X116982904Y-75982095D01*
X117887666Y-75696380D02*
X118506714Y-75696380D01*
X118173380Y-76077333D01*
X118316238Y-76077333D01*
X118411476Y-76124952D01*
X118459095Y-76172571D01*
X118506714Y-76267809D01*
X118506714Y-76505904D01*
X118459095Y-76601142D01*
X118411476Y-76648761D01*
X118316238Y-76696380D01*
X118030523Y-76696380D01*
X117935285Y-76648761D01*
X117887666Y-76601142D01*
X118982904Y-76696380D02*
X119173380Y-76696380D01*
X119268619Y-76648761D01*
X119316238Y-76601142D01*
X119411476Y-76458285D01*
X119459095Y-76267809D01*
X119459095Y-75886857D01*
X119411476Y-75791619D01*
X119363857Y-75744000D01*
X119268619Y-75696380D01*
X119078142Y-75696380D01*
X118982904Y-75744000D01*
X118935285Y-75791619D01*
X118887666Y-75886857D01*
X118887666Y-76124952D01*
X118935285Y-76220190D01*
X118982904Y-76267809D01*
X119078142Y-76315428D01*
X119268619Y-76315428D01*
X119363857Y-76267809D01*
X119411476Y-76220190D01*
X119459095Y-76124952D01*
%TO.C,D1*%
X110815380Y-64873095D02*
X109815380Y-64873095D01*
X109815380Y-64635000D01*
X109863000Y-64492142D01*
X109958238Y-64396904D01*
X110053476Y-64349285D01*
X110243952Y-64301666D01*
X110386809Y-64301666D01*
X110577285Y-64349285D01*
X110672523Y-64396904D01*
X110767761Y-64492142D01*
X110815380Y-64635000D01*
X110815380Y-64873095D01*
X110815380Y-63349285D02*
X110815380Y-63920714D01*
X110815380Y-63635000D02*
X109815380Y-63635000D01*
X109958238Y-63730238D01*
X110053476Y-63825476D01*
X110101095Y-63920714D01*
X110815380Y-61197857D02*
X110815380Y-61769285D01*
X110815380Y-61483571D02*
X109815380Y-61483571D01*
X109958238Y-61578809D01*
X110053476Y-61674047D01*
X110101095Y-61769285D01*
X110815380Y-60769285D02*
X109815380Y-60769285D01*
X110815380Y-60197857D01*
X109815380Y-60197857D01*
X110148714Y-59293095D02*
X110815380Y-59293095D01*
X109767761Y-59531190D02*
X110482047Y-59769285D01*
X110482047Y-59150238D01*
X110815380Y-58245476D02*
X110815380Y-58816904D01*
X110815380Y-58531190D02*
X109815380Y-58531190D01*
X109958238Y-58626428D01*
X110053476Y-58721666D01*
X110101095Y-58816904D01*
X110148714Y-57388333D02*
X110815380Y-57388333D01*
X109767761Y-57626428D02*
X110482047Y-57864523D01*
X110482047Y-57245476D01*
X110243952Y-56721666D02*
X110196333Y-56816904D01*
X110148714Y-56864523D01*
X110053476Y-56912142D01*
X110005857Y-56912142D01*
X109910619Y-56864523D01*
X109863000Y-56816904D01*
X109815380Y-56721666D01*
X109815380Y-56531190D01*
X109863000Y-56435952D01*
X109910619Y-56388333D01*
X110005857Y-56340714D01*
X110053476Y-56340714D01*
X110148714Y-56388333D01*
X110196333Y-56435952D01*
X110243952Y-56531190D01*
X110243952Y-56721666D01*
X110291571Y-56816904D01*
X110339190Y-56864523D01*
X110434428Y-56912142D01*
X110624904Y-56912142D01*
X110720142Y-56864523D01*
X110767761Y-56816904D01*
X110815380Y-56721666D01*
X110815380Y-56531190D01*
X110767761Y-56435952D01*
X110720142Y-56388333D01*
X110624904Y-56340714D01*
X110434428Y-56340714D01*
X110339190Y-56388333D01*
X110291571Y-56435952D01*
X110243952Y-56531190D01*
%TO.C,Q1*%
X131476761Y-83376619D02*
X131381523Y-83329000D01*
X131286285Y-83233761D01*
X131143428Y-83090904D01*
X131048190Y-83043285D01*
X130952952Y-83043285D01*
X131000571Y-83281380D02*
X130905333Y-83233761D01*
X130810095Y-83138523D01*
X130762476Y-82948047D01*
X130762476Y-82614714D01*
X130810095Y-82424238D01*
X130905333Y-82329000D01*
X131000571Y-82281380D01*
X131191047Y-82281380D01*
X131286285Y-82329000D01*
X131381523Y-82424238D01*
X131429142Y-82614714D01*
X131429142Y-82948047D01*
X131381523Y-83138523D01*
X131286285Y-83233761D01*
X131191047Y-83281380D01*
X131000571Y-83281380D01*
X132381523Y-83281380D02*
X131810095Y-83281380D01*
X132095809Y-83281380D02*
X132095809Y-82281380D01*
X132000571Y-82424238D01*
X131905333Y-82519476D01*
X131810095Y-82567095D01*
X128857714Y-76026619D02*
X128905333Y-75979000D01*
X129000571Y-75931380D01*
X129238666Y-75931380D01*
X129333904Y-75979000D01*
X129381523Y-76026619D01*
X129429142Y-76121857D01*
X129429142Y-76217095D01*
X129381523Y-76359952D01*
X128810095Y-76931380D01*
X129429142Y-76931380D01*
X129857714Y-76931380D02*
X129857714Y-75931380D01*
X130429142Y-76931380D01*
X130429142Y-75931380D01*
X130810095Y-75931380D02*
X131429142Y-75931380D01*
X131095809Y-76312333D01*
X131238666Y-76312333D01*
X131333904Y-76359952D01*
X131381523Y-76407571D01*
X131429142Y-76502809D01*
X131429142Y-76740904D01*
X131381523Y-76836142D01*
X131333904Y-76883761D01*
X131238666Y-76931380D01*
X130952952Y-76931380D01*
X130857714Y-76883761D01*
X130810095Y-76836142D01*
X131905333Y-76931380D02*
X132095809Y-76931380D01*
X132191047Y-76883761D01*
X132238666Y-76836142D01*
X132333904Y-76693285D01*
X132381523Y-76502809D01*
X132381523Y-76121857D01*
X132333904Y-76026619D01*
X132286285Y-75979000D01*
X132191047Y-75931380D01*
X132000571Y-75931380D01*
X131905333Y-75979000D01*
X131857714Y-76026619D01*
X131810095Y-76121857D01*
X131810095Y-76359952D01*
X131857714Y-76455190D01*
X131905333Y-76502809D01*
X132000571Y-76550428D01*
X132191047Y-76550428D01*
X132286285Y-76502809D01*
X132333904Y-76455190D01*
X132381523Y-76359952D01*
X133000571Y-75931380D02*
X133095809Y-75931380D01*
X133191047Y-75979000D01*
X133238666Y-76026619D01*
X133286285Y-76121857D01*
X133333904Y-76312333D01*
X133333904Y-76550428D01*
X133286285Y-76740904D01*
X133238666Y-76836142D01*
X133191047Y-76883761D01*
X133095809Y-76931380D01*
X133000571Y-76931380D01*
X132905333Y-76883761D01*
X132857714Y-76836142D01*
X132810095Y-76740904D01*
X132762476Y-76550428D01*
X132762476Y-76312333D01*
X132810095Y-76121857D01*
X132857714Y-76026619D01*
X132905333Y-75979000D01*
X133000571Y-75931380D01*
X134191047Y-75931380D02*
X134000571Y-75931380D01*
X133905333Y-75979000D01*
X133857714Y-76026619D01*
X133762476Y-76169476D01*
X133714857Y-76359952D01*
X133714857Y-76740904D01*
X133762476Y-76836142D01*
X133810095Y-76883761D01*
X133905333Y-76931380D01*
X134095809Y-76931380D01*
X134191047Y-76883761D01*
X134238666Y-76836142D01*
X134286285Y-76740904D01*
X134286285Y-76502809D01*
X134238666Y-76407571D01*
X134191047Y-76359952D01*
X134095809Y-76312333D01*
X133905333Y-76312333D01*
X133810095Y-76359952D01*
X133762476Y-76407571D01*
X133714857Y-76502809D01*
%TO.C,R6*%
X125166380Y-64174666D02*
X124690190Y-64508000D01*
X125166380Y-64746095D02*
X124166380Y-64746095D01*
X124166380Y-64365142D01*
X124214000Y-64269904D01*
X124261619Y-64222285D01*
X124356857Y-64174666D01*
X124499714Y-64174666D01*
X124594952Y-64222285D01*
X124642571Y-64269904D01*
X124690190Y-64365142D01*
X124690190Y-64746095D01*
X124166380Y-63317523D02*
X124166380Y-63508000D01*
X124214000Y-63603238D01*
X124261619Y-63650857D01*
X124404476Y-63746095D01*
X124594952Y-63793714D01*
X124975904Y-63793714D01*
X125071142Y-63746095D01*
X125118761Y-63698476D01*
X125166380Y-63603238D01*
X125166380Y-63412761D01*
X125118761Y-63317523D01*
X125071142Y-63269904D01*
X124975904Y-63222285D01*
X124737809Y-63222285D01*
X124642571Y-63269904D01*
X124594952Y-63317523D01*
X124547333Y-63412761D01*
X124547333Y-63603238D01*
X124594952Y-63698476D01*
X124642571Y-63746095D01*
X124737809Y-63793714D01*
X124166380Y-61213904D02*
X124166380Y-61404380D01*
X124214000Y-61499619D01*
X124261619Y-61547238D01*
X124404476Y-61642476D01*
X124594952Y-61690095D01*
X124975904Y-61690095D01*
X125071142Y-61642476D01*
X125118761Y-61594857D01*
X125166380Y-61499619D01*
X125166380Y-61309142D01*
X125118761Y-61213904D01*
X125071142Y-61166285D01*
X124975904Y-61118666D01*
X124737809Y-61118666D01*
X124642571Y-61166285D01*
X124594952Y-61213904D01*
X124547333Y-61309142D01*
X124547333Y-61499619D01*
X124594952Y-61594857D01*
X124642571Y-61642476D01*
X124737809Y-61690095D01*
X124594952Y-60547238D02*
X124547333Y-60642476D01*
X124499714Y-60690095D01*
X124404476Y-60737714D01*
X124356857Y-60737714D01*
X124261619Y-60690095D01*
X124214000Y-60642476D01*
X124166380Y-60547238D01*
X124166380Y-60356761D01*
X124214000Y-60261523D01*
X124261619Y-60213904D01*
X124356857Y-60166285D01*
X124404476Y-60166285D01*
X124499714Y-60213904D01*
X124547333Y-60261523D01*
X124594952Y-60356761D01*
X124594952Y-60547238D01*
X124642571Y-60642476D01*
X124690190Y-60690095D01*
X124785428Y-60737714D01*
X124975904Y-60737714D01*
X125071142Y-60690095D01*
X125118761Y-60642476D01*
X125166380Y-60547238D01*
X125166380Y-60356761D01*
X125118761Y-60261523D01*
X125071142Y-60213904D01*
X124975904Y-60166285D01*
X124785428Y-60166285D01*
X124690190Y-60213904D01*
X124642571Y-60261523D01*
X124594952Y-60356761D01*
X124166380Y-59547238D02*
X124166380Y-59452000D01*
X124214000Y-59356761D01*
X124261619Y-59309142D01*
X124356857Y-59261523D01*
X124547333Y-59213904D01*
X124785428Y-59213904D01*
X124975904Y-59261523D01*
X125071142Y-59309142D01*
X125118761Y-59356761D01*
X125166380Y-59452000D01*
X125166380Y-59547238D01*
X125118761Y-59642476D01*
X125071142Y-59690095D01*
X124975904Y-59737714D01*
X124785428Y-59785333D01*
X124547333Y-59785333D01*
X124356857Y-59737714D01*
X124261619Y-59690095D01*
X124214000Y-59642476D01*
X124166380Y-59547238D01*
%TO.C,R1*%
X135580380Y-64174666D02*
X135104190Y-64508000D01*
X135580380Y-64746095D02*
X134580380Y-64746095D01*
X134580380Y-64365142D01*
X134628000Y-64269904D01*
X134675619Y-64222285D01*
X134770857Y-64174666D01*
X134913714Y-64174666D01*
X135008952Y-64222285D01*
X135056571Y-64269904D01*
X135104190Y-64365142D01*
X135104190Y-64746095D01*
X135580380Y-63222285D02*
X135580380Y-63793714D01*
X135580380Y-63508000D02*
X134580380Y-63508000D01*
X134723238Y-63603238D01*
X134818476Y-63698476D01*
X134866095Y-63793714D01*
X134675619Y-61690095D02*
X134628000Y-61642476D01*
X134580380Y-61547238D01*
X134580380Y-61309142D01*
X134628000Y-61213904D01*
X134675619Y-61166285D01*
X134770857Y-61118666D01*
X134866095Y-61118666D01*
X135008952Y-61166285D01*
X135580380Y-61737714D01*
X135580380Y-61118666D01*
X134675619Y-60737714D02*
X134628000Y-60690095D01*
X134580380Y-60594857D01*
X134580380Y-60356761D01*
X134628000Y-60261523D01*
X134675619Y-60213904D01*
X134770857Y-60166285D01*
X134866095Y-60166285D01*
X135008952Y-60213904D01*
X135580380Y-60785333D01*
X135580380Y-60166285D01*
X134580380Y-59547238D02*
X134580380Y-59452000D01*
X134628000Y-59356761D01*
X134675619Y-59309142D01*
X134770857Y-59261523D01*
X134961333Y-59213904D01*
X135199428Y-59213904D01*
X135389904Y-59261523D01*
X135485142Y-59309142D01*
X135532761Y-59356761D01*
X135580380Y-59452000D01*
X135580380Y-59547238D01*
X135532761Y-59642476D01*
X135485142Y-59690095D01*
X135389904Y-59737714D01*
X135199428Y-59785333D01*
X134961333Y-59785333D01*
X134770857Y-59737714D01*
X134675619Y-59690095D01*
X134628000Y-59642476D01*
X134580380Y-59547238D01*
D11*
%TO.C,J3*%
X109732428Y-40429571D02*
X109732428Y-38929571D01*
X110232428Y-40001000D01*
X110732428Y-38929571D01*
X110732428Y-40429571D01*
X111446714Y-40429571D02*
X111446714Y-38929571D01*
X112161000Y-40429571D02*
X112161000Y-38929571D01*
X112518142Y-38929571D01*
X112732428Y-39001000D01*
X112875285Y-39143857D01*
X112946714Y-39286714D01*
X113018142Y-39572428D01*
X113018142Y-39786714D01*
X112946714Y-40072428D01*
X112875285Y-40215285D01*
X112732428Y-40358142D01*
X112518142Y-40429571D01*
X112161000Y-40429571D01*
X113661000Y-40429571D02*
X113661000Y-38929571D01*
X115518142Y-40429571D02*
X115518142Y-38929571D01*
X116232428Y-40429571D02*
X116232428Y-38929571D01*
X117089571Y-40429571D01*
X117089571Y-38929571D01*
D10*
%TO.C,R4*%
X128468380Y-64174666D02*
X127992190Y-64508000D01*
X128468380Y-64746095D02*
X127468380Y-64746095D01*
X127468380Y-64365142D01*
X127516000Y-64269904D01*
X127563619Y-64222285D01*
X127658857Y-64174666D01*
X127801714Y-64174666D01*
X127896952Y-64222285D01*
X127944571Y-64269904D01*
X127992190Y-64365142D01*
X127992190Y-64746095D01*
X127801714Y-63317523D02*
X128468380Y-63317523D01*
X127420761Y-63555619D02*
X128135047Y-63793714D01*
X128135047Y-63174666D01*
X131119619Y-61690095D02*
X131072000Y-61642476D01*
X131024380Y-61547238D01*
X131024380Y-61309142D01*
X131072000Y-61213904D01*
X131119619Y-61166285D01*
X131214857Y-61118666D01*
X131310095Y-61118666D01*
X131452952Y-61166285D01*
X132024380Y-61737714D01*
X132024380Y-61118666D01*
X131119619Y-60737714D02*
X131072000Y-60690095D01*
X131024380Y-60594857D01*
X131024380Y-60356761D01*
X131072000Y-60261523D01*
X131119619Y-60213904D01*
X131214857Y-60166285D01*
X131310095Y-60166285D01*
X131452952Y-60213904D01*
X132024380Y-60785333D01*
X132024380Y-60166285D01*
X131024380Y-59547238D02*
X131024380Y-59452000D01*
X131072000Y-59356761D01*
X131119619Y-59309142D01*
X131214857Y-59261523D01*
X131405333Y-59213904D01*
X131643428Y-59213904D01*
X131833904Y-59261523D01*
X131929142Y-59309142D01*
X131976761Y-59356761D01*
X132024380Y-59452000D01*
X132024380Y-59547238D01*
X131976761Y-59642476D01*
X131929142Y-59690095D01*
X131833904Y-59737714D01*
X131643428Y-59785333D01*
X131405333Y-59785333D01*
X131214857Y-59737714D01*
X131119619Y-59690095D01*
X131072000Y-59642476D01*
X131024380Y-59547238D01*
%TO.C,R3*%
X138882380Y-64428666D02*
X138406190Y-64762000D01*
X138882380Y-65000095D02*
X137882380Y-65000095D01*
X137882380Y-64619142D01*
X137930000Y-64523904D01*
X137977619Y-64476285D01*
X138072857Y-64428666D01*
X138215714Y-64428666D01*
X138310952Y-64476285D01*
X138358571Y-64523904D01*
X138406190Y-64619142D01*
X138406190Y-65000095D01*
X137882380Y-64095333D02*
X137882380Y-63476285D01*
X138263333Y-63809619D01*
X138263333Y-63666761D01*
X138310952Y-63571523D01*
X138358571Y-63523904D01*
X138453809Y-63476285D01*
X138691904Y-63476285D01*
X138787142Y-63523904D01*
X138834761Y-63571523D01*
X138882380Y-63666761D01*
X138882380Y-63952476D01*
X138834761Y-64047714D01*
X138787142Y-64095333D01*
X137977619Y-61618666D02*
X137930000Y-61571047D01*
X137882380Y-61475809D01*
X137882380Y-61237714D01*
X137930000Y-61142476D01*
X137977619Y-61094857D01*
X138072857Y-61047238D01*
X138168095Y-61047238D01*
X138310952Y-61094857D01*
X138882380Y-61666285D01*
X138882380Y-61047238D01*
X138882380Y-60618666D02*
X137882380Y-60618666D01*
X138501428Y-60523428D02*
X138882380Y-60237714D01*
X138215714Y-60237714D02*
X138596666Y-60618666D01*
X137882380Y-59904380D02*
X137882380Y-59237714D01*
X138882380Y-59666285D01*
%TO.C,R5*%
X107132380Y-64301666D02*
X106656190Y-64635000D01*
X107132380Y-64873095D02*
X106132380Y-64873095D01*
X106132380Y-64492142D01*
X106180000Y-64396904D01*
X106227619Y-64349285D01*
X106322857Y-64301666D01*
X106465714Y-64301666D01*
X106560952Y-64349285D01*
X106608571Y-64396904D01*
X106656190Y-64492142D01*
X106656190Y-64873095D01*
X106132380Y-63396904D02*
X106132380Y-63873095D01*
X106608571Y-63920714D01*
X106560952Y-63873095D01*
X106513333Y-63777857D01*
X106513333Y-63539761D01*
X106560952Y-63444523D01*
X106608571Y-63396904D01*
X106703809Y-63349285D01*
X106941904Y-63349285D01*
X107037142Y-63396904D01*
X107084761Y-63444523D01*
X107132380Y-63539761D01*
X107132380Y-63777857D01*
X107084761Y-63873095D01*
X107037142Y-63920714D01*
X106227619Y-61690095D02*
X106180000Y-61642476D01*
X106132380Y-61547238D01*
X106132380Y-61309142D01*
X106180000Y-61213904D01*
X106227619Y-61166285D01*
X106322857Y-61118666D01*
X106418095Y-61118666D01*
X106560952Y-61166285D01*
X107132380Y-61737714D01*
X107132380Y-61118666D01*
X106227619Y-60737714D02*
X106180000Y-60690095D01*
X106132380Y-60594857D01*
X106132380Y-60356761D01*
X106180000Y-60261523D01*
X106227619Y-60213904D01*
X106322857Y-60166285D01*
X106418095Y-60166285D01*
X106560952Y-60213904D01*
X107132380Y-60785333D01*
X107132380Y-60166285D01*
X106132380Y-59547238D02*
X106132380Y-59452000D01*
X106180000Y-59356761D01*
X106227619Y-59309142D01*
X106322857Y-59261523D01*
X106513333Y-59213904D01*
X106751428Y-59213904D01*
X106941904Y-59261523D01*
X107037142Y-59309142D01*
X107084761Y-59356761D01*
X107132380Y-59452000D01*
X107132380Y-59547238D01*
X107084761Y-59642476D01*
X107037142Y-59690095D01*
X106941904Y-59737714D01*
X106751428Y-59785333D01*
X106513333Y-59785333D01*
X106322857Y-59737714D01*
X106227619Y-59690095D01*
X106180000Y-59642476D01*
X106132380Y-59547238D01*
%TO.C,R2*%
X132024380Y-64174666D02*
X131548190Y-64508000D01*
X132024380Y-64746095D02*
X131024380Y-64746095D01*
X131024380Y-64365142D01*
X131072000Y-64269904D01*
X131119619Y-64222285D01*
X131214857Y-64174666D01*
X131357714Y-64174666D01*
X131452952Y-64222285D01*
X131500571Y-64269904D01*
X131548190Y-64365142D01*
X131548190Y-64746095D01*
X131119619Y-63793714D02*
X131072000Y-63746095D01*
X131024380Y-63650857D01*
X131024380Y-63412761D01*
X131072000Y-63317523D01*
X131119619Y-63269904D01*
X131214857Y-63222285D01*
X131310095Y-63222285D01*
X131452952Y-63269904D01*
X132024380Y-63841333D01*
X132024380Y-63222285D01*
X127468380Y-61269476D02*
X127468380Y-61459952D01*
X127516000Y-61555190D01*
X127563619Y-61602809D01*
X127706476Y-61698047D01*
X127896952Y-61745666D01*
X128277904Y-61745666D01*
X128373142Y-61698047D01*
X128420761Y-61650428D01*
X128468380Y-61555190D01*
X128468380Y-61364714D01*
X128420761Y-61269476D01*
X128373142Y-61221857D01*
X128277904Y-61174238D01*
X128039809Y-61174238D01*
X127944571Y-61221857D01*
X127896952Y-61269476D01*
X127849333Y-61364714D01*
X127849333Y-61555190D01*
X127896952Y-61650428D01*
X127944571Y-61698047D01*
X128039809Y-61745666D01*
X128468380Y-60745666D02*
X127468380Y-60745666D01*
X128087428Y-60650428D02*
X128468380Y-60364714D01*
X127801714Y-60364714D02*
X128182666Y-60745666D01*
X127896952Y-59793285D02*
X127849333Y-59888523D01*
X127801714Y-59936142D01*
X127706476Y-59983761D01*
X127658857Y-59983761D01*
X127563619Y-59936142D01*
X127516000Y-59888523D01*
X127468380Y-59793285D01*
X127468380Y-59602809D01*
X127516000Y-59507571D01*
X127563619Y-59459952D01*
X127658857Y-59412333D01*
X127706476Y-59412333D01*
X127801714Y-59459952D01*
X127849333Y-59507571D01*
X127896952Y-59602809D01*
X127896952Y-59793285D01*
X127944571Y-59888523D01*
X127992190Y-59936142D01*
X128087428Y-59983761D01*
X128277904Y-59983761D01*
X128373142Y-59936142D01*
X128420761Y-59888523D01*
X128468380Y-59793285D01*
X128468380Y-59602809D01*
X128420761Y-59507571D01*
X128373142Y-59459952D01*
X128277904Y-59412333D01*
X128087428Y-59412333D01*
X127992190Y-59459952D01*
X127944571Y-59507571D01*
X127896952Y-59602809D01*
D11*
%TO.C,J2*%
X135148428Y-40556571D02*
X135148428Y-39056571D01*
X135648428Y-40128000D01*
X136148428Y-39056571D01*
X136148428Y-40556571D01*
X136862714Y-40556571D02*
X136862714Y-39056571D01*
X137577000Y-40556571D02*
X137577000Y-39056571D01*
X137934142Y-39056571D01*
X138148428Y-39128000D01*
X138291285Y-39270857D01*
X138362714Y-39413714D01*
X138434142Y-39699428D01*
X138434142Y-39913714D01*
X138362714Y-40199428D01*
X138291285Y-40342285D01*
X138148428Y-40485142D01*
X137934142Y-40556571D01*
X137577000Y-40556571D01*
X139077000Y-40556571D02*
X139077000Y-39056571D01*
X141219857Y-39056571D02*
X141505571Y-39056571D01*
X141648428Y-39128000D01*
X141791285Y-39270857D01*
X141862714Y-39556571D01*
X141862714Y-40056571D01*
X141791285Y-40342285D01*
X141648428Y-40485142D01*
X141505571Y-40556571D01*
X141219857Y-40556571D01*
X141077000Y-40485142D01*
X140934142Y-40342285D01*
X140862714Y-40056571D01*
X140862714Y-39556571D01*
X140934142Y-39270857D01*
X141077000Y-39128000D01*
X141219857Y-39056571D01*
X142505571Y-39056571D02*
X142505571Y-40270857D01*
X142577000Y-40413714D01*
X142648428Y-40485142D01*
X142791285Y-40556571D01*
X143077000Y-40556571D01*
X143219857Y-40485142D01*
X143291285Y-40413714D01*
X143362714Y-40270857D01*
X143362714Y-39056571D01*
X143862714Y-39056571D02*
X144719857Y-39056571D01*
X144291285Y-40556571D02*
X144291285Y-39056571D01*
D12*
%TO.C,U1*%
X144462500Y-130581400D02*
X144462500Y-90957400D01*
X147761000Y-90364000D02*
X145101000Y-90364000D01*
X147761000Y-125984000D02*
X147761000Y-90364000D01*
X165722300Y-128584000D02*
X164392300Y-128584000D01*
X147761000Y-125984000D02*
X145101000Y-125984000D01*
X166306500Y-128295400D02*
X166306500Y-130581400D01*
X145732500Y-89687400D02*
X165036500Y-89687400D01*
X165722300Y-125984000D02*
X165722300Y-90364000D01*
X165722300Y-125984000D02*
X163062300Y-125984000D01*
X166306500Y-90957400D02*
X166306500Y-128295400D01*
X147764500Y-127257400D02*
X147764500Y-128584000D01*
X145101000Y-125984000D02*
X145101000Y-90364000D01*
X165714500Y-127257400D02*
X165714500Y-128587400D01*
X165722300Y-90364000D02*
X163062300Y-90364000D01*
X165036500Y-131851400D02*
X145732500Y-131851400D01*
X147764500Y-128584000D02*
X146434500Y-128584000D01*
X163062300Y-125984000D02*
X163062300Y-90364000D01*
X166306500Y-90957400D02*
G75*
G03*
X165036500Y-89687400I-1269999J1D01*
G01*
X144462500Y-130581400D02*
G75*
G03*
X145732500Y-131851400I1270000J0D01*
G01*
X165036500Y-131851400D02*
G75*
G03*
X166306500Y-130581400I1J1269999D01*
G01*
X145732500Y-89687400D02*
G75*
G03*
X144462500Y-90957400I0J-1270000D01*
G01*
%TO.C,R14*%
X126846000Y-108998000D02*
X126516000Y-108998000D01*
X124106000Y-115538000D02*
X124106000Y-108998000D01*
X126846000Y-115538000D02*
X126846000Y-108998000D01*
X126516000Y-115538000D02*
X126846000Y-115538000D01*
X124436000Y-115538000D02*
X124106000Y-115538000D01*
X124106000Y-108998000D02*
X124436000Y-108998000D01*
%TO.C,R13*%
X123671000Y-108998000D02*
X123341000Y-108998000D01*
X120931000Y-115538000D02*
X120931000Y-108998000D01*
X123671000Y-115538000D02*
X123671000Y-108998000D01*
X123341000Y-115538000D02*
X123671000Y-115538000D01*
X121261000Y-115538000D02*
X120931000Y-115538000D01*
X120931000Y-108998000D02*
X121261000Y-108998000D01*
%TO.C,R12*%
X154786000Y-58579000D02*
X154456000Y-58579000D01*
X152046000Y-65119000D02*
X152046000Y-58579000D01*
X154786000Y-65119000D02*
X154786000Y-58579000D01*
X154456000Y-65119000D02*
X154786000Y-65119000D01*
X152376000Y-65119000D02*
X152046000Y-65119000D01*
X152046000Y-58579000D02*
X152376000Y-58579000D01*
%TO.C,R11*%
X159866000Y-58579000D02*
X159536000Y-58579000D01*
X157126000Y-65119000D02*
X157126000Y-58579000D01*
X159866000Y-65119000D02*
X159866000Y-58579000D01*
X159536000Y-65119000D02*
X159866000Y-65119000D01*
X157456000Y-65119000D02*
X157126000Y-65119000D01*
X157126000Y-58579000D02*
X157456000Y-58579000D01*
%TO.C,J7*%
X158341000Y-35186000D02*
X158341000Y-26586000D01*
X167541000Y-26586000D02*
X167541000Y-41086000D01*
X160341000Y-41086000D02*
X158341000Y-41086000D01*
X158341000Y-41086000D02*
X158341000Y-39786000D01*
X166141000Y-41386000D02*
X167841000Y-41386000D01*
X158341000Y-26586000D02*
X167541000Y-26586000D01*
X167541000Y-41086000D02*
X165541000Y-41086000D01*
X167841000Y-41386000D02*
X167841000Y-40086000D01*
%TO.C,J6*%
X143697000Y-90237000D02*
X141037000Y-90237000D01*
X143697000Y-127127000D02*
X143697000Y-128457000D01*
X143697000Y-125857000D02*
X143697000Y-90237000D01*
X143697000Y-128457000D02*
X142367000Y-128457000D01*
X141037000Y-125857000D02*
X141037000Y-90237000D01*
X143697000Y-125857000D02*
X141037000Y-125857000D01*
%TO.C,J5*%
X169859000Y-90364000D02*
X167199000Y-90364000D01*
X169859000Y-127254000D02*
X169859000Y-128584000D01*
X169859000Y-125984000D02*
X169859000Y-90364000D01*
X169859000Y-128584000D02*
X168529000Y-128584000D01*
X167199000Y-125984000D02*
X167199000Y-90364000D01*
X169859000Y-125984000D02*
X167199000Y-125984000D01*
%TO.C,J4*%
X119126000Y-119447000D02*
X126806000Y-119447000D01*
X117856000Y-122107000D02*
X116526000Y-122107000D01*
X126806000Y-122107000D02*
X126806000Y-119447000D01*
X119126000Y-122107000D02*
X119126000Y-119447000D01*
X116526000Y-122107000D02*
X116526000Y-120777000D01*
X119126000Y-122107000D02*
X126806000Y-122107000D01*
%TO.C,R10*%
X167032000Y-75787000D02*
X167362000Y-75787000D01*
X169772000Y-69247000D02*
X169772000Y-75787000D01*
X167032000Y-69247000D02*
X167032000Y-75787000D01*
X167362000Y-69247000D02*
X167032000Y-69247000D01*
X169442000Y-69247000D02*
X169772000Y-69247000D01*
X169772000Y-75787000D02*
X169442000Y-75787000D01*
%TO.C,R9*%
X169772000Y-80169000D02*
X169442000Y-80169000D01*
X167032000Y-86709000D02*
X167032000Y-80169000D01*
X169772000Y-86709000D02*
X169772000Y-80169000D01*
X169442000Y-86709000D02*
X169772000Y-86709000D01*
X167362000Y-86709000D02*
X167032000Y-86709000D01*
X167032000Y-80169000D02*
X167362000Y-80169000D01*
%TO.C,R8*%
X153067000Y-85879000D02*
X153067000Y-86209000D01*
X159607000Y-88619000D02*
X153067000Y-88619000D01*
X159607000Y-85879000D02*
X153067000Y-85879000D01*
X159607000Y-86209000D02*
X159607000Y-85879000D01*
X159607000Y-88289000D02*
X159607000Y-88619000D01*
X153067000Y-88619000D02*
X153067000Y-88289000D01*
%TO.C,R7*%
X153702000Y-67337000D02*
X153702000Y-67667000D01*
X160242000Y-70077000D02*
X153702000Y-70077000D01*
X160242000Y-67337000D02*
X153702000Y-67337000D01*
X160242000Y-67667000D02*
X160242000Y-67337000D01*
X160242000Y-69747000D02*
X160242000Y-70077000D01*
X153702000Y-70077000D02*
X153702000Y-69747000D01*
%TO.C,C2*%
X145197000Y-85329000D02*
X146593000Y-85329000D01*
X141951000Y-79089000D02*
X143347000Y-79089000D01*
X141951000Y-85329000D02*
X141951000Y-79089000D01*
X145197000Y-79089000D02*
X146593000Y-79089000D01*
X141951000Y-85329000D02*
X143347000Y-85329000D01*
X146593000Y-85329000D02*
X146593000Y-79089000D01*
%TO.C,C1*%
X143347000Y-71048000D02*
X141951000Y-71048000D01*
X146593000Y-77288000D02*
X145197000Y-77288000D01*
X146593000Y-71048000D02*
X146593000Y-77288000D01*
X143347000Y-77288000D02*
X141951000Y-77288000D01*
X146593000Y-71048000D02*
X145197000Y-71048000D01*
X141951000Y-71048000D02*
X141951000Y-77288000D01*
%TO.C,SW3*%
X166902000Y-58678000D02*
X165402000Y-58678000D01*
X162902000Y-59928000D02*
X162902000Y-64428000D01*
X165402000Y-65678000D02*
X166902000Y-65678000D01*
X169402000Y-64428000D02*
X169402000Y-59928000D01*
%TO.C,SW2*%
X146165000Y-58424000D02*
X144665000Y-58424000D01*
X142165000Y-59674000D02*
X142165000Y-64174000D01*
X144665000Y-65424000D02*
X146165000Y-65424000D01*
X148665000Y-64174000D02*
X148665000Y-59674000D01*
%TO.C,SW1*%
X150738000Y-72205000D02*
X154838000Y-72205000D01*
X164038000Y-82205000D02*
X164338000Y-81905000D01*
X164338000Y-81905000D02*
X164638000Y-82205000D01*
X158838000Y-72205000D02*
X162938000Y-72205000D01*
X154838000Y-84005000D02*
X150738000Y-84005000D01*
X150738000Y-84005000D02*
X150738000Y-81605000D01*
X150738000Y-74605000D02*
X150738000Y-72205000D01*
X156838000Y-78605000D02*
X156838000Y-77605000D01*
X158838000Y-84005000D02*
X162938000Y-84005000D01*
X157338000Y-78105000D02*
X156338000Y-78105000D01*
X150738000Y-79405000D02*
X150738000Y-76805000D01*
X162938000Y-84005000D02*
X162938000Y-72205000D01*
X164638000Y-82205000D02*
X164038000Y-82205000D01*
X159838000Y-78105000D02*
G75*
G03*
X159838000Y-78105000I-3000000J0D01*
G01*
%TO.C,U2*%
X116221000Y-64964000D02*
X114571000Y-64964000D01*
X119871000Y-75244000D02*
X119871000Y-64964000D01*
X119871000Y-64964000D02*
X118221000Y-64964000D01*
X114571000Y-75244000D02*
X119871000Y-75244000D01*
X114571000Y-64964000D02*
X114571000Y-75244000D01*
X116221000Y-64964000D02*
G75*
G03*
X118221000Y-64964000I1000000J0D01*
G01*
%TO.C,D1*%
X111356000Y-72224000D02*
X111356000Y-67984000D01*
X111356000Y-67984000D02*
X109116000Y-67984000D01*
X111356000Y-68824000D02*
X109116000Y-68824000D01*
X111356000Y-68584000D02*
X109116000Y-68584000D01*
X111356000Y-68704000D02*
X109116000Y-68704000D01*
X110236000Y-67334000D02*
X110236000Y-67984000D01*
X110236000Y-72874000D02*
X110236000Y-72224000D01*
X109116000Y-67984000D02*
X109116000Y-72224000D01*
X109116000Y-72224000D02*
X111356000Y-72224000D01*
%TO.C,Q1*%
X133372000Y-77419000D02*
X129772000Y-77419000D01*
X131572000Y-81869001D02*
G75*
G03*
X133410478Y-77430522I0J2600001D01*
G01*
X129733522Y-77430522D02*
G75*
G03*
X131572000Y-81869000I1838478J-1838478D01*
G01*
%TO.C,R6*%
X123420000Y-73374000D02*
X123090000Y-73374000D01*
X125500000Y-73374000D02*
X125830000Y-73374000D01*
X123090000Y-66834000D02*
X123420000Y-66834000D01*
X125830000Y-73374000D02*
X125830000Y-66834000D01*
X125830000Y-66834000D02*
X125500000Y-66834000D01*
X123090000Y-73374000D02*
X123090000Y-66834000D01*
%TO.C,R1*%
X136371000Y-73501000D02*
X136041000Y-73501000D01*
X136041000Y-66961000D02*
X136371000Y-66961000D01*
X133961000Y-66961000D02*
X133631000Y-66961000D01*
X133631000Y-66961000D02*
X133631000Y-73501000D01*
X133631000Y-73501000D02*
X133961000Y-73501000D01*
X136371000Y-66961000D02*
X136371000Y-73501000D01*
D13*
%TO.C,J3*%
X122537220Y-32014160D02*
X103037640Y-32014160D01*
X108038900Y-47513240D02*
X111539020Y-47513240D01*
X112036860Y-50012600D02*
X111539020Y-49512220D01*
X105039160Y-32014160D02*
X105039160Y-32512000D01*
X103037640Y-31513780D02*
X104538780Y-31513780D01*
X124038360Y-31013400D02*
X124038360Y-31513780D01*
X111539020Y-49512220D02*
X111539020Y-47513240D01*
X107038140Y-50012600D02*
X107538520Y-50012600D01*
X104538780Y-31013400D02*
X124038360Y-31013400D01*
X108038900Y-49512220D02*
X108038900Y-47513240D01*
X119037100Y-47513240D02*
X115536980Y-47513240D01*
X122537220Y-32512000D02*
X122036840Y-32512000D01*
X105039160Y-50012600D02*
X107038140Y-50012600D01*
X124038360Y-31513780D02*
X122537220Y-31513780D01*
X124038360Y-31262320D02*
X104538780Y-31262320D01*
X122537220Y-31762700D02*
X103037640Y-31762700D01*
X122537220Y-49512220D02*
X122036840Y-50012600D01*
X115039140Y-50012600D02*
X112036860Y-50012600D01*
X104538780Y-31513780D02*
X122537220Y-31513780D01*
X104538780Y-32512000D02*
X105039160Y-32512000D01*
X115039140Y-50012600D02*
X115536980Y-49512220D01*
X104538780Y-31513780D02*
X104538780Y-31013400D01*
X107538520Y-50012600D02*
X108038900Y-49512220D01*
X122036840Y-32512000D02*
X122036840Y-32014160D01*
X115536980Y-49512220D02*
X115536980Y-47513240D01*
X119037100Y-49512220D02*
X119037100Y-47513240D01*
X103037640Y-32014160D02*
X103037640Y-31513780D01*
X122537220Y-31513780D02*
X122537220Y-32014160D01*
X104538780Y-49512220D02*
X105039160Y-50012600D01*
X119537480Y-50012600D02*
X119037100Y-49512220D01*
X122036840Y-50012600D02*
X119537480Y-50012600D01*
X104538780Y-49512220D02*
X104538780Y-32512000D01*
X122537220Y-49512220D02*
X122537220Y-32512000D01*
D12*
%TO.C,R4*%
X129386000Y-73374000D02*
X129386000Y-66834000D01*
X126646000Y-73374000D02*
X126646000Y-66834000D01*
X126976000Y-73374000D02*
X126646000Y-73374000D01*
X129056000Y-73374000D02*
X129386000Y-73374000D01*
X129386000Y-66834000D02*
X129056000Y-66834000D01*
X126646000Y-66834000D02*
X126976000Y-66834000D01*
%TO.C,R3*%
X137390000Y-66961000D02*
X137060000Y-66961000D01*
X139800000Y-66961000D02*
X139800000Y-73501000D01*
X139470000Y-66961000D02*
X139800000Y-66961000D01*
X137060000Y-66961000D02*
X137060000Y-73501000D01*
X139800000Y-73501000D02*
X139470000Y-73501000D01*
X137060000Y-73501000D02*
X137390000Y-73501000D01*
%TO.C,R5*%
X107466000Y-66834000D02*
X107796000Y-66834000D01*
X105386000Y-66834000D02*
X105056000Y-66834000D01*
X107796000Y-73374000D02*
X107466000Y-73374000D01*
X107796000Y-66834000D02*
X107796000Y-73374000D01*
X105056000Y-73374000D02*
X105386000Y-73374000D01*
X105056000Y-66834000D02*
X105056000Y-73374000D01*
%TO.C,R2*%
X130202000Y-66961000D02*
X130202000Y-73501000D01*
X132942000Y-66961000D02*
X132942000Y-73501000D01*
X132612000Y-66961000D02*
X132942000Y-66961000D01*
X130532000Y-66961000D02*
X130202000Y-66961000D01*
X130202000Y-73501000D02*
X130532000Y-73501000D01*
X132942000Y-73501000D02*
X132612000Y-73501000D01*
D13*
%TO.C,J2*%
X147690840Y-32512000D02*
X147690840Y-32014160D01*
X137690860Y-50012600D02*
X137193020Y-49512220D01*
X148191220Y-31513780D02*
X148191220Y-32014160D01*
X147690840Y-50012600D02*
X145191480Y-50012600D01*
X132692140Y-50012600D02*
X133192520Y-50012600D01*
X141190980Y-49512220D02*
X141190980Y-47513240D01*
X140693140Y-50012600D02*
X137690860Y-50012600D01*
X130693160Y-50012600D02*
X132692140Y-50012600D01*
X137193020Y-49512220D02*
X137193020Y-47513240D01*
X130192780Y-31513780D02*
X130192780Y-31013400D01*
X149692360Y-31262320D02*
X130192780Y-31262320D01*
X148191220Y-49512220D02*
X147690840Y-50012600D01*
X130192780Y-31013400D02*
X149692360Y-31013400D01*
X133692900Y-47513240D02*
X137193020Y-47513240D01*
X128691640Y-32014160D02*
X128691640Y-31513780D01*
X130192780Y-32512000D02*
X130693160Y-32512000D01*
X149692360Y-31013400D02*
X149692360Y-31513780D01*
X148191220Y-31762700D02*
X128691640Y-31762700D01*
X130192780Y-49512220D02*
X130192780Y-32512000D01*
X148191220Y-49512220D02*
X148191220Y-32512000D01*
X133692900Y-49512220D02*
X133692900Y-47513240D01*
X149692360Y-31513780D02*
X148191220Y-31513780D01*
X130693160Y-32014160D02*
X130693160Y-32512000D01*
X145191480Y-50012600D02*
X144691100Y-49512220D01*
X130192780Y-49512220D02*
X130693160Y-50012600D01*
X144691100Y-47513240D02*
X141190980Y-47513240D01*
X144691100Y-49512220D02*
X144691100Y-47513240D01*
X148191220Y-32512000D02*
X147690840Y-32512000D01*
X148191220Y-32014160D02*
X128691640Y-32014160D01*
X140693140Y-50012600D02*
X141190980Y-49512220D01*
X128691640Y-31513780D02*
X130192780Y-31513780D01*
X130192780Y-31513780D02*
X148191220Y-31513780D01*
X133192520Y-50012600D02*
X133692900Y-49512220D01*
D12*
%TO.C,J1*%
X156634000Y-43949000D02*
X156634000Y-48209000D01*
X168954000Y-48209000D02*
X168954000Y-43949000D01*
X161544000Y-48429000D02*
X161044000Y-48929000D01*
X161044000Y-48929000D02*
X162044000Y-48929000D01*
X156634000Y-48209000D02*
X168954000Y-48209000D01*
X156634000Y-39849000D02*
X156634000Y-31489000D01*
X162044000Y-48929000D02*
X161544000Y-48429000D01*
X168954000Y-31489000D02*
X168954000Y-39849000D01*
X156634000Y-31489000D02*
X168954000Y-31489000D01*
%TD*%
M02*
